<svg id="Capa_1" data-name="Capa 1" xmlns="http://www.w3.org/2000/svg" viewBox="0 0 39.9 61.43"><defs><style>.cls-1{fill:#d0d1d3;}</style></defs><title>down-arrow</title><g id="Layer_5" data-name="Layer 5"><path class="cls-1" d="M41.47,57.28,59.39,31.57c.87-1,.49-1.83-.84-1.83h-7.5a2.42,2.42,0,0,1-2.41-2.41l0-15.93V-1h0a2.42,2.42,0,0,0-2.41-2.4H33.54A2.42,2.42,0,0,0,31.13-1l0,28v.28a2.43,2.43,0,0,1-2.41,2.41h-7.5c-1.33,0-1.71.82-.85,1.83L38.34,57.28A2,2,0,0,0,41.47,57.28Z" transform="translate(-19.95 3.39)"/></g></svg>