<svg id="Capa_1" data-name="Capa 1" xmlns="http://www.w3.org/2000/svg" viewBox="0 0 61.43 39.9"><defs><style>.cls-1{fill:#d0d1d3;}</style></defs><title>right-arrow</title><g id="Layer_5" data-name="Layer 5"><path class="cls-1" d="M60.67,310,35,292.08c-1-.86-1.84-.48-1.84.85v7.5a2.42,2.42,0,0,1-2.41,2.41l-15.92,0H2.4v0A2.42,2.42,0,0,0,0,305.29v12.65a2.41,2.41,0,0,0,2.41,2.41l28,0h.28a2.41,2.41,0,0,1,2.4,2.41v7.5c0,1.32.83,1.7,1.84.84l25.71-17.92A2,2,0,0,0,60.67,310Z" transform="translate(0 -291.62)"/></g></svg>