<?xml version="1.0" standalone="no"?>
<!DOCTYPE svg PUBLIC "-//W3C//DTD SVG 1.1//EN" "http://www.w3.org/Graphics/SVG/1.1/DTD/svg11.dtd" >
<svg>
<metadata>
Created by FontForge 20090914 at Wed Mar 12 14:00:10 2014
 By www-data
Generated by ACES Consultants, Thane.
</metadata>
<defs>
<font id="AkrutiDevManojNormal" horiz-adv-x="6" >
  <font-face 
    font-family="AkrutiDevManoj"
    font-weight="400"
    font-stretch="normal"
    units-per-em="1000"
    panose-1="0 0 0 0 0 0 0 0 0 0"
    ascent="800"
    descent="-200"
    x-height="512"
    cap-height="512"
    bbox="-447 -325 940 800"
    underline-thickness="20"
    underline-position="-123"
    unicode-range="U+0020-U+2122"
  />
<missing-glyph horiz-adv-x="800" 
d="M50 0v800h700v-800h-700zM700 50v700h-600v-700h600z" />
    <glyph glyph-name=".notdef" horiz-adv-x="800" 
d="M50 0v800h700v-800h-700zM700 50v700h-600v-700h600z" />
    <glyph glyph-name="space" unicode=" " horiz-adv-x="225" 
 />
    <glyph glyph-name="exclam" unicode="!" horiz-adv-x="450" 
d="M300 641l31 -452h24l25 452h-80zM343 109l-57 -56l57 -55l55 55z" />
    <glyph glyph-name="quotedbl" unicode="&#x22;" horiz-adv-x="473" 
d="M272 293c17.333 -8 30.335 -14.999 39.002 -20.999c26 -19.333 39 -41.666 39 -66.999c0 -30.667 -16.833 -59.167 -50.5 -85.5s-72.5 -39.5 -116.5 -39.5c-26.667 0 -50.334 7 -71.001 21c-23.333 16 -35 36.333 -35 61c0 27.333 14.333 49.666 43 66.999
c16.667 10 44.667 21 84 33c9.33301 3.33301 23.666 9.66602 42.999 18.999c6 2.66699 14.333 6.66699 25 12zM403.002 172.001c0 46 -21.667 84.998 -65 116.998c-14 10.667 -36 22.334 -66 35.001v131h207v57h-485v-57h216v-96c0 -12 -3.33301 -20.667 -10 -26
c-4 -3.33301 -11.667 -7 -23 -11l-74 -24c-42 -22 -63 -55 -63 -99c0 -50 19.333 -92 58 -126c36.667 -32 79.667 -48 129 -48c46.667 0 87 13.333 121 40c36.667 28.667 55 64.334 55 107.001z" />
    <glyph glyph-name="numbersign" unicode="#" horiz-adv-x="365" 
d="M111 422c0 16 5.83008 29.499 17.4971 40.499s25.167 16.5 40.5 16.5c16.667 0 30.334 -5 41.001 -15s16 -21.333 16 -34c0 -18.667 -11.333 -36 -34 -52c-7.33301 -5.33301 -18.666 -11.666 -33.999 -18.999c-5.33301 0 -13.666 5.33301 -24.999 16
c-14.667 14 -22 29.667 -22 47zM370.997 454.999v57h-83l59 -57h24zM444.997 341.999c-13.333 -12 -24.6709 -20.9971 -34.0039 -26.9971c-30 -18.667 -61 -28 -93 -28c-20.667 0 -42.334 5.66699 -65.001 17c-7.33301 3.33301 -17 9.33301 -29 18
c10 7.33301 17.333 13.666 22 18.999c15.333 17.333 23 35.666 23 54.999c0 36 -14 66 -42 90c-25.333 21.333 -54.333 32 -87 32c-23.333 0 -43.666 -5.66699 -60.999 -17c-22 -14.667 -33 -34.667 -33 -60c0 -21.333 13.333 -44.333 40 -69c8.66699 -8 22 -18 40 -30
c-19.333 -10 -33.666 -18.667 -42.999 -26c-28.667 -24 -43 -51.333 -43 -82c0 -38 21 -74.667 63 -110c38 -32 71.333 -48 100 -48c6.66699 0 12.167 -0.333008 16.5 -1s7.83301 -1.66699 10.5 -3l49 -72l35 12l-57 64c8.66699 0 21.334 5.33301 38.001 16
c24 15.333 36 34 36 56c0 17.333 -4.66699 31.833 -14 43.5s-24 17.5 -44 17.5c-24 0 -40 -11 -48 -33c-2 -7.33301 -3.66699 -18.333 -5 -33c-4.66699 -2.66699 -8.66699 -4.33398 -12 -5.00098c-10.667 -3.33301 -22.334 -5 -35.001 -5c-27.333 0 -48.5 6.66699 -63.5 20
s-22.5 29.333 -22.5 48c0 23.333 17 48 51 74c28 21.333 46.333 32 55 32c18.667 -13.333 34.334 -23.333 47.001 -30c39.333 -20.667 76.333 -31 111 -31c26.667 0 47.334 1.5 62.001 4.5s25.334 6.16699 32.001 9.5v82z" />
    <glyph glyph-name="dollar" unicode="$" horiz-adv-x="275" 
d="M281 455v57h-287v-57h287zM355 299c-16.667 22 -30.668 38.334 -42.001 49.001c-36 33.333 -71.667 50 -107 50c-36.667 0 -74.667 -8.33301 -114 -25c-32 -13.333 -49.333 -23 -52 -29l55 -53c16 11.333 29.333 19.666 40 24.999c33.333 17.333 62.333 26 87 26
c30.667 0 58.334 -10.333 83.001 -31c19.333 -22 29.333 -33.333 30 -34l-228 -119l51 -49l197 118v72z" />
    <glyph glyph-name="percent" unicode="%" horiz-adv-x="260" 
d="M266 455v57h-268v-57h268zM342 373l-318.997 0.000976562v-37c38.667 -16 67.667 -29 87 -39c58 -31.333 87 -60 87 -86c0 -20.667 -10 -36.334 -30 -47.001c-6.66699 -3.33301 -16.667 -6.66602 -30 -9.99902c0 4.66699 -7 13.667 -21 27
c-16.667 16 -31.334 24 -44.001 24c-14.667 0 -26.834 -5.83301 -36.501 -17.5s-14.5 -24.834 -14.5 -39.501c0 -18.667 8.66699 -35 26 -49s35.666 -21 54.999 -21c4 0 8.83301 0.333008 14.5 1s11.167 1.66699 16.5 3l55 -84l33 12l-65 76c24 7.33301 42 14.333 54 21
c36 20.667 54 48 54 82c0 28.667 -23.667 58 -71 88c-15.333 10 -39.333 22.333 -72 37h221v59z" />
    <glyph glyph-name="ampersand" unicode="&#x26;" 
d="M-115 512h23.999c-9.33301 14 -16.333 25.667 -21 35c-14.667 30 -22 57.333 -22 82c0 23.333 6.83301 41.833 20.5 55.5s30.834 20.5 51.501 20.5c27.333 0 47.666 -3.33301 60.999 -10c2.66699 -1.33301 7.66699 -5.66602 15 -12.999l14 15
c-10 13.333 -19 23.333 -27 30c-24.667 20.667 -52 31 -82 31c-28 0 -50 -9.33301 -66 -28s-24 -43.334 -24 -74.001c0 -24.667 9 -55.667 27 -93c14.667 -31.333 24.334 -48.333 29.001 -51z" />
    <glyph glyph-name="quotesingle" unicode="'" horiz-adv-x="258" 
d="M163 668l-55 -59.002l27 -29c9.33301 -12 14 -27.667 14 -47c0 -24 -8 -47.667 -24 -71c-5.33301 -7.33301 -13.666 -16.666 -24.999 -27.999l18 -20c16 14 27.667 26 35 36c23.333 30.667 35 62.334 35 95.001c0 12.667 5 27.334 15 44.001
c3.33301 5.33301 8.66602 12.666 15.999 21.999z" />
    <glyph glyph-name="parenleft" unicode="(" horiz-adv-x="297" 
d="M250 717l-20 0.000976562c-3.33301 0 -18 -19.667 -44 -59c-35.333 -53.333 -63.333 -108.333 -84 -165c-30 -82.667 -45 -166.334 -45 -251.001c0 -85.333 15 -168 45 -248c22 -58.667 50 -112.667 84 -162c26 -38 41.333 -57 46 -57h20c-2 0 -13.333 21 -34 63
c-26.667 54 -48 110 -64 168c-23.333 82.667 -35 162.667 -35 240c0 84 11.333 167 34 249c16 58 37 112.333 63 163c20 39.333 31.333 59 34 59z" />
    <glyph glyph-name="parenright" unicode=")" horiz-adv-x="297" 
d="M193 246c0 -78.667 -11.334 -158.334 -34.001 -239.001c-16 -56.667 -37.333 -112.334 -64 -167.001c-18.667 -38 -30.667 -59.667 -36 -65h19c4 0 19.333 19 46 57c35.333 50 64 104 86 162c30.667 80.667 46 163.334 46 248.001c0 86 -15 169.667 -45 251
c-21.333 57.333 -49.666 112.333 -84.999 165c-26.667 39.333 -42 59 -46 59h-19c2.66699 0 14 -19.333 34 -58c25.333 -48.667 46.333 -103 63 -163c23.333 -83.333 35 -166.666 35 -249.999z" />
    <glyph glyph-name="asterisk" unicode="*" horiz-adv-x="463" 
d="M393 129c0 30.667 -13.8311 59.168 -41.498 85.501s-59.167 39.5 -94.5 39.5c-12.667 0 -23.667 -1 -33 -3c-22.667 -4.66699 -36.667 -7 -42 -7c-10 0 -19 5.33301 -27 16s-12 21.667 -12 33c0 8 3.66699 14.167 11 18.5s15.333 6.5 24 6.5h176v137h115v57h-475v-57h300
v-78h-131c-20 0 -36.167 -3.83301 -48.5 -11.5s-18.5 -21.5 -18.5 -41.5c0 -23.333 15.333 -53.833 46 -91.5s52 -56.5 64 -56.5c6 0 22.667 4.66699 50 14c14 4.66699 26 7 36 7c15.333 0 28.166 -3 38.499 -9s15.5 -14.667 15.5 -26
c0 -18.667 -11.833 -36.334 -35.5 -53.001s-46.167 -25 -67.5 -25c-52.667 0 -98.334 21.667 -137.001 65c-12.667 14 -27 36 -43 66l-23 -16c0 -12.667 21 -42 63 -88c52.667 -57.333 105.667 -86 159 -86c36.667 0 67.667 9.66699 93 29s38 44.333 38 75zM407.002 320.001
l-53 -55l53 -53l55 53z" />
    <glyph glyph-name="plus" unicode="+" horiz-adv-x="200" 
d="M206 455v57h-212v-57h212zM-80 242l122.999 24.0039l21 -65c-22 -2.66699 -38.333 -6.33398 -49 -11.001c-33.333 -15.333 -50 -41 -50 -77c0 -30.667 13.167 -58.834 39.5 -84.501s53.5 -38.5 81.5 -38.5c12.667 0 26.334 2 41.001 6l23 8l-23 59
c-2.66699 -2.66699 -13.667 -6.66699 -33 -12s-32 -8 -38 -8c-37.333 0 -56 12.333 -56 37c0 26 18.667 45.667 56 59c12 4 31 8.33301 57 13l-45 123c12.667 0 24 5 34 15s15 23.333 15 40c0 15.333 -6.33301 28.666 -19 39.999s-26.667 17 -42 17
c-16 0 -29 -5.33301 -39 -16s-15 -23.667 -15 -39c0 -4.66699 1.16699 -9.33398 3.5 -14.001l4.5 -9l-90 -16v-51z" />
    <glyph glyph-name="comma" unicode="," horiz-adv-x="258" 
d="M163 96l-55 -54.998l28 -31c2 -2.66699 4.33301 -8.5 7 -17.5s4 -18.167 4 -27.5c0 -20 -4.16699 -38.333 -12.5 -55s-19.833 -32.334 -34.5 -47.001l18 -15c16 14 27.667 25.667 35 35c23.333 30 35 61.333 35 94c0 11.333 5 25.666 15 42.999l15 23z" />
    <glyph glyph-name="hyphen" unicode="-" horiz-adv-x="368" 
d="M40 283v-56h258v56h-258z" />
    <glyph glyph-name="period" unicode="." horiz-adv-x="282" 
d="M157 109l-57 -56l57 -55l55 55z" />
    <glyph glyph-name="slash" unicode="/" horiz-adv-x="300" 
d="M289 694l-239 -708h-40l240 708h39z" />
    <glyph glyph-name="zero" unicode="0" horiz-adv-x="389" 
d="M186 400c-38 0 -71.833 -14.8311 -101.5 -44.498s-44.5 -64.834 -44.5 -105.501c0 -36 11.667 -68.833 35 -98.5s53.333 -44.5 90 -44.5c44.667 0 81.5 15.167 110.5 45.5s43.5 68.166 43.5 113.499c0 40 -11.667 72.333 -35 97s-56 37 -98 37zM212 152.002
c-28 0 -56.167 16.5 -84.5 49.5s-42.5 63.5 -42.5 91.5c0 15.333 6.5 30.833 19.5 46.5s27.833 23.5 44.5 23.5c30 0 58 -15.833 84 -47.5s39 -62.5 39 -92.5c0 -47.333 -20 -71 -60 -71z" />
    <glyph glyph-name="one" unicode="1" horiz-adv-x="355" 
d="M228 402c0 -27.333 -5.66699 -52.333 -17 -75c-16.667 -33.333 -30.667 -50 -42 -50c-14 7.33301 -24.333 14 -31 20c-20.667 19.333 -31 43.333 -31 72c0 20 7 39.667 21 59s29.667 29 47 29s30.5 -5.16699 39.5 -15.5s13.5 -23.5 13.5 -39.5zM134 -84l61 -71.998h33
c10.667 2.66699 18.834 6.5 24.501 11.5s8.5 12.833 8.5 23.5c0 12.667 -2.33301 23 -7 31c-8 9.33301 -14 16.666 -18 21.999l-133 172l125 132c38 40 57 82.333 57 127c0 39.333 -14.333 74.333 -43 105s-61.334 46 -98.001 46c-27.333 0 -51.5 -10.833 -72.5 -32.5
s-31.5 -51.167 -31.5 -88.5c0 -34 18.333 -67.667 55 -101c12 -10.667 30.333 -24 55 -40l-110 -115l139 -172l7.5 -12c3 -4.66699 4.5 -9.33398 4.5 -14.001c0 -9.33301 -2.5 -15.5 -7.5 -18.5s-13.5 -5.16699 -25.5 -6.5z" />
    <glyph glyph-name="two" unicode="2" horiz-adv-x="452" 
d="M40 488l37.002 -68.001c2.66699 2.66699 23 9.66699 61 21c45.333 13.333 82.333 20 111 20c30.667 0 55.167 -8.83301 73.5 -26.5s27.5 -39.5 27.5 -65.5c0 -40 -23.667 -77 -71 -111c-15.333 -11.333 -39 -24.333 -71 -39c-4 15.333 -8 26.666 -12 33.999
c-12 22.667 -28.333 34 -49 34c-13.333 0 -24.5 -5.16699 -33.5 -15.5s-13.5 -22.166 -13.5 -35.499c0 -20 8.66699 -38 26 -54s36.666 -24 57.999 -24h34l76 -138l90 -139l23 14l-33 48c-25.333 36.667 -44.333 65.334 -57 86.001c-10 16 -26.333 44.667 -49 86l-27 49
c39.333 13.333 71.666 34.333 96.999 63c29.333 33.333 44 72.333 44 117c0 53.333 -19.5 95 -58.5 125s-89.167 45 -150.5 45c-19.333 0 -47.333 -4.33301 -84 -13c-12 -2.66699 -28.333 -7 -49 -13z" />
    <glyph glyph-name="three" unicode="3" horiz-adv-x="423" 
d="M171 271c41.333 0 74.334 -4.66699 99.001 -14c33.333 -12.667 50 -33.334 50 -62.001c0 -22 -6 -39.833 -18 -53.5s-31 -20.5 -57 -20.5l-21 2c-6.66699 10 -12 17.333 -16 22c-14 15.333 -29 23 -45 23c-14.667 0 -27 -4.66699 -37 -14s-15 -23 -15 -41
c0 -22.667 10.667 -40 32 -52c16.667 -9.33301 36.334 -14 59.001 -14h34l89 -176l32 12l-98 174c12 4 21.667 8 29 12c43.333 24 65 60.333 65 109c0 37.333 -11.333 68.666 -34 93.999c-7.33301 8 -19 17 -35 27l26 23c8 14 12 31.667 12 53
c0 45.333 -17.167 79.833 -51.5 103.5s-77.166 35.5 -128.499 35.5c-20.667 0 -38.334 -0.666992 -53.001 -2s-31 -2.66602 -49 -3.99902l32 -67c13.333 2.66699 23.666 4.66699 30.999 6c23.333 4 41.333 6 54 6c40 0 69 -2.33301 87 -7c30.667 -8 46 -23.333 46 -46
c0 -21.333 -11.833 -37.666 -35.5 -48.999s-50.834 -17 -81.501 -17h-94l34 -63h58z" />
    <glyph glyph-name="four" unicode="4" horiz-adv-x="431" 
d="M87 523l-31.998 -30c-10 -15.333 -15 -32 -15 -50c2.66699 -24 25.667 -56.333 69 -97c14.667 -13.333 36.667 -31.666 66 -54.999c-22.667 -15.333 -39.334 -28.333 -50.001 -39c-34 -32.667 -51 -63.334 -51 -92.001c0 -37.333 14.333 -72 43 -104
c31.333 -34.667 68.333 -52 111 -52c39.333 0 69 12.167 89 36.5s30 55.166 30 92.499c0 18.667 -9.66699 39.667 -29 63c-25.333 30 -47.666 50 -66.999 60c24.667 18 43 33 55 45c36.667 36 55 69.667 55 101c0 23.333 -8.66699 46.333 -26 69
c-5.33301 7.33301 -14.333 16.333 -27 27l-29 -12c9.33301 -4.66699 18.166 -13.667 26.499 -27s12.5 -26.333 12.5 -39c0 -16.667 -20.333 -41 -61 -73c-36.667 -29.333 -58 -44 -64 -44c-18.667 16 -32.334 28.667 -41.001 38c-27.333 29.333 -41 53.666 -41 72.999
c0 14.667 3.33301 27.834 10 39.501s17.667 21.834 33 30.501zM230.002 244c6 -2 15.999 -13.667 29.999 -35c17.333 -26 26 -48.667 26 -68c0 -29.333 -6.5 -53 -19.5 -71s-32.5 -27 -58.5 -27c-24.667 0 -44.167 9 -58.5 27s-21.5 39 -21.5 63c0 20 16.333 44.333 49 73
c28.667 25.333 46.334 38 53.001 38z" />
    <glyph glyph-name="five" unicode="5" horiz-adv-x="413" 
d="M378 0l-82 226.001c6 1.33301 14.667 8.66602 26 21.999c15.333 18 23 37 23 57c0 4 -0.666992 10 -2 18c-4.66699 22.667 -13 40.167 -25 52.5s-25.333 18.5 -40 18.5c-6.66699 0 -13.334 -1.66699 -20.001 -5c-10 -6 -17.167 -13.167 -21.5 -21.5
s-6.5 -17.5 -6.5 -27.5c0 -12.667 3 -26.667 9 -42c2 -4.66699 5 -11 9 -19c-10 -5.33301 -18 -9 -24 -11c-20 -8 -36 -12 -48 -12c-29.333 0 -51.166 5 -65.499 15s-21.5 28.667 -21.5 56c0.666992 6.66699 1 11.667 1 15c0 32 12.333 72 37 120c20.667 40 34 61.667 40 65
l-71 24c-4 -4 -13.333 -24 -28 -60c-18.667 -46 -28 -82.667 -28 -110c0 -50.667 12.5 -93.667 37.5 -129s58.5 -53 100.5 -53c19.333 0 39 1.66699 59 5s32 7 36 11l59 -215h46z" />
    <glyph glyph-name="six" unicode="6" horiz-adv-x="444" 
d="M118 184c0 -41.333 14.999 -74.834 44.999 -100.501s62.333 -38.5 97 -38.5l100 -180l25 12l-99 170c20 2.66699 34.667 6 44 10c29.333 12.667 44 34.667 44 66c0 30 -19 45 -57 45c-20 0 -35.667 -8 -47 -24c-3.33301 -5.33301 -7.33301 -13.666 -12 -24.999l-14 -4
c-4.66699 -1.33301 -9.66699 -2 -15 -2c-16.667 0 -32.667 6 -48 18c-18.667 14.667 -28 34 -28 58c0 23.333 9.83301 43.833 29.5 61.5s42.5 26.5 68.5 26.5h45l-22 63h-98c-28 0 -50.667 4 -68 12c-22 10 -33 25.333 -33 46c0 18 9.16699 31.333 27.5 40
s39.833 13 64.5 13h134l-25 63h-94c-36.667 0 -69.5 -12.5 -98.5 -37.5s-43.5 -54.167 -43.5 -87.5c0 -32.667 12.333 -59.667 37 -81c20.667 -18 40.667 -27 60 -27l32 -4c-11.333 -8.66699 -19.666 -16.334 -24.999 -23.001c-17.333 -21.333 -26 -44.666 -26 -69.999z" />
    <glyph glyph-name="seven" unicode="7" horiz-adv-x="521" 
d="M267 338c-2 20 5.16699 37.667 21.5 53s34.5 23 54.5 23c16 0 28.167 -4.83301 36.5 -14.5s12.5 -21.834 12.5 -36.501c0 -21.333 -7.33301 -38.666 -22 -51.999s-32.667 -20 -54 -20c-14 0 -25.667 4.33301 -35 13s-14 20 -14 34zM40 496
c-0.666992 -6 -1.00098 -10.999 -1.00098 -14.999c0 -48.667 4 -96.334 12 -143.001c13.333 -78 35.333 -140.333 66 -187c41.333 -62.667 96 -94 164 -94c48.667 0 89.167 18.167 121.5 54.5s48.5 85.833 48.5 148.5c0 55.333 -11.333 102 -34 140
c-27.333 46 -65.666 69 -114.999 69c-21.333 0 -40 -7 -56 -21c-18.667 -16.667 -28 -39.667 -28 -69c0 -34.667 12.667 -66.5 38 -95.5s55.666 -43.5 90.999 -43.5c20.667 0 37.334 4.66699 50.001 14c4 2.66699 8.33301 7.33398 13 14.001l3 -38
c0 -33.333 -14.667 -60.333 -44 -81c-26.667 -18.667 -58.667 -28 -96 -28c-66.667 0 -118 32 -154 96c-38 67.333 -57 159.666 -57 276.999v14.5v5.5z" />
    <glyph glyph-name="eight" unicode="8" horiz-adv-x="382" 
d="M312 191c-10.667 -37.333 -21.001 -64.999 -31.001 -82.999c-30.667 -55.333 -70 -83 -118 -83c-38 0 -67.667 11 -89 33s-32 48.667 -32 80c0 14.667 3.33301 31 10 49l135 341h63l-135 -341c-4 -10.667 -6.83301 -19.834 -8.5 -27.501s-2.5 -16.167 -2.5 -25.5
c0 -18.667 5.33301 -33 16 -43c13.333 -12.667 35 -19 65 -19c32.667 0 59.667 21.333 81 64c6.66699 14 14.334 35.667 23.001 65z" />
    <glyph glyph-name="nine" unicode="9" horiz-adv-x="355" 
d="M218 369c0 20 -7 39.667 -21 59s-29.667 29 -47 29s-30.5 -5.16699 -39.5 -15.5s-13.5 -23.5 -13.5 -39.5c0 -27.333 5.66699 -52.333 17 -75c16.667 -33.333 30.667 -50 42 -50c14 7.33301 24.333 14 31 20c20.667 19.333 31 43.333 31 72zM89 -68l133 172l-125 132
c-38 40 -57 82.333 -57 127c0 39.333 14.333 74.333 43 105s61.334 46 98.001 46c27.333 0 51.5 -10.833 72.5 -32.5s31.5 -51.167 31.5 -88.5c0 -34 -18.333 -67.667 -55 -101c-12 -10.667 -30.333 -24 -55 -40l110 -115l-178 -221
c-8.66699 -11.333 -20.334 -17 -35.001 -17c-12 0 -22.167 4.83301 -30.5 14.5s-12.5 24.167 -12.5 43.5l15 2c0 -10.667 2.66699 -19.5 8 -26.5s11.333 -10.5 18 -10.5c8 0 14.333 3.33301 19 10z" />
    <glyph glyph-name="colon" unicode=":" horiz-adv-x="482" 
d="M357 172l-57 -53l57 -55l55 55zM357 445l-57 -56l57 -55l55 55z" />
    <glyph glyph-name="semicolon" unicode=";" horiz-adv-x="482" 
d="M357 389l-57 -55l57 -53l55 53zM357 96l-55.001 -54.999l28 -31c2.66699 -2.66699 5.5 -8.66699 8.5 -18s4.5 -18.333 4.5 -27c0 -24.667 -7.66699 -48.667 -23 -72c-5.33301 -8 -14 -18 -26 -30l18 -15l36 35c24 30 36 61.333 36 94c0 11.333 4.66699 25.666 14 42.999
c2.66699 5.33301 7.33398 13 14.001 23z" />
    <glyph glyph-name="less" unicode="&#x3c;" horiz-adv-x="216" 
d="M107 441l172 -207c-9.33301 -9.33301 -17.333 -16 -24 -20c-22 -14 -46 -21 -72 -21c-28.667 0 -48.5 7 -59.5 21s-16.5 35 -16.5 63v164zM296 250l-172 204.999h98v57h-228v-57h46v-152c0 -40.667 22.333 -77.667 67 -111c39.333 -29.333 75 -44 107 -44
c21.333 0 41.333 4.66699 60 14c6 2.66699 13.333 7.33398 22 14.001v74z" />
    <glyph glyph-name="equal" unicode="=" 
d="M-144 -14c2 0.666992 6.49902 1.33008 13.499 1.99707s17.5 1 31.5 1h26.5c6.33301 0 10.833 -0.333008 13.5 -1l-30 57c-3.33301 0.666992 -7.66602 1.16699 -12.999 1.5s-12.333 0.5 -21 0.5h-14.5c-4.33301 0 -11.833 -1.33301 -22.5 -4
c-45.333 -11.333 -80 -27.666 -104 -48.999c-28 -25.333 -42 -58.666 -42 -99.999c0 -34 15.667 -63.667 47 -89s65 -38 101 -38c34.667 0 68.667 11.333 102 34c12.667 8.66699 27 21 43 37l-47 45c0 -6 -13.333 -18.667 -40 -38c-32.667 -23.333 -64.334 -35 -95.001 -35
c-19.333 0 -35.166 5.83301 -47.499 17.5s-18.5 26.834 -18.5 45.501c0 29.333 12 54 36 74c19.333 16 46.333 29 81 39z" />
    <glyph glyph-name="greater" unicode="&#x3e;" 
d="M-116 218v61.001l-191 -119c-13.333 -8.66699 -23 -16.667 -29 -24c-8 -10 -12 -21 -12 -33c0 -14.667 14.333 -30.334 43 -47.001s50 -25 64 -25c10 0 16 3.66699 18 11c0 5.33301 -2.66699 13.333 -8 24l-10 19l-12 28c0 10 5.33301 17.667 16 23z" />
    <glyph glyph-name="question" unicode="?" horiz-adv-x="638" 
d="M300 627l33.001 -72.002c14 18.667 25.667 32.667 35 42c28 28 53.667 42 77 42c28 0 49.667 -9.16699 65 -27.5s23 -41.166 23 -68.499c0 -37.333 -22.333 -71.333 -67 -102c-14.667 -10 -37.334 -21.667 -68.001 -35v-217h35v84c0 32.667 4 54 12 64
c11.333 6.66699 19.666 12.334 24.999 17.001c28 16.667 49 33.667 63 51c23.333 29.333 35 65.666 35 108.999c0 45.333 -12 85.333 -36 120c-28.667 40.667 -67.667 61 -117 61c-27.333 0 -54.666 -11.333 -81.999 -34c-8.66699 -7.33301 -19.667 -18.666 -33 -33.999z
M414.001 104.998l-55 -52l55 -55l56 55z" />
    <glyph glyph-name="at" unicode="@" 
d="M28 688v46h-63l2 -37c0 -29.333 -9.33301 -50.333 -28 -63c-14.667 -10 -36 -15 -64 -15c-40 0 -77.667 21.333 -113 64c-11.333 14 -25 35.667 -41 65l-23 -10c20 -37.333 37.333 -65 52 -83c45.333 -55.333 94.333 -83 147 -83c41.333 0 73.5 11.5 96.5 34.5
s34.5 50.167 34.5 81.5z" />
    <glyph glyph-name="A" unicode="A" 
d="M-27 652l-41 -43l41 -41l43 41zM-310 734c-36.667 0 -65.666 -11.666 -86.999 -34.999s-32 -52 -32 -86c0 -30 8.33301 -55.667 25 -77c5.33301 -6.66699 14 -14.667 26 -24h37c-5.33301 4.66699 -9.33301 8.66699 -12 12c-18 22 -27 47.333 -27 76
c0 20.667 7.5 38.834 22.5 54.501s32.833 23.5 53.5 23.5c52 0 98.667 -27.667 140 -83c13.333 -18 28.666 -45.667 45.999 -83h29l-9 21c-6.66699 15.333 -16 33.666 -28 54.999c-4 13.333 -6 27 -6 41c0 23.333 6.83301 41.833 20.5 55.5s30.834 20.5 51.501 20.5
c27.333 0 47.666 -3.33301 60.999 -10c2.66699 -1.33301 7.66699 -5.66602 15 -12.999l14 15c-10 13.333 -19 23.333 -27 30c-24.667 20.667 -52 31 -82 31c-28 0 -50 -9.33301 -66 -28s-24 -43.334 -24 -74.001c-18.667 21.333 -38.667 38.666 -60 51.999
c-27.333 17.333 -54.333 26 -81 26z" />
    <glyph glyph-name="B" unicode="B" 
d="M-136 756l-45 -47l45 -43l47 43zM28 688v46h-63l2 -37c0 -29.333 -9.33301 -50.333 -28 -63c-14.667 -10 -36 -15 -64 -15c-40 0 -77.667 21.333 -113 64c-11.333 14 -25 35.667 -41 65l-23 -10c20 -37.333 37.333 -65 52 -83c45.333 -55.333 94.333 -83 147 -83
c41.333 0 73.5 11.5 96.5 34.5s34.5 50.167 34.5 81.5z" />
    <glyph glyph-name="C" unicode="C" horiz-adv-x="350" 
d="M107 283l0.000976562 172.001h105v-191c0 -14 -5 -25.667 -15 -35s-24 -14 -42 -14c-12.667 1.33301 -23.334 6.66602 -32.001 15.999c-10.667 12 -16 29.333 -16 52zM280.001 455.001l75 0.000976562v57h-361v-57h46v-133c0 -36.667 19 -72.667 57 -108
c36 -33.333 69 -50 99 -50c28 0 49.667 10.667 65 32c12.667 17.333 19 36.666 19 57.999v201z" />
    <glyph glyph-name="D" unicode="D" horiz-adv-x="351" 
d="M431 332c-13.333 -10 -24 -17.332 -32 -21.999c-26 -15.333 -47.333 -23 -64 -23c-22 0 -43.333 5.33301 -64 16l-37 17c16 5.33301 28 10.666 36 15.999c24 16.667 36 40 36 70c0 36 -13.167 63.667 -39.5 83s-59.5 29 -99.5 29c-30.667 0 -58 -4.66699 -82 -14
c-8 -2.66699 -17 -7.33398 -27 -14.001l37 -49c11.333 8 21.333 14 30 18c26 12 53.667 18 83 18c20 0 34.833 -4.16699 44.5 -12.5s14.5 -19.166 14.5 -32.499c0 -32.667 -24.5 -56 -73.5 -70s-76.5 -18 -82.5 -12l41 -53l45 2c22.667 0 42.334 -6.33301 59.001 -19
s25 -29.334 25 -50.001c0 -24 -7.83301 -41.333 -23.5 -52s-34.5 -16 -56.5 -16c-42 0 -78 25 -108 75c-10 16.667 -21 42 -33 76l-22 -14c16.667 -44 31.667 -76.667 45 -98c41.333 -66 89 -99 143 -99c33.333 0 59.833 9.5 79.5 28.5s29.5 43.167 29.5 72.5
c0 7.33301 -0.833008 14.333 -2.5 21s-3.83398 13.334 -6.50098 20.001c6 -2.66699 11 -4.66699 15 -6c12 -4 23.667 -6 35 -6c12.667 0 27 2 43 6c2.66699 0.666992 6.66699 2 12 4v90zM357 512.001h-61l46 -57h15v57z" />
    <glyph glyph-name="E" unicode="E" 
d="M382 722l-49 -50l49 -53l53 53zM-75 512c-4.66699 7.33301 -7.66699 14.6689 -9 22.002c-3.33301 14 -5 29.333 -5 46c0 38 14.333 66.667 43 86c24.667 16.667 56.667 25 96 25c50 0 101 -15.333 153 -46c38 -22.667 74 -51.334 108 -86.001l40 -47h27l-48 58
c-41.333 44.667 -84.333 81 -129 109c-62.667 39.333 -124 59 -184 59c-46.667 0 -85.667 -11 -117 -33c-36.667 -26 -55 -62.333 -55 -109c0 -18.667 3.66699 -38 11 -58c2 -6.66699 6 -15.334 12 -26.001h57z" />
    <glyph glyph-name="F" unicode="F" horiz-adv-x="411" 
d="M302 180c0 -28.667 -15.666 -50 -46.999 -64s-49.333 -18.667 -54 -14c-6.66699 11.333 -12.667 19.666 -18 24.999c-16.667 16.667 -36.667 25 -60 25c-10 0 -18.5 -4.83301 -25.5 -14.5s-10.5 -19.834 -10.5 -30.501c0 -20 9.83301 -38 29.5 -54s42.5 -24 68.5 -24
c8 0 18.667 1 32 3s20.333 3 21 3l94 -111l29 13l-102 112c18.667 8 32.334 15.667 41.001 23c27.333 22 41 50 41 84c0 26.667 -11.833 53.5 -35.5 80.5s-48.167 40.5 -73.5 40.5c-21.333 0 -41.333 -3.83301 -60 -11.5s-30.667 -11.5 -36 -11.5
c-14.667 0 -26.834 4.5 -36.501 13.5s-14.5 22.167 -14.5 39.5c0 12 3.66699 20.167 11 24.5s16.666 6.5 27.999 6.5h161v117h132v57h-423v-57h246v-60h-117c-22 0 -39.333 -3 -52 -9c-20.667 -9.33301 -31 -26.666 -31 -51.999c0 -27.333 14.667 -55.666 44 -84.999
s55.333 -44 78 -44c10.667 0 30.334 5 59.001 15c13.333 4.66699 26.666 7 39.999 7c16 0 26.833 -4.33301 32.5 -13s8.5 -20 8.5 -34z" />
    <glyph glyph-name="G" unicode="G" horiz-adv-x="498" 
d="M428 133c0 31.333 -12.333 62.666 -37 93.999c-8 10 -20.333 22.333 -37 37c16 5.33301 28 11 36 17c24 18 36 42.667 36 74c0 28.667 -5.33301 53.334 -16 74.001c-5.33301 10 -11.666 18.667 -18.999 26h113v57h-510v-57h343c10.667 0 21 -7.83301 31 -23.5
s15 -29.834 15 -42.501c0 -27.333 -10.667 -47 -32 -59c-16.667 -9.33301 -38.334 -14 -65.001 -14h-100l31 -60h61c25.333 0 47.333 -7.66699 66 -23s28 -35.666 28 -60.999c0 -30 -8.5 -53.167 -25.5 -69.5s-41.167 -24.5 -72.5 -24.5c-33.333 0 -68 18.667 -104 56
c-26 26.667 -52 62 -78 106c-10.667 18.667 -21 37.667 -31 57l-21 -14c0 -5.33301 12.667 -29 38 -71c30.667 -51.333 62 -93.666 94 -126.999c44 -46 84 -69 120 -69c42.667 0 76 10.667 100 32s36 49.666 36 84.999z" />
    <glyph glyph-name="H" unicode="H" horiz-adv-x="206" 
d="M212 512h-217.999v-57h46v-115c0 -40 21.667 -76.667 65 -110c38 -29.333 72.333 -44 103 -44c21.333 0 40.666 4.66699 57.999 14c5.33301 2.66699 12 7.66699 20 15v82c-10 -16 -18.667 -27.667 -26 -35c-23.333 -23.333 -50.333 -35 -81 -35
c-22 0 -39.5 7.83301 -52.5 23.5s-19.5 36.5 -19.5 62.5v142h105v57z" />
    <glyph glyph-name="I" unicode="I" horiz-adv-x="279" 
d="M285 512l-290.998 -0.00195312v-57h64c-3.33301 -4 -6.33301 -8 -9 -12c-6 -9.33301 -9 -18.333 -9 -27c0 -26.667 17.333 -48 52 -64c11.333 -5.33301 28.666 -10.666 51.999 -15.999c-8 -2.66699 -14 -5 -18 -7c-27.333 -15.333 -41 -38.333 -41 -69
c0 -34 13.333 -62.667 40 -86s56.334 -35 89.001 -35c31.333 0 65 9.33301 101 28c11.333 6 26 15.333 44 28v96c0 -8.66699 -18 -27.667 -54 -57c-44 -36 -86.667 -54 -128 -54c-14.667 0 -26.834 4.33301 -36.501 13s-14.5 21.667 -14.5 39
c0 21.333 8.16699 38.5 24.5 51.5s38.166 19.5 65.499 19.5l88 4l-67 52h-56c-22.667 0 -39 2.33301 -49 7c-16.667 8 -25 22.667 -25 44c0 12.667 4.66699 23.334 14 32.001s20 13 32 13h132v57z" />
    <glyph glyph-name="J" unicode="J" horiz-adv-x="224" 
d="M230 455v57h-236v-57h236zM304 266c-16.667 -17.333 -31 -30.3311 -43 -38.998c-36 -26 -72.333 -39 -109 -39c-17.333 0 -31.833 5.83301 -43.5 17.5s-17.5 24.5 -17.5 38.5c0 24.667 15.167 44.167 45.5 58.5s59.5 21.5 87.5 21.5c22.667 0 42.667 -4.33301 60 -13
c5.33301 -2.66699 12 -7.33398 20 -14.001v27c-6 11.333 -23.333 25.333 -52 42c-22 12.667 -42.333 19 -61 19c-34.667 0 -67 -9 -97 -27c-36 -22 -54 -49.667 -54 -83c0 -32.667 17.333 -63.334 52 -92.001c32 -26.667 61.667 -40 89 -40c28 0 56.667 6.66699 86 20
c10 4 22.333 11 37 21v82z" />
    <glyph glyph-name="K" unicode="K" horiz-adv-x="376" 
d="M382 512l-388.001 0.00195312v-57h128c3.33301 -4 6 -9.83301 8 -17.5s3 -18.167 3 -31.5c0 -17.333 -2 -35 -6 -53c-1.33301 -6 -3.66602 -13.667 -6.99902 -23c-7.33301 6.66699 -13 11.667 -17 15c-12.667 10 -22 14.667 -28 14c-13.333 0 -22.5 -3.33301 -27.5 -10
s-7.5 -15.667 -7.5 -27c0 -42.667 31 -93.667 93 -153c68 -64.667 135 -97 201 -97c30.667 0 59.667 5.66699 87 17c17.333 7.33301 29 14 35 20v57c-14.667 -12.667 -27.667 -22 -39 -28c-36.667 -19.333 -78 -29 -124 -29c-34.667 0 -73 17.333 -115 52
c-14 11.333 -31.667 28.666 -53 51.999c13.333 14.667 23 27.667 29 39c20 36 30 75 30 117c0 28 -3.33301 52.333 -10 73c-0.666992 3.33301 -2.66699 7.66602 -6 12.999h214v57zM455.999 334.002c-12 14 -21.9971 24.3311 -29.9971 30.998c-26 20.667 -52.667 31 -80 31
c-32 0 -59.5 -9.16699 -82.5 -27.5s-34.5 -41.5 -34.5 -69.5c0 -36 14.667 -65.667 44 -89c25.333 -20 51.666 -30 78.999 -30c26 0 51 7.33301 75 22c8 4.66699 17.667 12.334 29 23.001v74c-12 -15.333 -22.667 -26.666 -32 -33.999c-29.333 -23.333 -61 -35 -95 -35
c-14 0 -27 3.33301 -39 10c-16 9.33301 -24 21 -24 35c0 18.667 11.667 34.5 35 47.5s47.666 19.5 72.999 19.5c19.333 0 38.666 -4.66699 57.999 -14c6 -2.66699 14 -7.66699 24 -15v21z" />
    <glyph glyph-name="L" unicode="L" horiz-adv-x="286" 
d="M292 512h-65l46 -57h19v57zM366 307c-18 -25.333 -32.9971 -43.998 -44.9971 -55.998c-37.333 -37.333 -75 -56 -113 -56c-23.333 0 -45.333 7.66699 -66 23l-26 26c26.667 0 59.667 15.667 99 47c30 24 45 51.333 45 82c0 31.333 -15.333 63.666 -46 96.999
c-32.667 35.333 -67.334 53 -104.001 53c-17.333 0 -32.666 -6.33301 -45.999 -19s-20 -28.334 -20 -47.001c0 -30 14.667 -57.667 44 -83c9.33301 -8 24.333 -18 45 -30l14 15c-10.667 7.33301 -18.334 13.333 -23.001 18c-16 16 -24 33.667 -24 53
c0 15.333 5.16699 26.666 15.5 33.999s22.166 11 35.499 11c17.333 0 31.5 -7.16699 42.5 -21.5s16.5 -30.166 16.5 -47.499c0 -42 -28 -73.667 -84 -95c-50.667 -18.667 -79.334 -24.667 -86.001 -18c26 -32.667 47 -57 63 -73c50 -49.333 94 -74 132 -74
c31.333 0 62.333 8.66699 93 26c10 5.33301 22.667 14.333 38 27v108z" />
    <glyph glyph-name="M" unicode="M" horiz-adv-x="362" 
d="M230 373c0 -25.333 -5 -45.001 -15 -59.001s-26 -21 -48 -21c-15.333 0 -27.5 6.5 -36.5 19.5s-13.5 28.5 -13.5 46.5c0 28.667 5.83301 52.167 17.5 70.5s28.5 27.5 50.5 27.5c16 0 28 -9.66699 36 -29c6 -15.333 9 -33.666 9 -54.999zM368 454.999l-0.000976562 56.998
h-374v-57h123c-14.667 -10 -25.334 -18.667 -32.001 -26c-22 -23.333 -33 -49 -33 -77c0 -28.667 8.83301 -51.167 26.5 -67.5s40.834 -24.5 69.501 -24.5c20.667 0 38 3.33301 52 10c6.66699 3.33301 12.667 7.66602 18 12.999
c-1.33301 -9.33301 -2.33301 -16.666 -3 -21.999c-3.33301 -16.667 -7.5 -31.667 -12.5 -45s-12.833 -25.666 -23.5 -36.999c-3.33301 -4 -8.66602 -8.33301 -15.999 -13c-10.667 12 -19.334 21 -26.001 27c-21.333 18.667 -39.333 28 -54 28
c-10.667 0 -20.5 -4.16699 -29.5 -12.5s-13.5 -18.5 -13.5 -30.5c0 -16 11 -29.667 33 -41c18 -9.33301 35.667 -14 53 -14h37l75 -111l25 19l-80 102c24 14 42 27.667 54 41c36.667 40.667 55 91.334 55 152.001c0 32.667 -8.33301 64 -25 94
c-5.33301 9.33301 -13.666 21 -24.999 35h126z" />
    <glyph glyph-name="N" unicode="N" horiz-adv-x="208" 
d="M-6 512v-57h220v57h-220zM40 316l5.99902 -23c14 -14 37.5 -27.333 70.5 -40s66.167 -19 99.5 -19c22 0 38 0.666992 48 2s18 2.66602 24 3.99902v67c-8.66699 -4 -16.667 -7 -24 -9c-22 -6 -47.333 -9 -76 -9c-35.333 0 -70.333 4.33301 -105 13
c-11.333 2.66699 -25.666 7.33398 -42.999 14.001z" />
    <glyph glyph-name="O" unicode="O" horiz-adv-x="292" 
d="M146 490c15.333 0 26.333 -4.16797 33 -12.501s10 -18.5 10 -30.5c0 -9.33301 -4.16699 -18.166 -12.5 -26.499s-17.833 -12.5 -28.5 -12.5c-22 0 -38.667 6.33301 -50 19c-3.33301 4 -7 10.667 -11 20c0 10.667 5.5 20.5 16.5 29.5s25.167 13.5 42.5 13.5zM298 454.999
v57h-57l28 -57h29zM372 257.999c-23.333 -26.667 -42.333 -46.667 -57 -60c-46 -40.667 -88 -61 -126 -61c-20 0 -36.333 4.66699 -49 14c-15.333 11.333 -23 26.666 -23 45.999c0 28 14 49 42 63c22 11.333 47.667 17 77 17h70l-55 55h-52h-14c-16 0 -30 1.33301 -42 4
s-22 8.66699 -30 18c-5.33301 6.66699 -10.333 15.667 -15 27s-7 18.333 -7 21c6 -6 10 -9.66699 12 -11c10.667 -6.66699 25 -10 43 -10s33.333 5 46 15c16 12.667 24 31 24 55c0 20.667 -7.66699 37 -23 49s-35 18 -59 18c-26.667 0 -49 -7.66699 -67 -23s-27 -35 -27 -59
c0 -41.333 16.667 -75 50 -101c10.667 -8 27.334 -16.667 50.001 -26c-14 -6 -24.333 -12 -31 -18c-20.667 -18 -31 -41.333 -31 -70c0 -33.333 14.167 -63.166 42.5 -89.499s60.166 -39.5 95.499 -39.5c38 0 75.333 11.667 112 35c12 7.33301 26.667 19 44 35v96z" />
    <glyph glyph-name="P" unicode="P" horiz-adv-x="331" 
d="M337 455l0.00195312 57.001h-343v-57h223v-57h-97c-22.667 0 -41.667 -4.16699 -57 -12.5s-23 -22.833 -23 -43.5c0 -23.333 10.333 -49.333 31 -78s40.334 -43 59.001 -43c18 0 36 4.16699 54 12.5s29 12.5 33 12.5c24 0 36 -12.333 36 -37c0 -22 -15.333 -41 -46 -57
c-10 -4.66699 -25.333 -10.334 -46 -17.001c-8.66699 8.66699 -15.667 15 -21 19c-17.333 13.333 -31.333 20 -42 20c-12.667 0 -23.334 -3.66699 -32.001 -11s-13 -17.333 -13 -30c0 -21.333 9 -38.666 27 -51.999c15.333 -11.333 31.333 -17 48 -17
s29.334 0.833008 38.001 2.5s16 3.5 22 5.5l61 -74l27 18l-64 66c18.667 8 32.334 15.667 41.001 23c27.333 23.333 41 54 41 92c0 12.667 -4 25 -12 37c-2.66699 3.33301 -6.66699 8 -12 14l31.5 -7.5c13 -3 24.833 -4.5 35.5 -4.5c21.333 0 38.166 2.16699 50.499 6.5
s20.166 8.16602 23.499 11.499v72c-12.667 -8.66699 -23 -15 -31 -19c-25.333 -13.333 -46.333 -20 -63 -20c-18.667 0 -34.667 1 -48 3c-30.667 4.66699 -48.334 7 -53.001 7c-14.667 0 -32.334 -3.33301 -53.001 -10s-35 -10 -43 -10c-23.333 0 -35 10 -35 30
c0 16 4 26.833 12 32.5s18.333 8.5 31 8.5h136v107h73z" />
    <glyph glyph-name="Q" unicode="Q" 
d="M-29 699l-51 -47l51 -51l51 51zM-132 540l-53 135.001h-55c-4 7.33301 -6 13.666 -6 18.999c0 10 4.5 17.667 13.5 23s20.5 8 34.5 8c17.333 0 32.5 -4 45.5 -12s21.167 -20.667 24.5 -38l33 -163h-41l-138 73h-35c-8.66699 10 -15.167 19 -19.5 27s-6.5 14.333 -6.5 19
c0 8 5.66699 12 17 12c13.333 0 30.5 -4.5 51.5 -13.5s40.167 -20.167 57.5 -33.5z" />
    <glyph glyph-name="R" unicode="R" 
d="M-44 709l-49 -47l49 -51l51 51zM-91 512l-23.999 56.999c-21.333 44 -45.333 79.667 -72 107c-38 38.667 -78.333 58 -121 58c-36.667 0 -65.667 -11.667 -87 -35s-32 -52 -32 -86c0 -30 8.33301 -55.667 25 -77c5.33301 -6.66699 14 -14.667 26 -24h37
c-5.33301 4.66699 -9.33301 8.66699 -12 12c-18 22 -27 47.333 -27 76c0 20.667 7.5 38.834 22.5 54.501s32.833 23.5 53.5 23.5c52 0 98.667 -27.667 140 -83c13.333 -18 28.666 -45.667 45.999 -83h25z" />
    <glyph glyph-name="S" unicode="S" horiz-adv-x="416" 
d="M219 199l41.002 -40.9971c9.33301 3.33301 16.666 6.33301 21.999 9c16 8.66699 29 20 39 34c8 9.33301 14.167 21.833 18.5 37.5s6.5 29.167 6.5 40.5v176h76v57h-428v-57h46v-219c0 -14.667 1.83301 -28.167 5.5 -40.5s10 -21.833 19 -28.5
s18.167 -12.334 27.5 -17.001c4.66699 -2.66699 12.667 -6.33398 24 -11.001l207 -119c11.333 -6 19.666 -13 24.999 -21s8 -18 8 -30c0 -12.667 -8.33301 -23 -25 -31c-5.33301 -2 -14 -4.66699 -26 -8l32 -41c9.33301 1.33301 16.333 2.66602 21 3.99902
c31.333 10 47 28.667 47 56c1.33301 15.333 -1 28.666 -7 39.999c-8 14.667 -24.667 28.667 -50 42l-242 139v285h174v-168c0 -14.667 -1.16699 -26.667 -3.5 -36s-7.83301 -18.666 -16.5 -27.999c-4 -3.33301 -12 -8.33301 -24 -15c-4 -2 -9.66699 -5 -17 -9z" />
    <glyph glyph-name="T" unicode="T" horiz-adv-x="647" 
d="M376 133l2.00293 27.002c15.333 16 27.666 28 36.999 36c30 24 58 36 84 36c12 0 20.5 -3.16699 25.5 -9.5s7.5 -14.833 7.5 -25.5c0 -26 -12 -55.333 -36 -88c-20.667 -28.667 -34 -43 -40 -43l52 -45c16 16 27.667 29.333 35 40c22.667 32.667 34 67 34 103
c0 28 -9.33301 53.667 -28 77c-22 28 -50 42 -84 42c-24.667 0 -51 -9.33301 -79 -28c-12 -8 -24 -18 -36 -30c-7.33301 6.66699 -14.333 13.667 -21 21c-4 4.66699 -10.667 9.66699 -20 15l-6 3c16 0 32.5 9.16699 49.5 27.5s25.5 39.5 25.5 63.5
c0 26 -6.33301 50.333 -19 73c-4 7.33301 -10.667 16.333 -20 27h314v57h-659v-57h292c10.667 0 21.167 -7.83301 31.5 -23.5s15.5 -29.834 15.5 -42.501c0 -27.333 -11 -47 -33 -59c-16.667 -9.33301 -38.334 -14 -65.001 -14h-100l30 -60h62c25.333 0 47 -7.5 65 -22.5
s27 -35.5 27 -61.5c0 -29.333 -8.33301 -52 -25 -68s-39.667 -24 -69 -24c-40 0 -79.333 27.333 -118 82c-12.667 18 -28 45.333 -46 82l-21 -14c21.333 -48 39.666 -83.667 54.999 -107c46.667 -71.333 95.334 -107 146.001 -107c37.333 0 69.166 11.167 95.499 33.5
s39.5 50.166 39.5 83.499z" />
    <glyph glyph-name="U" unicode="U" horiz-adv-x="634" 
d="M-6 512l-0.000976562 -57h425v-37c0 -32.667 -11.667 -54 -35 -64c-30.667 -18 -55.667 -42.333 -75 -73c-7.33301 -11.333 -22 -42 -44 -92c-28 -62 -43 -94.333 -45 -97c-20 -31.333 -46.667 -47 -80 -47c-17.333 0 -30.833 8 -40.5 24s-14.5 35.333 -14.5 58
c0 43.333 11.5 78.833 34.5 106.5s53.167 41.5 90.5 41.5c18 0 32 -2.33301 42 -7c4 -2 8.33301 -5.33301 13 -10l16 19c-12 13.333 -22.333 23 -31 29c-27.333 20 -55 30 -83 30c-39.333 0 -71 -18.333 -95 -55c-21.333 -33.333 -32 -73 -32 -119
c0 -40 11.167 -76 33.5 -108s51.5 -48 87.5 -48c33.333 0 63.333 9.66699 90 29c8.66699 6 18.667 15.667 30 29c16.667 -10 30.334 -17.333 41.001 -22c32.667 -14.667 62 -22 88 -22c43.333 0 79.833 14.5 109.5 43.5s44.5 69.833 44.5 122.5c0 54 -18 96.667 -54 128
l-56 34c4 4 7.33301 7.66699 10 11c16 20 24 39.667 24 59v37h152v57h-646zM301.999 86c0 3.33301 5.16895 18.167 15.502 44.5s22.166 53.833 35.499 82.5c18.667 36 31 58.333 37 67c16 22 34.333 33 55 33c44 0 66 -25.667 66 -77c0 -46 -14.5 -85.833 -43.5 -119.5
s-65.167 -50.5 -108.5 -50.5c-12.667 0 -26 3.33301 -40 10c-4.66699 2 -10.334 5.33301 -17.001 10z" />
    <glyph glyph-name="V" unicode="V" horiz-adv-x="314" 
d="M320 455v57h-326v-57h326zM394 262l-41.001 -11.999c0 31.333 -26 66.666 -78 105.999c-42 32 -91.667 48 -149 48c-24 0 -44.333 -4.5 -61 -13.5s-25 -22.5 -25 -40.5c0 -20.667 9.5 -44.167 28.5 -70.5s35.167 -39.5 48.5 -39.5c14 0 21 7.33301 21 22v51
c0 3.33301 2.66699 9 8 17c3.33301 4 7 6 11 6c7.33301 -1.33301 14.666 -2 21.999 -2c42.667 0 80.334 -15 113.001 -45c10.667 -10 22.667 -25 36 -45l-151 -39c-18 -4 -31.333 -11 -40 -21s-13 -22.667 -13 -38c0 -17.333 14.167 -37.833 42.5 -61.5
s51.5 -35.5 69.5 -35.5c12 0 18 6 18 18c0 4.66699 -1 9 -3 13l-17 39c-4 8 -6 13.333 -6 16l2 8c2 4 4.83301 7.5 8.5 10.5s7.83398 5.16699 12.501 6.5l143 43v59z" />
    <glyph glyph-name="W" unicode="W" 
d="M-60 719l-51 -47l51 -51l51 51zM-178 675l82.999 -163h-37l-113 163h-65c-4.66699 7.33301 -7 14.333 -7 21c0 10 4.83301 18.333 14.5 25s21.5 10 35.5 10c15.333 0 31.333 -4.83301 48 -14.5s30.334 -23.5 41.001 -41.5z" />
    <glyph glyph-name="X" unicode="X" 
d="M-28 652l-41 -43l41 -41l43 41zM-132 512l-113.001 163.001h-65c-4.66699 7.33301 -7 14.333 -7 21c0 10 4.83301 18.333 14.5 25s21.5 10 35.5 10c15.333 0 31.333 -4.83301 48 -14.5s30.334 -23.5 41.001 -41.5l8 -16c0 29.333 8.16699 53.166 24.5 71.499
s38.166 27.5 65.499 27.5c30 0 57 -10 81 -30c8 -6.66699 17.333 -17 28 -31l-14 -15c-8 8 -16 13.333 -24 16c-14 4.66699 -31.333 7 -52 7c-21.333 0 -38.666 -6.5 -51.999 -19.5s-20 -31.833 -20 -56.5c0 -25.333 7 -52.333 21 -81c4.66699 -9.33301 12 -21.333 22 -36
h-42z" />
    <glyph glyph-name="Y" unicode="Y" horiz-adv-x="316" 
d="M91 447c0 12.667 4.00098 22.332 12.001 28.999s19 10 33 10c20 0 36.667 -7.66699 50 -23s20 -33.666 20 -54.999c0 -7.33301 -0.333008 -13.666 -1 -18.999s-1.66699 -10 -3 -14h-39c-20.667 2 -37.834 8.66699 -51.501 20s-20.5 28.666 -20.5 51.999zM322.001 454.998
v57h-67l37 -57h30zM396.001 284.998l-139 0.000976562c1.33301 6.66699 2.33301 13.667 3 21s1 14 1 20c0 58 -14.667 106.333 -44 145s-68.666 58 -117.999 58c-18 0 -34 -5.16699 -48 -15.5s-21 -25.833 -21 -46.5c0 -33.333 15.333 -61.666 46 -84.999
c28 -21.333 57 -32 87 -32c8 0 16 -1 24 -3c1.33301 0 3.66602 -1 6.99902 -3l-1 -31c-1.33301 -8.66699 -2.5 -14.834 -3.5 -18.501s-2.5 -6.83398 -4.5 -9.50098h-61c-10 0 -18 -2.16699 -24 -6.5s-9 -11.833 -9 -22.5c0 -8.66699 11 -26.667 33 -54
c44.667 -55.333 74.667 -83 90 -83c12 0 20.333 8.66699 25 26c2 8 4 19 6 33l8 49h143v58z" />
    <glyph glyph-name="Z" unicode="Z" 
d="M30 599l-43 -41l-41 41l41 43zM-95 512l-41 0.000976562l-138 73h-35c-8.66699 10 -15.167 19 -19.5 27s-6.5 14.333 -6.5 19c0 8 5.66699 12 17 12c13.333 0 30.5 -4.5 51.5 -13.5s40.167 -20.167 57.5 -33.5l77 -56l-53 135h-55c-4 7.33301 -6 13.666 -6 18.999
c0 10 4.66699 17.667 14 23s21 8 35 8c16.667 0 31.667 -4 45 -12s21.333 -20.667 24 -38l2 -11c6 23.333 14.667 40.333 26 51s25 16 41 16c30 0 57 -10 81 -30c8 -6.66699 17.333 -17 28 -31l-14 -15c-8 8 -16 13.333 -24 16c-14 4.66699 -31.333 7 -52 7
c-16.667 0 -32 -9.66699 -46 -29s-21 -41.333 -21 -66c0 -4.66699 0.666992 -11 2 -19z" />
    <glyph glyph-name="bracketleft" unicode="[" horiz-adv-x="485" 
d="M415 129c0 30.667 -13.832 59.167 -41.499 85.5s-59.5 39.5 -95.5 39.5c-13.333 0 -27 -1.66699 -41 -5s-24.333 -5 -31 -5c-10.667 0 -19.834 5.16699 -27.501 15.5s-11.5 21.5 -11.5 33.5c0 8 3.5 14.167 10.5 18.5s15.167 6.5 24.5 6.5h185v137h104v57h-497v-57h333
v-78h-141c-19.333 0 -35.166 -3.83301 -47.499 -11.5s-18.5 -21.5 -18.5 -41.5c0 -24 15 -54.667 45 -92s51.333 -56 64 -56c6 0 22.333 4.66699 49 14c13.333 4.66699 25.666 7 36.999 7c14 0 26.5 -3.16699 37.5 -9.5s16.833 -14.833 17.5 -25.5
c0 -19.333 -12 -37.166 -36 -53.499s-47.333 -24.5 -70 -24.5c-52 0 -101 27.667 -147 83c-15.333 18 -33.333 45.667 -54 83l-23 -14c0 -4.66699 11.667 -23.334 35 -56.001c29.333 -41.333 59.333 -75 90 -101c42 -36 81.667 -54 119 -54c36.667 0 67.667 9.66699 93 29
s38 44.333 38 75z" />
    <glyph glyph-name="backslash" unicode="\" 
d="M409 652l-41 -43l41 -41l45 41zM-75 512c-4.66699 7.33301 -7.66699 14.6689 -9 22.002c-3.33301 14 -5 29.333 -5 46c0 38 14.333 66.667 43 86c24.667 16.667 56.667 25 96 25c50.667 0 101.667 -15.333 153 -46c38 -22.667 73.667 -51.334 107 -86.001l39 -47h19
c-10 14 -17.333 25.667 -22 35c-15.333 29.333 -23 56.666 -23 81.999c0 23.333 6.83301 41.833 20.5 55.5s30.834 20.5 51.501 20.5c27.333 0 47.666 -3.33301 60.999 -10c4 -2 9.33301 -6.33301 16 -13l15 15c-10.667 13.333 -20 23.333 -28 30
c-25.333 20.667 -53 31 -83 31c-28 0 -50 -9.33301 -66 -28s-24 -43.334 -24 -74.001c0 -13.333 2.66699 -26.666 8 -39.999c1.33301 -4 4 -9.33301 8 -16c-13.333 11.333 -26.333 23 -39 35c-34.667 28.667 -68.667 51 -102 67c-49.333 24 -97.333 36 -144 36
c-48 0 -87.333 -11 -118 -33c-36 -25.333 -54 -61.666 -54 -108.999c0 -18.667 3.66699 -38 11 -58c2 -6.66699 6 -15.334 12 -26.001h57z" />
    <glyph glyph-name="bracketright" unicode="]" 
d="M155 89l-57 -56l57 -55l55 55z" />
    <glyph glyph-name="asciicircum" unicode="^" 
d="M-233 25l-190 -188l55 -39l152 166l116 -150l21 17z" />
    <glyph glyph-name="underscore" unicode="_" horiz-adv-x="319" 
d="M325 455v57h-331v-57h331zM399 301l-13 -10c-12 -8.66699 -24.667 -15.334 -38 -20.001c-6 -4 -14.667 -7.66699 -26 -11c-4 -0.666992 -9.66699 -2 -17 -4c-6.66699 29.333 -13.334 51.333 -20.001 66c-20.667 44.667 -47.667 67 -81 67c-12.667 0 -28 -3 -46 -9
c-25.333 -8.66699 -40.666 -15.667 -45.999 -21l37 -62c8.66699 6.66699 16 11.334 22 14.001c19.333 10 37.333 15 54 15c23.333 0 35 -12.333 35 -37c0 -38 -7 -68.667 -21 -92c-16 -26 -38.333 -39 -67 -39c-32.667 0 -60.667 25 -84 75
c-7.33301 16.667 -15.666 42 -24.999 76l-23 -12c11.333 -45.333 22 -79.333 32 -102c31.333 -68.667 72 -103 122 -103c26 0 49.333 8.5 70 25.5s33 35.833 37 56.5c0 8.66699 1 17.667 3 27c0 2 1 4.66699 3 8h19c9.33301 0 20.666 2 33.999 6
c12.667 2.66699 20.167 4.66699 22.5 6l16.5 9v71z" />
    <glyph glyph-name="grave" unicode="`" horiz-adv-x="251" 
d="M98 414l53.002 56.999l-28 31c-4 6.66699 -7 12 -9 16c-4 8.66699 -6 17.667 -6 27c0 20 4.66699 39 14 57c12 22.667 23.667 37 35 43l-20 19c-14 -17.333 -24.667 -31.333 -32 -42c-22.667 -34 -35.334 -63.667 -38.001 -89c0 -11.333 -4.33301 -25.333 -13 -42
c-2.66699 -5.33301 -7.33398 -12.666 -14.001 -21.999z" />
    <glyph glyph-name="a" unicode="a" 
d="M-310 734c-36.667 0 -65.666 -11.666 -86.999 -34.999s-32 -52 -32 -86c0 -30 8.33301 -55.667 25 -77c5.33301 -6.66699 14 -14.667 26 -24h37c-5.33301 4.66699 -9.33301 8.66699 -12 12c-18 22 -27 47.333 -27 76c0 20.667 7.5 38.834 22.5 54.501
s32.833 23.5 53.5 23.5c52 0 98.667 -27.667 140 -83c13.333 -18 28.666 -45.667 45.999 -83h29l-9 21c-6.66699 15.333 -16 33.666 -28 54.999c-4 13.333 -6 27 -6 41c0 23.333 6.83301 41.833 20.5 55.5s30.834 20.5 51.501 20.5c27.333 0 47.666 -3.33301 60.999 -10
c2.66699 -1.33301 7.66699 -5.66602 15 -12.999l14 15c-10 13.333 -19 23.333 -27 30c-24.667 20.667 -52 31 -82 31c-28 0 -50 -9.33301 -66 -28s-24 -43.334 -24 -74.001c-18.667 21.333 -38.667 38.666 -60 51.999c-27.333 17.333 -54.333 26 -81 26z" />
    <glyph glyph-name="b" unicode="b" 
d="M-103 697l-58 -56l58 -53l57 53z" />
    <glyph glyph-name="c" unicode="c" horiz-adv-x="289" 
d="M369 271h-176v184h102v57h-301v-57h132v-184h-52c-10 0 -18.167 -1.83301 -24.5 -5.5s-9.5 -11.5 -9.5 -23.5s19.5 -34.5 58.5 -67.5s63.833 -49.5 74.5 -49.5c8 0 13.333 2 16 6s4 9.66699 4 17v67h176v56z" />
    <glyph glyph-name="d" unicode="d" 
d="M-146 -41l33 -64h45c44.667 0 82.667 -20.667 114 -62c10 -13.333 21.333 -34.333 34 -63l18 7c-14 41.333 -27.333 72.333 -40 93c-38 62 -85.333 93 -142 93c-14.667 0 -27.167 -0.333008 -37.5 -1s-18.5 -1.66699 -24.5 -3z" />
    <glyph glyph-name="e" unicode="e" horiz-adv-x="207" 
d="M202 12h-65.002v443h76v57h-219v-57h76v-443c0 -18.667 5.33301 -32.667 16 -42s24.334 -14 41.001 -14c18.667 0 35.834 5.5 51.501 16.5s23.5 24.167 23.5 39.5z" />
    <glyph glyph-name="f" unicode="f" 
d="M-75 512c-4.66699 7.33301 -7.66699 14.6689 -9 22.002c-3.33301 14 -5 29.333 -5 46c0 38 14.333 66.667 43 86c24.667 16.667 56.667 25 96 25c50 0 101 -15.333 153 -46c38 -22.667 74 -51.334 108 -86.001l40 -47h27l-48 58c-41.333 44.667 -84.333 81 -129 109
c-62.667 39.333 -124 59 -184 59c-46.667 0 -85.667 -11 -117 -33c-36.667 -26 -55 -62.333 -55 -109c0 -18.667 3.66699 -38 11 -58c2 -6.66699 6 -15.334 12 -26.001h57z" />
    <glyph glyph-name="g" unicode="g" 
d="M-248 -31l49 -47.001c8 11.333 15 19.666 21 24.999c19.333 17.333 40.333 26 63 26c24.667 0 44.5 -4.66699 59.5 -14s22.5 -23.666 22.5 -42.999c0 -30.667 -16.333 -54.667 -49 -72c-27.333 -14.667 -59.666 -22 -96.999 -22c-44.667 0 -89.667 21.667 -135 65
c-14.667 14 -33 36 -55 66l-23 -16l32 -44c27.333 -33.333 56 -60.666 86 -81.999c41.333 -29.333 81.333 -44 120 -44c50.667 0 88.5 11.167 113.5 33.5s37.5 52.833 37.5 91.5s-11.833 70.5 -35.5 95.5s-56.834 37.5 -99.501 37.5c-28.667 0 -55.667 -9.33301 -81 -28
c-8 -6 -17.667 -15.333 -29 -28z" />
    <glyph glyph-name="h" unicode="h" horiz-adv-x="206" 
d="M212 512h-217.999v-57h46v-115c0 -40 21.667 -76.667 65 -110c38 -29.333 72.333 -44 103 -44c21.333 0 40.666 4.66699 57.999 14c5.33301 2.66699 12 7.66699 20 15v82c-10 -16 -18.667 -27.667 -26 -35c-23.333 -23.333 -50.333 -35 -81 -35
c-22 0 -39.5 7.83301 -52.5 23.5s-19.5 36.5 -19.5 62.5v142h105v57z" />
    <glyph glyph-name="i" unicode="i" horiz-adv-x="273" 
d="M279 512l-284.998 0.000976562v-57h142v-123h-60c-10.667 0 -19.334 -2 -26.001 -6s-10 -11.667 -10 -23c0 -12 17.5 -35.833 52.5 -71.5s59.833 -53.5 74.5 -53.5c15.333 0 25.666 10.333 30.999 31c3.33301 13.333 5 34.666 5 63.999c0 28.667 -3 67.667 -9 117
c-2 16 -5 37.667 -9 65h94v57z" />
    <glyph glyph-name="j" unicode="j" horiz-adv-x="294" 
d="M269 40l21.999 21.999c-24 14.667 -43.333 27.334 -58 38.001c-44.667 32.667 -79 65 -103 97c21.333 15.333 37 29.333 47 42c31.333 38.667 47 84 47 136c0 15.333 -2.66699 33.333 -8 54c-1.33301 6.66699 -4 15.334 -8 26.001h92v57h-306v-57h163
c3.33301 -9.33301 5.5 -18.333 6.5 -27s1.5 -20.334 1.5 -35.001c0 -15.333 -4 -31.333 -12 -48s-15 -25 -21 -25c-3.33301 0 -10 3.66699 -20 11s-20.333 11 -31 11c-12 0 -21.833 -3.5 -29.5 -10.5s-11.5 -18.5 -11.5 -34.5c0 -25.333 19.667 -60 59 -104
c28.667 -32.667 65.334 -67.667 110.001 -105c38 -32 58 -48 60 -48z" />
    <glyph glyph-name="k" unicode="k" horiz-adv-x="224" 
d="M230 455v57h-236v-57h236zM304 266c-16.667 -17.333 -31 -30.3311 -43 -38.998c-36 -26 -72.333 -39 -109 -39c-17.333 0 -31.833 5.83301 -43.5 17.5s-17.5 24.5 -17.5 38.5c0 24.667 15.167 44.167 45.5 58.5s59.5 21.5 87.5 21.5c22.667 0 42.667 -4.33301 60 -13
c5.33301 -2.66699 12 -7.33398 20 -14.001v27c-6 11.333 -23.333 25.333 -52 42c-22 12.667 -42.333 19 -61 19c-34.667 0 -67 -9 -97 -27c-36 -22 -54 -49.667 -54 -83c0 -32.667 17.333 -63.334 52 -92.001c32 -26.667 61.667 -40 89 -40c28 0 56.667 6.66699 86 20
c10 4 22.333 11 37 21v82z" />
    <glyph glyph-name="l" unicode="l" horiz-adv-x="251" 
d="M257 512h-263v-57h263v57zM331 342l-176 -0.00195312c-30 0 -55.667 -7.66699 -77 -23c-25.333 -18 -38 -43 -38 -75c0 -51.333 27.667 -107.666 83 -168.999c18 -20 45.667 -45.667 83 -77l21 14c-29.333 23.333 -51.333 43 -66 59
c-44.667 48.667 -67 93.334 -67 134.001c0 26 9.33301 46.167 28 60.5s40.667 21.5 66 21.5h143v55z" />
    <glyph glyph-name="m" unicode="m" horiz-adv-x="294" 
d="M374 322c-9.33301 -10.667 -17.002 -18.667 -23.002 -24c-20 -16.667 -40.333 -25 -61 -25c-25.333 0 -47.666 2.33301 -66.999 7c-6 1.33301 -13 3.66602 -21 6.99902c2.66699 11.333 4.33398 20.333 5.00098 27c3.33301 22 5 41.667 5 59c0 12.667 -3 30 -9 52
c-2 7.33301 -5 17.333 -9 30h106v57h-306v-57h149c2.66699 -7.33301 4.33398 -13.666 5.00098 -18.999c3.33301 -16 5 -32.333 5 -49c0 -15.333 -3 -31.5 -9 -48.5s-12.667 -25.5 -20 -25.5c-4 0 -10.667 3.33301 -20 10c-6 4 -11.667 6.33301 -17 7
c-31.333 0 -47 -15 -47 -45c0 -20.667 17.667 -55.667 53 -105c25.333 -36 58.333 -77 99 -123c34.667 -39.333 52.334 -59 53.001 -59l19 16l-24 25c-22.667 23.333 -38.667 40.333 -48 51l-66 86c7.33301 4.66699 19.666 17 36.999 37c7.33301 8 14 18 20 30
c1.33301 3.33301 3.66602 8.33301 6.99902 15c16 -8 27.333 -13.333 34 -16c24.667 -10 46 -15 64 -15c24 0 45.333 2.66699 64 8c6 1.33301 13.333 4.33301 22 9v78z" />
    <glyph glyph-name="n" unicode="n" horiz-adv-x="462" 
d="M-6 512v-56.999h300v-57h-179c-28.667 0 -48.334 -4 -59.001 -12s-16 -19.333 -16 -34c0 -28.667 12.667 -56.334 38 -83.001c10.667 -11.333 18.334 -17 23.001 -17c-8 -6.66699 -13.667 -12.667 -17 -18c-12 -16.667 -18 -34.667 -18 -54c0 -48.667 24 -89 72 -121
c34.667 -22.667 79.334 -40 134.001 -52c34 -7.33301 58.333 -11 73 -11l12 25c-50.667 4 -88.334 9.66699 -113.001 17c-76 22 -114 60 -114 114c0 34 18 60.333 54 79c29.333 15.333 63.666 23 102.999 23c24 0 40.667 -3.66699 50 -11s14 -18 14 -32
c0 -22.667 -17.667 -40 -53 -52c-11.333 -3.33301 -29.333 -7 -54 -11l50 -46c22 3.33301 38.333 7.33301 49 12c32.667 15.333 49 40 49 74c0 29.333 -13.833 54.166 -41.5 74.499s-60.834 30.5 -99.501 30.5c-34.667 0 -66 -4 -94 -12
c-9.33301 -2.66699 -20.333 -7 -33 -13c-7.33301 6.66699 -12.666 11.667 -15.999 15c-11.333 12 -17 22.333 -17 31c0 12.667 3.33301 21.834 10 27.501s16.334 8.5 29.001 8.5h225v105h113v57h-474z" />
    <glyph glyph-name="o" unicode="o" horiz-adv-x="417" 
d="M-6 512l-0.00195312 -57.002h273v-70h-104c-34.667 0 -63 -8.33301 -85 -25c-25.333 -19.333 -38 -47 -38 -83c0 -45.333 19.167 -87.5 57.5 -126.5s77.833 -58.5 118.5 -58.5c4 -0.666992 8 -1 12 -1h12h13c3.33301 0 6.66602 0.333008 9.99902 1l59 -96l35 18l-57 93
c10.667 4 18.334 8 23.001 12c16 12.667 24 29 24 49s-7.33301 36.333 -22 49s-34 19 -58 19c-17.333 0 -32.333 -4.66699 -45 -14s-19 -22.666 -19 -39.999c0 -8 1.33301 -15.333 4 -22c0.666992 -2 2.33398 -4.66699 5.00098 -8h-45c-24.667 0 -44.167 7.5 -58.5 22.5
s-21.5 35.5 -21.5 61.5c0 28.667 9.33301 49.834 28 63.501s41.334 20.5 68.001 20.5h148v135h92v57h-429z" />
    <glyph glyph-name="p" unicode="p" horiz-adv-x="342" 
d="M348 455v57h-354v-57h354zM422 344l-261 0.000976562c22 -12 38.333 -22 49 -30c33.333 -26 50 -52 50 -78c0 -14.667 -4.66699 -27.334 -14 -38.001s-22.666 -16 -39.999 -16c-42.667 0 -80.334 31 -113.001 93c-10.667 20.667 -22.667 52 -36 94l-17 -12
c-19.333 -19.333 2.66699 -73 66 -161c36 -50 78.333 -75 127 -75c27.333 0 50.5 8.16699 69.5 24.5s28.5 39.5 28.5 69.5c0 18.667 -8.66699 36.334 -26 53.001c-5.33301 5.33301 -14.333 11.666 -27 18.999h144v57z" />
    <glyph glyph-name="q" unicode="q" 
d="M-75 512c-4.66699 7.33301 -7.66699 14.668 -9 22.001c-3.33301 14 -5 29.333 -5 46c0 42.667 19.333 74 58 94c30 15.333 70 23 120 23c78 0 150 -16 216 -48c45.333 -22 86.333 -51.667 123 -89l40 -48h33l-59 61c-50 46 -102.667 83.667 -158 113
c-78 41.333 -154 62 -228 62c-64 0 -113 -10 -147 -30c-42.667 -25.333 -64 -66 -64 -122c0 -18.667 3.66699 -38 11 -58c2 -6.66699 6 -15.334 12 -26.001h57z" />
    <glyph glyph-name="r" unicode="r" 
d="M-91 512l-23.999 56.999c-21.333 44 -45.333 79.667 -72 107c-38 38.667 -78.333 58 -121 58c-36.667 0 -65.667 -11.667 -87 -35s-32 -52 -32 -86c0 -30 8.33301 -55.667 25 -77c5.33301 -6.66699 14 -14.667 26 -24h37c-5.33301 4.66699 -9.33301 8.66699 -12 12
c-18 22 -27 47.333 -27 76c0 20.667 7.5 38.834 22.5 54.501s32.833 23.5 53.5 23.5c52 0 98.667 -27.667 140 -83c13.333 -18 28.666 -45.667 45.999 -83h25z" />
    <glyph glyph-name="s" unicode="s" 
d="M-178 675l82.999 -163h-37l-113 163h-65c-4.66699 7.33301 -7 14.333 -7 21c0 10 4.83301 18.333 14.5 25s21.5 10 35.5 10c15.333 0 31.333 -4.83301 48 -14.5s30.334 -23.5 41.001 -41.5z" />
    <glyph glyph-name="t" unicode="t" 
d="M-117 -213l-28.999 72c-3.33301 -0.666992 -7.33301 -1.16699 -12 -1.5s-10.667 -0.5 -18 -0.5c-21.333 0 -38.333 3 -51 9c-18 8.66699 -27 23.334 -27 44.001c0 15.333 6 28.666 18 39.999s26.333 17 43 17c58.667 0 105 -18.667 139 -56
c24 -26.667 41.667 -62 53 -106c2.66699 -18.667 5.66699 -37.667 9 -57l22 8l-8 69c-10.667 54 -27.334 97.333 -50.001 130c-32.667 46.667 -76 70 -130 70c-36 0 -66.5 -11.167 -91.5 -33.5s-37.5 -50.833 -37.5 -85.5c0 -47.333 20 -81 60 -101
c25.333 -12.667 56.333 -19 93 -19h9.5c2.33301 0 4.83301 0.333008 7.5 1z" />
    <glyph glyph-name="u" unicode="u" horiz-adv-x="316" 
d="M322 455v57h-328v-57h328zM396 338c-6.66699 1.33301 -13.332 1.99902 -19.999 1.99902c-27.333 0 -53 -9.33301 -77 -28c-8 -6 -17.333 -15.667 -28 -29c-6 12.667 -27 28 -63 46c-28 14 -54 21 -78 21s-45 -9.66699 -63 -29s-27 -41.666 -27 -66.999
c0 -42 28.667 -94.667 86 -158c50.667 -56 80.667 -84 90 -84l16 13c-8 0 -30.667 22 -68 66c-43.333 51.333 -65 95.333 -65 132c0 20.667 8 38.167 24 52.5s33.333 21.5 52 21.5c27.333 0 48.666 -5 63.999 -15l18 -18c-2.66699 -2 -5 -4 -7 -6
c-4 -4.66699 -8 -10.667 -12 -18c-6 -8 -11.667 -18 -17 -30c-0.666992 -2 -1.66699 -4.33301 -3 -7l55 -31c13.333 26.667 24 46.667 32 60c26 40.667 49.667 61 71 61h20v45z" />
    <glyph glyph-name="v" unicode="v" horiz-adv-x="240" 
d="M246 455v57h-252v-57h252zM320 332h-204.999c-22.667 0 -39.334 -2.33301 -50.001 -7c-16.667 -7.33301 -25 -22 -25 -44c0 -21.333 11.5 -50.333 34.5 -87s42.167 -55 57.5 -55c13.333 0 20 7.66699 20 23v72c0 18.667 2.16699 30.5 6.5 35.5s15.833 7.5 34.5 7.5h127
v55z" />
    <glyph glyph-name="w" unicode="w" 
d="M-132 540l-53 135.001h-55c-4 7.33301 -6 13.666 -6 18.999c0 10 4.5 17.667 13.5 23s20.5 8 34.5 8c17.333 0 32.5 -4 45.5 -12s21.167 -20.667 24.5 -38l33 -163h-41l-138 73h-35c-8.66699 10 -15.167 19 -19.5 27s-6.5 14.333 -6.5 19c0 8 5.66699 12 17 12
c13.333 0 30.5 -4.5 51.5 -13.5s40.167 -20.167 57.5 -33.5z" />
    <glyph glyph-name="x" unicode="x" 
d="M-132 512l-113.001 163.001h-65c-4.66699 7.33301 -7 14.333 -7 21c0 10 4.83301 18.333 14.5 25s21.5 10 35.5 10c15.333 0 31.333 -4.83301 48 -14.5s30.334 -23.5 41.001 -41.5l8 -16c0 29.333 8.16699 53.166 24.5 71.499s38.166 27.5 65.499 27.5
c30 0 57 -10 81 -30c8 -6.66699 17.333 -17 28 -31l-14 -15c-8 8 -16 13.333 -24 16c-14 4.66699 -31.333 7 -52 7c-21.333 0 -38.666 -6.5 -51.999 -19.5s-20 -31.833 -20 -56.5c0 -25.333 7 -52.333 21 -81c4.66699 -9.33301 12 -21.333 22 -36h-42z" />
    <glyph glyph-name="y" unicode="y" horiz-adv-x="246" 
d="M236 186c-10 -6 -18 -10.332 -24 -12.999c-20 -8.66699 -39.333 -13 -58 -13c-19.333 0 -36 6 -50 18s-21 27.667 -21 47c0 16.667 8.33301 33 25 49c5.33301 5.33301 14 11.666 26 18.999zM252 455.001v57h-258v-57h258zM326 313.001
c-16.667 16 -30.334 27.668 -41.001 35.001c-32.667 23.333 -62.667 35 -90 35c-38.667 0 -74.167 -11.833 -106.5 -35.5s-48.5 -53.5 -48.5 -89.5c0 -34 16.667 -67 50 -99s67 -48 101 -48c32 0 64 9 96 27c10.667 6 23.667 15.333 39 28v94c-2 -4 -4.33301 -8 -7 -12
c-5.33301 -8 -13.666 -16.333 -24.999 -25c-6.66699 -6 -16.667 -12.667 -30 -20c-2 -0.666992 -4.33301 -2 -7 -4l-99 104c8 3.33301 14.667 5.66602 20 6.99902c18.667 5.33301 36 8 52 8c27.333 0 51.333 -6 72 -18c6.66699 -4 14.667 -10.333 24 -19v32z" />
    <glyph glyph-name="z" unicode="z" 
d="M-95 512l-41 0.000976562l-138 73h-35c-8.66699 10 -15.167 19 -19.5 27s-6.5 14.333 -6.5 19c0 8 5.66699 12 17 12c13.333 0 30.5 -4.5 51.5 -13.5s40.167 -20.167 57.5 -33.5l77 -56l-53 135h-55c-4 7.33301 -6 13.666 -6 18.999c0 10 4.66699 17.667 14 23s21 8 35 8
c16.667 0 31.667 -4 45 -12s21.333 -20.667 24 -38l2 -11c6 23.333 14.667 40.333 26 51s25 16 41 16c30 0 57 -10 81 -30c8 -6.66699 17.333 -17 28 -31l-14 -15c-8 8 -16 13.333 -24 16c-14 4.66699 -31.333 7 -52 7c-16.667 0 -32 -9.66699 -46 -29s-21 -41.333 -21 -66
c0 -4.66699 0.666992 -11 2 -19z" />
    <glyph glyph-name="braceleft" unicode="{" horiz-adv-x="473" 
d="M-6 512l0.00195312 -57h296v-67h-92c-44 0 -79.667 -8.33301 -107 -25c-34 -20.667 -51 -52 -51 -94c0 -62 26.667 -118.667 80 -170c51.333 -49.333 104.666 -74 159.999 -74c35.333 0 63.666 8 84.999 24c25.333 18.667 38 46.334 38 83.001
c0 37.333 -14.167 70.166 -42.5 98.499s-58.166 42.5 -89.499 42.5c-25.333 0 -47 -7.33301 -65 -22s-27 -35.334 -27 -62.001c0 -24 7 -47.667 21 -71c6.66699 -11.333 14.667 -21.666 24 -30.999c-30.667 7.33301 -53.334 15.333 -68.001 24
c-46 26.667 -69 66.334 -69 119.001c0 33.333 12.667 57.666 38 72.999c20.667 12.667 47.667 19 81 19h143v133h130v57h-485zM364.002 165c0 -30.667 -16.499 -53 -49.499 -67s-52.167 -18.333 -57.5 -13c-5.33301 4.66699 -9 8.66699 -11 12
c-7.33301 11.333 -11 25 -11 41c0 24 7.5 41.667 22.5 53s34.5 17 58.5 17c15.333 0 27.166 -3.83301 35.499 -11.5s12.5 -18.167 12.5 -31.5z" />
    <glyph glyph-name="bar" unicode="|" 
d="M-75 512c-4.66699 7.33301 -7.66699 14.6689 -9 22.002c-3.33301 14 -5 29.333 -5 46c0 38 14.333 66.667 43 86c24.667 16.667 56.667 25 96 25c50.667 0 101.667 -15.333 153 -46c38 -22.667 73.667 -51.334 107 -86.001l39 -47h19c-10 14 -17.333 25.667 -22 35
c-15.333 29.333 -23 56.666 -23 81.999c0 23.333 6.83301 41.833 20.5 55.5s30.834 20.5 51.501 20.5c27.333 0 47.666 -3.33301 60.999 -10c4 -2 9.33301 -6.33301 16 -13l15 15c-10.667 13.333 -20 23.333 -28 30c-25.333 20.667 -53 31 -83 31
c-28 0 -50 -9.33301 -66 -28s-24 -43.334 -24 -74.001c0 -13.333 2.66699 -26.666 8 -39.999c1.33301 -4 4 -9.33301 8 -16c-13.333 11.333 -26.333 23 -39 35c-34.667 28.667 -68.667 51 -102 67c-49.333 24 -97.333 36 -144 36c-48 0 -87.333 -11 -118 -33
c-36 -25.333 -54 -61.666 -54 -108.999c0 -18.667 3.66699 -38 11 -58c2 -6.66699 6 -15.334 12 -26.001h57z" />
    <glyph glyph-name="braceright" unicode="}" horiz-adv-x="569" 
d="M414 95c14.667 4.66699 31.668 19.332 51.001 43.999c22.667 28.667 34 55.667 34 81c0 46.667 -12.667 83.667 -38 111c-26 18 -39.333 27.333 -40 28v96h154v57h-581v-57h392v-90c-8 0 -18 -1 -30 -3s-24 -6 -36 -12l-57 -41c-14.667 14.667 -27 25.667 -37 33
c-31.333 22 -62.666 33 -93.999 33c-27.333 0 -49.5 -8.16699 -66.5 -24.5s-25.5 -35.5 -25.5 -57.5c0 -26.667 15.333 -60.334 46 -101.001c20.667 -27.333 49.334 -58 86.001 -92c29.333 -27.333 44.666 -41 45.999 -41l18 9c-6 0 -29.333 23.667 -70 71
c-44.667 52 -67 91 -67 117c0 20 6 36.667 18 50s29.333 20 52 20c24 0 44 -5.33301 60 -16c2 -1.33301 8.66699 -7.66602 20 -18.999l-43 -45l49 -47c22.667 26.667 40.667 46.667 54 60c41.333 40.667 73.666 61 96.999 61c21.333 0 35.666 -6.33301 42.999 -19
s11 -31 11 -55c0 -22.667 -8.83301 -44.167 -26.5 -64.5s-34.5 -32.166 -50.5 -35.499z" />
    <glyph glyph-name="asciitilde" unicode="~" horiz-adv-x="432" 
d="M337 -8v516l-62 64v-515z" />
    <glyph glyph-name="c128" horiz-adv-x="372" 
d="M404 111l-0.000976562 94.001c-14.667 -21.333 -28 -37 -40 -47c-36.667 -31.333 -79.334 -47 -128.001 -47c-15.333 0 -29.666 3.83301 -42.999 11.5s-20 18.167 -20 31.5s6.5 25.166 19.5 35.499s27.5 15.5 43.5 15.5h72l-57 59h-107c-20 0 -33.667 1 -41 3
c-14.667 4 -22 12 -22 24c0 12.667 3.33301 22.334 10 29.001s18.334 10 35.001 10h176v125h76v57h-384v-57h244v-66h-116c-23.333 0 -42.833 -5.16699 -58.5 -15.5s-23.5 -27.5 -23.5 -51.5c0 -34 16 -61 48 -81c10.667 -6.66699 26.667 -13.334 48 -20.001
c-5.33301 -3.33301 -9 -6.33301 -11 -9c-8 -9.33301 -12 -20 -12 -32c0 -28 17 -54.333 51 -79s69.667 -37 107 -37h12l-90 -87l51 -39z" />
    <glyph glyph-name="c129" horiz-adv-x="626" 
d="M271 512v-229h-231v-56h231v-229h57v229h228v56h-228v229h-57z" />
    <glyph glyph-name="c141" horiz-adv-x="478" 
d="M408 169c0 55.333 -22.1689 102.502 -66.502 141.502s-94.833 58.5 -151.5 58.5c-10 0 -20.667 -1 -32 -3l26 86h230l50 99h-35c-5.33301 -11.333 -9.66602 -19 -12.999 -23c-8 -9.33301 -18 -14 -30 -14h-222l-69 -212c74 0 131 -7 171 -21
c65.333 -22.667 98 -63.667 98 -123c0 -38.667 -13.667 -71.334 -41 -98.001s-61 -40 -101 -40c-23.333 0 -44 6.33301 -62 19l-40 30c-16 8 -31.333 12 -46 12c-22.667 0 -34 -8.66699 -34 -26c0 -14 8.83301 -24.833 26.5 -32.5s37 -13.334 58 -17.001
s49.5 -5.5 85.5 -5.5c54.667 0 101.334 16.167 140.001 48.5s58 72.5 58 120.5z" />
    <glyph glyph-name="c142" horiz-adv-x="478" 
d="M241 14c-42 0 -74 19.833 -96 59.5s-33 90.834 -33 153.501c26.667 20 40.334 30 41.001 30c24 14.667 48.333 22 73 22c41.333 0 71.666 -14.333 90.999 -43c16 -24 24 -57 24 -99c0 -28.667 -8.33301 -55.334 -25 -80.001c-19.333 -28.667 -44.333 -43 -75 -43z
M337 508c-72.667 0 -139.333 -27.668 -200 -83.001c-64.667 -59.333 -97 -129.666 -97 -210.999c0 -65.333 18 -117.333 54 -156s84 -58 144 -58c52 0 93.333 12.667 124 38s46 60 46 104c0 55.333 -13.333 96 -40 122s-71.667 39 -135 39c-18 0 -38.5 -5.16699 -61.5 -15.5
s-42.833 -21.833 -59.5 -34.5c6.66699 60 31.667 112.667 75 158s92.333 70.333 147 75l32 1l3 22z" />
    <glyph glyph-name="c143" horiz-adv-x="498" 
d="M30 363l17 -2c4.66699 6 8.33398 11 11.001 15c9.33301 13.333 16 23.333 20 30c1.33301 2 9 11.333 23 28c1.33301 2 3.66602 5 6.99902 9h268l-233 -443h41l264 505h-372l-24 -78c-2 -8.66699 -6.33301 -22 -13 -40z" />
    <glyph glyph-name="c144" horiz-adv-x="522" 
d="M98 147c0 29.333 10 54.666 30 75.999c26.667 28 51 42 73 42c50.667 -13.333 87 -26.333 109 -39c44.667 -25.333 67 -58.666 67 -99.999c0 -33.333 -11.333 -60.333 -34 -81s-54.667 -31 -96 -31c-40 0 -74.833 12.333 -104.5 37s-44.5 56.667 -44.5 96zM348 399
c0 -26.667 -9.5 -47.167 -28.5 -61.5s-41.833 -21.5 -68.5 -21.5c-28 0 -52 7.33301 -72 22c-22.667 16.667 -34 38.667 -34 66c0 31.333 8.33301 54.333 25 69s42 22 76 22c68 0 102 -32 102 -96zM77 399c0 -36.667 14.666 -66.6689 43.999 -90.002l52 -31
c-16.667 0 -40 -10.333 -70 -31c-42 -29.333 -63 -65 -63 -107c0 -41.333 23 -75.666 69 -102.999c41.333 -24.667 86.333 -37 135 -37c56 0 103.667 12 143 36c43.333 26.667 65 61.334 65 104.001c-8 56 -37 99 -87 129c-16 9.33301 -40 18.666 -72 27.999
c24 7.33301 41.667 14.333 53 21c36 21.333 54 48.333 54 81c0 38.667 -11.667 67.334 -35 86.001c-25.333 20.667 -65.666 31 -120.999 31c-54 -4.66699 -93 -13.667 -117 -27c-33.333 -18 -50 -48 -50 -90z" />
    <glyph glyph-name="c157" horiz-adv-x="342" 
d="M348 455v57h-354v-57h354zM422 344l-261 0.000976562c22 -12 38.333 -22 49 -30c33.333 -26 50 -52 50 -78c0 -14.667 -4.66699 -27.334 -14 -38.001s-22.666 -16 -39.999 -16c-42.667 0 -80.334 31 -113.001 93c-10.667 20.667 -22.667 52 -36 94l-17 -12
c-19.333 -19.333 2.66699 -73 66 -161c36 -50 78.333 -75 127 -75c27.333 0 50.5 8.16699 69.5 24.5s28.5 39.5 28.5 69.5c0 18.667 -8.66699 36.334 -26 53.001c-5.33301 5.33301 -14.333 11.666 -27 18.999h144v57zM307 83.001l-56 -55l56 -54l57 54z" />
    <glyph glyph-name="c158" horiz-adv-x="473" 
d="M-6 512l0.00195312 -57h296v-67h-92c-44 0 -79.667 -8.33301 -107 -25c-34 -20.667 -51 -52 -51 -94c0 -62 26.667 -118.667 80 -170c51.333 -49.333 104.666 -74 159.999 -74c35.333 0 63.666 8 84.999 24c25.333 18.667 38 46.334 38 83.001
c0 37.333 -14.167 70.166 -42.5 98.499s-58.166 42.5 -89.499 42.5c-25.333 0 -47 -7.33301 -65 -22s-27 -35.334 -27 -62.001c0 -24 7 -47.667 21 -71c6.66699 -11.333 14.667 -21.666 24 -30.999c-30.667 7.33301 -53.334 15.333 -68.001 24
c-46 26.667 -69 66.334 -69 119.001c0 33.333 12.667 57.666 38 72.999c20.667 12.667 47.667 19 81 19h143v133h130v57h-485zM364.002 165c0 -30.667 -16.499 -53 -49.499 -67s-52.167 -18.333 -57.5 -13c-5.33301 4.66699 -9 8.66699 -11 12
c-7.33301 11.333 -11 25 -11 41c0 24 7.5 41.667 22.5 53s34.5 17 58.5 17c15.333 0 27.166 -3.83301 35.499 -11.5s12.5 -18.167 12.5 -31.5zM283.003 -50l-56 -55l56 -54l57 54z" />
    <glyph glyph-name="nonbreakingspace" unicode="&#xa0;" horiz-adv-x="427" 
d="M186 21c-5.33301 3.33301 -9.66406 5.66699 -12.9971 7c-11.333 4.66699 -24 7 -38 7c-40 0 -60 -14.333 -60 -43c0 -12 6.5 -22.167 19.5 -30.5s28.5 -12.5 46.5 -12.5c15.333 0 31.666 4.66699 48.999 14c5.33301 2.66699 12.333 7.33398 21 14.001l149 -116l31 43
l-164 98l22 205c16 0 37 9.33301 63 28c20.667 14.667 34 32 40 52c4 13.333 6 26 6 38c0 17.333 -4.33301 31.666 -13 42.999s-20 17 -34 17c-26.667 0 -47.334 -18.667 -62.001 -56c-4.66699 -12 -9.33398 -30.667 -14.001 -56c-7.33301 -4 -13.333 -6.66699 -18 -8
c-16 -6 -29.667 -9 -41 -9c-34.667 0 -57.834 4.16699 -69.501 12.5s-17.5 24.833 -17.5 49.5c0 10 0.333008 18 1 24c0 32 12.333 72 37 120c20.667 40 34 61.667 40 65l-71 24c-4 -4 -13.333 -24 -28 -60c-18.667 -46 -28 -82.667 -28 -110
c0 -50.667 12.5 -93.667 37.5 -129s58.5 -53 100.5 -53c15.333 0 26.333 0.5 33 1.5s11.334 1.83301 14.001 2.5z" />
    <glyph glyph-name="exclamdown" unicode="&#xa1;" horiz-adv-x="237" 
d="M243 455v57h-249v-57h249zM317 332c-2.66699 -2 -4.66992 -3.66406 -6.00293 -4.99707c-10 -8 -21.333 -14.333 -34 -19c-4.66699 -3.33301 -13.334 -6.66602 -26.001 -9.99902c-2 0 -5 -0.666992 -9 -2c-5.33301 24 -10.666 41.667 -15.999 53
c-16 35.333 -37.667 53 -65 53c-12.667 0 -28.667 -4 -48 -12c-6 -2.66699 -14.333 -6.66699 -25 -12l29 -49c6.66699 5.33301 12.334 9 17.001 11c15.333 8 30 12 44 12c8.66699 0 15.5 -2.83301 20.5 -8.5s7.5 -12.834 7.5 -21.501c0 -30.667 -6 -55.834 -18 -75.501
s-29.333 -29.5 -52 -29.5c-26 0 -48.333 20 -67 60c-6 13.333 -12.667 33.666 -20 60.999l-19 -9c8.66699 -36.667 17 -64 25 -82c25.333 -54.667 58 -82 98 -82c20.667 0 39.334 6.66699 56.001 20s26.667 28.333 30 45c0 6 1 13 3 21
c0 1.33301 0.666992 3.66602 2 6.99902c5.33301 0 11.333 0.166992 18 0.5s15 1.83301 25 4.5s15.833 4.16699 17.5 4.5s5.83398 2.83301 12.501 7.5v57zM316.997 189.003l-158.999 -70.999l20 -3c30.667 -7.33301 46 -21.333 46 -42
c0 -12.667 -4.16699 -21.334 -12.5 -26.001s-18.833 -7 -31.5 -7c-24.667 0 -50 12.667 -76 38c-8.66699 8 -19.334 21 -32.001 39l-14 -19c16 -21.333 29.667 -37 41 -47c34.667 -32 67.667 -48 99 -48c22 0 39.833 5 53.5 15s20.5 25.333 20.5 46
c0 12 -3.33301 22.667 -10 32c-1.33301 2 -5.33301 6.33301 -12 13l67 37v43z" />
    <glyph glyph-name="cent" unicode="&#xa2;" horiz-adv-x="417" 
d="M357 15l-57.0049 91.9971c10.667 4 18.334 8 23.001 12c16 12.667 24 29 24 49s-7.33301 36.333 -22 49s-34 19 -58 19c-17.333 0 -32.333 -4.66699 -45 -14s-19 -22.666 -19 -39.999c0 -8 1.33301 -15.333 4 -22c0.666992 -2 2.33398 -4.66699 5.00098 -8h-45
c-24.667 0 -44.167 7.5 -58.5 22.5s-21.5 35.5 -21.5 61.5c0 28.667 9.33301 49.834 28 63.501s41.334 20.5 68.001 20.5h148v135h92v57h-429v-57h273v-70h-104c-34.667 0 -63 -8.33301 -85 -25c-25.333 -19.333 -38 -47 -38 -83c0 -45.333 19.167 -87.5 57.5 -126.5
s77.833 -58.5 118.5 -58.5c4 -0.666992 8 -1 12 -1h12h13c3.33301 0 6.66602 0.333008 9.99902 1l46 -76l-23 -3c-65.333 -16 -107.666 -33.667 -126.999 -53s-29 -44.666 -29 -75.999c0 -37.333 14.167 -71.166 42.5 -101.499s63.5 -45.5 105.5 -45.5
c34.667 0 65.334 11.333 92.001 34c21.333 24 32.333 36.333 33 37l-47 45c0 -7.33301 -10 -20 -30 -38c-26 -23.333 -54.333 -35 -85 -35c-23.333 0 -40.166 8.33301 -50.499 25s-15.5 36 -15.5 58c0 28 13.667 49.333 41 64c11.333 6 40 15.667 86 29
c3.33301 1.33301 8.33301 2.16602 15 2.49902s12.334 0.5 17.001 0.5h13c3.33301 0 6.66602 -0.333008 9.99902 -1v57z" />
    <glyph glyph-name="sterling" unicode="&#xa3;" 
d="M-233 25l-190 -188l55 -39l152 166l116 -150l21 17z" />
    <glyph glyph-name="currency" unicode="&#xa4;" horiz-adv-x="260" 
d="M29 117c0 -28 10.5 -52.167 31.5 -72.5s45.833 -30.5 74.5 -30.5c29.333 0 53.833 9.5 73.5 28.5s29.5 42.5 29.5 70.5c0 30 -9.83301 55.5 -29.5 76.5s-44.167 31.5 -73.5 31.5c-30 0 -55.167 -9.83301 -75.5 -29.5s-30.5 -44.5 -30.5 -74.5zM70 113
c0 18.667 6.16602 34.5 18.499 47.5s27.833 19.5 46.5 19.5c18 0 33.5 -6.5 46.5 -19.5s19.5 -28.833 19.5 -47.5c0 -16 -6.66699 -29.667 -20 -41s-28.666 -17 -45.999 -17c-18 0 -33.333 5.33301 -46 16s-19 24.667 -19 42z" />
    <glyph glyph-name="yen" unicode="&#xa5;" 
d="M-115 512h23.999c-9.33301 14 -16.333 25.667 -21 35c-14.667 30 -22 57.333 -22 82c0 23.333 6.83301 41.833 20.5 55.5s30.834 20.5 51.501 20.5c27.333 0 47.666 -3.33301 60.999 -10c2.66699 -1.33301 7.66699 -5.66602 15 -12.999l14 15
c-10 13.333 -19 23.333 -27 30c-24.667 20.667 -52 31 -82 31c-28 0 -50 -9.33301 -66 -28s-24 -43.334 -24 -74.001c0 -24.667 9 -55.667 27 -93c14.667 -31.333 24.334 -48.333 29.001 -51zM-29.001 652l-41 -43l41 -41l43 41z" />
    <glyph glyph-name="brokenbar" unicode="&#xa6;" 
d="M-233 25l-190 -188l55 -39l152 166l116 -150l21 17zM-311 -167l29.001 -53c9.33301 6 17 10.333 23 13c18.667 8.66699 35 13 49 13c20 0 36.5 -2.16699 49.5 -6.5s19.5 -13.833 19.5 -28.5s-9 -26.834 -27 -36.501s-37.667 -14.5 -59 -14.5
c-58.667 0 -109.334 16 -152.001 48c-14 10.667 -29.667 26.667 -47 48l-18 -16c0 -9.33301 21.333 -29.666 64 -60.999c52.667 -38.667 103.667 -58 153 -58c34 0 61.333 8 82 24s31 38 31 66c0 27.333 -10.5 48.833 -31.5 64.5s-48.167 23.5 -81.5 23.5
c-20 0 -40 -4.33301 -60 -13c-6.66699 -2.66699 -14.667 -7 -24 -13z" />
    <glyph glyph-name="section" unicode="&#xa7;" 
d="M-267 -156l29.001 -53c9.33301 6 17 10.333 23 13c18.667 8.66699 35 13 49 13c20 0 36.5 -2.16699 49.5 -6.5s19.5 -13.833 19.5 -28.5s-9 -26.834 -27 -36.501s-37.667 -14.5 -59 -14.5c-58.667 0 -109.334 16 -152.001 48c-14 10.667 -29.667 26.667 -47 48l-18 -16
c0 -9.33301 21.333 -29.666 64 -60.999c52.667 -38.667 103.667 -58 153 -58c34 0 61.333 8 82 24s31 38 31 66c0 27.333 -10.5 48.833 -31.5 64.5s-48.167 23.5 -81.5 23.5c-20 0 -40 -4.33301 -60 -13c-6.66699 -2.66699 -14.667 -7 -24 -13z" />
    <glyph glyph-name="dieresis" unicode="&#xa8;" horiz-adv-x="347" 
d="M353 512l-359.002 0.00195312v-57h238v-55h-102c-27.333 0 -47.666 -3.66699 -60.999 -11c-19.333 -10.667 -29 -30.334 -29 -59.001c0 -20 12.5 -43.167 37.5 -69.5s44.5 -39.5 58.5 -39.5c10 0 24.667 2.5 44 7.5s33.333 7.5 42 7.5c20.667 0 34.334 -9 41.001 -27
c2 -6 3.33301 -15 4 -27h-37c-12 0 -21.833 -1.33301 -29.5 -4s-11.5 -8 -11.5 -16c0 -12.667 12.667 -32.334 38 -59.001s44 -40 56 -40c9.33301 0 15.5 2.33301 18.5 7s4.5 10.667 4.5 18v39h121v55h-127c0.666992 6 1 10.333 1 13c0 24.667 -4.66699 45.667 -14 63
c-15.333 27.333 -41 41 -77 41c-14.667 0 -35.667 -4.33301 -63 -13c-14.667 -4.66699 -26.667 -7 -36 -7c-8.66699 0 -16 3.33301 -22 10s-9 14.667 -9 24c0 12 3.16699 19.833 9.5 23.5s14.833 5.5 25.5 5.5h166v113h72v57z" />
    <glyph glyph-name="copyright" unicode="&#xa9;" horiz-adv-x="450" 
d="M-6 512l-0.00195312 -57.002h118l10 -20c6.66699 -17.333 10 -36 10 -56c0 -17.333 -1 -31.666 -3 -42.999c-3.33301 -11.333 -6.33301 -22.333 -9 -33c-2 3.33301 -8.83301 7.33301 -20.5 12s-20.5 7 -26.5 7c-9.33301 0 -17.166 -2 -23.499 -6s-9.5 -11.667 -9.5 -23
c0 -34.667 28 -78 84 -130c37.333 -34.667 89.666 -74 156.999 -118c54 -35.333 82.333 -53 85 -53l12 18l-47 28c-29.333 18 -56.666 36 -81.999 54c-14.667 11.333 -34.334 27.333 -59.001 48l-33 28c8 12 16.333 33.333 25 64c4 10 7.33301 24.333 10 43
c0 2.66699 0.666992 6.66699 2 12c2 2 11.667 6.33301 29 13c22 8.66699 38.667 13 50 13c42.667 0 64 -20.333 64 -61c0 -24.667 -8.66699 -47 -26 -67c-5.33301 -6.66699 -14.333 -14.334 -27 -23.001l57 -41c8.66699 8.66699 15.334 17.334 20.001 26.001
c12.667 23.333 19 51 19 83c0 30.667 -12 59.667 -36 87c-27.333 30.667 -60.333 46 -99 46c-11.333 0 -23.333 -1.66699 -36 -5c-4 -0.666992 -9.66699 -2.66699 -17 -6l-6 46c-2.66699 14 -8.66699 29.333 -18 46c-1.33301 2.66699 -3.66602 6.33398 -6.99902 11.001h295
v57h-462z" />
    <glyph glyph-name="ordfeminine" unicode="&#xaa;" horiz-adv-x="646" 
d="M201 311l66.0039 -9.99902c-1.33301 -4.66699 -2.33301 -9.66699 -3 -15s-1 -10.333 -1 -15c0 -32.667 11.333 -59 34 -79s51 -30 85 -30c21.333 0 43 5 65 15c3.33301 1.33301 7.66602 3.66602 12.999 6.99902l-49 60c-6.66699 -5.33301 -12.667 -9.33301 -18 -12
c-17.333 -8.66699 -36 -13 -56 -13c-11.333 0 -21 2.16699 -29 6.5s-12 11.833 -12 22.5c0 14.667 12 30.667 36 48s44 26 60 26c45.333 0 86 -28.333 122 -85c11.333 -18.667 24.666 -47 39.999 -85l22 12c-20.667 48 -39 83.667 -55 107c-48.667 72 -102 108 -160 108
c-19.333 0 -36 -4 -50 -12c-4 -2.66699 -9 -6.66699 -15 -12l-97 14c-2 4.66699 -3.33301 8 -4 10c-3.33301 8.66699 -5.66602 17.167 -6.99902 25.5s-5.33301 19.166 -12 32.499c-2 4.66699 -5.66699 10.667 -11 18h487v57h-658v-57h121
c5.33301 -8 10.166 -18.5 14.499 -31.5s6.5 -27.833 6.5 -44.5c0 -15.333 -1.33301 -29.666 -4 -42.999l-10 -33c-4.66699 4.66699 -11.667 9 -21 13s-17.333 6 -24 6c-10 0 -18.667 -2 -26 -6s-11 -11.667 -11 -23c0 -34.667 28.333 -78 85 -130
c39.333 -36 91.666 -75.333 156.999 -118c54 -35.333 82.667 -53 86 -53l14 18l-47 28c-29.333 18 -56.666 36 -81.999 54c-14.667 11.333 -34.334 27.333 -59.001 48l-33 28c1.33301 4.66699 4.66602 13 9.99902 25l16 39c4.66699 15.333 8.66699 36 12 62
c0 4 0.666992 9.66699 2 17z" />
    <glyph glyph-name="guillemotleft" unicode="&#xab;" horiz-adv-x="614" 
d="M559 342l-55 -53l55 -54l56 54zM192 93c0 9.33301 2.33398 17.333 7.00098 24c8 11.333 15.333 17 22 17c10 -10 28.167 -20 54.5 -30s50.5 -15 72.5 -15s45 3.33301 69 10c8 2 17.667 5.33301 29 10v-86c-16.667 -25.333 -31 -44 -43 -56
c-36.667 -37.333 -75.667 -56 -117 -56c-17.333 0 -32.5 2.66699 -45.5 8s-19.5 14.333 -19.5 27c0 18.667 6.66699 31.667 20 39c6 3.33301 20.333 7.33301 43 12c10.667 1.33301 19.667 2 27 2c11.333 0 19.166 -0.166992 23.499 -0.5s8.16602 -0.833008 11.499 -1.5
l-25 45c-2.66699 -0.666992 -7.66699 -1.66699 -15 -3s-15.666 -2 -24.999 -2c-12 0 -22.333 1.33301 -31 4l-31 10c-18 8.66699 -27 22.667 -27 42zM171.001 167c-9.33301 -4.66699 -15.9961 -9.00195 -19.9961 -13.002c-14 -12.667 -21 -28.334 -21 -47.001
c0 -22 12.667 -42 38 -60c8 -6 20.667 -12.667 38 -20c-10.667 -5.33301 -18.667 -10.333 -24 -15c-16.667 -14.667 -25 -31.334 -25 -50.001c0 -30.667 14.333 -54.334 43 -71.001c24 -14 52.667 -21 86 -21c35.333 0 72.333 10.333 111 31
c12.667 6.66699 29 17.334 49 32.001v-63l64 -49v329c0 44 -10.667 78.333 -32 103c-24.667 28.667 -62.667 43 -114 43c-14.667 0 -31.334 -1.66699 -50.001 -5l-61 -11c-8.66699 0 -17.334 2.33301 -26.001 7s-13 12.334 -13 23.001c0 12.667 4.33301 21.334 13 26.001
s19 7 31 7h239v112h123v57h-626v-57h440v-55h-211c-20 0 -35 -2.83301 -45 -8.5s-15 -19.167 -15 -40.5c0 -20 14.167 -47.5 42.5 -82.5s49.166 -52.5 62.499 -52.5c12 0 33.167 5.5 63.5 16.5s51.5 16.5 63.5 16.5c18.667 0 32.167 -2.83301 40.5 -8.5
s12.5 -16.5 12.5 -32.5c0 -21.333 -17 -37.666 -51 -48.999c-26.667 -8.66699 -55.334 -13 -86.001 -13c-50 0 -98.333 19.667 -145 59c-67.333 57.333 -101 101.333 -101 132l-25 -23l28 -39c20.667 -28 38 -49 52 -63c8.66699 -9.33301 18.5 -18.666 29.5 -27.999
s18.167 -15 21.5 -17z" />
    <glyph glyph-name="logicalnot" unicode="&#xac;" horiz-adv-x="224" 
d="M230 455v57h-236v-57h236zM304 189v77.002c-16.667 -17.333 -31 -30.333 -43 -39c-36 -26 -72.333 -39 -109 -39c-17.333 0 -31.833 5.83301 -43.5 17.5s-17.5 24.5 -17.5 38.5c0 24.667 15.167 44.167 45.5 58.5s59.5 21.5 87.5 21.5c22.667 0 42.667 -4.33301 60 -13
c5.33301 -2.66699 12 -7.33398 20 -14.001v27c-6 11.333 -23.333 25.333 -52 42c-22 12.667 -42.333 19 -61 19c-34.667 0 -67 -9 -97 -27c-36 -22 -54 -49.667 -54 -83c0 -32.667 17.333 -63.334 52 -92.001c32 -26.667 61.667 -40 89 -40h16l-104 -101l51 -39z" />
    <glyph glyph-name="minus" unicode="&#xad;" horiz-adv-x="255" 
d="M335 297c0 -10 -13.999 -28.6689 -41.999 -56.002c-36.667 -35.333 -76.334 -53 -119.001 -53c-26 0 -48 10 -66 30c-5.33301 6.66699 -11.666 16.667 -18.999 30c30.667 2.66699 53.667 7.33398 69 14.001c46 20.667 69 58.334 69 113.001
c0 22.667 -5.33301 42.667 -16 60c-3.33301 5.33301 -9 12 -17 20h67v57h-267v-57h157c6.66699 -6.66699 11 -13 13 -19c4.66699 -13.333 7 -28.333 7 -45c0 -26 -9.33301 -46.167 -28 -60.5s-43.334 -21.5 -74.001 -21.5l-29 2c0 -37.333 16.667 -76 50 -116
c29.333 -34.667 66 -52 110 -52c37.333 0 71 9 101 27c10 6 21.333 15 34 27v100z" />
    <glyph glyph-name="registered" unicode="&#xae;" horiz-adv-x="331" 
d="M337 455v57h-343v-57h343zM346 379h-305.999l37 -57h113c-4 -3.33301 -6.66699 -6.66602 -8 -9.99902c-6 -10.667 -9 -23 -9 -37c0 -30.667 14.333 -58.667 43 -84c26 -23.333 50.667 -35 74 -35c31.333 0 60.666 8 87.999 24c9.33301 5.33301 20.333 13.666 33 24.999
v96c-18.667 -22.667 -33.667 -39.667 -45 -51c-35.333 -34 -66.666 -51 -93.999 -51c-30 0 -45 15 -45 45c0 24 13 43.667 39 59c21.333 12.667 41.666 19 60.999 19h54z" />
    <glyph glyph-name="macron" unicode="&#xaf;" horiz-adv-x="433" 
d="M40 223c0 -62 25.6689 -109.335 77.002 -142.002c37.333 -24 75.666 -36 114.999 -36c6 0 15.167 0.333008 27.5 1s21.166 1 26.499 1c14.667 0 26 -1.5 34 -4.5s12 -8.83301 12 -17.5c0 -10.667 -7.66699 -19 -23 -25c-7.33301 -2.66699 -15.333 -4 -24 -4l29 -31
c16 8 28.167 16.5 36.5 25.5s12.5 20.5 12.5 34.5c0 23.333 -8.33301 41 -25 53c-24.667 18 -69 27 -133 27c-41.333 0 -72.5 6.83301 -93.5 20.5s-31.5 33.834 -31.5 60.501c0 40.667 16.667 72.334 50 95.001c26 17.333 53.333 26 82 26h147l-22 54h-339l28 -54h52
c-8.66699 -8.66699 -15 -16 -19 -22c-12.667 -19.333 -19 -40 -19 -62z" />
    <glyph glyph-name="degree" unicode="&#xb0;" 
d="M-233 25l-190 -188l55 -39l152 166l116 -150l21 17zM-311 -167l29.001 -53c9.33301 6 17 10.333 23 13c18.667 8.66699 35 13 49 13c20 0 36.5 -2.16699 49.5 -6.5s19.5 -13.833 19.5 -28.5s-9 -26.834 -27 -36.501s-37.667 -14.5 -59 -14.5
c-58.667 0 -109.334 16 -152.001 48c-14 10.667 -29.667 26.667 -47 48l-18 -16c0 -9.33301 21.333 -29.666 64 -60.999c52.667 -38.667 103.667 -58 153 -58c34 0 61.333 8 82 24s31 38 31 66c0 27.333 -10.5 48.833 -31.5 64.5s-48.167 23.5 -81.5 23.5
c-20 0 -40 -4.33301 -60 -13c-6.66699 -2.66699 -14.667 -7 -24 -13z" />
    <glyph glyph-name="plusminus" unicode="&#xb1;" horiz-adv-x="631" 
d="M577 332l-57 -53l57 -54l56 54zM474 -14v-19c0 -6.66699 -12.667 -18 -38 -34c-30.667 -19.333 -59.667 -29 -87 -29c-11.333 -1.33301 -21.333 1.5 -30 8.5s-13 17.167 -13 30.5c0 22 12.333 38.333 37 49c18.667 8 42.667 12 72 12c21.333 0 41 -6 59 -18zM195 -96
c-12 10.667 -26 24.3311 -42 40.998l-23 26c18 18 30.667 35.667 38 53c11.333 26.667 17 56.334 17 89.001l-2 55c22.667 -15.333 41 -27 55 -35c43.333 -24 81.666 -37.667 114.999 -41c22 0 48.667 1.66699 80 5c10 0.666992 23.667 2.33398 41 5.00098v-90
c-11.333 9.33301 -21 16.333 -29 21c-26 14.667 -52 22 -78 22c-24.667 0 -46.5 -7.66699 -65.5 -23s-28.5 -33.666 -28.5 -54.999c0 -25.333 9.83301 -50.666 29.5 -75.999s42.834 -38 69.501 -38c30.667 0 56.667 6 78 18c6.66699 4 14.667 10.333 24 19v-58l66 -55v356
c0 44 -10.667 78.333 -32 103c-24.667 28.667 -62.667 43 -114 43c-14.667 0 -39.334 -2.66699 -74.001 -8s-55.667 -8 -63 -8c-8 0 -15.333 2 -22 6c-10 6 -15 14 -15 24c0 12.667 4.16699 21.334 12.5 26.001s18.5 7 30.5 7h264v119h110v57h-643v-57h470v-62h-236
c-24 0 -39.833 -4.16699 -47.5 -12.5s-11.5 -20.5 -11.5 -36.5c0 -20 13.833 -47.5 41.5 -82.5s48.5 -52.5 62.5 -52.5c12.667 0 38.334 5.5 77.001 16.5s63 16.5 73 16.5c36.667 0 55 -13.667 55 -41c0 -18 -15.667 -31.333 -47 -40c-24.667 -6.66699 -53.667 -10 -87 -10
h-19c-4 0.666992 -7 1 -9 1c-47.333 0 -101.666 28.667 -162.999 86c-52.667 49.333 -79 80 -79 92l-26 -23l61 -67l25 -25c1.33301 -10.667 2.33301 -22.334 3 -35.001s1 -24.334 1 -35.001c-2.66699 -17.333 -5.66699 -32 -9 -44s-8 -18.333 -14 -19
s-11.833 3.66602 -17.5 12.999s-14.167 14 -25.5 14s-19.5 -4 -24.5 -12s-7.5 -17.667 -7.5 -29c0 -20.667 18.667 -52.334 56 -95.001c29.333 -33.333 64 -67.666 104 -102.999c36 -32 55 -48 57 -48l16 16c-2.66699 1.33301 -12.834 9.33301 -30.501 24
s-33.5 28.667 -47.5 42z" />
    <glyph glyph-name="twosuperior" unicode="&#xb2;" horiz-adv-x="621" 
d="M323 66l16.999 -3.00098c40 0 74 2.33301 102 7v-200l64 -54v335c0.666992 3.33301 1 8.66602 1 15.999c0 30 -12.333 56.167 -37 78.5s-54.334 33.5 -89.001 33.5c-14.667 0 -39.334 -2.66699 -74.001 -8s-55.667 -8 -63 -8c-6.66699 0 -14.5 4 -23.5 12
s-13.5 17.333 -13.5 28c0 12.667 4.16699 21.334 12.5 26.001s18.5 7 30.5 7h264v119h113v57h-633v-57h457v-62h-236c-24 0 -39.833 -4.16699 -47.5 -12.5s-11.5 -20.5 -11.5 -36.5c0 -20 13.833 -49.167 41.5 -87.5s48.5 -57.5 62.5 -57.5c12.667 0 38.334 5.5 77.001 16.5
s63 16.5 73 16.5c18 0 31.667 -5.66699 41 -17s14 -25.666 14 -42.999c0 -18 -15.667 -31.333 -47 -40c-24.667 -6.66699 -53.667 -10 -87 -10h-19c-4 0.666992 -7 1 -9 1c-47.333 0 -101.666 28.667 -162.999 86c-52.667 49.333 -79 80 -79 92l-26 -23l61 -67l36 -31
l38 -41l27 -18c22.667 -14.667 44.667 -26.667 66 -36v-69l-57 9c-8 0 -15.833 -3.5 -23.5 -10.5s-11.5 -14.833 -11.5 -23.5c0 -13.333 17.833 -36.833 53.5 -70.5s58.834 -50.5 69.501 -50.5c13.333 0 22.333 7.83301 27 23.5s7 35.167 7 58.5
c0 39.333 -1.66699 77.333 -5 114zM563.999 323.999l-57 -53l57 -54l56 54z" />
    <glyph glyph-name="threesuperior" unicode="&#xb3;" horiz-adv-x="255" 
d="M335 297c0 -10 -13.999 -28.6689 -41.999 -56.002c-36.667 -35.333 -76.334 -53 -119.001 -53c-26 0 -48 10 -66 30c-5.33301 6.66699 -11.666 16.667 -18.999 30c30.667 2.66699 53.667 7.33398 69 14.001c46 20.667 69 58.334 69 113.001
c0 22.667 -5.33301 42.667 -16 60c-3.33301 5.33301 -9 12 -17 20h67v57h-267v-57h157c6.66699 -6.66699 11 -13 13 -19c4.66699 -13.333 7 -28.333 7 -45c0 -26 -9.33301 -46.167 -28 -60.5s-43.334 -21.5 -74.001 -21.5l-29 2c0 -37.333 16.667 -76 50 -116
c29.333 -34.667 66 -52 110 -52c37.333 0 71 9 101 27c10 6 21.333 15 34 27v100z" />
    <glyph glyph-name="acute" unicode="&#xb4;" 
d="M-119 212l-211 -205l51 -39l160 186v58z" />
    <glyph glyph-name="mu" unicode="&#xb5;" horiz-adv-x="349" 
d="M355 455l-0.000976562 57.001h-361v-57h156v-76c-27.333 -3.33301 -53.666 -12.333 -78.999 -27c-8.66699 -4.66699 -19 -12 -31 -22l36 -53c0 4 10.667 14 32 30c25.333 18.667 45.166 29.167 59.499 31.5s23.166 3.5 26.499 3.5c27.333 0 41 -15.667 41 -47
c0 -19.333 -5.66699 -43.333 -17 -72c-6.66699 -15.333 -18.667 -32.666 -36 -51.999c-6 -6.66699 -14.667 -15.334 -26 -26.001c-9.33301 8 -16.666 14 -21.999 18c-18.667 12.667 -35 19 -49 19c-10.667 0 -20.5 -3.83301 -29.5 -11.5s-13.5 -17.5 -13.5 -29.5
c0 -16 11 -29.667 33 -41c18.667 -9.33301 36.334 -14 53.001 -14h37l75 -100l25 18l-80 92c12 7.33301 21.667 14.333 29 21c43.333 39.333 65 89.666 65 150.999c0 40.667 -13 71 -39 91l-41 20v76h156z" />
    <glyph glyph-name="paragraph" unicode="&#xb6;" horiz-adv-x="440" 
d="M261 217c-6.66699 -0.666992 -14.5 -1.16797 -23.5 -1.50098s-14.167 -0.5 -15.5 -0.5c-2 3.33301 -3.33301 6 -4 8c-2.66699 6.66699 -4 14.334 -4 23.001c0 14.667 10 26.5 30 35.5s38.667 13.5 56 13.5c9.33301 0 17.166 -2 23.499 -6s9.5 -10.667 9.5 -20
c0 -15.333 -7.66699 -27.333 -23 -36c-11.333 -6.66699 -27.666 -12 -48.999 -16zM261 -73.001c-6.66699 -0.666992 -14.5 -1.16797 -23.5 -1.50098s-14.167 -0.5 -15.5 -0.5c-2 3.33301 -3.33301 6 -4 8c-2.66699 6.66699 -4 14.334 -4 23.001c0 14.667 10 26.5 30 35.5
s38.667 13.5 56 13.5c9.33301 0 17.166 -2 23.499 -6s9.5 -10.667 9.5 -20c0 -15.333 -7.66699 -27.333 -23 -36c-11.333 -6.66699 -27.666 -12 -48.999 -16zM290 162.998v-22h-135c-31.333 0 -58.333 -9.33301 -81 -28s-34 -43 -34 -73c0 -50.667 23 -92.334 69 -125.001
c42 -30 88.667 -45 140 -45c34 0 61.667 6.66699 83 20c25.333 16 38 40 38 72c0 22.667 -9.5 43.834 -28.5 63.501s-40.833 29.5 -65.5 29.5c-28.667 0 -52.667 -7 -72 -21s-29 -33 -29 -57c0 -12.667 2.66699 -25 8 -37c1.33301 -4 4.33301 -9 9 -15h-27
c-24 0 -44.333 7.66699 -61 23s-25 36.666 -25 63.999c0 24.667 9.83301 43.334 29.5 56.001s42.5 19 68.5 19h164v100c19.333 16 29 37.667 29 65c0 22.667 -9.5 43.834 -28.5 63.501s-40.833 29.5 -65.5 29.5c-28.667 0 -52.667 -7 -72 -21s-29 -33 -29 -57
c0 -12.667 2.66699 -25 8 -37c1.33301 -4 4.33301 -9 9 -15h-27c-24 0 -44.333 7.66699 -61 23s-25 36.666 -25 63.999c0 24.667 9.83301 43.334 29.5 56.001s42.5 19 68.5 19h164v78h105v57h-452v-57h296v-24h-135c-31.333 0 -58.333 -9.33301 -81 -28s-34 -43 -34 -73
c0 -50.667 23 -92.334 69 -125.001c42 -30 88.667 -45 140 -45z" />
    <glyph glyph-name="periodcentered" unicode="&#xb7;" horiz-adv-x="469" 
d="M40 69c26 -44 48.333 -77 67 -99c57.333 -66.667 115.666 -100 174.999 -100c33.333 0 60 6 80 18c24.667 14.667 37 36 37 64c0 32 -13.5 60.167 -40.5 84.5s-59.167 36.5 -96.5 36.5c-10 0 -21 -2 -33 -6s-20.333 -6 -25 -6c-17.333 0 -28 1 -32 3
c-8.66699 4 -13 13.667 -13 29c0 12 5.83301 21.5 17.5 28.5s20.167 10.5 25.5 10.5c12 -4.66699 21.333 -8 28 -10c21.333 -6.66699 38.666 -10 51.999 -10c32 0 58.667 6.66699 80 20c24.667 15.333 37 36.666 37 63.999c0 32 -13 58.5 -39 79.5s-57.333 31.5 -94 31.5
c-12 0 -26.333 -2.66699 -43 -8c-10.667 -3.33301 -17 -5 -19 -5c-23.333 0 -35 8.33301 -35 25c0 18 11 27 33 27h172v109h101v57h-481v-57h325v-52h-139c-19.333 0 -33.666 -2.66699 -42.999 -8c-14 -8 -21 -22.333 -21 -43c0 -18 12.667 -41.333 38 -70s49 -43 71 -43
c8.66699 0 25.334 3.33301 50.001 10c14.667 4 27.334 6 38.001 6c12.667 0 22.667 -3 30 -9s11 -16.333 11 -31c0 -17.333 -6.66699 -29.333 -20 -36s-31 -10 -53 -10h-17c-8 1.33301 -13.667 2 -17 2c-50 4.66699 -96 31.334 -138 80.001c-14 16 -30 40 -48 72l-21 -17
l19 -29c13.333 -20 26.333 -37.667 39 -53c9.33301 -12 20.666 -23.667 33.999 -35c10 -8.66699 17 -14 21 -16c-8.66699 -6 -15 -11 -19 -15c-13.333 -14 -20 -29.333 -20 -46c0 -19.333 13.5 -42.5 40.5 -69.5s50.5 -40.5 70.5 -40.5c10 0 23.667 3 41 9s33 9 47 9
c12 0 21.833 -2.33301 29.5 -7s11.5 -12.667 11.5 -24c0 -20.667 -9.5 -36.667 -28.5 -48s-41.167 -17 -66.5 -17c-5.33301 0.666992 -9.33301 1 -12 1c-48.667 0 -94.667 26.667 -138 80c-14 17.333 -30.667 44 -50 80z" />
    <glyph glyph-name="periodcentered" unicode="&#x2219;" horiz-adv-x="469" 
d="M40 69c26 -44 48.333 -77 67 -99c57.333 -66.667 115.666 -100 174.999 -100c33.333 0 60 6 80 18c24.667 14.667 37 36 37 64c0 32 -13.5 60.167 -40.5 84.5s-59.167 36.5 -96.5 36.5c-10 0 -21 -2 -33 -6s-20.333 -6 -25 -6c-17.333 0 -28 1 -32 3
c-8.66699 4 -13 13.667 -13 29c0 12 5.83301 21.5 17.5 28.5s20.167 10.5 25.5 10.5c12 -4.66699 21.333 -8 28 -10c21.333 -6.66699 38.666 -10 51.999 -10c32 0 58.667 6.66699 80 20c24.667 15.333 37 36.666 37 63.999c0 32 -13 58.5 -39 79.5s-57.333 31.5 -94 31.5
c-12 0 -26.333 -2.66699 -43 -8c-10.667 -3.33301 -17 -5 -19 -5c-23.333 0 -35 8.33301 -35 25c0 18 11 27 33 27h172v109h101v57h-481v-57h325v-52h-139c-19.333 0 -33.666 -2.66699 -42.999 -8c-14 -8 -21 -22.333 -21 -43c0 -18 12.667 -41.333 38 -70s49 -43 71 -43
c8.66699 0 25.334 3.33301 50.001 10c14.667 4 27.334 6 38.001 6c12.667 0 22.667 -3 30 -9s11 -16.333 11 -31c0 -17.333 -6.66699 -29.333 -20 -36s-31 -10 -53 -10h-17c-8 1.33301 -13.667 2 -17 2c-50 4.66699 -96 31.334 -138 80.001c-14 16 -30 40 -48 72l-21 -17
l19 -29c13.333 -20 26.333 -37.667 39 -53c9.33301 -12 20.666 -23.667 33.999 -35c10 -8.66699 17 -14 21 -16c-8.66699 -6 -15 -11 -19 -15c-13.333 -14 -20 -29.333 -20 -46c0 -19.333 13.5 -42.5 40.5 -69.5s50.5 -40.5 70.5 -40.5c10 0 23.667 3 41 9s33 9 47 9
c12 0 21.833 -2.33301 29.5 -7s11.5 -12.667 11.5 -24c0 -20.667 -9.5 -36.667 -28.5 -48s-41.167 -17 -66.5 -17c-5.33301 0.666992 -9.33301 1 -12 1c-48.667 0 -94.667 26.667 -138 80c-14 17.333 -30.667 44 -50 80z" />
    <glyph glyph-name="cedilla" unicode="&#xb8;" horiz-adv-x="384" 
d="M456 299c-9.33301 -14 -17.999 -24.333 -25.999 -31c-26 -21.333 -59 -32 -99 -32c-13.333 0 -26.5 5 -39.5 15s-19.5 22 -19.5 36c0 21.333 10 36.833 30 46.5s44 14.5 72 14.5c19.333 0 38.666 -5.66699 57.999 -17c6 -3.33301 14 -9.33301 24 -18v-14zM390.001 512
l-396 0.000976562v-57h128c3.33301 -4 6 -9.83301 8 -17.5s3 -18.167 3 -31.5c0 -17.333 -2 -35 -6 -53c-1.33301 -6 -3.66602 -13.667 -6.99902 -23c-7.33301 6.66699 -13 11.667 -17 15c-12.667 10 -22 14.667 -28 14c-13.333 0 -22.5 -3.33301 -27.5 -10
s-7.5 -15.667 -7.5 -27c0 -48 28 -104.333 84 -169c64.667 -74.667 134.667 -112 210 -112c35.333 0 71 15.667 107 47l23 24v58c-19.333 -20.667 -35.666 -36 -48.999 -46c-40.667 -30.667 -81.334 -46 -122.001 -46c-41.333 0 -78 13.667 -110 41
c-44.667 38 -67 69.333 -67 94c15.333 14.667 26.666 27.667 33.999 39c22.667 34.667 34 73.667 34 117c0 28 -3.33301 52.333 -10 73c-0.666992 3.33301 -2.66699 7.66602 -6 12.999h222v57zM464.001 331.001c-13.333 16 -24.334 27.668 -33.001 35.001
c-28 24 -56.333 36 -85 36c-35.333 0 -62.666 -6 -81.999 -18c-23.333 -14.667 -35 -37.334 -35 -68.001c0 -30 11.5 -54.333 34.5 -73s47.833 -28 74.5 -28l-109 -39l39 -41l196 101v95z" />
    <glyph glyph-name="onesuperior" unicode="&#xb9;" horiz-adv-x="629" 
d="M355 -22c-8 -11.333 -15.332 -19.668 -21.999 -25.001c-20.667 -17.333 -43.334 -26 -68.001 -26c-15.333 0 -27.333 2.66699 -36 8s-13 15 -13 29c0 16 6.83301 27.5 20.5 34.5s28.834 10.5 45.501 10.5c20 0 38 -5 54 -15
c5.33301 -3.33301 11.666 -8.66602 18.999 -15.999zM417.001 93.998c17.333 2 28.998 3.49805 34.998 4.49805s10.667 2.16699 14 3.5c20 16.667 34.667 33 44 49s14 31 14 45c0 26.667 -13.667 48.834 -41 66.501s-59.666 26.5 -96.999 26.5
c-14.667 0 -39.334 -2.66699 -74.001 -8s-55.667 -8 -63 -8c-8 0 -15.333 2 -22 6c-10 6 -15 14 -15 24c0 12.667 4.16699 21.334 12.5 26.001s18.5 7 30.5 7h264v119h116v57h-641v-57h462v-62h-236c-24 0 -39.833 -4.16699 -47.5 -12.5s-11.5 -20.5 -11.5 -36.5
c0 -20 13.833 -47.5 41.5 -82.5s48.5 -52.5 62.5 -52.5c12.667 0 38.334 5.5 77.001 16.5s63 16.5 73 16.5c36.667 0 55 -13.667 55 -41c0 -18 -15.667 -31.333 -47 -40c-24.667 -6.66699 -53.667 -10 -87 -10h-19c-4 0.666992 -7 1 -9 1
c-47.333 0 -101.666 28.667 -162.999 86c-52.667 49.333 -79 80 -79 92l-26 -23l61 -67l74 -72c22.667 -15.333 41 -27 55 -35c43.333 -24 81.666 -37.667 114.999 -41l10 -1v-82l-16 16c-26.667 23.333 -56.667 35 -90 35c-53.333 0 -80 -25.333 -80 -76
c0 -25.333 11.833 -48.333 35.5 -69s46.5 -31 68.5 -31c16.667 0 32.834 2.33301 48.501 7s26.834 10.334 33.501 17.001l62 -57v123c8 8 14.667 13.667 20 17c17.333 12 34.666 18 51.999 18c18 0 30.667 -5.33301 38 -16c4.66699 -6.66699 7 -16.334 7 -29.001
c0 -13.333 -9.33301 -28.333 -28 -45c-6 -5.33301 -15.333 -12.333 -28 -21l35 -35c16.667 8 27 14 31 18c19.333 17.333 29 40 29 68c0 17.333 -8 37.666 -24 60.999c-19.333 28 -42.333 42 -69 42c-10.667 0 -22.5 -2.16699 -35.5 -6.5s-22.167 -9.16602 -27.5 -14.499v63
zM571.999 334.996l-57 -53l57 -54l56 54z" />
    <glyph glyph-name="ordmasculine" unicode="&#xba;" horiz-adv-x="511" 
d="M419 313h-203.001c-5.33301 10 -9 18 -11 24c-8 19.333 -12 34 -12 44c0 22 6.33301 41.167 19 57.5s30.334 24.5 53.001 24.5h60.5h39.5l-24 57h-70c-35.333 0 -64 -9.66699 -86 -29s-33 -46.333 -33 -81c0 -22 7 -44.667 21 -68c4.66699 -8 12 -17.667 22 -29h-155
l28 -55h92c-8.66699 -8.66699 -15 -16 -19 -22c-12.667 -19.333 -19 -40 -19 -62c0 -62 25.667 -109.333 77 -142c37.333 -24 75.666 -36 114.999 -36c6.66699 0 16.667 0.333008 30 1s22.666 1 27.999 1c14 0 24.333 -1.16699 31 -3.5s10 -7.5 10 -15.5
c0 -8.66699 -5.16699 -16.167 -15.5 -22.5s-20.5 -9.5 -30.5 -9.5l29 -31c16.667 8.66699 28.334 16.667 35.001 24c9.33301 10.667 14 24 14 40c0 22 -8.33301 39 -25 51c-25.333 18.667 -69.666 28 -132.999 28c-41.333 0 -72.5 6.66699 -93.5 20s-31.5 33.333 -31.5 60
c0 40 16.667 71 50 93c26 17.333 53.333 26 82 26h147z" />
    <glyph glyph-name="guillemotright" unicode="&#xbb;" horiz-adv-x="583" 
d="M329 199c40.667 0 68.6689 -2.33398 84.002 -7.00098c23.333 -7.33301 35 -22 35 -44v-95c-6 12 -23 25 -51 39c-22.667 11.333 -46 17 -70 17s-45.667 -7 -65 -21c-22.667 -16.667 -34 -39 -34 -67c0 -26.667 9.66699 -51.334 29 -74.001c22 -26 48.667 -39 80 -39
c25.333 0 51.333 8.33301 78 25c8.66699 5.33301 19.667 14 33 26v-125l65 -47v367c0 36.667 -18.333 62.667 -55 78c-29.333 12 -73 18 -131 18c-70 0 -125.667 -10.333 -167 -31c-7.33301 -3.33301 -15.333 -8.66602 -24 -15.999
c-10.667 8.66699 -18.334 15.667 -23.001 21c-16 18 -24 35 -24 51c0 13.333 4.5 23.833 13.5 31.5s20.833 11.5 35.5 11.5h344v137h107v57h-595v-57h421v-80h-297c-21.333 0 -39.666 -6 -54.999 -18s-23 -28.667 -23 -50c0 -27.333 11.333 -55.666 34 -84.999
c7.33301 -9.33301 19 -21.333 35 -36l-45 -45c-13.333 -21.333 -20 -45.666 -20 -72.999c0 -40.667 17 -82.334 51 -125.001c24 -30 55.667 -59.333 95 -88c30.667 -22 47.667 -33 51 -33l18 18c-34.667 22 -60.334 40.667 -77.001 56c-51.333 46.667 -77 93 -77 139
c0 48.667 25.333 89 76 121c45.333 28.667 94.666 43 147.999 43zM366.002 54.999c26 0 47.334 -5 64.001 -15c5.33301 -3.33301 11.333 -8.33301 18 -15c-17.333 -16.667 -31.333 -29 -42 -37c-33.333 -24.667 -64 -37 -92 -37c-12.667 0 -24.334 4.16699 -35.001 12.5
s-16 18.5 -16 30.5c0 17.333 11.167 31.833 33.5 43.5s45.5 17.5 69.5 17.5z" />
    <glyph glyph-name="onequarter" unicode="&#xbc;" horiz-adv-x="647" 
d="M515 86c-5.33301 4 -11 7.66699 -17 11c-13.333 6.66699 -28 10 -44 10c-18 0 -36.667 -7.33301 -56 -22c-6 -4.66699 -14 -12 -24 -22c-13.333 10.667 -24.333 18.334 -33 23.001c-26.667 15.333 -52 23 -76 23c-22 0 -41.167 -6.83301 -57.5 -20.5
s-24.5 -32.834 -24.5 -57.501c0 -36 24.333 -78 73 -126c16 -16 40.333 -36.333 73 -61l14 19c-22.667 16.667 -39.334 30.667 -50.001 42c-33.333 34 -50 67 -50 99c0 41.333 20.333 62 61 62c16 0 30.667 -5.33301 44 -16c2.66699 -3.33301 5.66699 -6.33301 9 -9l-28 -31
l53 -47c12 22.667 22 39.667 30 51c24.667 34.667 47.334 52 68.001 52c11.333 0 21.333 -2 30 -6c1.33301 -0.666992 3 -1.66699 5 -3v-223l62 -47v359c0 40 -21.333 67.667 -64 83c-31.333 11.333 -78.333 17 -141 17c-47.333 0 -92.333 -4.33301 -135 -13
c-58 -12 -91.667 -22.667 -101 -32c-10.667 8.66699 -18.334 16 -23.001 22c-16 18.667 -24 36 -24 52c0 13.333 4.5 23.833 13.5 31.5s20.833 11.5 35.5 11.5h410v137h105v57h-659v-57h488v-80h-364c-21.333 0 -39.666 -6 -54.999 -18s-23 -28.667 -23 -50
c0 -27.333 11.667 -56.333 35 -87c7.33301 -10 19.333 -22.667 36 -38l-46 -40c-14 -20.667 -21 -45.334 -21 -74.001c0 -57.333 29.667 -115.666 89 -174.999c19.333 -19.333 49 -43 89 -71l17 18c-30 22 -52.333 40.667 -67 56c-44.667 46.667 -67 93 -67 139
c0 52 28.667 93 86 123c52.667 27.333 117.667 41 195 41c46 0 75.667 -1.66699 89 -5c26.667 -6.66699 40 -22 40 -46v-62z" />
    <glyph glyph-name="onehalf" unicode="&#xbd;" horiz-adv-x="360" 
d="M186 354c-7.33301 3.33301 -13 6.33203 -17 8.99902c-25.333 18 -38 40.333 -38 67c0 13.333 4.5 25.333 13.5 36s22.167 16 39.5 16c20 0 35.167 -5.16699 45.5 -15.5s15.5 -22.5 15.5 -36.5c0 -23.333 -8.66699 -42.666 -26 -57.999c-13.333 -12 -24.333 -18 -33 -18z
M366 454.999v57h-57l26 -57h31zM440 130.999v95.999c-10 -21.333 -18.667 -37 -26 -47c-22.667 -31.333 -47.667 -47 -75 -47c-12 0 -21.167 3.5 -27.5 10.5s-9.5 16.167 -9.5 27.5c0 26 11 45.667 33 59l89 61l-50 27l-57 -33l-80 39c12.667 8 22 15 28 21
c19.333 19.333 29 40.333 29 63c0 26.667 -13.333 52 -40 76s-55 36 -85 36c-28 0 -49.667 -5 -65 -15c-20.667 -13.333 -31 -36.333 -31 -69c0 -24.667 15.333 -49 46 -73c10 -8 25.333 -17.667 46 -29l-135 -76l47 -37l135 86l80 -41l-190 -120l47 -37l104 69
c4.66699 -19.333 9.66699 -33.666 15 -42.999c17.333 -28.667 44 -43 80 -43c24 0 46.333 6.33301 67 19c6.66699 4 15 10.667 25 20z" />
    <glyph glyph-name="threequarters" unicode="&#xbe;" horiz-adv-x="207" 
d="M-6 455h76v-387l-50 -70h117v457h76v57h-219v-57z" />
    <glyph glyph-name="questiondown" unicode="&#xbf;" horiz-adv-x="423" 
d="M503 209c-21.333 -27.333 -39 -47.6709 -53 -61.0039c-43.333 -41.333 -83.666 -62 -120.999 -62c-19.333 0 -35 3.33301 -47 10c-3.33301 2 -8.33301 6.33301 -15 13c9.33301 4 16.333 7.33301 21 10c15.333 8 27.666 16 36.999 24c13.333 11.333 26.333 26 39 44
c10.667 15.333 16 24.666 16 27.999l-70 72h-188c-16 0 -26.667 1 -32 3c-10.667 4 -16 12.667 -16 26c0 12 4.16699 19.667 12.5 23s18.833 5 31.5 5h233v111h78v57h-435v-57h298v-57h-179c-20 0 -37.167 -5.66699 -51.5 -17s-21.5 -27.666 -21.5 -48.999
c0 -28 12.333 -50.333 37 -67c8 -5.33301 20.667 -11 38 -17c-10.667 -8 -18.667 -14.667 -24 -20c-16.667 -18 -25 -38 -25 -60c0 -46.667 22 -87 66 -121c30.667 -24 72 -44 124 -60c42.667 -13.333 65.334 -18.666 68.001 -15.999l13 21c-48 10 -84 20 -108 30
c-72.667 30 -109 69 -109 117c0 24.667 9.66699 46.334 29 65.001s41.666 28 66.999 28h119c-7.33301 -10 -13.333 -17.667 -18 -23c-16 -17.333 -32.667 -29.666 -50 -36.999c-8 -4 -18.667 -8.66699 -32 -14c-21.333 -8 -34.666 -12 -39.999 -12
c16.667 -21.333 31 -37.333 43 -48c38 -32.667 79 -49 123 -49c31.333 0 64.333 10.667 99 32c11.333 6.66699 25.666 17.334 42.999 32.001v96z" />
    <glyph glyph-name="Agrave" unicode="&#xc0;" horiz-adv-x="173" 
d="M179 455v57h-185v-57h185zM-80 258c9.33301 9.33301 20.334 17.6689 33.001 25.002c15.333 9.33301 30.333 14 45 14c18 0 32.5 -5.83301 43.5 -17.5s16.5 -27.5 16.5 -47.5c0 -26 -9.66699 -52.667 -29 -80c-6 -8.66699 -15.667 -19.667 -29 -33l52 -53
c11.333 13.333 19.666 24.666 24.999 33.999c17.333 29.333 26 58 26 86c0 41.333 -11.667 76.333 -35 105c-25.333 31.333 -58 47 -98 47c-12 0 -24 -1.66699 -36 -5c-4 -0.666992 -8.66699 -2.33398 -14 -5.00098v-70z" />
    <glyph glyph-name="Aacute" unicode="&#xc1;" 
d="M-281 -237c-24 18.667 -42.001 34.001 -54.001 46.001c-36 36.667 -54 69 -54 97c0 24.667 5.16699 43.834 15.5 57.501s24.166 20.5 41.499 20.5c20.667 0 38.667 -6 54 -18c4.66699 -4 10.667 -10.333 18 -19l-35 -39l51 -43c-3.33301 3.33301 10.167 23 40.5 59
s56.5 54 78.5 54c30 0 45 -16.333 45 -49c0 -30 -18 -61.333 -54 -94c-12 -10.667 -30.333 -24 -55 -40l46 -47c22.667 12 39.334 23 50.001 33c33.333 31.333 50 69.666 50 114.999c0 32 -9.83301 60.5 -29.5 85.5s-44.167 37.5 -73.5 37.5
c-25.333 0 -48.666 -8.33301 -69.999 -25c-6.66699 -5.33301 -14.667 -14 -24 -26c-16 12.667 -29 22 -39 28c-32 19.333 -61.333 29 -88 29c-22.667 0 -41.667 -6.5 -57 -19.5s-23 -34.5 -23 -64.5c0 -32.667 25 -75.334 75 -128.001c16.667 -17.333 41.667 -40.333 75 -69
z" />
    <glyph glyph-name="Acircumflex" unicode="&#xc2;" horiz-adv-x="415" 
d="M119 170c-14.667 -4 -25.665 -8 -32.998 -12c-22.667 -13.333 -34 -32 -34 -56c0 -28 12.333 -52.333 37 -73s52.667 -31 84 -31c40.667 0 78.667 12.667 114 38c7.33301 5.33301 21.666 18.666 42.999 39.999l54 -80l24 16l-100 144c8 5.33301 14 9.66602 18 12.999
c12.667 11.333 19 23.333 19 36c0 22.667 -5.33301 39.334 -16 50.001s-23 16 -37 16c-37.333 0 -56 -15.333 -56 -46c0 -8.66699 0.333008 -14.834 1 -18.501s3 -9.5 7 -17.5l-65 -3c-26.667 0 -49.667 7.33301 -69 22s-29 34.667 -29 60c0 26.667 10 45.334 30 56.001
c15.333 8 36.666 12 63.999 12h149v119h97v57h-427v-57h269v-59h-103c-47.333 0 -80 -9.33301 -98 -28c-14.667 -15.333 -22 -38.333 -22 -69c0 -34 13 -65.667 39 -95c8.66699 -9.33301 22 -20.666 40 -33.999zM242.002 64l-82.001 70.999l70 4c16 2 29.667 4.33301 41 7
c2 0 4.66699 0.666992 8 2l21 -25c-4 -7.33301 -7.33301 -12.666 -10 -15.999c-8 -11.333 -14.667 -19.5 -20 -24.5s-12.333 -10.167 -21 -15.5c-1.33301 -0.666992 -3.66602 -1.66699 -6.99902 -3zM97.001 75.999c0 14 7.33203 26 21.999 36
c4.66699 3.33301 12.334 7 23.001 11l80 -68c-2.66699 -4.66699 -14 -10.667 -34 -18c-15.333 -5.33301 -28 -8 -38 -8c-15.333 0 -28 4.33301 -38 13s-15 20 -15 34z" />
    <glyph glyph-name="Atilde" unicode="&#xc3;" horiz-adv-x="413" 
d="M150 -14c11.333 0 18.835 3.50195 22.502 10.502s5.5 17.167 5.5 30.5c0 3.33301 -0.166992 7.5 -0.5 12.5s-0.5 10.833 -0.5 17.5c0 20.667 -1.66699 40.667 -5 60c-0.666992 6 -2.33398 13.333 -5.00098 22c6 -2.66699 11.333 -4.66699 16 -6c14 -4 29 -6 45 -6
c6 0 11.833 -0.166992 17.5 -0.5s11.167 -0.5 16.5 -0.5c6 0 10.333 0.333008 13 1l94 -137l27 16l-94 133c9.33301 4 16 8 20 12c14 12.667 21 28 21 46s-5.33301 33 -16 45s-24.334 18 -41.001 18c-19.333 0 -34.5 -5.16699 -45.5 -15.5s-16.5 -23.5 -16.5 -39.5
c0 -4 0.333008 -8.33301 1 -13s1.66699 -9.33398 3 -14.001h-37c-26.667 0 -50 6.33301 -70 19c-24 15.333 -36 36.333 -36 63c0 25.333 7.16699 43.333 21.5 54s33.166 16 56.499 16h165v125h91v57h-425v-57h271v-66h-117c-31.333 0 -57.166 -8.5 -77.499 -25.5
s-30.5 -42.5 -30.5 -76.5c0 -30.667 12.667 -60.667 38 -90c8 -9.33301 21 -21 39 -35v-72h-36c-8.66699 0 -16 -1.33301 -22 -4s-9 -7.33398 -9 -14.001c0 -16 13.333 -34.333 40 -55s46.667 -31 60 -31z" />
    <glyph glyph-name="Adieresis" unicode="&#xc4;" horiz-adv-x="207" 
d="M-6 455h76v-387l-50 -70h171l-54 72v385h76v57h-219v-57z" />
    <glyph glyph-name="Aring" unicode="&#xc5;" 
d="M-75 512c-4.66699 7.33301 -7.66699 14.668 -9 22.001c-3.33301 14 -5 29.333 -5 46c0 42.667 19.333 74 58 94c30 15.333 70 23 120 23c78 0 150 -16 216 -48c45.333 -22 86.333 -51.667 123 -89l40 -48h33l-59 61c-50 46 -102.667 83.667 -158 113
c-78 41.333 -154 62 -228 62c-64 0 -113 -10 -147 -30c-42.667 -25.333 -64 -66 -64 -122c0 -18.667 3.66699 -38 11 -58c2 -6.66699 6 -15.334 12 -26.001h57zM510 707.002l-58 -56l58 -53l57 53z" />
    <glyph glyph-name="AE" unicode="&#xc6;" horiz-adv-x="464" 
d="M-6 512l0.000976562 -57h255v-46h-78c-38.667 0 -68.334 -5.33301 -89.001 -16c-28 -14.667 -42 -38.667 -42 -72c0 -40 17.833 -76.333 53.5 -109s70.167 -49 103.5 -49h43v-41h-67c-40.667 0 -72.334 -6 -95.001 -18c-30 -16 -45 -41.333 -45 -76
c0 -46.667 21 -85.667 63 -117c36.667 -27.333 76 -41 118 -41c31.333 0 62.333 4 93 12c40 10.667 64.333 20.334 73 29.001l-33 58c-17.333 -12 -32.666 -20.667 -45.999 -26c-40 -17.333 -83.333 -26 -130 -26c-25.333 0 -46 5 -62 15c-19.333 12 -29 31 -29 57
c0 30 12.667 51 38 63c18 8.66699 45 13 81 13h101v100l43 14c12 3.33301 24.333 8.66602 37 15.999c4 2 8.66699 5 14 9l-35 59c-13.333 -13.333 -37.5 -25.5 -72.5 -36.5s-72.167 -16.5 -111.5 -16.5c-24 0 -44 5 -60 15c-20 12.667 -30 31 -30 55
c0 26 11.333 43.833 34 53.5s50.667 14.5 84 14.5h103v107h164v57h-476z" />
    <glyph glyph-name="Ccedilla" unicode="&#xc7;" horiz-adv-x="462" 
d="M347 7c0 -29.333 -15.667 -51.668 -47 -67.001s-70.333 -23 -117 -23c-24.667 0 -47.167 7 -67.5 21s-30.5 32.667 -30.5 56c0 28.667 14.333 50.667 43 66c24 12.667 53.333 19 88 19h49c24.667 0 44.5 -5.66699 59.5 -17s22.5 -29.666 22.5 -54.999zM347 294.998
c0 -28.667 -16.334 -50.333 -49.001 -65c-28.667 -12.667 -67 -19 -115 -19c-25.333 0 -48 6 -68 18s-30 29.333 -30 52c0 29.333 14 51 42 65c22.667 11.333 52.334 17 89.001 17h49c25.333 0 45.333 -5.16699 60 -15.5s22 -27.833 22 -52.5zM-6.00098 454.999h251.001v-37
h-62c-40.667 0 -73.334 -7.66699 -98.001 -23c-30 -18.667 -45 -46.334 -45 -83.001c0 -42.667 22 -79 66 -109c38 -26 77.333 -39 118 -39l21 2v-33h-62c-39.333 0 -72 -8.66699 -98 -26c-30 -20 -45 -48 -45 -84c0 -42.667 21.667 -79.667 65 -111
c38.667 -28 78.334 -42 119.001 -42c51.333 0 91.333 9 120 27c32 20 48 49 48 87c0 26.667 -7.5 50.834 -22.5 72.501s-36.167 37.5 -63.5 47.5v68c19.333 4.66699 33.666 10 42.999 16c28.667 18 43 45.667 43 83c2 24.667 -5 48.5 -21 71.5s-37.667 38.167 -65 45.5v67
h162v57h-474v-57z" />
    <glyph glyph-name="Egrave" unicode="&#xc8;" horiz-adv-x="482" 
d="M288 148c2 2 10.668 19.0029 26.001 51.0029c9.33301 19.333 17.666 37.666 24.999 54.999c20.667 46 34 72.667 40 80c11.333 13.333 25.333 20 42 20c20 0 36.5 -6.83301 49.5 -20.5s19.5 -32.5 19.5 -56.5c0 -44.667 -13.167 -80.834 -39.5 -108.501
s-60.833 -41.5 -103.5 -41.5c-16.667 0 -33 4.66699 -49 14c-2.66699 1.33301 -6 3.66602 -10 6.99902zM-5.99902 455.003h494v57h-494v-57zM542.001 246.003c0 38.667 -16.5 73.1699 -49.5 103.503s-65.833 45.5 -98.5 45.5s-62.334 -19 -89.001 -57
c-14.667 -20.667 -32.334 -55.334 -53.001 -104.001s-36 -79.667 -46 -93c-18 -24.667 -40 -37 -66 -37c-16 0 -29.167 8.66699 -39.5 26s-15.5 36.666 -15.5 57.999c0 43.333 8.83301 75.166 26.5 95.499s45.5 30.5 83.5 30.5c22.667 0 39.334 -2.66699 50.001 -8
c1.33301 -0.666992 3.33301 -2.33398 6 -5.00098l16 17c-11.333 13.333 -21.333 23.333 -30 30c-26.667 20.667 -54.334 31 -83.001 31c-35.333 0 -63.166 -15.833 -83.499 -47.5s-30.5 -67.167 -30.5 -106.5c0 -40.667 11.167 -77 33.5 -109s51.5 -48 87.5 -48
c32.667 0 60.334 9.33301 83.001 28c7.33301 6 15.666 15.667 24.999 29c14.667 -9.33301 26.667 -16.333 36 -21c30 -14.667 57.667 -22 83 -22c42.667 0 78.334 14 107.001 42c31.333 30.667 47 71.334 47 122.001z" />
    <glyph glyph-name="Eacute" unicode="&#xc9;" 
d="M-144 -14c2 0.666992 6.49902 1.33008 13.499 1.99707s17.5 1 31.5 1h26.5c6.33301 0 10.833 -0.333008 13.5 -1l-30 57c-3.33301 0.666992 -7.66602 1.16699 -12.999 1.5s-12.333 0.5 -21 0.5h-14.5c-4.33301 0 -11.833 -1.33301 -22.5 -4
c-45.333 -11.333 -80 -27.666 -104 -48.999c-28 -25.333 -42 -58.666 -42 -99.999c0 -34 15.667 -63.667 47 -89s65 -38 101 -38c34.667 0 68.667 11.333 102 34c12.667 8.66699 27 21 43 37l-47 45c0 -6 -13.333 -18.667 -40 -38c-32.667 -23.333 -64.334 -35 -95.001 -35
c-19.333 0 -35.166 5.83301 -47.499 17.5s-18.5 26.834 -18.5 45.501c0 29.333 12 54 36 74c19.333 16 46.333 29 81 39z" />
    <glyph glyph-name="Ecircumflex" unicode="&#xca;" horiz-adv-x="366" 
d="M-6 512v-57h378v57h-378zM40 373l32.999 -58.999h84c-6 -3.33301 -10.333 -6.33301 -13 -9c-8.66699 -10 -13 -24.333 -13 -43c0 -44.667 27 -102 81 -172c18 -23.333 45.333 -54 82 -92l19 14c-27.333 27.333 -47.666 49.666 -60.999 66.999
c-41.333 53.333 -62 100 -62 140c0 28 9.83301 50.833 29.5 68.5s43.167 26.5 70.5 26.5h156v59h-406z" />
    <glyph glyph-name="Edieresis" unicode="&#xcb;" horiz-adv-x="522" 
d="M220 33c0 -36.667 19.6689 -65.332 59.002 -85.999c29.333 -15.333 59.666 -23 90.999 -23c26 0 50.667 3.33301 74 10c8 2 17.333 5.66699 28 11l-31 61c-12 -6.66699 -21.667 -11.334 -29 -14.001c-24.667 -10 -46.334 -15 -65.001 -15c-28.667 0 -51.167 3 -67.5 9
s-24.5 17.667 -24.5 35c0 14.667 9.66699 26 29 34c11.333 4.66699 28.166 9.16699 50.499 13.5s38.833 10.5 49.5 18.5c19.333 14.667 29 36.334 29 65.001c0 25.333 -12 48.666 -36 69.999c-30 26.667 -70 40 -120 40c-32 0 -62.333 -5.66699 -91 -17
c-9.33301 -3.33301 -20.666 -9.33301 -33.999 -18c-10.667 8 -18.667 14.667 -24 20c-16.667 16.667 -25 32 -25 46c0 12.667 4.83301 21.667 14.5 27s21.834 8 36.501 8h250v127h144v57h-534v-57h324v-70h-205c-22 0 -38.667 -3.66699 -50 -11c-15.333 -10 -23 -26 -23 -48
c0 -27.333 11.333 -55 34 -83c7.33301 -9.33301 19 -20.666 35 -33.999c-14 -10 -24.333 -19 -31 -27c-21.333 -26 -32 -56 -32 -90c0 -59.333 26 -112 78 -158c38 -34 86 -62 144 -84c41.333 -16 67.666 -24 78.999 -24l21 18c-7.33301 0 -30 7.33301 -68 22
c-50.667 19.333 -92.667 42.666 -126 69.999c-46 37.333 -69 78.333 -69 123c0 45.333 22.333 82.333 67 111c40 26 86.667 39 140 39c22 0 37.833 -3.5 47.5 -10.5s14.5 -17.167 14.5 -30.5c0 -10.667 -6.33301 -19 -19 -25c-8 -4 -20.333 -7.33301 -37 -10
c-28 -6.66699 -50.667 -17.667 -68 -33c-20 -18 -30 -40.333 -30 -67z" />
    <glyph glyph-name="Igrave" unicode="&#xcc;" horiz-adv-x="25" 
d="M-80 258c0 4.66699 6.66797 12.001 20.001 22.001c17.333 12.667 36.666 19 57.999 19c20 0 38.5 -3.33301 55.5 -10s27.167 -14.334 30.5 -23.001v25c-8.66699 12 -16.334 20.667 -23.001 26c-22 18 -47.667 27 -77 27c-15.333 0 -30.666 -3 -45.999 -9
c-4.66699 -2 -10.667 -5 -18 -9v-68zM31.001 455.001v57h-37v-57h37z" />
    <glyph glyph-name="Iacute" unicode="&#xcd;" horiz-adv-x="341" 
d="M186 354c-7.33301 3.33301 -13 6.33203 -17 8.99902c-25.333 18 -38 40.333 -38 67c0 13.333 4.5 25.333 13.5 36s22.167 16 39.5 16c20 0 35.167 -5.16699 45.5 -15.5s15.5 -22.5 15.5 -36.5c0 -23.333 -8.66699 -42.666 -26 -57.999c-13.333 -12 -24.333 -18 -33 -18z
M347 454.999v57h-58l33 -57h25zM421 204.999v34.999l-180 82c13.333 8 23.333 15 30 21c20 18.667 30 40.334 30 65.001c0 26 -14.5 51.167 -43.5 75.5s-58.5 36.5 -88.5 36.5c-28 0 -49.667 -5 -65 -15c-20.667 -13.333 -31 -36.333 -31 -69c0 -24.667 15.333 -49 46 -73
c10 -8 25.333 -17.667 46 -29l-135 -76l55 -43l130 92z" />
    <glyph glyph-name="Icircumflex" unicode="&#xce;" horiz-adv-x="402" 
d="M157 283c-15.333 0.666992 -26.6631 1.66895 -33.9961 3.00195c-22.667 5.33301 -34 16 -34 32c0 14 6.5 23.167 19.5 27.5s29.167 6.5 48.5 6.5h155v103h96v57h-414v-57h257v-51h-97c-36 0 -61 -2.33301 -75 -7c-26 -8.66699 -39 -26.334 -39 -53.001
c0 -20.667 8 -39 24 -55c22.667 -22 42 -33 58 -33c-6.66699 -6 -13.334 -11.667 -20.001 -17c-12.667 -14.667 -19 -31.667 -19 -51c0 -38 20.333 -67.667 61 -89c29.333 -15.333 58.666 -23 87.999 -23c2.66699 0 5.66699 -0.333008 9 -1s6.66602 -1.66699 9.99902 -3
l69 -78l39 12l-71 70c7.33301 1.33301 13 2.66602 17 3.99902c25.333 9.33301 38 27 38 53c0 18.667 -3.66699 33 -11 43c-9.33301 12.667 -23.333 19 -42 19c-24 0 -40.667 -9.33301 -50 -28c-2.66699 -6 -4.66699 -15.333 -6 -28c-5.33301 -2 -11 -3.83301 -17 -5.5
s-12 -2.5 -18 -2.5c-28.667 0 -49.667 4 -63 12s-20 18.333 -20 31c0 20 11.333 36 34 48s53 18 91 18c4 0 9.16699 0.333008 15.5 1s12.166 1 17.499 1c7.33301 0 13.333 -0.166992 18 -0.5s8.66699 -0.833008 12 -1.5l-51 57c-6 0 -12.667 -0.166992 -20 -0.5
s-16.333 -1.5 -27 -3.5z" />
    <glyph glyph-name="Idieresis" unicode="&#xcf;" 
d="M-109 187l-211 -205l51 -39l160 186v58z" />
    <glyph glyph-name="Eth" unicode="&#xd0;" horiz-adv-x="324" 
d="M330 512l-336.001 0.000976562v-57h244v-66h-116c-23.333 0 -42.833 -5.16699 -58.5 -15.5s-23.5 -27.5 -23.5 -51.5c0 -34 16 -61 48 -81c10.667 -6.66699 26.667 -13.334 48 -20.001c-5.33301 -3.33301 -9 -6.33301 -11 -9c-8 -9.33301 -12 -20 -12 -32
c0 -28 17 -54.333 51 -79s69.667 -37 107 -37c26 0 51.667 4.83301 77 14.5s44 20.5 56 32.5v94c-14.667 -21.333 -28 -37 -40 -47c-36.667 -31.333 -79.334 -47 -128.001 -47c-15.333 0 -29.666 3.83301 -42.999 11.5s-20 18.167 -20 31.5s6.5 25.166 19.5 35.499
s27.5 15.5 43.5 15.5h72l-57 59h-107c-20 0 -33.667 1 -41 3c-14.667 4 -22 12 -22 24c0 12.667 3.33301 22.334 10 29.001s18.334 10 35.001 10h176v125h28v57z" />
    <glyph glyph-name="Ntilde" unicode="&#xd1;" horiz-adv-x="207" 
d="M-6 455h76v-427c0 -18 5 -31.833 15 -41.5s23 -14.5 39 -14.5c20.667 0 38 7.66699 52 23c16.667 18 25 42.667 25 74h-14c0 -11.333 -5 -24 -15 -38s-18.667 -21 -26 -21c-6 0 -9 6 -9 18v427h76v57h-219v-57z" />
    <glyph glyph-name="Ograve" unicode="&#xd2;" horiz-adv-x="229" 
d="M235 455l-0.00195312 57.001h-241v-57h63v-100c0 -26 7.66699 -47.667 23 -65c11.333 -12.667 34 -29.334 68 -50.001c14.667 -8 37.334 -16.667 68.001 -26l40 -11l-221 -98l37 -52l237 117v55c-10.667 1.33301 -19.334 2.33301 -26.001 3
c-39.333 7.33301 -71.666 19.333 -96.999 36c-21.333 14 -36.666 27.667 -45.999 41c-11.333 16 -17 35.333 -17 58v92h112z" />
    <glyph glyph-name="Oacute" unicode="&#xd3;" horiz-adv-x="696" 
d="M199 178c-6 -3.33301 -13 -6.16699 -21 -8.5s-14.667 -3.5 -20 -3.5c-35.333 0 -53 13 -53 39c0 12.667 3.33301 22.667 10 30s17.667 11 33 11c19.333 0 33.333 -9.5 42 -28.5s11.667 -32.167 9 -39.5zM144 56.999c0 -12 18.834 -27.835 56.501 -47.502
s66.167 -29.5 85.5 -29.5c8.66699 0 14.834 2.16699 18.501 6.5s5.5 11.166 5.5 20.499c0 4 -0.666992 10 -2 18l-8 36l258 44l96 -115l29 16l-100 113c9.33301 4.66699 16.333 9 21 13c14.667 12.667 22 27.334 22 44.001c0 20 -6.33301 36.667 -19 50s-29 20 -49 20
c-18.667 0 -34.334 -5.66699 -47.001 -17s-19 -25.666 -19 -42.999c0 -6 0.5 -11 1.5 -15s2.83301 -8.33301 5.5 -13c-5.33301 -2.66699 -9.66602 -4.33398 -12.999 -5.00098c-10 -3.33301 -18 -5 -24 -5c-29.333 0 -56.5 8.66699 -81.5 26s-37.5 39.333 -37.5 66
c0 27.333 8.66699 47.833 26 61.5s38.666 20.5 63.999 20.5h176v133h93v57h-708v-57h552v-72h-129c-32.667 0 -60 -8.16699 -82 -24.5s-33 -41.5 -33 -75.5c0 -49.333 18.667 -89.666 56 -120.999c12 -10 31 -21 57 -33l-132 -24c-11.333 40.667 -22.333 71 -33 91
c-32.667 60.667 -76 91 -130 91c-20.667 0 -37.667 -4.66699 -51 -14c-19.333 -13.333 -29 -34 -29 -62c0 -26 11.667 -46 35 -60c19.333 -12 41.666 -18 66.999 -18c17.333 0 36.666 4.33301 57.999 13c3.33301 1.33301 7.33301 3.33301 12 6
c1.33301 -3.33301 2.83301 -7.5 4.5 -12.5s2.83398 -10.5 3.50098 -16.5c0 -7.33301 0.333008 -12.833 1 -16.5s1.66699 -7.16699 3 -10.5l-53 -10c-6 -0.666992 -10.667 -2 -14 -4c-10 -5.33301 -14.333 -13.666 -13 -24.999z" />
    <glyph glyph-name="Ocircumflex" unicode="&#xd4;" horiz-adv-x="400" 
d="M455 271l-326.998 -0.000976562c-5.33301 0 -13 3.33301 -23 10c-13.333 8.66699 -20 18 -20 28c0 11.333 4.16699 19.333 12.5 24s19.166 7 32.499 7h186v115h90v57h-412v-57h257v-59h-136c-20.667 0 -38.334 -3.83301 -53.001 -11.5s-22 -21.834 -22 -42.501
c0 -25.333 11.667 -49.666 35 -72.999c7.33301 -7.33301 19.333 -16.333 36 -27c-9.33301 -5.33301 -16.333 -10.333 -21 -15c-14.667 -14.667 -22 -33 -22 -55c0 -47.333 24.333 -87 73 -119c35.333 -23.333 81 -41.333 137 -54c37.333 -8.66699 62.333 -13 75 -13l14 24
c-12.667 -6 -52.667 3 -120 27c-78 28 -117 64.333 -117 109c0 24.667 8.66699 42.334 26 53.001s40 16 68 16h231v56z" />
    <glyph glyph-name="Otilde" unicode="&#xd5;" horiz-adv-x="207" 
d="M-6 455l76 0.000976562v-447c0 -14.667 5.5 -26.834 16.5 -36.501s24.167 -14.5 39.5 -14.5c20 0 37.5 7.83301 52.5 23.5s22.5 38.5 22.5 68.5c0 -15.333 -5.5 -29.833 -16.5 -43.5s-21.833 -20.5 -32.5 -20.5c-10 0 -15 7.66699 -15 23v447h76v57h-219v-57z" />
    <glyph glyph-name="Odieresis" unicode="&#xd6;" horiz-adv-x="229" 
d="M235 455l-0.00195312 57.001h-241v-57h63v-100c0 -26 7.66699 -47.667 23 -65c11.333 -12.667 34 -29.334 68 -50.001c14.667 -8 37.334 -16.667 68.001 -26l40 -11l-221 -98l37 -52l237 117v55c-10.667 1.33301 -19.334 2.33301 -26.001 3
c-39.333 7.33301 -71.666 19.333 -96.999 36c-21.333 14 -36.666 27.667 -45.999 41c-11.333 16 -17 35.333 -17 58v92h112z" />
    <glyph glyph-name="multiply" unicode="&#xd7;" horiz-adv-x="593" 
d="M294 66c0 24 13.334 43.334 40.001 58.001c8.66699 4.66699 22 9.66699 40 15h36c8.66699 1.33301 16.667 2.66602 24 3.99902s14.333 3 21 5l21 -25c0 -6.66699 -13.333 -22.667 -40 -48c-32.667 -30.667 -63 -46 -91 -46c-14.667 0 -26.834 3 -36.501 9
s-14.5 15.333 -14.5 28zM95.001 188.001c-2.66699 4 -4.66797 7.33398 -6.00098 10.001c-4 8.66699 -6 17 -6 25c0 11.333 3.16699 20.666 9.5 27.999s16.5 11 30.5 11c12 0 20.833 -3.5 26.5 -10.5s8.5 -16.5 8.5 -28.5c0 -14.667 -9.66699 -25 -29 -31
s-30.666 -7.33301 -33.999 -4zM187 113.002c-22.667 2.66699 -41.668 10.999 -57.001 24.999c-10.667 14 -16.334 21.333 -17.001 22c20 0 37.667 5.66699 53 17s23 27.333 23 48c0 18.667 -6.33301 34.667 -19 48s-29 20 -49 20c-23.333 0 -42.666 -6.16699 -57.999 -18.5
s-23 -30.833 -23 -55.5c0 -38.667 15.5 -71.167 46.5 -97.5s67.167 -39.5 108.5 -39.5c15.333 0 26.333 0.166992 33 0.5s12.667 1.5 18 3.5c6.66699 -20 13.667 -34.667 21 -44c22.667 -29.333 54.667 -44 96 -44c38.667 0 74 13 106 39c10 8.66699 22 21.667 36 39l55 -80
l23 16l-99 144c8.66699 5.33301 15 9.66602 19 12.999c13.333 11.333 20 23.333 20 36c0 22.667 -5.66699 39.334 -17 50.001s-24.666 16 -39.999 16c-18 0 -31.833 -4.16699 -41.5 -12.5s-14.5 -19.5 -14.5 -33.5c0 -11.333 0.666992 -19.166 2 -23.499s3 -8.5 5 -12.5
c-4.66699 0 -15.334 -0.5 -32.001 -1.5s-26.667 -1.5 -30 -1.5c-25.333 0 -47 7.33301 -65 22s-27 34.667 -27 60c0 26.667 9.33301 45.334 28 56.001c14 8 34 12 60 12h148v119h100v57h-605v-57h443v-59h-104c-30 0 -55.667 -8.16699 -77 -24.5s-32 -39.833 -32 -70.5
c0 -41.333 13 -76 39 -104c8.66699 -8.66699 21.667 -18.334 39 -29.001l-14 -8c-12.667 -6.66699 -20.667 -11.5 -24 -14.5s-6.66602 -7 -9.99902 -12s-6 -9.16699 -8 -12.5c-6 -2 -13.333 -3.83301 -22 -5.5s-21 -2.5 -37 -2.5z" />
    <glyph glyph-name="Oslash" unicode="&#xd8;" horiz-adv-x="192" 
d="M262 275c0 -5.33301 -13.332 -18.333 -39.999 -39c-32 -24.667 -60.333 -37 -85 -37c-34 0 -51 13.667 -51 41c0 19.333 9.16699 36.833 27.5 52.5s39.166 23.5 62.499 23.5c24 0 43.5 -2.33301 58.5 -7s24.167 -8.66699 27.5 -12v-22zM117.001 167l-36.001 -21.9971
c-13.333 -8.66699 -23 -16.667 -29 -24c-8 -10 -12 -21 -12 -33c0 -14.667 14.333 -30.334 43 -47.001s50 -25 64 -25c10 0 16 3.66699 18 11c0 5.33301 -2.66699 13.333 -8 24l-10 19l-12 28c0 10 5.33301 17.667 16 23l121 84v117c-16 12.667 -29 22 -39 28
c-31.333 19.333 -59.333 29 -84 29c-28 0 -52.333 -10 -73 -30s-31 -43.333 -31 -70c0 -22.667 6.83301 -44.334 20.5 -65.001s30.834 -36.334 51.501 -47.001zM198 512.003h-204v-57h204v57z" />
    <glyph glyph-name="Ugrave" unicode="&#xd9;" horiz-adv-x="207" 
d="M-6 455h76v-427l-22 -36l55 -34l56 34l-22 36v427h76v57h-219v-57z" />
    <glyph glyph-name="Uacute" unicode="&#xda;" horiz-adv-x="575" 
d="M329 199c30.667 0 55.3359 -3.66992 74.0029 -11.0029c6 -2 12.667 -6 20 -12l-162 -121c-18 -14.667 -29.667 -26 -35 -34s-8 -17 -8 -27c0 -19.333 16 -39 48 -59c28.667 -18 51.667 -27 69 -27c10.667 0 16 5.33301 16 16
c1.33301 2.66699 1.16602 6.33398 -0.500977 11.001l-3.5 10l-20 35l-6 10c-4.66699 6.66699 -7 12 -7 16c0 8 5 15.667 15 23l114 90v-275l62 -47v357c0 36 -17 61.667 -51 77c-28 12.667 -70.333 19 -127 19c-70 0 -125.667 -10.333 -167 -31
c-7.33301 -3.33301 -15.333 -8.66602 -24 -15.999c-10.667 8.66699 -18.334 15.667 -23.001 21c-16 18 -24 35 -24 51c0 13.333 4.5 23.833 13.5 31.5s20.833 11.5 35.5 11.5h344v137h99v57h-587v-57h421v-80h-297c-21.333 0 -39.666 -6 -54.999 -18s-23 -28.667 -23 -50
c0 -27.333 11.333 -55.666 34 -84.999c7.33301 -9.33301 19 -21.333 35 -36l-45 -45c-13.333 -21.333 -20 -45.666 -20 -72.999c0 -40.667 17 -82.334 51 -125.001c24 -30 55.667 -59.333 95 -88c30.667 -22 47.667 -33 51 -33l18 18c-34.667 22 -60.334 40.667 -77.001 56
c-51.333 46.667 -77 93 -77 139c0 48.667 25.333 89 76 121c45.333 28.667 94.666 43 147.999 43z" />
    <glyph glyph-name="Ucircumflex" unicode="&#xdb;" horiz-adv-x="540" 
d="M-6 512l0.00488281 -56.999h357v-70h-241c-21.333 0 -37.333 -3.66699 -48 -11c-14.667 -10 -22 -26 -22 -48c0 -27.333 11 -55 33 -83c7.33301 -9.33301 18.333 -20.666 33 -33.999c-13.333 -10.667 -23.333 -20.334 -30 -29.001c-20 -26 -30 -55.333 -30 -88
c0 -58.667 33.667 -114.334 101 -167.001c22 -17.333 56 -38 102 -62l18 20c-36.667 18 -64 33.667 -82 47c-54.667 40.667 -82 84.334 -82 131.001c0 42 18.167 77.833 54.5 107.5s79.166 44.5 128.499 44.5c26 0 46.667 -3 62 -9c4.66699 -2 10 -5 16 -9l-170 -129l45 -46
l168 140c3.33301 -1.33301 5.66602 -2.66602 6.99902 -3.99902c11.333 -10 17 -27 17 -51c0 -25.333 -16.667 -54 -50 -86c-29.333 -28 -47.333 -42 -54 -42l45 -47l67 61c20.667 28 31 57 31 87c0 49.333 -21.5 92 -64.5 128s-97.833 54 -164.5 54
c-34.667 0 -63.334 -5.66699 -86.001 -17c-9.33301 -4.66699 -18.333 -11.334 -27 -20.001c-10.667 9.33301 -18.334 16.666 -23.001 21.999c-16 18 -24 34 -24 48c0 13.333 4.66699 22.5 14 27.5s21.666 7.5 36.999 7.5h283v127h131v57h-552z" />
    <glyph glyph-name="Udieresis" unicode="&#xdc;" horiz-adv-x="415" 
d="M117 172c-14.667 -4.66699 -25.3311 -9 -31.998 -13c-22 -14 -33 -33 -33 -57c0 -28 12.333 -52.333 37 -73s52.667 -31 84 -31c40.667 0 78.667 12.667 114 38c7.33301 5.33301 21.666 18.666 42.999 39.999l54 -80l24 16l-100 144c8 5.33301 14 9.66602 18 12.999
c12.667 11.333 19 23.333 19 36c0 22.667 -5.33301 39.334 -16 50.001s-23 16 -37 16c-37.333 0 -56 -15.333 -56 -46c0 -8.66699 0.333008 -14.834 1 -18.501s3 -9.5 7 -17.5l-65 -3c-26.667 0 -49.667 7.33301 -69 22s-29 34.667 -29 60c0 26.667 10 45.334 30 56.001
c15.333 8 36.666 12 63.999 12h149v119h97v57h-427v-57h269v-59h-103c-47.333 0 -80 -9.33301 -98 -28c-14.667 -15.333 -22 -38.333 -22 -69c0 -33.333 12.667 -64.333 38 -93c8 -9.33301 21 -20.666 39 -33.999zM97.0029 76c0 21.333 13.168 37.166 39.501 47.499
s56.166 15.5 89.499 15.5c8.66699 0 17.5 0.833008 26.5 2.5s17.833 3.83398 26.5 6.50098l21 -25c0 -6 -16.667 -22 -50 -48c-38.667 -30.667 -72 -46 -100 -46c-15.333 0 -28 4.33301 -38 13s-15 20 -15 34z" />
    <glyph glyph-name="Yacute" unicode="&#xdd;" horiz-adv-x="200" 
d="M206 455v57h-212v-57h212zM-80 242l122.999 24.0039l21 -65c-22 -2.66699 -38.333 -6.33398 -49 -11.001c-33.333 -15.333 -50 -41 -50 -77c0 -30.667 13.167 -58.834 39.5 -84.501s53.5 -38.5 81.5 -38.5c12.667 0 26.334 2 41.001 6l23 8l-23 59
c-2.66699 -2.66699 -13.667 -6.66699 -33 -12s-32 -8 -38 -8c-37.333 0 -56 12.333 -56 37c0 26 18.667 45.667 56 59c12 4 31 8.33301 57 13l-45 123c12.667 0 24 5 34 15s15 23.333 15 40c0 15.333 -6.33301 28.666 -19 39.999s-26.667 17 -42 17
c-16 0 -29 -5.33301 -39 -16s-15 -23.667 -15 -39c0 -4.66699 1.16699 -9.33398 3.5 -14.001l4.5 -9l-90 -16v-51z" />
    <glyph glyph-name="Thorn" unicode="&#xde;" horiz-adv-x="344" 
d="M168 354c-12 6 -20.999 11.666 -26.999 16.999c-18 16 -27 35.667 -27 59c0 12.667 4.83301 24.5 14.5 35.5s22.834 16.5 39.501 16.5c19.333 0 33.666 -5 42.999 -15s14 -22.333 14 -37c0 -23.333 -8.33301 -42.666 -25 -57.999c-12.667 -12 -23.334 -18 -32.001 -18z
M424.001 196.999v54.998c-13.333 8 -28.333 16 -45 24c-19.333 10 -37.666 18.333 -54.999 25c-24.667 9.33301 -45.667 17 -63 23l-26 8c10.667 6 18.667 11.667 24 17c16 16 24 35.667 24 59c0 26.667 -14.667 52 -44 76s-59.333 36 -90 36c-26.667 0 -47.667 -5 -63 -15
c-20.667 -13.333 -31 -36.333 -31 -69c0 -24.667 15.667 -49 47 -73c10 -8 25.667 -17.667 47 -29l-119 -86l52 -39l129 107c1.33301 0 18 -5.66699 50 -17c25.333 -9.33301 40.666 -14.666 45.999 -15.999c14.667 -5.33301 34 -14.333 58 -27
c7.33301 -3.33301 17.333 -8.66602 30 -15.999l-233 -92l57 -44zM318.001 454.997h32v57h-69z" />
    <glyph glyph-name="germandbls" unicode="&#xdf;" horiz-adv-x="815" 
d="M649 201c-15.333 0 -29.332 4.66504 -41.999 13.998c-4 2.66699 -9 7.66699 -15 15c-4 8.66699 9.33301 37.334 40 86.001c16.667 26 30.667 39 42 39c16 0 28.333 -8.66699 37 -26c6.66699 -13.333 10 -29 10 -47c0 -21.333 -6.83301 -40.166 -20.5 -56.499
s-30.834 -24.5 -51.501 -24.5zM327.001 595.998c10 -32 20.333 -56 31 -72c32.667 -48.667 79 -73 139 -73c56 0 101.333 24 136 72c11.333 16 23.333 40.333 36 73h-26c-8.66699 -20 -17.667 -35 -27 -45c-28.667 -30 -69 -45 -121 -45c-48.667 0 -88 15 -118 45
c-10 10 -20.333 25 -31 45h-19zM497.001 665.998l-55 -53l55 -50l54 50zM141.001 269.998l45 2.00586c27.333 0 49 -10.333 65 -31c14 -18 21 -38.333 21 -61c0 -23.333 -7.5 -44.333 -22.5 -63s-34.167 -28 -57.5 -28c-40.667 0 -75 24 -103 72
c-9.33301 16 -19.333 40 -30 72l-19 -12c16.667 -42.667 31.334 -74.334 44.001 -95.001c39.333 -64 82.333 -96 129 -96c43.333 0 75 19 95 57c12 39.333 18.333 60 19 62c14 -20.667 25.333 -36 34 -46c26.667 -31.333 49.667 -47 69 -47c36 0 72 26 108 78
c11.333 17.333 25.666 43.333 42.999 78c10.667 -14.667 19.334 -25.334 26.001 -32.001c21.333 -21.333 41.333 -32 60 -32c24.667 0 43.834 10 57.501 30s20.5 44.333 20.5 73c0 36 -6.66699 66.333 -20 91c-16 30 -39.333 45 -70 45c-31.333 0 -60 -23.333 -86 -70
l-64 -131c-26.667 -47.333 -55.334 -71 -86.001 -71c-18.667 0 -40.667 12 -66 36c-8 8 -18.667 20.333 -32 37l-8 16c-7.33301 13.333 -14.333 23.666 -21 30.999c-14 18.667 -29.333 33 -46 43c-5.33301 3.33301 -12.333 6.66602 -21 9.99902c18 6.66699 31.333 13 40 19
c26.667 19.333 40 45.666 40 78.999c0 31.333 -15.5 60.166 -46.5 86.499s-66.833 39.5 -107.5 39.5c-20 0 -43 -4.33301 -69 -13c-8.66699 -2.66699 -19.667 -7 -33 -13l39 -50c16 7.33301 28.667 12.666 38 15.999c31.333 11.333 57.333 17 78 17
c19.333 0 34.166 -6.66699 44.499 -20s15.5 -28.666 15.5 -45.999c0 -32.667 -24.833 -57 -74.5 -73s-77.5 -21 -83.5 -15z" />
    <glyph glyph-name="agrave" unicode="&#xe0;" horiz-adv-x="526" 
d="M193 195c8 -7.33301 17.667 -14.002 29 -20.002c3.33301 -1.33301 8 -3.66602 14 -6.99902c-10 -11.333 -18.333 -19.666 -25 -24.999c-21.333 -17.333 -42.333 -26 -63 -26c-12.667 -2 -24.667 0 -36 6c-14 8 -21 19 -21 33c0 8 3.5 16.5 10.5 25.5
s15.167 15.5 24.5 19.5l47 20c2 -3.33301 3.66699 -6 5 -8c4.66699 -6.66699 9.66699 -12.667 15 -18zM228 65.998c0 24.667 12.333 43.999 37 57.999s39 19 43 15h37c8.66699 0.666992 16.667 1.83398 24 3.50098s14.333 3.5 21 5.5l20 -25c0 -7.33301 -13 -23.333 -39 -48
c-32 -30.667 -62 -46 -90 -46c-35.333 0 -53 12.333 -53 37zM97 245.997c-16.667 -8 -29.665 -17.332 -38.998 -27.999c-12 -14 -18 -30.667 -18 -50c0 -26 12.667 -46 38 -60c21.333 -12 46.666 -18 75.999 -18l23 -2c6 -20 12.667 -35 20 -45c22.667 -30 57 -45 103 -45
c37.333 0 72 13 104 39c10.667 8.66699 23 21.667 37 39l53 -80l27 16l-104 144c8.66699 5.33301 15 9.66602 19 12.999c13.333 11.333 20 23.333 20 36c0 22.667 -5.5 39.334 -16.5 50.001s-23.5 16 -37.5 16c-17.333 0 -31.166 -4.16699 -41.499 -12.5
s-15.5 -19.5 -15.5 -33.5c0 -10.667 0.333008 -17.334 1 -20.001c4 -8.66699 6.33301 -14 7 -16c-8 -0.666992 -19.333 -1.33398 -34 -2.00098s-23.667 -1 -27 -1c-26.667 0 -50.167 7.33301 -70.5 22s-30.5 34.667 -30.5 60c0 26.667 10.333 45.334 31 56.001
c15.333 8 36.666 12 63.999 12h147v119h99v57h-538v-57h380v-59h-105c-32.667 0 -59 -6 -79 -18c-25.333 -15.333 -38 -38.333 -38 -69c0 -6.66699 0.666992 -13 2 -19s2.66602 -11.667 3.99902 -17z" />
    <glyph glyph-name="aacute" unicode="&#xe1;" horiz-adv-x="237" 
d="M243 455v57h-249v-57h249zM317 332c-2.66699 -2 -4.66992 -3.66406 -6.00293 -4.99707c-10 -8 -21.333 -14.333 -34 -19c-4.66699 -3.33301 -13.334 -6.66602 -26.001 -9.99902c-2 0 -5 -0.666992 -9 -2c-5.33301 24 -10.666 41.667 -15.999 53
c-16 35.333 -37.667 53 -65 53c-12.667 0 -28.667 -4 -48 -12c-6 -2.66699 -14.333 -6.66699 -25 -12l29 -49c6.66699 5.33301 12.334 9 17.001 11c15.333 8 30 12 44 12c8.66699 0 15.5 -2.83301 20.5 -8.5s7.5 -12.834 7.5 -21.501c0 -30.667 -6 -55.834 -18 -75.501
s-29.333 -29.5 -52 -29.5c-26 0 -48.333 20 -67 60c-6 13.333 -12.667 33.666 -20 60.999l-19 -9c8.66699 -36.667 17 -64 25 -82c25.333 -54.667 58 -82 98 -82c20.667 0 39.334 6.66699 56.001 20s26.667 28.333 30 45c0 6 1 13 3 21
c0 1.33301 0.666992 3.66602 2 6.99902c5.33301 0 11.333 0.166992 18 0.5s15 1.83301 25 4.5s15.833 4.16699 17.5 4.5s5.83398 2.83301 12.501 7.5v57zM41.9971 68.0029l36.998 -30l84 55c1.33301 -9.33301 3 -16.333 5 -21c12.667 -31.333 36.334 -47 71.001 -47
c18.667 0 37.334 5 56.001 15c6 3.33301 13.333 8.33301 22 15v78c-8.66699 -17.333 -16.334 -30 -23.001 -38c-20 -25.333 -41 -38 -63 -38c-10 0 -17.5 2.83301 -22.5 8.5s-7.5 13.167 -7.5 22.5c0 8.66699 2.33301 17.5 7 26.5s11.334 15.833 20.001 20.5l71 49l-40 21z
" />
    <glyph glyph-name="acircumflex" unicode="&#xe2;" horiz-adv-x="366" 
d="M372 455l-0.000976562 56.999h-378v-57h223v-57h-97c-22.667 0 -41.667 -4.16699 -57 -12.5s-23 -22.833 -23 -43.5c0 -23.333 10.333 -49.333 31 -78s40.334 -43 59.001 -43c18 0 34.333 4.16699 49 12.5s24.334 12.5 29.001 12.5c23.333 0 35 -12.333 35 -37
c0 -22 -13.667 -41 -41 -57c-8.66699 -4.66699 -22.334 -10.334 -41.001 -17.001c-8.66699 8.66699 -15.667 15 -21 19c-17.333 13.333 -31.333 20 -42 20c-12.667 0 -23.334 -3.66699 -32.001 -11s-13 -17.333 -13 -30c0 -21.333 9 -38.666 27 -51.999
c15.333 -11.333 31.333 -17 48 -17s29.334 0.833008 38.001 2.5s16 3.5 22 5.5l61 -74l27 18l-64 66c16 8 28 15.667 36 23c24 23.333 36 54 36 92c0 12.667 -4.33301 26.334 -13 41.001c-2.66699 4.66699 -7 10.667 -13 18c12 -2 25.333 -3.83301 40 -5.5
s27.667 -2.5 39 -2.5c24 0 51.667 5.33301 83 16c5.33301 1.33301 12.333 4.33301 21 9l-122 -128l47 -45l80 121v119c-16 -12 -29 -20.667 -39 -26c-32.667 -18 -61.334 -27 -86.001 -27c-21.333 0 -43.333 1.66699 -66 5s-39 5 -49 5
c-15.333 0 -34.666 -4.33301 -57.999 -13c-12.667 -4.66699 -22 -7 -28 -7c-23.333 0 -35 10 -35 30c0 16 4 26.833 12 32.5s18.333 8.5 31 8.5h136v107h108z" />
    <glyph glyph-name="atilde" unicode="&#xe3;" 
d="M-144 -14c2 0.666992 6.49902 1.33008 13.499 1.99707s17.5 1 31.5 1h26.5c6.33301 0 10.833 -0.333008 13.5 -1l-30 57c-3.33301 0.666992 -7.66602 1.16699 -12.999 1.5s-12.333 0.5 -21 0.5h-14.5c-4.33301 0 -11.833 -1.33301 -22.5 -4
c-45.333 -11.333 -80 -27.666 -104 -48.999c-28 -25.333 -42 -58.666 -42 -99.999c0 -34 15.667 -63.667 47 -89s65 -38 101 -38c34.667 0 68.667 11.333 102 34c12.667 8.66699 27 21 43 37l-47 45c0 -6 -13.333 -18.667 -40 -38c-32.667 -23.333 -64.334 -35 -95.001 -35
c-19.333 0 -35.166 5.83301 -47.499 17.5s-18.5 26.834 -18.5 45.501c0 29.333 12 54 36 74c19.333 16 46.333 29 81 39z" />
    <glyph glyph-name="adieresis" unicode="&#xe4;" horiz-adv-x="559" 
d="M255 311c-8 -3.33301 -14.332 -6.33398 -18.999 -9.00098c-14.667 -8 -25.334 -16.333 -32.001 -25l-27 -41c-5.33301 0.666992 -11 1.33398 -17 2.00098s-12 2.66699 -18 6c-13.333 6.66699 -23 14.667 -29 24s-9 25.333 -9 48v141zM466.001 132.999
c-15.333 -12 -28.3359 -20.667 -39.0029 -26c-33.333 -18 -64.666 -27 -93.999 -27c-26 0 -51 9.16699 -75 27.5s-36 39.166 -36 62.499c0 28.667 10.333 51.5 31 68.5s45.334 25.5 74.001 25.5c14.667 0 30.167 0.166992 46.5 0.5s31.5 0.833008 45.5 1.5v189h146v57h-571
v-57h46v-115c0 -22.667 5.33301 -42.167 16 -58.5s26.667 -31.5 48 -45.5c17.333 -11.333 35.333 -20 54 -26c6 -1.33301 13 -3 21 -5c0 -41.333 18.667 -81.333 56 -120c34.667 -36 81 -54 139 -54c24 0 48.333 4.33301 73 13c30.667 10.667 51.334 21.334 62.001 32.001z
M320.998 323.999c-12 0 -23 -1 -33 -3c-2 0 -4.66699 -1 -8 -3l-142 137h220v-129z" />
    <glyph glyph-name="aring" unicode="&#xe5;" 
d="M-233 26l-190 -188l55 -39l152 166l116 -150l21 17zM-168 -292l-26.002 49.001c-9.33301 -6 -17 -10.333 -23 -13c-19.333 -9.33301 -35 -14 -47 -14c-16.667 0 -28.667 1.33301 -36 4c-14 5.33301 -21 15.666 -21 30.999c0 12 8.83301 21.5 26.5 28.5
s36.834 10.5 57.501 10.5c56 0 103.667 -21.333 143 -64c12.667 -14 27 -35.667 43 -65l21 14c-20 37.333 -37.333 65.333 -52 84c-46 56 -97 84 -153 84c-33.333 0 -60.166 -8.5 -80.499 -25.5s-30.5 -39.167 -30.5 -66.5c0 -26 9.66699 -47.333 29 -64
c17.333 -14.667 38.333 -22 63 -22c20.667 0 41 4.66699 61 14c6.66699 2.66699 15 7.66699 25 15z" />
    <glyph glyph-name="ae" unicode="&#xe6;" 
d="M273 -50l-56 -55l56 -54l57 54z" />
    <glyph glyph-name="ccedilla" unicode="&#xe7;" horiz-adv-x="380" 
d="M150 512c-24 0 -44.998 -8.00195 -62.998 -24.002s-27 -35.333 -27 -58c0 -35.333 32.167 -75.833 96.5 -121.5s96.5 -88.5 96.5 -128.5c0 -19.333 -8 -36.333 -24 -51s-36.667 -22 -62 -22c-30 0 -56.667 8.33301 -80 25c-7.33301 5.33301 -16.333 14 -27 26l-20 -13
c18 -21.333 33 -37.333 45 -48c37.333 -32 75.333 -48 114 -48c31.333 0 57.666 11 78.999 33s32 47.333 32 76c0 34 -18 68.333 -54 103c-0.666992 0.666992 -34.667 27.334 -102 80.001c-36.667 28.667 -55 52.334 -55 71.001c0 16 5.66699 27.167 17 33.5
s24.666 9.5 39.999 9.5h146v57h-152z" />
    <glyph glyph-name="egrave" unicode="&#xe8;" 
d="M-148 -279l-26.002 49.001c-9.33301 -6 -17 -10.333 -23 -13c-19.333 -9.33301 -35 -14 -47 -14c-16.667 0 -28.667 1.33301 -36 4c-14 5.33301 -21 15.666 -21 30.999c0 12 8.83301 21.5 26.5 28.5s36.834 10.5 57.501 10.5c56 0 103.667 -21.333 143 -64
c12.667 -14 27 -35.667 43 -65l21 14c-20 37.333 -37.333 65.333 -52 84c-46 56 -97 84 -153 84c-33.333 0 -60.166 -8.5 -80.499 -25.5s-30.5 -39.167 -30.5 -66.5c0 -26 9.66699 -47.333 29 -64c17.333 -14.667 38.333 -22 63 -22c20.667 0 41 4.66699 61 14
c6.66699 2.66699 15 7.66699 25 15z" />
    <glyph glyph-name="eacute" unicode="&#xe9;" horiz-adv-x="360" 
d="M186 354c-7.33301 3.33301 -13 6.33203 -17 8.99902c-25.333 18 -38 40.333 -38 67c0 13.333 4.5 25.333 13.5 36s22.167 16 39.5 16c20 0 35.167 -5.16699 45.5 -15.5s15.5 -22.5 15.5 -36.5c0 -23.333 -8.66699 -42.666 -26 -57.999c-13.333 -12 -24.333 -18 -33 -18z
M366 454.999v57h-57l27 -57h30zM319 132.999c-8.66699 8.66699 -13.002 19.002 -13.002 31.002c0 24 19.667 52.333 59 85c12.667 10.667 32.334 24.667 59.001 42l-50 27l-57 -33l-80 39c12.667 8 22 15 28 21c19.333 19.333 29 40.333 29 63c0 26.667 -13.333 52 -40 76
s-55 36 -85 36c-28 0 -49.667 -5 -65 -15c-20.667 -13.333 -31 -36.333 -31 -69c0 -24.667 15.333 -49 46 -73c10 -8 25.333 -17.667 46 -29l-135 -76l47 -37l135 86l80 -41c-9.33301 -9.33301 -18.166 -22.333 -26.499 -39s-12.5 -31.334 -12.5 -44.001
c0 -10 1.83301 -19.5 5.5 -28.5s10.167 -17.5 19.5 -25.5c12.667 -10.667 25.5 -18.5 38.5 -23.5s25.833 -7.5 38.5 -7.5c20 0 40 5.33301 60 16c6.66699 3.33301 15 9 25 17v96c-16 -22.667 -28.667 -39.334 -38 -50.001c-29.333 -34 -52 -51 -68 -51
c-6 0 -11 2.33301 -15 7z" />
    <glyph glyph-name="ecircumflex" unicode="&#xea;" horiz-adv-x="415" 
d="M40 285c0 -50.667 21.333 -93.333 64 -128c14 -11.333 35.667 -24 65 -38l-134 -56l29 -53l197 95l76 -115l32 20l-75 107c11.333 4 19.666 7.66699 24.999 11c17.333 12 26 28.667 26 50c0 20.667 -7.16699 37.167 -21.5 49.5s-33.166 18.5 -56.499 18.5
c-16 0 -30.5 -4.83301 -43.5 -14.5s-19.5 -22.5 -19.5 -38.5c0 -8 1.33301 -16 4 -24c0.666992 -2.66699 2 -5.66699 4 -9h-45c-23.333 0 -42.5 8.5 -57.5 25.5s-22.5 37.167 -22.5 60.5c0 28 10.333 48 31 60c16 9.33301 37.667 14 65 14h148v135h90v57h-427v-57h273v-70
h-104c-34 0 -62 -7.33301 -84 -22c-26 -17.333 -39 -43.333 -39 -78z" />
    <glyph glyph-name="edieresis" unicode="&#xeb;" horiz-adv-x="482" 
d="M357 172l-57 -53l57 -55l55 55zM357 445l-57 -56l57 -55l55 55z" />
    <glyph glyph-name="igrave" unicode="&#xec;" horiz-adv-x="447" 
d="M-6 512l-0.000976562 -57h257v-112h-59c-41.333 0 -76 -10 -104 -30c-32 -22.667 -48 -53.667 -48 -93c0 -52 20.667 -96.667 62 -134s86.333 -56 135 -56c37.333 0 75 9 113 27c12.667 6 28.334 15.333 47.001 28l-41 60c-17.333 -12.667 -32 -22 -44 -28
c-37.333 -18.667 -75.333 -28 -114 -28c-30.667 0 -56.5 8 -77.5 24s-31.5 38.667 -31.5 68c0 30 11.833 53.667 35.5 71s51.5 26 83.5 26h109v177h136v57h-459z" />
    <glyph glyph-name="iacute" unicode="&#xed;" horiz-adv-x="604" 
d="M497 288c0 -26.667 -7.33203 -52.333 -21.999 -77c-4.66699 -8 -12.334 -18 -23.001 -30c-7.33301 0 -20.333 7.66699 -39 23c-24 20 -36 42 -36 66c0 20.667 6 39 18 55s27.667 24 47 24c14 0 26.667 -6.33301 38 -19s17 -26.667 17 -42zM416.001 391.001
c-2.66699 -1.33301 -6.49512 -2.50098 -11.4951 -3.50098s-10.167 -1.5 -15.5 -1.5c-19.333 0 -37.166 -10.167 -53.499 -30.5s-24.5 -41.5 -24.5 -63.5c0 -28.667 20.333 -58.667 61 -90c13.333 -10 34 -23 62 -39c-22 -22.667 -40.333 -39.667 -55 -51
c-44.667 -34 -87 -51 -127 -51c-22.667 0 -42.334 6.5 -59.001 19.5s-25 29.5 -25 49.5c0 18 6.66699 32.333 20 43s31.666 17.667 54.999 21l66 4l-59 55c-16 -2.66699 -28.333 -4.66699 -37 -6c-27.333 -4 -47.333 -6 -60 -6c-38 0 -57 13.667 -57 41
c0 16.667 8.16699 29.667 24.5 39s34.166 14 53.499 14h94l-60 58h-53c-32 0 -58 -5.66699 -78 -17c-24.667 -14 -37 -35.667 -37 -65c0 -37.333 17.667 -64.333 53 -81c11.333 -5.33301 29.333 -10 54 -14c-9.33301 -4 -16 -7.66699 -20 -11c-14 -12 -21 -28.667 -21 -50
c0 -37.333 18.333 -68 55 -92c33.333 -22 71.666 -33 114.999 -33c67.333 0 125.666 18.667 174.999 56c55.333 42 83 97 83 165c0 36.667 -10.333 68 -31 94c-6.66699 8.66699 -17.334 18.334 -32.001 29.001v81h139v57h-616v-57h422v-64z" />
    <glyph glyph-name="icircumflex" unicode="&#xee;" horiz-adv-x="242" 
d="M322 240c-18 -17.333 -32.668 -30.332 -44.001 -38.999c-35.333 -26 -68.666 -39 -99.999 -39c-26 0 -47 7.66699 -63 23c-5.33301 4.66699 -11 12.667 -17 24c28 0 53.5 7.33301 76.5 22s34.5 34.667 34.5 60c0 28.667 -13.333 54 -40 76s-56.334 33 -89.001 33h-100
c-9.33301 0 -16.833 -0.5 -22.5 -1.5s-13 -2 -22 -3s-18.833 -3.83301 -29.5 -8.5c-4 -1.33301 -9 -4 -15 -8v-59c6.66699 2.66699 12 4.66699 16 6c14 5.33301 24.667 8.66602 32 9.99902c4 0 10 1 18 3s14 3 18 3h138c16.667 0 31.334 -2.66699 44.001 -8
s19 -13.666 19 -24.999c0 -15.333 -11.667 -26.333 -35 -33c-3.33301 -0.666992 -20.333 -3.33398 -51 -8.00098h-41c8 -33.333 16.667 -58.333 26 -75c29.333 -50.667 72.666 -76 129.999 -76c30 0 58.333 6.66699 85 20c8.66699 4 19.334 11 32.001 21v82z
M247.999 512.001h-254v-57h254v57z" />
    <glyph glyph-name="idieresis" unicode="&#xef;" horiz-adv-x="422" 
d="M431 512l-437 -0.00292969v-57h298v-57h-179c-20 0 -37.167 -5.66699 -51.5 -17s-21.5 -27.666 -21.5 -48.999c0 -18.667 10.333 -38.667 31 -60c6.66699 -6.66699 17.334 -15.334 32.001 -26.001c-10.667 -7.33301 -18.334 -14 -23.001 -20c-16 -20 -24 -44 -24 -72
c0 -46 18.333 -86 55 -120c25.333 -23.333 60 -43.666 104 -60.999c30.667 -12 49.334 -18 56.001 -18l17 25c-38.667 11.333 -67.334 22 -86.001 32c-57.333 31.333 -86 72.333 -86 123c0 28 13.833 52.5 41.5 73.5s57.5 31.5 89.5 31.5
c14.667 0 27.834 -3.66699 39.501 -11s17.5 -17.333 17.5 -30v-31h-43c-7.33301 0 -12 -0.333008 -14 -1c-10 -3.33301 -15 -9.66602 -15 -18.999c0 -15.333 15.667 -38.666 47 -69.999s54 -47 68 -47c7.33301 0 13 2.66699 17 8s6 14.333 6 27v45h132v57h-132v47
c0 26 -11 46.167 -33 60.5s-50.667 21.5 -86 21.5c-30 0 -60.333 -5.33301 -91 -16c-10 -3.33301 -22.667 -9 -38 -17c-9.33301 6 -16.333 11 -21 15c-14.667 12.667 -22 25 -22 37s3.66699 19.667 11 23s16.666 5 27.999 5h233v111h80v57z" />
    <glyph glyph-name="eth" unicode="&#xf0;" horiz-adv-x="362" 
d="M213 387c0.666992 4 0.995117 9.66602 0.995117 16.999c0 12.667 -2 25 -6 37c-1.33301 4 -3.33301 8.66699 -6 14h166v57h-374v-57h159c2.66699 -6 4.33398 -11 5.00098 -15c3.33301 -13.333 5 -28.333 5 -45c0 -14 -4.16699 -31.167 -12.5 -51.5
s-16.5 -30.5 -24.5 -30.5c-4.66699 -0.666992 -10.5 1.83301 -17.5 7.5s-14.167 8.83398 -21.5 9.50098c-31.333 0 -47 -15 -47 -45c0 -20.667 17.667 -55.667 53 -105c25.333 -36 58.333 -77 99 -123c34.667 -39.333 52.334 -59 53.001 -59l19 16l-24 25
c-22.667 23.333 -38.667 40.333 -48 51c-11.333 14 -25.333 33.333 -42 58c-14 20.667 -22 32.667 -24 36l19 19c11.333 12 20.666 22.5 27.999 31.5s14 21.5 20 37.5c2 4.66699 4.33301 11.667 7 21c8.66699 4.66699 22.667 9.16699 42 13.5s35.333 6.5 48 6.5
c32.667 0 59.334 -9.33301 80.001 -28c14.667 -20 22.334 -30.333 23.001 -31c-7.33301 2.66699 -13.666 4.66699 -18.999 6c-16.667 4 -33.667 6 -51 6c-16.667 0 -33.667 -2.5 -51 -7.5s-29 -10.5 -35 -16.5l17 -56c11.333 6 20.333 10.333 27 13
c21.333 8.66699 39.5 14 54.5 16s27.5 3 37.5 3c16 0 30.667 -1.66699 44 -5c2 0 4.33301 -0.666992 7 -2l-140 -88l41 -57l117 106v64l-22 14c-10 26 -19.667 45.333 -29 58c-28 39.333 -63.667 59 -107 59c-17.333 0 -34.666 -2.33301 -51.999 -7
c-6 -1.33301 -13.333 -4 -22 -8c2 6 3 17.667 3 35z" />
    <glyph glyph-name="ntilde" unicode="&#xf1;" horiz-adv-x="362" 
d="M297 293c14.667 0 24.498 -0.331055 29.498 -0.998047s16.167 -2.33398 33.5 -5.00098c12 -2.66699 23 -6.33398 33 -11.001s21 -11.334 33 -20.001l-175 -104l33 -52l158 109v68c-10 10 -20.5 19.167 -31.5 27.5s-21.833 14.833 -32.5 19.5
c-17.333 8 -29.666 13.333 -36.999 16c-20.667 8 -45 12 -73 12h-58c2 6 3 17.667 3 35c0.666992 4 1 9.66699 1 17c0 12.667 -2 25 -6 37c-1.33301 4 -3.33301 8.66699 -6 14h166v57h-374v-57h159c2.66699 -6 4.33398 -11 5.00098 -15c3.33301 -13.333 5 -28.333 5 -45
c0 -14 -4.16699 -31.167 -12.5 -51.5s-16.5 -30.5 -24.5 -30.5c-4.66699 -0.666992 -10.5 1.83301 -17.5 7.5s-14.167 8.83398 -21.5 9.50098c-31.333 0 -47 -15 -47 -45c0 -20.667 17.667 -55.667 53 -105c25.333 -36 58.333 -77 99 -123
c34.667 -39.333 52.334 -59 53.001 -59l19 16l-24 25c-22.667 23.333 -38.667 40.333 -48 51c-11.333 14 -25.333 33.333 -42 58c-14 20.667 -22 32.667 -24 36l19 19c11.333 12 20.666 22.5 27.999 31.5s14 21.5 20 37.5c2 4.66699 4.33301 11.667 7 21h97z" />
    <glyph glyph-name="ograve" unicode="&#xf2;" horiz-adv-x="207" 
d="M-6 455h76v-457l86 -62h34l-53 62v457h76v57h-219v-57z" />
    <glyph glyph-name="oacute" unicode="&#xf3;" horiz-adv-x="207" 
d="M-6 455l76 -0.000976562v-447c0 -22 6.16699 -38 18.5 -48s27.5 -15 45.5 -15c13.333 0 25.333 2.66699 36 8s16 11.333 16 18c0 -5.33301 -3.66699 -8 -11 -8c-9.33301 0 -17.333 3.33301 -24 10c-9.33301 8.66699 -14 20.334 -14 35.001v447h76v57h-219v-57z" />
    <glyph glyph-name="ocircumflex" unicode="&#xf4;" horiz-adv-x="207" 
d="M-6 455h76v-417c0 -5.33301 6 -13.333 18 -24c26 -22.667 39 -39 39 -49c0 -7.33301 -4.33301 -15 -13 -23c16 4.66699 27.167 10.167 33.5 16.5s9.5 13.833 9.5 22.5c0 6.66699 -2 14.667 -6 24c-9.33301 21.333 -14 32.333 -14 33v417h76v57h-219v-57z" />
    <glyph glyph-name="otilde" unicode="&#xf5;" horiz-adv-x="1000" 
d="M40 283v-56h900v56h-900z" />
    <glyph glyph-name="odieresis" unicode="&#xf6;" horiz-adv-x="500" 
d="M40 283v-56h390v56h-390z" />
    <glyph glyph-name="divide" unicode="&#xf7;" horiz-adv-x="598" 
d="M331 76c-36 0 -63.5 8.49805 -82.5 25.498s-28.5 37.167 -28.5 60.5c0 18.667 7.5 34.834 22.5 48.501s36.167 26.167 63.5 37.5l84 39c18 -6 31.333 -12.333 40 -19c26.667 -21.333 40 -52.666 40 -93.999c0 -28.667 -17 -53 -51 -73c-28.667 -16.667 -58 -25 -88 -25z
M257 296.998c-10.667 -5.33301 -20.832 -11.5029 -30.499 -18.5029s-17.167 -13.833 -22.5 -20.5c-8.66699 -9.33301 -15.334 -18.666 -20.001 -27.999c-0.666992 -1.33301 -1.66699 -3.66602 -3 -6.99902c-10 0 -22.333 3 -37 9c-16.667 8 -27.5 17.833 -32.5 29.5
s-7.5 26.834 -7.5 45.501v150zM138.002 454.995l205 -0.000976562v-127l-37 -12c-8 -2 -14 -3.66699 -18 -5s-6.66699 -2.66602 -8 -3.99902zM604.002 511.994l-610 0.000976562v-57h46v-127c0 -23.333 5.33301 -43.333 16 -60s26.167 -31.5 46.5 -44.5
s41.166 -23.167 62.499 -30.5c3.33301 -0.666992 7.33301 -2 12 -4c10 -36.667 21 -64 33 -82c36.667 -54.667 90.667 -82 162 -82c44 0 81 12.667 111 38s45 55 45 89c0 51.333 -20 91.666 -60 120.999c-13.333 9.33301 -33.666 19.333 -60.999 30v152h197v57z" />
    <glyph glyph-name="oslash" unicode="&#xf8;" horiz-adv-x="216" 
d="M107 441l172 -207c-9.33301 -9.33301 -17.333 -16 -24 -20c-22 -14 -46 -21 -72 -21c-28.667 0 -48.5 7 -59.5 21s-16.5 35 -16.5 63v164zM296 250l-172 204.999h98v57h-228v-57h46v-152c0 -40.667 22.333 -77.667 67 -111c39.333 -29.333 75 -44 107 -44
c21.333 0 41.333 4.66699 60 14c6 2.66699 13.333 7.33398 22 14.001v74z" />
    <glyph glyph-name="ugrave" unicode="&#xf9;" horiz-adv-x="464" 
d="M341 12c0 -30 -15.668 -53.332 -47.001 -69.999s-70.333 -25 -117 -25c-25.333 0 -47.666 7.66699 -66.999 23s-29 35 -29 59c0 29.333 14 50.666 42 63.999c22 10.667 51 16 87 16h49c25.333 0 45.333 -4.83301 60 -14.5s22 -27.167 22 -52.5zM217.999 -129.999
c50 0 90.502 10.333 121.502 31s46.5 50 46.5 88c0 26 -7.5 49.167 -22.5 69.5s-36.167 35.5 -63.5 45.5v64l43 13c16 5.33301 30.333 12 43 20c2 1.33301 4.66699 3.33301 8 6l-35 58c-14.667 -12 -28.334 -20.667 -41.001 -26c-38.667 -17.333 -86.334 -26 -143.001 -26
c-22.667 0 -42 5.66699 -58 17c-18.667 13.333 -28 31 -28 53c0 26.667 12.333 46.334 37 59.001c19.333 10 45 15 77 15h107v98h160v57h-476v-57h255v-41h-78c-38 0 -67.667 -5.66699 -89 -17c-28 -14.667 -42 -39 -42 -73c0 -39.333 18.333 -76 55 -110
c34.667 -32 68.667 -48 102 -48l43 2v-35h-63c-38.667 0 -70.667 -8 -96 -24c-29.333 -18.667 -44 -45.667 -44 -81c0 -42.667 21 -80.334 63 -113.001c38.667 -30 78 -45 118 -45z" />
    <glyph glyph-name="uacute" unicode="&#xfa;" horiz-adv-x="469" 
d="M40 337l27.999 -45.0029c25.333 -36 51.333 -64.333 78 -85c39.333 -30.667 79.333 -46 120 -46c7.33301 0 14 -0.166992 20 -0.5s11 -0.5 15 -0.5c5.33301 0 9.33301 0.333008 12 1v-30h-135c-32 0 -59.167 -8.5 -81.5 -25.5s-33.5 -40.5 -33.5 -70.5
c0 -50.667 23 -91.667 69 -123c40.667 -28 87.334 -42 140.001 -42c34 0 61.667 6.66699 83 20c25.333 16 38 40 38 72c0 22.667 -9.5 43.834 -28.5 63.501s-40.833 29.5 -65.5 29.5c-28.667 0 -52.667 -7 -72 -21s-29 -33 -29 -57c0 -12.667 2.66699 -25 8 -37
c1.33301 -4 4.33301 -9 9 -15h-27c-24 0 -44.333 7 -61 21s-25 34.333 -25 61c0 24.667 9.5 42.5 28.5 53.5s42.167 16.5 69.5 16.5h164v108c8 3.33301 13.667 6.33301 17 9c12 10 18 24 18 42c0 30 -12.833 53.333 -38.5 70s-57.167 25 -94.5 25
c-9.33301 0 -19.166 -1.5 -29.499 -4.5l-32.5 -9.5h-15c-7.33301 0 -12.5 0.833008 -15.5 2.5s-4.5 6.16699 -4.5 13.5c0 11.333 4.16699 18.666 12.5 21.999s15.166 5 20.499 5h172v95h101v57h-481v-57h325v-39h-139c-18.667 0 -34 -3.16699 -46 -9.5
s-18 -19.166 -18 -38.499s12.5 -42.166 37.5 -68.499s48.833 -39.5 71.5 -39.5c10 0 23.667 3 41 9s33 9 47 9c12 0 21.5 -1.33301 28.5 -4s10.5 -9 10.5 -19c0 -18 -8 -31 -24 -39c-12 -6 -29.667 -9 -53 -9h-18c-4.66699 0.666992 -8 1 -10 1
c-53.333 4.66699 -100.333 30.334 -141 77.001c-13.333 15.333 -28.333 38 -45 68zM283.999 -73.0029c-6.66699 -0.666992 -14.5 -1.16797 -23.5 -1.50098s-14.167 -0.5 -15.5 -0.5c-2 3.33301 -3.33301 6 -4 8c-2.66699 6.66699 -4 14.334 -4 23.001
c0 14.667 10 26.5 30 35.5s38.667 13.5 56 13.5c9.33301 0 17.166 -2 23.499 -6s9.5 -10.667 9.5 -20c0 -15.333 -7.66699 -27.333 -23 -36c-11.333 -6.66699 -27.666 -12 -48.999 -16z" />
    <glyph glyph-name="ucircumflex" unicode="&#xfb;" horiz-adv-x="273" 
d="M279 512l-284.998 0.000976562v-57h142v-123h-60c-10.667 0 -19.334 -2 -26.001 -6s-10 -11.667 -10 -23c0 -12 17.5 -35.833 52.5 -71.5s59.833 -53.5 74.5 -53.5c15.333 0 25.666 10.333 30.999 31c3.33301 13.333 5 34.666 5 63.999c0 28.667 -3 67.667 -9 117
c-2 16 -5 37.667 -9 65h94v57zM353.002 258.001l-211 -205l51 -39l160 186v58z" />
    <glyph glyph-name="udieresis" unicode="&#xfc;" horiz-adv-x="342" 
d="M348 455v57h-354v-57h354zM422 344l-261 0.000976562c22 -12 38.333 -22 49 -30c33.333 -26 50 -52 50 -78c0 -14.667 -4.66699 -27.334 -14 -38.001s-22.666 -16 -39.999 -16c-42.667 0 -80.334 31 -113.001 93c-10.667 20.667 -22.667 52 -36 94l-17 -12
c-19.333 -19.333 2.66699 -73 66 -161c36 -50 78.333 -75 127 -75c27.333 0 50.5 8.16699 69.5 24.5s28.5 39.5 28.5 69.5c0 18.667 -8.66699 36.334 -26 53.001c-5.33301 5.33301 -14.333 11.666 -27 18.999h144v57zM422 202.001l-211 -205l51 -39l160 186v58z" />
    <glyph glyph-name="yacute" unicode="&#xfd;" horiz-adv-x="342" 
d="M348 455v57h-354v-57h354zM422 344l-261 0.000976562c22 -12 38.333 -22 49 -30c33.333 -26 50 -52 50 -78c0 -14.667 -4.66699 -27.334 -14 -38.001s-22.666 -16 -39.999 -16c-42.667 0 -80.334 31 -113.001 93c-10.667 20.667 -22.667 52 -36 94l-17 -12
c-19.333 -19.333 2.66699 -73 66 -161c36 -50 78.333 -75 127 -75c27.333 0 50.5 8.16699 69.5 24.5s28.5 39.5 28.5 69.5c0 18.667 -8.66699 36.334 -26 53.001c-5.33301 5.33301 -14.333 11.666 -27 18.999h144v57zM422 202.001l-211 -205l51 -39l160 186v58z" />
    <glyph glyph-name="thorn" unicode="&#xfe;" horiz-adv-x="473" 
d="M272 293c17.333 -8 30.335 -14.999 39.002 -20.999c26 -19.333 39 -41.666 39 -66.999c0 -30.667 -16.833 -59.167 -50.5 -85.5s-72.5 -39.5 -116.5 -39.5c-26.667 0 -50.334 7 -71.001 21c-23.333 16 -35 36.333 -35 61c0 27.333 14.333 49.666 43 66.999
c16.667 10 44.667 21 84 33c9.33301 3.33301 23.666 9.66602 42.999 18.999c6 2.66699 14.333 6.66699 25 12zM403.002 172.001c0 46 -21.667 84.998 -65 116.998c-14 10.667 -36 22.334 -66 35.001v131h207v57h-485v-57h216v-96c0 -12 -3.33301 -20.667 -10 -26
c-4 -3.33301 -11.667 -7 -23 -11l-74 -24c-42 -22 -63 -55 -63 -99c0 -50 19.333 -92 58 -126c36.667 -32 79.667 -48 129 -48c46.667 0 87 13.333 121 40c36.667 28.667 55 64.334 55 107.001z" />
    <glyph glyph-name="ydieresis" unicode="&#xff;" horiz-adv-x="598" 
d="M331 76c-36 0 -63.5 8.49805 -82.5 25.498s-28.5 37.167 -28.5 60.5c0 18.667 7.5 34.834 22.5 48.501s36.167 26.167 63.5 37.5l84 39c18 -6 31.333 -12.333 40 -19c26.667 -21.333 40 -52.666 40 -93.999c0 -28.667 -17 -53 -51 -73c-28.667 -16.667 -58 -25 -88 -25z
M257 296.998c-10.667 -5.33301 -20.832 -11.5029 -30.499 -18.5029s-17.167 -13.833 -22.5 -20.5c-8.66699 -9.33301 -15.334 -18.666 -20.001 -27.999c-0.666992 -1.33301 -1.66699 -3.66602 -3 -6.99902c-10 0 -22.333 3 -37 9c-16.667 8 -27.5 17.833 -32.5 29.5
s-7.5 26.834 -7.5 45.501v150zM138.002 454.995l205 -0.000976562v-127l-37 -12c-8 -2 -14 -3.66699 -18 -5s-6.66699 -2.66602 -8 -3.99902zM604.002 511.994l-610 0.000976562v-57h46v-127c0 -23.333 5.33301 -43.333 16 -60s26.167 -31.5 46.5 -44.5
s41.166 -23.167 62.499 -30.5c3.33301 -0.666992 7.33301 -2 12 -4c10 -36.667 21 -64 33 -82c36.667 -54.667 90.667 -82 162 -82c44 0 81 12.667 111 38s45 55 45 89c0 51.333 -20 91.666 -60 120.999c-13.333 9.33301 -33.666 19.333 -60.999 30v152h197v57z" />
    <glyph glyph-name="OE" unicode="&#x152;" horiz-adv-x="535" 
d="M273 0h77v104h115v53h-115v321h-56l-254 -318v-56h233v-104zM273 157h-193l193 244v-244z" />
    <glyph glyph-name="oe" unicode="&#x153;" horiz-adv-x="273" 
d="M279 512l-284.998 0.000976562v-57h142v-123h-60c-10.667 0 -19.334 -2 -26.001 -6s-10 -11.667 -10 -23c0 -12 17.5 -35.833 52.5 -71.5s59.833 -53.5 74.5 -53.5c15.333 0 25.666 10.333 30.999 31c3.33301 13.333 5 34.666 5 63.999c0 28.667 -3 67.667 -9 117
c-2 16 -5 37.667 -9 65h94v57zM167.002 108.001l-56 -55l56 -54l57 54z" />
    <glyph glyph-name="Scaron" unicode="&#x160;" horiz-adv-x="531" 
d="M40 0h323.003h20.5c7.66699 -0 11.5 -0.666992 11.5 -2c-3.33301 -2 -6.33301 -3 -9 -3c0 -0.666992 1.66699 -2.33398 5 -5.00098l4 -4h23l43 147l-18 11l-13 -27c-10 -19.333 -19.667 -34.333 -29 -45c-10.667 -10.667 -26 -16 -46 -16h-217l131 116
c63.333 58.667 95.666 88.667 96.999 90c38.667 41.333 58 78 58 110c0 40.667 -13 72.334 -39 95.001c-28.667 25.333 -71 38 -127 38c-66.667 0 -121.334 -28 -164.001 -84c-14 -18.667 -28.667 -46.667 -44 -84l19 -11c13.333 32 25.666 55.667 36.999 71
c36 47.333 81 71 135 71c39.333 0 67 -9.66699 83 -29c12.667 -15.333 19 -37.666 19 -66.999c0 -30.667 -8.83301 -61.334 -26.5 -92.001s-42.167 -62 -73.5 -94c-30 -33.333 -72.333 -74 -127 -122z" />
    <glyph glyph-name="scaron" unicode="&#x161;" horiz-adv-x="331" 
d="M337 455l0.00195312 57.001h-343v-57h223v-57h-97c-22.667 0 -41.667 -4.16699 -57 -12.5s-23 -22.833 -23 -43.5c0 -23.333 10.333 -49.333 31 -78s40.334 -43 59.001 -43c18 0 36 4.16699 54 12.5s29 12.5 33 12.5c24 0 36 -12.333 36 -37c0 -22 -15.333 -41 -46 -57
c-10 -4.66699 -25.333 -10.334 -46 -17.001c-8.66699 8.66699 -15.667 15 -21 19c-17.333 13.333 -31.333 20 -42 20c-12.667 0 -23.334 -3.66699 -32.001 -11s-13 -17.333 -13 -30c0 -21.333 9 -38.666 27 -51.999c15.333 -11.333 31.333 -17 48 -17
s29.334 0.833008 38.001 2.5s16 3.5 22 5.5l61 -74l27 18l-64 66c18.667 8 32.334 15.667 41.001 23c27.333 23.333 41 54 41 92c0 12.667 -4 25 -12 37c-2.66699 3.33301 -6.66699 8 -12 14l31.5 -7.5c13 -3 24.833 -4.5 35.5 -4.5c21.333 0 38.166 2.16699 50.499 6.5
s20.166 8.16602 23.499 11.499v72c-12.667 -8.66699 -23 -15 -31 -19c-25.333 -13.333 -46.333 -20 -63 -20c-18.667 0 -34.667 1 -48 3c-30.667 4.66699 -48.334 7 -53.001 7c-14.667 0 -32.334 -3.33301 -53.001 -10s-35 -10 -43 -10c-23.333 0 -35 10 -35 30
c0 16 4 26.833 12 32.5s18.333 8.5 31 8.5h136v107h73zM166.002 23.001l-56 -55l56 -54l57 54z" />
    <glyph glyph-name="florin" unicode="&#x192;" horiz-adv-x="510" 
d="M40 416l160 -162l-160 -162l39 -37l160 160l162 -160l39 37l-164 162l164 162l-39 41l-162 -164l-162 164z" />
    <glyph glyph-name="circumflex" unicode="&#x2c6;" horiz-adv-x="511" 
d="M238 17c-43.333 0 -75.668 27 -97.001 81c-17.333 43.333 -26 96 -26 158s8.33301 114 25 156c22 54.667 54.667 82 98 82c48 0 83 -26.667 105 -80c17.333 -42 26 -94.667 26 -158c0 -71.333 -8.33301 -126.333 -25 -165c-21.333 -49.333 -56.666 -74 -105.999 -74z
M237.998 514c-62 0 -111.333 -26.668 -148 -80.001c-33.333 -48.667 -50 -108 -50 -178s17 -129 51 -177c37.333 -52.667 86.333 -79 147 -79c67.333 0 119 26 155 78c32 46 48 105.333 48 178c0 70.667 -15.333 129.334 -46 176.001c-36 54.667 -88.333 82 -157 82z" />
    <glyph glyph-name="tilde" unicode="&#x2dc;" horiz-adv-x="224" 
d="M230 455v57h-236v-57h236zM304 266c-16.667 -17.333 -31 -30.3311 -43 -38.998c-36 -26 -72.333 -39 -109 -39c-17.333 0 -31.833 5.83301 -43.5 17.5s-17.5 24.5 -17.5 38.5c0 24.667 15.167 44.167 45.5 58.5s59.5 21.5 87.5 21.5c22.667 0 42.667 -4.33301 60 -13
c5.33301 -2.66699 12 -7.33398 20 -14.001v27c-6 11.333 -23.333 25.333 -52 42c-22 12.667 -42.333 19 -61 19c-34.667 0 -67 -9 -97 -27c-36 -22 -54 -49.667 -54 -83c0 -32.667 17.333 -63.334 52 -92.001c32 -26.667 61.667 -40 89 -40c28 0 56.667 6.66699 86 20
c10 4 22.333 11 37 21v82zM133 108.002l-56 -55l56 -54l57 54z" />
    <glyph glyph-name="quoteleft" unicode="&#x2018;" horiz-adv-x="457" 
d="M215 512c-39.333 0 -78.333 -16.5 -117 -49.5s-58 -71.167 -58 -114.5c0 -48.667 15.333 -84.834 46 -108.501s79.334 -35.5 146.001 -35.5c32 6 56.333 13.333 73 22c8.66699 4.66699 22.667 15 42 31c-6.66699 -62 -33 -116.667 -79 -164s-97 -71 -153 -71l-35 -3
l-2 -19l34 3c71.333 0 135 29.333 191 88s84 126.334 84 203.001c0 74 -11.667 127.667 -35 161c-26.667 38 -72.334 57 -137.001 57zM215 497c43.333 0 76.5 -20.1689 99.5 -60.502s34.5 -92.166 34.5 -155.499l-43 -30c-25.333 -14.667 -51 -22 -77 -22
c-44 0 -76 12.667 -96 38c-17.333 22 -26 52.333 -26 91c0 28.667 9 57.334 27 86.001c22 35.333 49 53 81 53z" />
    <glyph glyph-name="quoteright" unicode="&#x2019;" horiz-adv-x="413" 
d="M98 414l53.002 56.999l-28 31c-4 6.66699 -7 12 -9 16c-4 8.66699 -6 17.667 -6 27c0 20 4.66699 39 14 57c12 22.667 23.667 37 35 43l-20 19c-14 -17.333 -24.667 -31.333 -32 -42c-22.667 -34 -35.334 -63.667 -38.001 -89c0 -11.333 -4.33301 -25.333 -13 -42
c-2.66699 -5.33301 -7.33398 -12.666 -14.001 -21.999zM260.002 431.999l53.002 56.999l-28 31c-4 6.66699 -7 12 -9 16c-4 8.66699 -6 17.667 -6 27c0 20 4.66699 39 14 57c12 22.667 23.667 37 35 43l-20 19c-14 -17.333 -24.667 -31.333 -32 -42
c-22.667 -34 -35.334 -63.667 -38.001 -89c0 -11.333 -4.33301 -25.333 -13 -42c-2.66699 -5.33301 -7.33398 -12.666 -14.001 -21.999z" />
    <glyph glyph-name="quotesinglbase" unicode="&#x201a;" horiz-adv-x="626" 
d="M40 283v-56h516v56h-516z" />
    <glyph glyph-name="quotedblleft" unicode="&#x201c;" horiz-adv-x="412" 
d="M163 668l-55 -59.002l27 -29c9.33301 -12 14 -27.667 14 -47c0 -24 -8 -47.667 -24 -71c-5.33301 -7.33301 -13.666 -16.666 -24.999 -27.999l18 -20c16 14 27.667 26 35 36c23.333 30.667 35 62.334 35 95.001c0 12.667 5 27.334 15 44.001
c3.33301 5.33301 8.66602 12.666 15.999 21.999zM317 667.998l-55 -59.002l27 -29c9.33301 -12 14 -27.667 14 -47c0 -24 -8 -47.667 -24 -71c-5.33301 -7.33301 -13.666 -16.666 -24.999 -27.999l18 -20c16 14 27.667 26 35 36c23.333 30.667 35 62.334 35 95.001
c0 12.667 5 27.334 15 44.001c3.33301 5.33301 8.66602 12.666 15.999 21.999z" />
    <glyph glyph-name="quotedblright" unicode="&#x201d;" horiz-adv-x="608" 
d="M103 37c0 57.333 17.332 97.001 51.999 119.001c11.333 7.33301 29 12.666 53 15.999v-125c0 -26 14.833 -51.667 44.5 -77s55.834 -38 78.501 -38c21.333 0 38 7 50 21s18 31 18 51v168h75v-328l64 -47v371l-62 62h-315c-19.333 0 -37.5 4 -54.5 12
s-25.5 19.667 -25.5 35c0 14 4.5 23.5 13.5 28.5s21.5 7.5 37.5 7.5h369v142h113v57h-620v-57h441v-86h-325c-20 0 -36.667 -4.5 -50 -13.5s-20 -23.833 -20 -44.5c0 -28 12 -54.333 36 -79c8 -8 20 -17.667 36 -29l-33 -31c-22 -28.667 -33 -62.667 -33 -102
c0 -48 19 -92 57 -132c27.333 -28.667 63 -54.334 107 -77.001c32.667 -16.667 51.667 -25 57 -25l19 18c-40.667 18.667 -71 35 -91 49c-61.333 42.667 -92 87.334 -92 134.001zM264.999 16.001v156h76v-147c0 -16 -1.66699 -27.333 -5 -34
c-5.33301 -10.667 -17.333 -16 -36 -16c-12 0 -20.833 4 -26.5 12s-8.5 17.667 -8.5 29z" />
    <glyph glyph-name="quotedblbase" unicode="&#x201e;" horiz-adv-x="626" 
d="M40 283v-56h516v56h-516zM300 160l-58 -55l58 -52l55 52zM300 457l-58 -57l58 -52l55 52z" />
    <glyph glyph-name="dagger" unicode="&#x2020;" horiz-adv-x="626" 
d="M40 367v-56h516v56h-516zM40 199v-56h516v56h-516z" />
    <glyph glyph-name="daggerdbl" unicode="&#x2021;" horiz-adv-x="654" 
d="M310 470l-74 -172h-196l154 -119l-62 -175l178 90l180 -90l-62 175l156 115h-199z" />
    <glyph glyph-name="ellipsis" unicode="&#x2026;" horiz-adv-x="598" 
d="M453 542l-309 -564h-28l309 564h28zM132 542c27.333 0 48.833 -14.666 64.5 -43.999s23.5 -62.666 23.5 -99.999c0 -46 -8.83301 -81.333 -26.5 -106s-38.167 -37 -61.5 -37c-16 0 -31 5.5 -45 16.5s-25.667 28.167 -35 51.5c-3.33301 10 -5.66602 18.667 -6.99902 26
c-3.33301 15.333 -5 31.666 -5 48.999c0 25.333 4.33301 50.166 13 74.499s20.167 42 34.5 53s29.166 16.5 44.499 16.5zM131 520.001c-10.667 0 -20.167 -7.66699 -28.5 -23s-12.5 -48.333 -12.5 -99c0 -37.333 2.33301 -65 7 -83c2.66699 -12.667 8 -23.667 16 -33
c6 -4.66699 11.667 -7 17 -7c9.33301 0 18 6.66699 26 20c10 20 15 53.667 15 101c0 49.333 -5 84 -15 104c-6.66699 13.333 -15 20 -25 20zM439 263.001c14 0 28.668 -5.66602 44.001 -16.999c8 -6.66699 14.5 -14 19.5 -22s9.5 -18 13.5 -30c8 -19.333 12 -44 12 -74
c0 -46 -8.33301 -81.333 -25 -106c-19.333 -24 -40.333 -36 -63 -36c-14.667 0 -29.334 5.66699 -44.001 17s-26 28.333 -34 51c-8.66699 20 -13 44.667 -13 74c0 28.667 4.33301 53.667 13 75c3.33301 10 8 19.667 14 29s12.333 16.666 19 21.999
c15.333 11.333 30 17 44 17zM439.001 242.002c-10 0 -18.668 -6.99707 -26.001 -20.9971c-9.33301 -18.667 -14 -53 -14 -103c0 -46.667 4.66699 -79.334 14 -98.001c6.66699 -13.333 15.334 -20 26.001 -20c10 0 18.333 7.33301 25 22c10.667 19.333 16 51.666 16 96.999
c0 47.333 -5.33301 81.666 -16 102.999c-6 13.333 -14.333 20 -25 20z" />
    <glyph glyph-name="perthousand" unicode="&#x2030;" horiz-adv-x="400" 
d="M125 409c4 3.33301 8.00195 5 12.002 5c3.33301 0 6.16602 -2.83301 8.49902 -8.5s4.16602 -11.5 5.49902 -17.5v-324c0 -10.667 -6 -19.5 -18 -26.5s-24.667 -10.5 -38 -10.5h-53v-27h300v27h-58c-14.667 -2 -28 0.5 -40 7.5s-18 16.833 -18 29.5v441l-186 -106l21 -27z
" />
    <glyph glyph-name="guilsinglleft" unicode="&#x2039;" horiz-adv-x="460" 
d="M390 149c0 36.667 -11.3301 67.667 -33.9971 93c-17.333 19.333 -46.333 36.666 -87 51.999c17.333 9.33301 30.333 17.666 39 24.999c26 22.667 39 49 39 79c0 36 -13.5 62.833 -40.5 80.5s-60.5 26.5 -100.5 26.5c-27.333 0 -55 -11.667 -83 -35
c-20.667 -17.333 -38.334 -37.666 -53.001 -60.999l13 -14c11.333 18 25.333 31.667 42 41c21.333 12 48 18 80 18c20 0 37.333 -8 52 -24s22 -32 22 -48c-5.33301 -30 -14.5 -52.833 -27.5 -68.5s-33.833 -28.167 -62.5 -37.5c-12 -4.66699 -24.667 -9 -38 -13
c-2 -0.666992 -5 -1.33398 -9 -2.00098l3 -17c4.66699 0 10.167 0.333008 16.5 1s14.166 1 23.499 1h21c4 0.666992 9.66699 1 17 1c32 0 55.333 -9.16699 70 -27.5s22 -43.5 22 -75.5c0 -77.333 -34.667 -120.666 -104 -129.999
c-25.333 2.66699 -46.833 8.16699 -64.5 16.5s-33.834 21.5 -48.501 39.5c-11.333 8 -22 12 -32 12c-7.33301 0 -13.5 -2.83301 -18.5 -8.5s-7.5 -12.5 -7.5 -20.5c0 -6.66699 2.16699 -13.5 6.5 -20.5s9.83301 -11.833 16.5 -14.5c21.333 -7.33301 43 -12.166 65 -14.499
s51 -3.5 87 -3.5c56.667 0 100 12.5 130 37.5s45 62.167 45 111.5z" />
    <glyph glyph-name="guilsinglright" unicode="&#x203a;" horiz-adv-x="485" 
d="M415 129c0 30.667 -13.832 59.167 -41.499 85.5s-59.5 39.5 -95.5 39.5c-13.333 0 -27 -1.66699 -41 -5s-24.333 -5 -31 -5c-10.667 0 -19.834 5.16699 -27.501 15.5s-11.5 21.5 -11.5 33.5c0 8 3.5 14.167 10.5 18.5s15.167 6.5 24.5 6.5h185v137h104v57h-497v-57h333
v-78h-141c-19.333 0 -35.166 -3.83301 -47.499 -11.5s-18.5 -21.5 -18.5 -41.5c0 -24 15 -54.667 45 -92s51.333 -56 64 -56c6 0 22.333 4.66699 49 14c13.333 4.66699 25.666 7 36.999 7c14 0 26.5 -3.16699 37.5 -9.5s16.833 -14.833 17.5 -25.5
c0 -19.333 -12 -37.166 -36 -53.499s-47.333 -24.5 -70 -24.5c-52 0 -101 27.667 -147 83c-15.333 18 -33.333 45.667 -54 83l-23 -14c0 -4.66699 11.667 -23.334 35 -56.001c29.333 -41.333 59.333 -75 90 -101c42 -36 81.667 -54 119 -54c36.667 0 67.667 9.66699 93 29
s38 44.333 38 75zM281.001 -50l-56 -55l56 -54l57 54z" />
    <glyph glyph-name="trademark" unicode="&#x2122;" horiz-adv-x="376" 
d="M382 512l-388.001 0.00195312v-57h128c3.33301 -4 6 -9.83301 8 -17.5s3 -18.167 3 -31.5c0 -17.333 -2 -35 -6 -53c-1.33301 -6 -3.66602 -13.667 -6.99902 -23c-7.33301 6.66699 -13 11.667 -17 15c-12.667 10 -22 14.667 -28 14c-13.333 0 -22.5 -3.33301 -27.5 -10
s-7.5 -15.667 -7.5 -27c0 -42.667 31 -93.667 93 -153c68 -64.667 135 -97 201 -97c30.667 0 59.667 5.66699 87 17c17.333 7.33301 29 14 35 20v57c-14.667 -12.667 -27.667 -22 -39 -28c-36.667 -19.333 -78 -29 -124 -29c-34.667 0 -73 17.333 -115 52
c-14 11.333 -31.667 28.666 -53 51.999c13.333 14.667 23 27.667 29 39c20 36 30 75 30 117c0 28 -3.33301 52.333 -10 73c-0.666992 3.33301 -2.66699 7.66602 -6 12.999h214v57zM455.999 334.002c-12 14 -21.9971 24.3311 -29.9971 30.998c-26 20.667 -52.667 31 -80 31
c-32 0 -59.5 -9.16699 -82.5 -27.5s-34.5 -41.5 -34.5 -69.5c0 -36 14.667 -65.667 44 -89c25.333 -20 51.666 -30 78.999 -30c26 0 51 7.33301 75 22c8 4.66699 17.667 12.334 29 23.001v74c-12 -15.333 -22.667 -26.666 -32 -33.999c-29.333 -23.333 -61 -35 -95 -35
c-14 0 -27 3.33301 -39 10c-16 9.33301 -24 21 -24 35c0 18.667 11.667 34.5 35 47.5s47.666 19.5 72.999 19.5c19.333 0 38.666 -4.66699 57.999 -14c6 -2.66699 14 -7.66699 24 -15v21zM118.002 103l-56 -55l56 -54l57 54z" />
    <glyph glyph-name=".null" horiz-adv-x="0" 
 />
    <glyph glyph-name="nonmarkingreturn" horiz-adv-x="225" 
 />
  </font>
</defs>
</svg>
