<?xml version="1.0" standalone="no"?>
<!DOCTYPE svg PUBLIC "-//W3C//DTD SVG 1.1//EN" "http://www.w3.org/Graphics/SVG/1.1/DTD/svg11.dtd" >
<svg>
<metadata>
Created by FontForge 20110222 at Mon Dec  9 21:57:33 2013
 By Orthosie Webhosting
Generated by Cyberscape Multimedia Limited.
</metadata>
<defs>
<font id="AkrutiOriSarala06Normal" horiz-adv-x="50" >
  <font-face 
    font-family="AkrutiOriSarala06Normal"
    font-weight="400"
    font-stretch="normal"
    units-per-em="1000"
    panose-1="0 0 0 0 0 0 0 0 0 0"
    ascent="800"
    descent="-200"
    x-height="518"
    cap-height="518"
    bbox="-486 -436 970 871"
    underline-thickness="20"
    underline-position="-123"
    unicode-range="U+000D-E000"
  />
<missing-glyph horiz-adv-x="871" 
d="M54 0v871h763v-871h-763zM763 54v763h-655v-763h655z" />
    <glyph glyph-name=".notdef" horiz-adv-x="871" 
d="M54 0v871h763v-871h-763zM763 54v763h-655v-763h655z" />
    <glyph glyph-name=".null" horiz-adv-x="0" 
 />
    <glyph glyph-name="nonmarkingreturn" horiz-adv-x="1000" 
 />
    <glyph glyph-name="uni000D" unicode="&#xd;" horiz-adv-x="275" 
 />
    <glyph glyph-name="space" unicode=" " horiz-adv-x="275" 
 />
    <glyph glyph-name="exclam" unicode="!" horiz-adv-x="396" 
d="M336 455l-18 -87q-4 -20 -7 -40.5t-3 -33.5q0 -92 -5.5 -121.5t-25.5 -29.5t-20 60q0 59 -6 98q-12 86 -18 112q-2 16 -3.5 24.5t-4.5 19.5q0 24 15.5 39.5t40.5 15.5q23 0 39 -17.5t16 -39.5zM326 57q0 -57 -48 -57q-18 0 -30.5 17t-12.5 44q0 16 13 35t33 19
q14 0 27 -13q18 -17 18 -45z" />
    <glyph glyph-name="quotedbl" unicode="&#x22;" horiz-adv-x="301" 
d="M201 612q-14 -9 -23 -15.5t-21 -17.5q-30 -27 -30 -55q25 -9 37 -24t12 -38t-18 -40q-18 -15 -39 -15q-30 0 -44.5 24.5t-14.5 52.5q0 43 33 84t90 69z" />
    <glyph glyph-name="numbersign" unicode="#" horiz-adv-x="454" 
d="M236 399l-35 -39l-34 38l34 35zM424 459l-215 -459h-14l-165 341l50 21l118 -248l186 360z" />
    <glyph glyph-name="dollar" unicode="$" horiz-adv-x="300" 
d="M270 256l-160 -115l157 -116l-24 -25l-210 141l167 106l-170 96l221 153l16 -25l-160 -122z" />
    <glyph glyph-name="percent" unicode="%" horiz-adv-x="412" 
d="M205 391q0 -39 -26.5 -64t-65.5 -25q-36 0 -60 27q-11 13 -17 27t-6 29q0 17 9 38q24 52 86 52q30 0 55 -25t25 -59zM380 468l-303 -439h-43l306 439h40zM382 110q0 -40 -28 -65q-28 -23 -65 -23q-39 0 -60.5 26t-21.5 63q0 34 26 58.5t61 24.5q33 0 60.5 -22.5
t27.5 -61.5zM170 388q0 10 -6 24q-15 35 -47 35q-16 0 -34 -18q-16 -18 -16 -39q0 -16 15 -35t38 -19q14 0 32 15t18 37zM345 107q0 22 -15 39.5t-38 17.5q-15 0 -32.5 -17.5t-17.5 -40.5q0 -18 15 -36q8 -8 17 -12t23 -4q17 0 32.5 15t15.5 38z" />
    <glyph glyph-name="ampersand" unicode="&#x26;" horiz-adv-x="440" 
d="M430 133q0 -65 -78 -109q-64 -35 -126 -35q-78 0 -137 41.5t-59 99.5q0 94 83 141l125 59q5 4 22.5 29t17.5 41q0 23 -19 45q-24 29 -65 29q-27 0 -51.5 -25t-21.5 -43.5t-5 -27.5t-22 -11q-15 0 -19 16l-2 21q0 50 50 85q41 29 75 29q45 0 80 -23q47 -30 47 -90
q0 -75 -63 -114l-118 -55q-64 -34 -64 -95q0 -35 39 -70q45 -39 107 -39q13 0 34 7t24.5 8.5t8.5 5.5q-17 14 -28 29q-16 22 -16 41q0 42 21.5 69.5t66.5 27.5q38 0 65.5 -25.5t27.5 -61.5zM380 132q0 16 -13 27.5t-29 11.5q-15 0 -28 -14q-9 -11 -11 -28q0 -16 11 -30.5
t29 -14.5q16 0 28.5 14t12.5 34z" />
    <glyph glyph-name="quotesingle" unicode="'" horiz-adv-x="301" 
d="M241 566q0 -43 -32 -82.5t-91 -70.5l-18 25q14 9 23 15.5t21 17.5q30 27 30 55q-26 9 -37.5 24t-11.5 38q0 24 18.5 39.5t38.5 15.5q30 0 46 -26q13 -23 13 -51z" />
    <glyph glyph-name="parenleft" unicode="(" horiz-adv-x="339" 
d="M279 -110q-34 0 -79 32q-58 41 -94 114q-46 97 -46 228q0 102 49 203q63 129 170 148v-14q-54 -13 -96 -84q-59 -97 -59 -262q0 -125 29 -200q36 -93 126 -153v-12z" />
    <glyph glyph-name="parenright" unicode=")" horiz-adv-x="339" 
d="M279 264q0 -131 -45 -226q-36 -74 -94 -116q-46 -32 -80 -32v12q87 58 125 153q30 78 30 200q0 166 -58 261q-42 70 -97 85v14q104 -18 169 -147q50 -103 50 -204z" />
    <glyph glyph-name="asterisk" unicode="*" horiz-adv-x="443" 
d="M413 439q0 -81 -65 -114l-72 -21q12 -6 16 -13q11 -14 11 -36q0 -30 -21 -59q-26 -35 -83 -47q-53 -9 -74 -15q-49 -15 -49 -38q0 -21 32.5 -36.5t79.5 -15.5q63 0 125 40q45 29 53 46v174h46v-307h-46v73q-30 -30 -65 -49q-48 -24 -108 -24q-65 0 -108 23q-55 28 -55 78
q0 65 111.5 84t111.5 73q0 21 -19.5 37t-42.5 16q-27 0 -49.5 -17t-22.5 -39l3 -15q3 -4 15 -10l-30 -25q-10 0 -21 14q-17 22 -17 53q0 18 13.5 32.5t33.5 25.5q-29 20 -50 49q-33 50 -33 121h47q0 -78 48 -119q43 -34 113 -34q40 0 79 21q46 25 46 64q0 18 -14.5 33
t-25.5 15q-14 0 -23.5 -12.5t-9.5 -28.5v-46h-46v46q0 16 -10.5 28t-25.5 13q-12 0 -21 -15l-7 -23l3 -13q4 -6 14 -12l-36 -28q-9 8 -19 24q-8 16 -8 36q0 27 20 49.5t54 22.5q25 0 39 -11l16 -17q5 8 24.5 18t42.5 10q32 0 56 -23t24 -56z" />
    <glyph glyph-name="plus" unicode="+" horiz-adv-x="553" 
d="M523 219h-219v-219h-55v219h-219v56h219v218h55v-218h219v-56z" />
    <glyph glyph-name="comma" unicode="," horiz-adv-x="271" 
d="M211 49q0 -43 -33 -84t-90 -69l-18 25q14 9 23 15.5t21 17.5q30 27 30 55q-26 9 -37.5 24t-11.5 38q0 24 18.5 39.5t38.5 15.5q30 0 46 -26q13 -23 13 -51z" />
    <glyph glyph-name="hyphen" unicode="-" horiz-adv-x="350" 
d="M320 224h-290v46h290v-46z" />
    <glyph glyph-name="period" unicode="." horiz-adv-x="226" 
d="M166 47q0 -19 -14 -33t-34 -14t-34 12.5t-14 34.5q0 20 14 34t34 14t34 -14t14 -34z" />
    <glyph glyph-name="slash" unicode="/" horiz-adv-x="203" 
d="M143 518l-107 -518h-35l106 518h36z" />
    <glyph glyph-name="zero" unicode="0" horiz-adv-x="569" 
d="M474 268q0 -84 -60 -141q-50 -47 -129 -47q-73 0 -126.5 50.5t-53.5 109.5q0 73 40 129q50 70 143 70q76 0 131 -54.5t55 -116.5zM418 257q0 51 -37 91.5t-92 40.5q-64 0 -101 -50q-28 -40 -28 -78q0 -56 34 -91q41 -42 91 -42q49 0 91 37.5t42 91.5z" />
    <glyph glyph-name="one" unicode="1" horiz-adv-x="569" 
d="M423 397q0 -29 -9 -54t-29 -49q-38 -44 -96 -44q-30 0 -52 13l-20 16q0 -53 56 -131q61 -86 131 -107l-25 -41q-108 42 -171 165q-48 95 -48 178q0 76 35.5 126t103.5 50q47 0 85.5 -35.5t38.5 -86.5zM370 387q0 42 -29 68q-25 22 -52 22t-53.5 -34t-26.5 -61
q0 -38 34 -65q27 -19 49 -19q30 0 54 27t24 62z" />
    <glyph glyph-name="two" unicode="2" horiz-adv-x="569" 
d="M433 343q0 -84 -47 -177q-61 -123 -172 -166l-25 41q67 19 130 106q57 80 57 132l-19 -15q-25 -14 -53 -14q-59 0 -96.5 44.5t-37.5 102.5q0 49 38 85.5t86 36.5q65 0 102 -50.5t37 -125.5zM384 382q0 26 -27.5 60.5t-52.5 34.5q-27 0 -52 -22q-29 -26 -29 -68
q0 -37 23 -63t55 -26q23 0 49 18q34 25 34 66z" />
    <glyph glyph-name="three" unicode="3" horiz-adv-x="569" 
d="M539 0h-47v389q0 23 -21 52q-28 37 -71 37q-42 0 -69 -40q-22 -33 -22 -62v-376h-49v337q0 62 -17 96q-21 45 -69 45q-32 0 -61 -32q-37 -43 -37 -116q0 -12 1.5 -24t9.5 -32q15 -41 42 -41t27 31q0 10 -12 22l-15 10l12 37q29 -6 48 -28t19 -48q0 -30 -25 -54
q-25 -22 -54 -22q-41 0 -71 45q-28 47 -28 109q0 72 39 128.5t106 56.5q77 0 113 -61q17 26 47 42q36 19 79 19q49 0 87 -33.5t38 -70.5v-416z" />
    <glyph glyph-name="four" unicode="4" horiz-adv-x="569" 
d="M509 490q-15 -57 -82 -118q-45 -42 -101 -76q44 -32 65 -65q27 -45 27 -101q0 -60 -40.5 -95t-104.5 -35q-56 0 -97 39.5t-41 90.5q0 46 20.5 85t82.5 81q-43 28 -85 74q-53 59 -82 127l43 24l17 -32l51 -76q15 -21 47.5 -48t54.5 -39l44 27q35 23 61 54q22 25 34 40
q16 20 26 33l18 29zM370 135q0 39 -27 77q-22 28 -62 54l-53 -40q-43 -45 -43 -101q0 -36 40 -61q32 -20 63 -20q25 0 51 25q31 29 31 66z" />
    <glyph glyph-name="five" unicode="5" horiz-adv-x="569" 
d="M512 137l-39 -31q-15 21 -39.5 45.5t-59.5 43.5q5 -9 9 -18t7.5 -20t4.5 -18t1 -24q0 -48 -34 -81.5t-91 -33.5q-46 0 -85 27q-47 33 -47 93q0 44 43 86q5 5 16.5 13.5t33.5 22.5q-25 7 -92 54q-74 53 -74 80l33 29q28 -37 63.5 -68.5t61.5 -40.5l-16 33q-9 24 -9 50
q0 62 38 91.5t96 29.5q44 0 77 -36q31 -37 31 -86q0 -40 -33 -76q-19 -20 -58 -45q17 -4 37 -15q63 -32 125 -105zM390 381q0 38 -23 58.5t-48 20.5q-27 0 -49.5 -23.5t-22.5 -58.5q0 -24 30 -65l25 -30q47 25 63 44q25 25 25 54zM349 120q0 31 -24 64l-36 39
q-44 -24 -71 -48q-32 -30 -32 -60q0 -21 29 -47q30 -24 54 -24q14 0 25.5 4t25.5 16q29 24 29 56z" />
    <glyph glyph-name="six" unicode="6" horiz-adv-x="569" 
d="M531 342q0 -127 -105 -229q-118 -113 -300 -113h-86v48h120q62 0 147 45t125 101q15 21 33.5 69.5t18.5 74.5q0 54 -40 95.5t-92 41.5q-30 0 -58.5 -20t-28.5 -50q0 -14 46 -47q47 -30 47 -72q0 -43 -42 -72q-38 -25 -84 -25t-84 34q-33 29 -33 45l36 26q9 -21 40 -43
q25 -19 48 -19q26 0 46.5 16.5t20.5 39.5q0 16 -46 51.5t-46 79.5q0 36 38.5 66.5t99.5 30.5q66 0 117 -39q62 -48 62 -135z" />
    <glyph glyph-name="seven" unicode="7" horiz-adv-x="569" 
d="M494 324q0 -46 -18 -90.5t-56 -90.5q-67 -80 -152 -116l-60 -19q-38 -8 -55 -8h-73v43l78 5q28 3 58 12q90 28 154 97q73 78 73 170q0 62 -49.5 106t-108.5 44q-63 0 -109.5 -34t-46.5 -89q0 -16 6 -36l7 -16q22 38 43 53q23 13 60 13q22 0 49.5 -27.5t27.5 -55.5
q0 -40 -29 -70t-69 -30q-52 0 -93 41q-47 47 -47 121q0 75 62.5 124t139.5 49q84 0 146 -60.5t62 -135.5zM268 282q0 15 -12 24t-24 9q-22 0 -44 -20.5t-22 -30.5q6 -6 12.5 -11.5t21 -13t23.5 -7.5q15 0 30 15t15 35z" />
    <glyph glyph-name="eight" unicode="8" horiz-adv-x="569" 
d="M482 474h-336v-474h-56v518h392v-44z" />
    <glyph glyph-name="nine" unicode="9" horiz-adv-x="569" 
d="M440 266h-13l-180 186q-36 -36 -56 -87q-14 -40 -14 -76q0 -103 81 -181l119 -85l-40 -23q-18 0 -66 36q-58 43 -93 101q-48 75 -48 157q0 52 19 97q15 36 48 78l28 33q11 12 16 14q13 0 52 -39l100 -101v139h47v-249z" />
    <glyph glyph-name="colon" unicode=":" horiz-adv-x="256" 
d="M196 322q0 -19 -14 -33t-34 -14t-34 12.5t-14 34.5q0 20 14 34t34 14t34 -14t14 -34zM196 57q0 -19 -14 -33t-34 -14t-34 12.5t-14 34.5q0 20 14 34t34 14t34 -14t14 -34z" />
    <glyph glyph-name="semicolon" unicode=";" horiz-adv-x="261" 
d="M196 322q0 -19 -14 -33t-34 -14t-34 12.5t-14 34.5q0 20 14 34t34 14t34 -14t14 -34zM201 47q0 -48 -48 -95q-28 -26 -62 -42l-17 22q33 21 50 40.5t17 38.5q-24 9 -34 22t-10 34q0 20 16 34.5t35 14.5q28 0 42 -23q5 -8 8 -19.5t3 -26.5z" />
    <glyph glyph-name="less" unicode="&#x3c;" horiz-adv-x="504" 
d="M494 87h-46q-12 23 -31.5 37.5t-54.5 14.5q-24 0 -58 -12t-34 -31q0 -5 9 -13q9 -6 17 -6q2 5 22.5 18t38.5 13q28 0 51 -20.5t23 -42.5q0 -21 -14 -36q-21 -24 -57 -24q-43 0 -63 23l-16 28q-21 0 -38 15.5t-17 42.5q-72 0 -131 52q-65 57 -65 148q0 49 30 90.5t80 41.5
q20 0 38 -7q0 47 18 70q24 29 81 29q33 0 57 -17q14 -8 32 -31v48h46v-348l20 -11l16 -10v102h46v-164zM366 179v202q0 22 -29 55q-32 37 -62 37q-20 0 -29.5 -10t-9.5 -24q0 -26 13.5 -29.5t34.5 -18t32 -28.5l-28 -44q-27 27 -65 44.5t-76 17.5q-37 0 -55 -34
q-14 -31 -11 -57q20 17 43 20l33 2q82 0 126 -36.5t52 -96.5l16 1zM386 51q0 5 -16 11l-8 2q-13 0 -21 -5.5t-9 -14.5q0 -8 7 -14l19 -4q11 0 19.5 7.5t8.5 17.5zM274 183q0 30 -36 54.5t-76 24.5q-26 0 -48 -8.5t-22 -15.5q0 -17 33 -53q41 -43 87 -43q23 0 42.5 12.5
t19.5 28.5z" />
    <glyph glyph-name="equal" unicode="=" horiz-adv-x="450" 
d="M420 289h-390v56h390v-56zM420 109h-390v56h390v-56z" />
    <glyph glyph-name="greater" unicode="&#x3e;" 
d="M98 -88q0 -59 -48.5 -99.5t-111.5 -40.5q-72 0 -123 39q-55 43 -55 108q0 30 9 53q3 9 15 24l46 -21q-10 -8 -18 -22t-8 -33q0 -33 32 -64q41 -39 110 -39q41 0 72.5 30.5t31.5 63.5q0 19 -12.5 33.5t-29.5 14.5q-11 0 -18 -8.5t-9 -22.5v-53h-44v63q0 8 -7.5 14.5
t-17.5 6.5q-11 0 -20 -10.5t-9 -21.5q0 -10 4 -18q3 -10 10 -18l-32 -25q-9 10 -17 23q-4 7 -6.5 12.5t-3.5 10.5t-1 18q0 30 20 50t50 20q13 0 27 -6t27 -16q15 11 23 15q16 7 31 7q36 0 59.5 -28t23.5 -60z" />
    <glyph glyph-name="question" unicode="?" horiz-adv-x="551" 
d="M491 399q0 -71 -62.5 -114t-62.5 -81v-78h-47v100q21 54 79 94q47 32 47 69q0 36 -34 63q-30 22 -60 22t-54.5 -23t-24.5 -50q0 -12 6 -24l10 -13l-30 -34q-9 0 -19 16q-14 22 -14 56q0 36 29 68q38 42 106 42q47 0 84 -25q47 -32 47 -88zM390 47q0 -19 -14 -33t-34 -14
t-34 12.5t-14 34.5q0 20 14 34t34 14t34 -14t14 -34z" />
    <glyph glyph-name="at" unicode="@" horiz-adv-x="469" 
d="M439 -9h-46v80q-21 -28 -49 -45q-55 -35 -130 -35q-64 0 -112 38q-61 47 -61 127q0 67 62 113l116 67q63 39 63 93q0 19 -12.5 33.5t-25.5 14.5q-14 0 -26 -15q-9 -14 -9 -31v-75h-46v77q0 18 -17.5 31t-28.5 13q-13 0 -24 -11q-15 -15 -15 -42q0 -17 31 -36
q15 -9 16 -25q0 -12 -14 -22q-11 -6 -23 -8q-29 0 -47 37q-5 12 -8 25t-3 27q0 43 28 69.5t67 26.5q20 0 31.5 -5.5t32.5 -31.5q8 14 22 23q20 14 51 14q32 0 51.5 -25.5t19.5 -65.5q0 -60 -63 -105l-118 -71q-64 -46 -64 -106q0 -35 30 -67q38 -40 103 -40q47 0 107 39
q65 42 65 91v350h46v-527z" />
    <glyph glyph-name="A" unicode="A" horiz-adv-x="501" 
d="M491 12l-42 -21l-66 114q19 39 34 94t15 97q0 71 -48.5 124.5t-117.5 53.5q-77 0 -133 -45.5t-56 -107.5q0 -20 12 -55.5t29 -35.5l16 8q14 5 29 7q16 0 30 -10q9 -5 20 -18q9 9 22 16q20 12 36 12q32 0 53 -30q15 -23 15 -46v-90q0 -37 -13 -57q-15 -27 -50 -27
q-31 0 -47 8q-9 3 -15 12l-24 -12q-15 -6 -30 -8q-34 0 -58 25q-11 13 -16.5 28t-5.5 33v80l1 8l6 17q-22 22 -41 58q-8 19 -12 34.5t-4 35.5q0 86 71 147q66 57 152 57q72 0 137 -42q90 -60 90 -180q0 -44 -13 -92q-18 -71 -35 -91zM293 121v12q0 31 -5 47.5t-27 16.5
q-18 0 -24 -23l-4 -56q0 -36 7 -56q8 -18 20 -18q21 0 27 21.5t6 55.5zM186 118q0 30 -1.5 40t-6.5 22q-8 21 -22 21q-13 0 -21.5 -31.5t-8.5 -55.5q0 -32 10.5 -52t26.5 -21q11 0 17 23t6 54z" />
    <glyph glyph-name="B" unicode="B" horiz-adv-x="497" 
d="M487 22l-42 -27l-69 110l22 58q19 63 19 111q0 81 -47 141t-123 60q-30 0 -55.5 -16t-25.5 -38q0 -16 17 -29q24 -6 46 -17.5t22 -26.5l-28 -30l-25 15q-27 15 -45 15q-28 0 -50.5 -18.5t-22.5 -39.5q0 -26 12 -40q13 -11 31 -11l16 4l22 3q17 0 30 -6.5t18 -13.5
q8 8 22 14t29 6q50 0 67 -54q8 -27 8 -85t-11 -79q-16 -31 -62 -31q-17 0 -29 7t-24 26l-17 -19q-17 -14 -40 -14q-42 0 -64 40q-18 33 -18 83q0 34 7 54l11 21q-13 3 -21 11q-37 28 -37 88q0 33 29 61t68 36q-7 18 -7 34q0 43 41 68q44 25 95 25q91 0 155 -77
q56 -68 56 -146q0 -66 -18 -126q-12 -39 -22 -52zM289 135q0 29 -6 48.5t-23 19.5q-16 0 -23 -25q-3 -17 -4 -25t-1 -26q0 -42 6.5 -61t25.5 -19q14 0 20 27q4 25 4.5 39t0.5 22zM186 137q0 31 -6.5 48.5t-22.5 17.5q-24 0 -33 -25q-4 -13 -6 -25t-2 -31q0 -25 4 -37
q9 -38 35 -38q18 0 27 25q5 17 5 45z" />
    <glyph glyph-name="C" unicode="C" horiz-adv-x="496" 
d="M476 10l-44 -17l-66 110q22 32 37 80t15 97q0 80 -54.5 138.5t-129.5 58.5q-67 0 -110 -44.5t-43 -110.5q0 -29 11 -50.5t36 -35.5q14 18 34 34.5t46 22.5l13 -37q-83 -50 -83 -130q0 -36 22 -61t56 -25q33 0 57.5 18.5t24.5 42.5q0 10 -14 25t-26 18l-33 -32l-34 28
l139 145l37 -32l-75 -76q26 -17 39.5 -38.5t13.5 -45.5q0 -39 -35 -69.5t-94 -30.5q-56 0 -92 36q-33 36 -33 94q0 29 7 51l9 22q-27 9 -53 50q-24 41 -24 91q0 74 62 127.5t142 53.5q105 0 170 -74q61 -70 61 -167q0 -50 -13 -93q-12 -45 -34 -75z" />
    <glyph glyph-name="D" unicode="D" horiz-adv-x="496" 
d="M476 20l-40 -21l-80 126q23 6 42.5 21.5t19.5 35.5q0 15 -9.5 21.5t-26.5 8.5l-26 -4l22 40q14 36 14 81q0 63 -53 109q-49 41 -103 41q-62 0 -109 -48t-47 -110q0 -27 9 -49.5t33 -40.5q19 27 42.5 45t37.5 20l29 -30q-40 -25 -64.5 -58.5t-24.5 -68.5q0 -34 20 -63.5
t50 -29.5q34 0 56 32q16 26 16 44q0 8 -9.5 22.5t-16.5 20.5l-52 -48l-27 25l138 154l34 -28l-58 -67q24 -29 30 -46t6 -44q0 -47 -33 -80q-34 -31 -83 -31q-44 0 -76 32q-40 40 -40 110l1 23l7 17q-27 12 -52 52q-23 41 -23 87q0 72 52 131q59 66 153 66q80 0 141.5 -53.5
t61.5 -135.5l-3 -42q-3 -19 -13 -40q46 -18 46 -69q0 -11 -3 -21t-11 -22q-14 -22 -35 -30z" />
    <glyph glyph-name="E" unicode="E" horiz-adv-x="504" 
d="M494 16l-45 -25l-89 134q21 3 31 11q15 11 15 29q0 11 -16 23q-17 10 -37 10l20 37q8 20 12 38t4 41q0 66 -45.5 114.5t-105.5 48.5q-63 0 -112 -46t-49 -108q0 -28 12 -63.5t30 -35.5q8 11 34 22.5t51 11.5q51 0 87 -41.5t36 -86.5q0 -54 -35 -94.5t-85 -40.5
q-43 0 -78 34q-42 41 -42 109l1 15l3 16q-29 23 -45 62t-16 88q0 86 58 143q29 28 66 42t86 14q86 0 141 -57t55 -143q0 -34 -3.5 -52.5t-13.5 -35.5q17 -13 27.5 -29.5t10.5 -39.5q0 -17 -11 -31l-17 -16zM273 128q0 40 -24 64q-21 19 -41 19q-29 0 -48.5 -27t-19.5 -62
q0 -21 19 -47q23 -30 54 -30q24 0 42 24t18 59z" />
    <glyph glyph-name="F" unicode="F" horiz-adv-x="504" 
d="M494 16l-45 -25l-89 134q17 0 31 14q14 12 14 31q0 16 -9.5 30.5t-32.5 34.5q42 6 42 42q0 18 -14 32q-12 15 -33 15l5 21l3 21q0 46 -40 79q-20 16 -41 24t-47 8q-63 0 -112 -46t-49 -108q0 -28 12 -63.5t30 -35.5q8 11 34 22.5t51 11.5q51 0 87 -41.5t36 -86.5
q0 -54 -35 -94.5t-85 -40.5q-43 0 -78 34q-42 41 -42 109l1 15l3 16q-29 23 -45 62t-16 88q0 86 58 143q29 28 66 42t86 14q70 0 122.5 -39.5t52.5 -93.5q0 -14 -5 -29q18 -3 30.5 -24.5t12.5 -47.5q0 -37 -24 -54q12 -11 20 -28q5 -12 7 -30q0 -20 -7 -34t-20 -24zM273 128
q0 40 -24 64q-21 19 -41 19q-29 0 -48.5 -27t-19.5 -62q0 -21 19 -47q23 -30 54 -30q24 0 42 24t18 59z" />
    <glyph glyph-name="G" unicode="G" horiz-adv-x="509" 
d="M479 -7h-32l-417 379l28 41l375 -333v380l-40 -16q-12 -5 -29 -15q-70 -38 -70 -69q5 0 12 -10.5t9 -25.5q0 -12 -12 -22.5t-28 -12.5q-13 0 -27 12q-17 15 -17 43q0 63 107 124q91 50 131 50h10v-525z" />
    <glyph glyph-name="H" unicode="H" horiz-adv-x="615" 
d="M585 -2h-46v238h-60v-243h-32l-417 379l28 41l375 -333v380l-40 -16q-12 -5 -29 -15q-70 -38 -70 -69q5 0 12 -10.5t9 -25.5q0 -12 -12 -22.5t-28 -12.5q-13 0 -27 12q-17 15 -17 43q0 63 107 124q91 50 131 50h10v-236h60v256q0 32 -26 45.5t-63 13.5l-63 -13
q-18 -3 -31 -5t-25 -2q-10 0 -36 10q-12 5 -21 9t-25 14l18 38l40 -21q20 -9 30 -9q7 0 16 1.5t38 9.5q46 11 81 11q50 0 85 -33q28 -28 28 -59v-550z" />
    <glyph glyph-name="I" unicode="I" horiz-adv-x="380" 
d="M360 140q0 -63 -46 -101.5t-107 -38.5q-71 0 -124 67t-53 164q0 58 13 111q21 94 77 176l33 -21q-35 -48 -56.5 -117t-21.5 -143q0 -80 35 -135q39 -63 107 -63q45 0 77 44q24 33 24 55q0 17 -12 41q-15 29 -36 29q-8 -8 -18 -13q-22 -13 -51 -24l-18 30l71 55
q52 50 52 106q0 22 -15 45q-18 26 -42 26q-21 0 -37 -22q-12 -19 -14 -34l6 -19l6 -20q0 -9 -6.5 -16t-16.5 -7t-21 18q-10 20 -10 42q0 38 31.5 67.5t68.5 29.5q18 -3 26 -5.5t17 -8.5q43 -28 43 -89q0 -46 -16 -85q-9 -25 -20 -37q19 -9 36.5 -41t17.5 -66z" />
    <glyph glyph-name="J" unicode="J" horiz-adv-x="496" 
d="M466 0h-46v144l-8 -5q-10 -5 -22 -5q-11 0 -19.5 4t-10.5 6q0 -69 -47 -109q-43 -35 -106 -35q-71 0 -124 67t-53 164q0 58 13 111q21 94 77 176l33 -21q-35 -48 -56.5 -117t-21.5 -143q0 -80 35 -135q39 -63 107 -63q45 0 77 44q24 33 24 55q0 17 -12 41q-15 29 -36 29
q-8 -8 -18 -13q-22 -13 -51 -24l-18 30l71 55q52 50 52 106q0 22 -15 45q-18 26 -42 26q-21 0 -37 -22q-12 -19 -14 -34l6 -19l6 -20q0 -9 -6.5 -16t-16.5 -7t-21 18q-10 20 -10 42q0 38 31.5 67.5t68.5 29.5q18 -3 26 -5.5t17 -8.5q43 -28 43 -89q0 -46 -16 -85
q-9 -25 -20 -37l17 -14q44 -50 74 -50q16 0 23 19v336q0 32 -26 45.5t-63 13.5q-8 0 -51 -13l-38 -7q-20 0 -43 10q-10 5 -18.5 9.5t-20.5 13.5l18 38l35 -20q20 -10 35 -10q14 0 48 11t57 11q50 0 85 -33q28 -28 28 -59v-548z" />
    <glyph glyph-name="K" unicode="K" horiz-adv-x="503" 
d="M483 308q0 -10 -0.5 -21.5t-7.5 -31.5q-6 -26 -19 -40l-45 19q12 15 18.5 35t6.5 35q0 71 -57 125q-51 48 -114 48q-76 0 -132 -46t-56 -107q0 -28 9 -57t22 -30q6 10 25.5 18t42.5 8q36 0 51.5 -6.5t22.5 -16.5q11 11 29 17t39 6q33 0 54 -24.5t21 -51.5v-188h-46v178
q0 17 -12 30t-25 15q-21 0 -30.5 -20t-9.5 -49v-154h-46v66l-12 -9q-16 -8 -39 -8q-49 0 -71 37q-17 31 -17 82l1 18l3 10q-24 14 -42 46q-17 34 -17 73q0 94 64 149t161 55q108 0 170 -59q58 -56 58 -151zM224 160q0 25 -18 42q-7 7 -15.5 11.5t-15.5 5.5q-16 0 -30 -19.5
t-14 -51.5q0 -23 15 -41q15 -15 37 -15q18 0 30 22q5 11 8 22t3 24z" />
    <glyph glyph-name="L" unicode="L" horiz-adv-x="473" 
d="M443 0h-46v365l-19 -21q-37 -34 -77 -34q-46 0 -66 29q-16 24 -16 61q0 27 6 51l4 11l-9 4q-43 0 -94 -49t-51 -102q0 -25 23.5 -57.5t48.5 -32.5q7 7 25 17q30 15 69 15q35 0 71 -39.5t36 -89.5q0 -57 -35.5 -92.5t-93.5 -35.5q-51 0 -81.5 37.5t-30.5 90.5l1 26
q2 14 10 31q-24 6 -52 38q-36 42 -36 95q0 95 93 152q78 48 177 48l8 -1l8 -2q-26 -20 -39 -52t-13 -56q0 -26 12 -39t35 -13q27 0 52 34q34 46 34 129h46v-518zM296 136q0 37 -30 60q-22 16 -40 16q-27 0 -49 -28q-20 -28 -20 -60q0 -25 19 -50q23 -29 54 -29q24 0 45 27
t21 64z" />
    <glyph glyph-name="M" unicode="M" horiz-adv-x="490" 
d="M460 0h-46v319q-18 76 -83 119q-50 33 -95 33q-59 0 -107.5 -44.5t-48.5 -108.5q0 -41 18 -64q5 -6 17 -14t28 -15q17 17 43 28.5t53 11.5q50 0 85 -38t35 -90q0 -50 -29 -89q-36 -48 -102 -48q-55 0 -86.5 42.5t-31.5 106.5l3 24l4 12q-42 14 -61 41q-26 37 -26 97
q0 83 66 142q61 53 138 53q58 0 98 -20q35 -16 82 -64v84h46v-518zM306 136q0 34 -30 58q-24 18 -44 18q-26 0 -50 -28q-10 -13 -16 -27t-6 -28q0 -32 21 -59q21 -24 58 -24q29 0 50 30q17 26 17 60z" />
    <glyph glyph-name="N" unicode="N" horiz-adv-x="481" 
d="M451 -3h-46v17l-26 -18q-15 -9 -36 -9q-32 0 -56 24l-20 30q-25 -30 -42.5 -42t-45.5 -12q-36 0 -63.5 34.5t-27.5 87.5l3 44q3 19 8 26q-31 21 -48 54q-21 42 -21 100q0 75 60 130t139 55q67 0 108 -21q26 -14 68 -58v79h46v-521zM405 116v236q0 15 -30 48
q-68 74 -139 74q-67 0 -111 -42.5t-44 -111.5q0 -37 11 -55.5t34 -30.5q13 21 39 37.5t42 16.5l31 -44q-38 -6 -71.5 -45.5t-33.5 -89.5q0 -18 4 -30t17.5 -27t31.5 -15q20 0 37.5 21.5t17.5 46.5v82h46v-81q0 -17 18 -42t34 -25q28 0 47 24t19 53z" />
    <glyph glyph-name="O" unicode="O" horiz-adv-x="536" 
d="M526 353q0 -40 -21.5 -63.5t-57.5 -23.5q-28 0 -51 19q-27 23 -27 61q0 23 5 34t12 20q-18 27 -36 42q-43 35 -102 35q-66 0 -118.5 -44t-52.5 -100q0 -31 13 -54q6 -11 15 -21.5t23 -21.5q6 9 21.5 21.5t36.5 21.5l25 -35q-27 -14 -45.5 -44t-18.5 -71q0 -42 38 -70
q32 -24 65 -24t58 29q21 24 21 45q0 12 -13 28.5t-30 16.5l-49 -54l-36 32l131 141l35 -23l-49 -54q22 -9 39.5 -35t17.5 -59q0 -35 -33 -71q-41 -43 -106 -43q-43 0 -82 30q-53 41 -53 120l1 32q2 13 5 19q-24 14 -38 31q-39 47 -39 120q0 71 63.5 124.5t156.5 53.5
q71 0 117 -34q29 -22 53 -64l12 3l17 1q30 0 53.5 -16.5t23.5 -54.5zM483 348q0 11 -12.5 20.5t-24.5 11.5q-15 0 -25 -10t-12 -25q0 -18 13 -28q13 -8 28 -10q12 0 21.5 13.5t11.5 27.5z" />
    <glyph glyph-name="P" unicode="P" horiz-adv-x="503" 
d="M493 320q0 -36 -6 -59t-24 -52l-43 25l7 12q8 17 12 32.5t4 34.5q0 68 -58 119q-53 45 -117 45q-74 0 -132.5 -47.5t-58.5 -114.5q0 -25 25.5 -58.5t49.5 -33.5q9 12 25 22q29 18 68 18q52 0 88 -42t36 -98q0 -52 -39.5 -90.5t-91.5 -38.5q-33 0 -73 37q-46 43 -46 96
l2 18l3 20q0 7 4 14q-39 11 -68.5 45.5t-29.5 90.5q0 85 69.5 144t158.5 59q94 0 162 -52q73 -56 73 -146zM318 136q-9 28 -16 40q-23 40 -57 40q-25 0 -49.5 -27.5t-24.5 -65.5q0 -21 19 -47q25 -31 57 -31q26 0 49 27q10 13 16 29t6 35z" />
    <glyph glyph-name="Q" unicode="Q" horiz-adv-x="477" 
d="M457 328q0 -20 -6.5 -42t-14.5 -31l-42 24q7 12 11 25l2 26q0 62 -46 103.5t-115 41.5q-67 0 -118.5 -35t-51.5 -75q0 -26 20 -46t40 -20q11 14 43 28.5t57 14.5q52 0 90 -35t38 -86q0 -28 -7 -45l-16 -34q27 0 46.5 -24t19.5 -55q0 -24 -21.5 -45t-51.5 -21
q-58 0 -96 41q-20 -19 -42.5 -30t-48.5 -11q-29 0 -58 18q-26 18 -26 43q0 20 7.5 38.5t18.5 29.5l-23 11q-13 10 -18 17l22 38q7 -9 23 -18l23 -11h10l-6 21l-2 21q0 21 5 36l3 8q-25 5 -34 10q-62 29 -62 103q0 51 57 101q67 55 164 55q84 0 145 -55t61 -135zM311 221
q0 25 -25 50t-46 25q-27 0 -50.5 -28t-23.5 -62q0 -32 25 -56q11 -10 21 -15t22 -5q30 0 53.5 28t23.5 63zM354 75q0 9 -8 16q-12 12 -32 12q-9 0 -26 -12l-21 -21q13 -10 32.5 -18.5t24.5 -8.5q7 0 19 12q9 11 11 20zM208 71q-14 17 -28 23.5t-26 8.5q-10 0 -24 -9.5
t-14 -23.5q0 -6 12 -15t21 -9q14 0 33.5 9.5t25.5 15.5z" />
    <glyph glyph-name="R" unicode="R" horiz-adv-x="500" 
d="M490 319q0 -35 -9 -61t-31 -54l-40 19l18 30q15 30 15 60q0 66 -52 115t-133 49q-72 0 -126.5 -44t-54.5 -102q0 -28 18 -57.5t43 -29.5l12 11q24 18 52 18q22 0 36 -10q9 -7 15 -17q2 3 24 11q21 6 50 6q22 0 37 -9t15 -28v-226h-46v199q-6 7 -12 11t-16 6
q-15 0 -28 -16q-18 -24 -18 -46q0 -8 12 -25q27 -35 27 -59q0 -35 -36 -58q-30 -18 -72 -18q-32 0 -62 30q-37 39 -37 105q0 16 6 42t11 31q-30 18 -55 52q-23 35 -23 69q0 84 68 140q34 27 76 41t94 14q79 0 144 -45q78 -54 78 -154zM251 79q0 6 -21.5 29t-21.5 42
q0 15 8 32l9 22q0 9 -7 13t-18 6q-20 0 -41 -37q-18 -36 -18 -59q0 -31 18 -55q25 -31 56 -31q8 0 22 12.5t14 25.5z" />
    <glyph glyph-name="S" unicode="S" horiz-adv-x="510" 
d="M501 57l-21 -40l-136 46q-20 -30 -49.5 -46.5t-76.5 -16.5q-34 0 -67 29q-45 39 -45 105l3 25q3 17 8 26q-33 6 -60 39.5t-27 76.5q0 80 70 137q51 41 136 63q27 7 51 10.5t39 3.5q-18 -21 -26.5 -49.5t-8.5 -50.5q0 -24 8.5 -36t23.5 -12q20 0 49 38q33 44 43 107
l39 -22q0 -50 -41 -109q-44 -64 -90 -64q-26 0 -54 25.5t-28 67.5q0 20 2 27l12 29q-55 0 -117 -51.5t-62 -106.5q0 -26 22 -55q22 -26 52 -22l25 17q29 15 65 15q47 0 84 -42t37 -87l-3 -22zM306 133q0 35 -23.5 58.5t-49.5 23.5q-30 0 -52 -26q-11 -13 -16.5 -28t-5.5 -33
q0 -30 22 -55.5t55 -25.5q23 0 46.5 25.5t23.5 60.5z" />
    <glyph glyph-name="T" unicode="T" horiz-adv-x="461" 
d="M431 407q0 -37 -15 -69.5t-52 -60.5q10 -10 17.5 -18.5t12.5 -16.5q21 -33 21 -74q0 -68 -57.5 -118t-131.5 -50q-84 0 -138 53q-58 56 -58 146q0 45 16 77q7 13 22 30q-11 6 -25 36q-3 6 -8 23.5t-5 33.5q0 34 12 75t29 41l33 -17q-14 -15 -21 -37q-3 -11 -5 -21t-2 -23
q0 -53 37 -90q42 -44 119 -44q60 0 106 34t46 83q0 27 -12 50q-15 26 -39 26t-36.5 -16t-12.5 -40v-61h-46v72q0 12 -14 28t-26 17q-10 0 -24.5 -13t-14.5 -34q0 -11 9 -26l14 -17l-36 -31q-6 0 -18 21q-15 27 -15 58q0 40 26 62t64 22q19 0 39 -17l24 -22q15 21 33.5 30
t38.5 9q29 0 59 -27q34 -34 34 -84zM366 171q0 36 -25 62q-3 3 -10.5 8t-15.5 10q-13 0 -23 -16q-8 -16 -8 -35v-63h-46v61q0 18 -11.5 30.5t-30.5 12.5q-17 0 -31 -24q-6 -12 -6 -17q0 -11 8 -26t15 -22l-45 -16q-17 12 -24 31q-3 9 -5 18t-2 20q0 13 6.5 31t12.5 27
l-19 10l-17 -32q-10 -27 -10 -44q0 -60 45 -107q46 -44 108 -44q57 0 99 46q35 40 35 79z" />
    <glyph glyph-name="U" unicode="U" horiz-adv-x="478" 
d="M458 263h-46q0 83 -39 145q-44 68 -117 68t-129 -51q-51 -48 -51 -102q0 -26 24 -67q24 -38 51 -38l25 19q28 17 61 17q45 0 81 -33q40 -38 40 -100q0 -55 -31 -90q-34 -40 -91 -40q-68 0 -99 46q-23 34 -23 85l1 23q0 11 5 20q-36 12 -63 58.5t-27 104.5q0 77 59 132
q64 58 159 58q64 0 112 -33q14 -8 52 -51v84h46v-255zM307 127q0 25 -17 48q-21 32 -58 32q-35 0 -56 -33q-14 -25 -14 -52q0 -32 23.5 -58t57.5 -26q25 0 45 30q19 32 19 59z" />
    <glyph glyph-name="V" unicode="V" horiz-adv-x="490" 
d="M480 256q0 -102 -61.5 -183.5t-159.5 -81.5q-100 0 -169 85q-60 75 -60 164q0 109 59 189q66 89 172 89q97 0 158 -77.5t61 -184.5zM429 251q0 100 -53 163q-48 59 -112 59q-71 0 -125.5 -63.5t-54.5 -148.5q0 -87 51 -154.5t128 -67.5q63 0 114.5 63.5t51.5 148.5z" />
    <glyph glyph-name="W" unicode="W" horiz-adv-x="493" 
d="M483 325q0 -44 -10 -78q-5 -19 -16 -40l-47 24l14 30q10 30 10 52q0 68 -60 119q-54 45 -114 45q-74 0 -128.5 -53.5t-54.5 -131.5l11 -32q15 -32 32 -32q14 23 32.5 37.5t38.5 19.5l19 -28q-21 -16 -42 -51t-21 -63q0 -41 36 -74q33 -28 69 -28q25 0 52 17q36 23 36 60
q0 10 -18.5 28t-36.5 18l-45 -49l-36 40l124 136l40 -36l-52 -57q31 0 53 -28q10 -13 16 -29t6 -35q0 -34 -30 -67q-42 -45 -119 -45q-59 0 -100.5 42.5t-41.5 91.5t2 53q-22 7 -41 29q-31 37 -31 95q0 85 62 147q66 66 168 66q46 0 84 -14t73 -45q66 -59 66 -134z" />
    <glyph glyph-name="X" unicode="X" horiz-adv-x="501" 
d="M491 326q0 -12 -0.5 -26.5t-7.5 -36.5q-6 -28 -16 -45l-42 20l9 20q4 11 6 21t2 25q0 62 -43 112q-50 58 -133 58q-75 0 -131.5 -45t-56.5 -113q0 -25 21 -55q21 -27 37 -28l18 25q17 20 40 29l23 -33q-16 -11 -38 -48q-18 -35 -18 -65q0 -40 23 -70t59 -30q12 0 18 2
l19 8q-16 9 -30 31q-26 37 -26 77q0 35 27.5 63.5t67.5 28.5q42 0 63.5 -32t21.5 -81q0 -44 -51 -89l40 -25l-30 -33l-46 31q-10 -8 -38 -20q-24 -9 -40 -9q-35 0 -76 39q-48 48 -48 122q0 21 2 27l3 9q-37 6 -63 44q-27 36 -27 93q0 85 79 142q70 49 154 49q87 0 157.5 -58
t70.5 -134zM358 151q0 11 -1 16t-7 15q-13 22 -32 22q-13 0 -30 -17q-7 -7 -11.5 -15.5t-5.5 -15.5q0 -32 26 -61l20 -19q14 8 27.5 30.5t13.5 44.5z" />
    <glyph glyph-name="Y" unicode="Y" horiz-adv-x="486" 
d="M456 0h-46v327q0 62 -48 110q-42 40 -78 40q-30 0 -53 -30q-17 -25 -17 -45q0 -7 5 -15t11.5 -11t12.5 -6.5t17 -11.5q20 -11 29 -25l-28 -37q-13 11 -31 21l-32 15q-9 3 -26 5q-24 0 -53 -22q-37 -28 -37 -72q11 5 35 9l29 5q78 0 140 -47t62 -114q0 -45 -39 -78
q-31 -25 -77 -25q-61 0 -124 60q-78 75 -78 189q0 43 26 79q19 28 45 43q11 7 32 12l29 7l-1 41q0 30 25 58q33 36 93 36q57 0 98 -33q14 -13 33 -40v73h46v-518zM294 95q0 48 -41 81.5t-94 33.5l-35 -3q-14 -4 -33 -17q26 -65 62 -103q44 -47 84 -47q24 0 40.5 16t16.5 39z
" />
    <glyph glyph-name="Z" unicode="Z" horiz-adv-x="491" 
d="M471 291q0 -26 -8.5 -55.5t-17.5 -42.5l-45 25q8 13 16 37l7 39q0 78 -56 133q-52 50 -117 50q-74 0 -128 -63q-45 -54 -45 -115q0 -28 10 -47.5t38 -32.5q6 8 13 17.5t18 21.5q26 27 41 27l26 -35q-29 -17 -53 -55q-22 -38 -22 -73q0 -36 33 -65q30 -24 64 -24
q37 0 66 33q14 17 21 33t7 35q0 13 -4 21q-11 -3 -34 -3q-15 0 -27.5 13.5t-12.5 36.5q0 18 16 29.5t33 11.5q25 -9 38 -19q38 -30 38 -94q0 -60 -44 -101q-22 -20 -48 -30t-58 -10q-66 0 -104 45q-31 40 -31 100l3 36q-31 12 -52.5 45.5t-21.5 76.5q0 90 58 155
q63 71 162 71q105 0 165 -67q56 -62 56 -160z" />
    <glyph glyph-name="bracketleft" unicode="[" horiz-adv-x="464" 
d="M434 0h-46v68q-26 -32 -80 -59q-43 -20 -82 -20q-78 0 -137 41.5t-59 99.5q0 94 83 141l125 59q5 4 22.5 29t17.5 41q0 23 -19 45q-24 29 -65 29q-26 0 -49.5 -24.5t-23.5 -44.5q0 -15 13 -31t13 -27q0 -5 -7.5 -13.5t-15.5 -10.5q-17 3 -25 11q-25 22 -25 68q0 56 55 92
q39 24 69 24q45 0 80 -23q47 -30 47 -90q0 -75 -63 -114l-118 -55q-64 -34 -64 -95q0 -36 38 -70q44 -39 108 -39q41 0 95.5 39.5t66.5 83.5v363h46v-518z" />
    <glyph glyph-name="backslash" unicode="\" horiz-adv-x="488" 
d="M478 302q0 -12 -1 -25t-4 -28q-3 -27 -15 -56l-47 27q9 12 15 33.5t6 42.5q0 78 -50 129.5t-122 51.5t-127.5 -44t-55.5 -111q0 -27 21 -60t48 -33q6 16 19 30q18 21 43 31l26 -33q-22 -12 -39.5 -41.5t-17.5 -66.5q0 -28 24 -49q22 -17 42 -17q15 0 40 22t25 42v113h46
v-260h-46v71l-25 -19q-21 -12 -51 -12q-51 0 -78 40q-22 35 -22 81l2 25q-42 9 -71 39q-33 36 -33 94q0 84 65 141.5t162 57.5q79 0 143 -49q78 -60 78 -167z" />
    <glyph glyph-name="bracketright" unicode="]" horiz-adv-x="489" 
d="M459 0h-46v104q-36 -52 -61 -69q-49 -35 -128 -35q-78 0 -136 47t-58 123q0 65 41.5 110.5t107.5 60.5l-122 154l37 28l224 -282l-35 -30l-69 86q-44 0 -90.5 -37.5t-46.5 -89.5q0 -39 36 -78q45 -48 111 -48q56 0 120 49q69 53 69 107v318h46v-518z" />
    <glyph glyph-name="asciicircum" unicode="^" horiz-adv-x="503" 
d="M493 327q0 -27 -15 -66q-2 -7 -7.5 -19t-14.5 -26l-45 23q12 18 21.5 41t9.5 38q0 70 -64 119q-28 20 -53 30t-53 10q-38 0 -70.5 -11t-62.5 -36q-57 -45 -57 -118q0 -33 35 -68q37 -34 69 -34q27 20 58.5 33t58.5 13h60v-256h-46v208h-21q-26 0 -73 -34q-58 -43 -58 -88
q0 -28 23 -36.5t23 -27.5q0 -9 -8 -15.5t-25 -6.5q-29 0 -46.5 24.5t-17.5 59.5q0 14 6 34t28 52q-28 6 -64 36q-54 45 -54 109q0 62 51 124q68 79 188 79q89 0 156.5 -53.5t67.5 -137.5z" />
    <glyph glyph-name="underscore" unicode="_" horiz-adv-x="488" 
d="M458 0h-46v85q-28 -41 -72.5 -66.5t-100.5 -25.5q-55 0 -97 38t-42 94q0 15 0.5 21t5 23t11.5 26q-15 1 -38 21q-17 15 -28 35l-16 41q-5 22 -5 45q0 78 66 132q61 49 133 49q23 0 47 -4t48 -13q62 -22 88 -69v86h46v-518zM412 222v132q0 28 -54 72q-60 48 -120 48
q-78 0 -124 -58q-34 -45 -34 -90q0 -43 29 -69l34 -22q17 20 45 31t50 11l12 -45q-48 -18 -72 -42q-28 -28 -28 -66q0 -34 32 -59q32 -23 70 -23q45 0 98 50q62 57 62 130z" />
    <glyph glyph-name="grave" unicode="`" horiz-adv-x="580" 
d="M570 412q0 -24 -19 -47q-25 -28 -64 -28l-18 3q-8 3 -17 10v-350h-46v74q-33 -36 -43 -43q-46 -34 -103 -34q-59 0 -104.5 37.5t-45.5 89.5q0 23 3.5 36t9.5 26q-38 18 -67 54q-26 37 -26 84q0 76 66.5 135t159.5 59q66 0 109 -25q19 -11 41 -36v61h46v-35l15 5l29 5
q29 0 51.5 -24.5t22.5 -56.5zM529 414q0 15 -12 24t-28 9q-12 0 -22 -7q-15 -11 -15 -28q0 -15 10.5 -24t27.5 -11q16 0 27.5 9.5t11.5 27.5zM406 161v144q0 72 -38 119q-41 50 -112 50q-80 0 -133 -60q-43 -49 -43 -97q0 -22 19 -46.5t53 -40.5q11 16 40.5 33.5t43.5 17.5
l26 -45q-36 -9 -69 -42t-33 -65q0 -38 42 -64q36 -21 77 -21q37 0 82 43.5t45 73.5z" />
    <glyph glyph-name="a" unicode="a" horiz-adv-x="502" 
d="M492 320q0 -40 -11 -76.5t-23 -52.5l-47 18q7 10 9.5 14.5t7.5 16.5q17 37 17 64q0 73 -57 121.5t-118 48.5q-40 0 -72.5 -9t-60.5 -29q-59 -42 -59 -109q0 -28 21.5 -63t46.5 -35q16 16 25 21q30 18 72 18q50 0 85 -34q31 -31 31 -66v-173h-46v74q-13 -10 -37 -20
q-23 -7 -46 -7q-59 0 -87 46q-21 33 -21 76l1 15q-37 12 -65 54t-28 97q0 82 69.5 135t158.5 53q93 0 163.5 -55.5t70.5 -142.5zM313 155q0 26 -22 43.5t-52 17.5q-33 0 -50 -18q-14 -19 -14 -45q0 -30 19 -49q20 -17 47 -17q18 0 40 13q32 18 32 55z" />
    <glyph glyph-name="b" unicode="b" horiz-adv-x="518" 
d="M508 23l-38 -22l-79 123l16 25q27 48 27 114q0 77 -46 142q-51 72 -125 72q-73 0 -129 -47.5t-56 -112.5q0 -14 1 -19.5t8.5 -17t18.5 -17.5q10 18 22 28t21 12l39 -24q-25 -18 -42 -54q-15 -36 -15 -81q0 -42 31 -73t65 -31q27 0 49 18t22 45l-32 -4q-27 0 -50 19
q-32 26 -32 74q0 30 16 59q12 22 29 32l29 -20q-10 -11 -18 -28q-3 -7 -8 -21.5t-5 -27.5q0 -17 11.5 -30.5t27.5 -15.5q13 0 25 12q9 11 11 21v94h50v-154q0 -39 -25 -73q-33 -47 -97 -47q-84 0 -119 59q-25 44 -25 109l3 45l2 8q-15 3 -24 11q-37 28 -37 98q0 84 66 139.5
t158 55.5q103 0 167 -72.5t64 -175.5q0 -45 -12 -83t-28 -63z" />
    <glyph glyph-name="c" unicode="c" horiz-adv-x="488" 
d="M458 0h-46v338q-2 17 -23 45q-17 23 -38 40q-19 19 -31 27q-39 27 -81 27q-67 0 -114.5 -47t-47.5 -107q0 -45 27 -80.5t59 -35.5q30 23 47 33q47 30 73 30l20 -30q-54 -21 -104.5 -72.5t-50.5 -96.5q18 0 31 -13.5t13 -35.5q0 -15 -14.5 -25.5t-32.5 -10.5
q-23 0 -35.5 27.5t-12.5 41.5q0 43 13 75q9 23 21 34q-40 13 -70.5 57.5t-30.5 98.5q0 82 59 140t150 58q30 0 55 -6t48 -20q30 -18 70 -61v87h46v-518z" />
    <glyph glyph-name="d" unicode="d" horiz-adv-x="527" 
d="M517 22l-22 -23l-98 36q22 15 40.5 38t18.5 42q0 15 -12 24.5t-24 10.5q-26 0 -66 -75t-104 -75q-43 0 -81 32t-38 74q0 16 8 35l-24 -17q-12 -9 -19 -19q9 -6 10 -19q0 -13 -9.5 -24t-30.5 -15q-18 -3 -27 10.5t-9 36.5q0 47 91 102q-35 18 -51 47q-20 35 -20 85
q0 68 45 124q54 66 145 66q49 0 91 -21q29 -15 60 -44v65h49v-326q30 -8 46.5 -29.5t16.5 -50.5q0 -27 -12 -45q-5 -8 -19 -17zM391 195v158q0 24 -41 68q-52 55 -110 55q-46 0 -90 -41q-50 -45 -50 -105q0 -39 25 -68q13 -14 45 -32l85 57l28 -49l-54 -36q-39 -26 -39 -75
q0 -32 18.5 -54.5t44.5 -22.5q32 0 62 63.5t76 81.5z" />
    <glyph glyph-name="e" unicode="e" horiz-adv-x="497" 
d="M487 17l-30 -26l-85 123q30 55 40.5 89.5t10.5 59.5q0 81 -49 143q-53 68 -132 68q-69 0 -119 -59q-45 -54 -45 -116q0 -27 12.5 -57t29.5 -30q11 15 26 25q33 22 71 22q59 0 93 -46q29 -40 29 -94q0 -51 -36 -89.5t-83 -38.5q-74 0 -105 49q-21 33 -21 88v26l3 9
q-26 13 -46.5 50t-20.5 93q0 87 64 149.5t151 62.5q96 0 162.5 -72.5t66.5 -175.5q0 -23 -4 -43.5t-16 -52.5q-15 -42 -28 -62zM289 125q0 39 -27 66q-21 21 -45 21q-30 0 -53 -31.5t-23 -58.5q0 -25 17 -48q24 -33 62 -33q25 0 47 25t22 59z" />
    <glyph glyph-name="f" unicode="f" horiz-adv-x="518" 
d="M508 18l-38 -19l-67 112q9 14 25 75t16 91q0 79 -53 138t-129 59q-72 0 -126.5 -51.5t-54.5 -111.5q0 -31 9.5 -55t31.5 -28q6 11 21 22q15 9 34 9q21 0 32 -4.5t19 -12.5q2 3 18 10t38 7q25 0 46.5 -15.5t21.5 -35.5v-208h-46v182q0 11 -9 21t-17 12q-12 0 -19.5 -11.5
t-9.5 -21.5v-182h-46v189q0 6 -9.5 15t-19.5 11q-7 0 -16.5 -9.5t-9.5 -16.5v-189h-46v171q-32 22 -51 56q-23 43 -23 89q0 63 51 123q67 79 179 79q102 0 169 -74q62 -70 62 -169q0 -51 -15 -99q-6 -18 -24 -55z" />
    <glyph glyph-name="g" unicode="g" horiz-adv-x="470" 
d="M440 0h-46v294q0 66 -33 120q-36 59 -94 59q-25 0 -42 -15.5t-17 -36.5q0 -24 22 -39q15 -3 26 -6t20 -8q17 -5 29 -18l-11 -40q-28 15 -53 22q-12 3 -25 5t-28 2q-38 0 -75.5 -19t-37.5 -51q0 -27 30 -42q19 -9 36 -11q20 25 38 33q26 14 56 14q45 0 77 -32
q39 -39 39 -108q0 -48 -37 -85.5t-79 -37.5q-48 0 -84 42t-36 94q0 17 6 37q-31 9 -36 13q-55 28 -55 85q0 45 33 78q40 37 110 37l-7 17q-6 17 -6 29q0 35 33 60.5t81 25.5q57 0 93 -36q18 -18 27 -42v78h46v-518zM303 140q0 28 -23 51.5t-44 23.5q-27 0 -49 -26
q-10 -12 -15 -26t-5 -32q0 -26 21 -55q21 -26 52 -26q26 0 47 37q8 17 12 29t4 24z" />
    <glyph glyph-name="h" unicode="h" horiz-adv-x="479" 
d="M449 0h-46v70l-51 -47q-47 -31 -106 -31q-50 0 -87 25q-49 34 -49 95q0 24 9 48q5 12 16 28q-45 6 -75 44.5t-30 92.5q0 77 69 135t162 58q50 0 85 -17q31 -14 57 -43v60h46v-518zM403 168v183q0 28 -40 71q-49 52 -112 52q-20 0 -41 -6q-10 -3 -19 -7t-18 -10zM245 287
l-111 135q-20 -20 -34 -42q-18 -30 -18 -59t27 -62q28 -31 61 -31zM380 121l-102 125l-90 -75q-11 -11 -18.5 -24t-9.5 -30q0 -22 24 -48q31 -31 69 -31q41 0 89 39q37 32 38 44z" />
    <glyph glyph-name="i" unicode="i" horiz-adv-x="470" 
d="M460 44l-28 -45l-331 107v20l51 46q-52 23 -87 65t-35 98q0 75 57 129t143 54q53 0 88.5 -17t67.5 -58v75h46v-464zM386 69v284q0 24 -46 69q-54 54 -115 54q-35 0 -82 -36q-58 -46 -58 -108q0 -42 40 -80.5t72 -38.5l112 101l39 -37l-159 -144z" />
    <glyph glyph-name="j" unicode="j" horiz-adv-x="448" 
d="M438 320q0 -36 -13 -69q-4 -11 -9 -21t-14 -23l-43 25q16 22 24 44q4 11 6 21t2 25q0 65 -52 108.5t-109 43.5q-56 0 -104.5 -33.5t-48.5 -84.5q0 -20 14.5 -52t31.5 -32l19 25q11 13 35 29l25 -36q-22 -13 -38 -33q-16 -24 -16 -50q0 -23 21 -41q22 -16 45 -16
q17 0 35.5 13t20.5 27v101h46v-202h-46v35q-33 -18 -66 -18q-17 0 -30 7l-39 -38l245 -53l-18 -37l-312 64v11l88 76q-18 14 -28 36t-10 40q0 10 3 16q-34 12 -54 45q-19 35 -19 80q0 71 63 121q58 44 137 44q84 0 146 -57.5t62 -140.5z" />
    <glyph glyph-name="k" unicode="k" horiz-adv-x="506" 
d="M496 299q0 -18 -2 -32.5t-8 -34.5q-9 -31 -28 -56l-33 32q7 9 13 23q10 28 10 62q0 75 -57.5 129.5t-126.5 54.5q-74 0 -130 -51.5t-56 -122.5q0 -19 2 -32t9 -29q12 -28 37 -28q5 12 24 21q8 4 18 7t20 3q22 0 34 -8l21 -19q8 11 19 17q17 10 38 10q32 0 53 -22
q19 -22 19 -47v-187h-46v166q0 17 -5 29.5t-24 12.5q-9 0 -18.5 -9.5t-9.5 -21.5v-177h-46v180q0 13 -8 24q-6 12 -21 12q-10 0 -19.5 -9.5t-9.5 -26.5v-180h-46v173q-33 0 -61 44t-28 102q0 88 68 149t159 61q99 0 169 -61t70 -158z" />
    <glyph glyph-name="l" unicode="l" horiz-adv-x="484" 
d="M454 0h-46v71q-34 -34 -55 -48q-35 -23 -72 -23q-26 0 -57 14.5t-49 33.5q-11 13 -19 30q-3 10 -5 31q0 14 2 20l6 16l-64 -55l4 -11q3 -9 0 -18q-6 -15 -13 -22t-16 -7q-15 0 -29 12q-11 13 -11 31q0 11 3 18t10 13l77 65q-45 33 -64 65q-19 35 -19 80q0 87 69 147
q64 55 141 55q57 0 95 -17q39 -15 66 -48v65h46v-518zM408 196v150q0 46 -55 87.5t-101 41.5q-13 0 -25 -1.5t-28 -9.5q-16 -6 -27 -19zM259 287l-122 129q-22 -14 -36.5 -43.5t-14.5 -63.5t21 -63q30 -39 56 -39zM396 142l-107 111l-81 -68l-5 -18l-1 -25v-14q0 -33 31 -58
q28 -22 57 -22q30 0 68 35t38 59z" />
    <glyph glyph-name="m" unicode="m" horiz-adv-x="465" 
d="M445 396q0 -44 -21 -85q-15 -29 -42 -49q13 -11 21 -25q14 -22 14 -41v-197h-46v188q0 9 -7 20l-13 17l-15 -10q-12 -9 -12 -17v-198h-46v54l-13 -9l-20 -4q-18 0 -33 9q-8 4 -21 17l-36 -20q-14 -6 -28 -6q-33 0 -59 32q-25 34 -25 87q0 29 17 66q12 28 20 38
q-18 14 -34 48t-16 75q0 27 13.5 69.5t41.5 72.5l31 -25q-18 -18 -30.5 -52t-12.5 -67q0 -42 44 -83q51 -46 118 -46q66 0 114.5 42.5t48.5 96.5q0 30 -19 55t-37 25t-30 -15t-12 -28v-107h-46v104q0 17 -14 31q-12 15 -26 15q-17 0 -32 -25q-12 -24 -12 -42t10 -37l13 -18
l-22 -28q-17 13 -31 29q-20 25 -20 46q0 50 24.5 84.5t72.5 34.5q20 0 39 -13l19 -18q10 13 29 22t43 9q43 0 70.5 -33.5t27.5 -88.5zM278 127v86l-31 -3l-33 -1v-92q0 -9 12 -18t23 -9q9 0 20 12q9 12 9 25zM168 123v93q-7 0 -24 7l-20 8q-15 -9 -28 -47l-9 -36
q0 -17 14.5 -36.5t31.5 -21.5q15 0 27 15q6 9 8 18z" />
    <glyph glyph-name="n" unicode="n" horiz-adv-x="526" 
d="M516 39l-37 -23l-60 91q16 25 24.5 53.5t8.5 58.5q0 99 -59 177.5t-148 78.5q-56 0 -112 -42q-60 -47 -60 -110q0 -19 3 -31l14 -29l16 24l18 20l35 -24q-22 -27 -32.5 -69.5t-10.5 -69.5q0 -37 39.5 -75.5t85.5 -38.5q41 0 75.5 31.5t41.5 83.5q-14 -6 -34 -6
q-27 0 -43 16q-6 -9 -21 -17.5t-32 -8.5q-21 0 -36 11q-30 20 -30 66q0 11 6 30.5t19 30.5l35 -17l-8 -13q-6 -12 -6 -29q0 -15 4.5 -25t17.5 -11q14 0 19.5 8.5t8.5 29.5v50h39v-52q0 -30 25 -30q14 0 21.5 13.5t9.5 26.5l-12 39l34 14q6 0 18.5 -35t12.5 -76
q0 -77 -46.5 -123.5t-119.5 -46.5q-95 0 -135 61q-28 44 -28 112q0 28 2 38q1 14 4 17q-24 14 -38.5 39t-14.5 61q0 59 48 121q64 79 171 79t178.5 -82t71.5 -198q0 -54 -12 -92q-4 -13 -18 -35z" />
    <glyph glyph-name="o" unicode="o" horiz-adv-x="503" 
d="M483 308q0 -10 -0.5 -21.5t-7.5 -31.5q-6 -26 -19 -40l-45 19q12 15 18.5 35t6.5 35q0 71 -57 125q-51 48 -114 48q-76 0 -132 -46t-56 -107q0 -28 9 -57t22 -30q6 10 25.5 18t42.5 8q36 0 51.5 -6.5t22.5 -16.5q11 11 29 17t39 6q33 0 54 -24.5t21 -51.5v-159l27 -8v46
h46v-126h-46q0 27 -24.5 39.5t-55.5 12.5q-17 0 -43 -19q-23 -19 -25 -33q0 -16 17 -16l25 11l24 5q30 0 49 -15t19 -42q0 -20 -16 -36t-46 -16q-34 0 -55 27l-13 27q-16 5 -26 12q-23 18 -23 49q0 26 27 53h-30v66l-12 -9q-16 -8 -39 -8q-49 0 -71 37q-17 31 -17 82l1 18
l3 10q-24 14 -42 46q-17 34 -17 73q0 94 64 149t161 55q108 0 170 -59q58 -56 58 -151zM347 36v141q0 17 -12 30t-25 15q-21 0 -30.5 -20t-9.5 -49v-142q38 25 70 25h7zM224 160q0 25 -18 42q-7 7 -15.5 11.5t-15.5 5.5q-16 0 -30 -19.5t-14 -51.5q0 -23 15 -41
q15 -15 37 -15q18 0 30 22q5 11 8 22t3 24zM375 -109q0 7 -10 13l-25 4l-9 -3q-10 -5 -11 -14q0 -8 7.5 -16.5t18.5 -8.5q8 0 18 8t11 17z" />
    <glyph glyph-name="p" unicode="p" horiz-adv-x="503" 
d="M483 308q0 -10 -0.5 -21.5t-7.5 -31.5q-6 -26 -19 -40l-45 19q12 15 18.5 35t6.5 35q0 71 -57 125q-51 48 -114 48q-76 0 -132 -46t-56 -107q0 -28 9 -57t22 -30q6 10 25.5 18t42.5 8q36 0 51.5 -6.5t22.5 -16.5q11 11 29 17t39 6q33 0 54 -24.5t21 -51.5v-159l27 -8v46
h46v-126h-46q0 27 -24.5 39.5t-55.5 12.5q-17 0 -43 -19q-23 -19 -25 -33q0 -16 17 -16l25 11l24 5q30 0 49 -15t19 -42q0 -20 -16 -36t-46 -16q-34 0 -55 27l-13 27q-16 5 -26 12q-23 18 -23 49q0 26 27 53h-30v66l-12 -9q-16 -8 -39 -8q-49 0 -71 37q-17 31 -17 82l1 18
l3 10q-24 14 -42 46q-17 34 -17 73q0 94 64 149t161 55q108 0 170 -59q58 -56 58 -151zM466 -235h-323v46h277v70h46v-116zM347 36v141q0 17 -12 30t-25 15q-21 0 -30.5 -20t-9.5 -49v-142q38 25 70 25h7zM224 160q0 25 -18 42q-7 7 -15.5 11.5t-15.5 5.5q-16 0 -30 -19.5
t-14 -51.5q0 -23 15 -41q15 -15 37 -15q18 0 30 22q5 11 8 22t3 24zM375 -109q0 9 -8 13l-21 4q-8 0 -17 -4.5t-9 -12.5q0 -25 26 -25q10 0 19.5 6.5t9.5 18.5z" />
    <glyph glyph-name="q" unicode="q" horiz-adv-x="542" 
d="M532 127q0 -71 -67 -132q-81 -73 -204 -73l-48 4q-51 6 -71 21v51q48 -25 113 -25q62 0 113 21.5t79 67.5q-25 0 -50 16q-30 20 -30 53q0 35 17 56q11 13 32 23q16 13 24.5 34.5t8.5 67.5q0 49 -41 99q-53 64 -137 64q-74 0 -132.5 -44t-58.5 -103q0 -25 11 -46l17 -26
l26 15q1 1 11.5 3.5t15.5 3.5q22 0 40 -11l17 -14q7 8 26 17q9 4 17.5 6t19.5 2q34 0 51 -26q18 -24 18 -57v-163h-54v155q0 18 -22 40l-17 -15q-3 -4 -5 -15v-165h-53v77l-22 -8l-22 -3q-39 0 -59.5 27.5t-20.5 67.5l1 18q-20 14 -33 51t-13 77q0 75 72 127t174 52
q92 0 160 -59t68 -147q0 -23 -1 -32.5t-7.5 -29.5t-20.5 -40q23 -6 41 -30q16 -24 16 -53zM489 136q0 10 -8 18q-13 13 -29 13q-9 0 -19 -9t-12 -19q0 -10 8.5 -22t21.5 -12q9 0 23.5 11.5t14.5 19.5zM199 183q0 18 -11 32q-9 15 -25 15q-13 0 -26 -14.5t-13 -30.5
q0 -20 14 -34q14 -11 28 -13q12 0 23 17q8 17 10 28z" />
    <glyph glyph-name="r" unicode="r" horiz-adv-x="422" 
d="M412 340q0 -25 -8 -44q-5 -16 -18 -35l-33 24l14 31q3 8 3 20q0 61 -45.5 103.5t-105.5 42.5q-54 0 -100 -33t-46 -80q0 -20 6.5 -41.5t19.5 -22.5q2 3 21 11q18 6 37 6q25 0 38 -5q14 -3 22 -12q9 8 22 11.5t34 5.5q37 0 53.5 -24t16.5 -60v-253h-46l-146 34l48 31
l-31 9q-26 12 -26 35q0 20 30 40q32 19 64 19q28 0 42 -5l19 -9v101q0 21 -5 30q-8 15 -26 15q-13 0 -20 -10.5t-8 -20.5v-84h-46v19l-19 -10l-22 -3q-30 0 -53 19q-21 20 -21 48l2 14q-23 15 -36 44q-3 8 -8 25t-5 37q0 58 46 104q53 51 139 51q88 0 142.5 -48.5
t54.5 -129.5zM192 254q0 14 -10.5 21.5t-23.5 9.5q-18 0 -27 -9t-11 -26q0 -15 10.5 -24.5t27.5 -9.5q34 0 34 38zM297 20v71q-4 10 -21 17t-32 7q-21 0 -34.5 -7t-13.5 -20q0 -7 26 -19l38 -11l-29 -25z" />
    <glyph glyph-name="s" unicode="s" horiz-adv-x="421" 
d="M390 178h-46v182q0 15 -45 60q-56 56 -116 56q-48 0 -89.5 -30t-41.5 -65q0 -8 6.5 -21t15.5 -15q16 16 37 26t45 10q36 0 65 -20q43 -31 43 -89q0 -31 -25 -59q-31 -34 -83 -34q-37 0 -68 21t-37 48l-5 41l1 14l2 6q-16 9 -27 28t-11 41q0 57 49 98.5t124 41.5
q52 0 96 -24q29 -16 64 -57v81h46v-340zM413 125l-40 9l-35 6h-68q-14 0 -42.5 -12t-29.5 -28l3 -10l22 10q13 6 30 4l5 -30q-15 -5 -25 -13t-11 -17q0 -12 13 -16l27 -4q50 0 69 25q13 18 13 52h46v-133h-46v44q-21 -18 -52 -24l-31 -3q-32 0 -59 17.5t-27 41.5q0 9 5 18
l-16 8q-13 13 -13 36q0 21 30 42q36 24 89 24h57q44 0 73 -9zM216 285q0 21 -14 35q-4 4 -12 7q-14 6 -34 6q-27 0 -46 -15t-19 -33q0 -24 20 -44t45 -20t42.5 19t17.5 45z" />
    <glyph glyph-name="t" unicode="t" horiz-adv-x="461" 
d="M431 -5h-46v51q-26 -26 -52 -41t-58 -15q-36 0 -66 21q-28 22 -28 53q0 18 8 29t25 21l-69 28l10 34l168 -56l-18 -37l-47 17q-8 0 -21.5 -12t-14.5 -24q0 -13 15.5 -22.5t40.5 -9.5q39 0 73 32.5t34 52.5v241q0 10 -20 34l-42 40q-21 16 -55 32q-7 3 -25 8t-35 5
q-46 0 -91 -24.5t-45 -54.5q0 -16 17 -33.5t31 -17.5q9 12 36.5 24t55.5 12q45 0 78 -27t33 -69q0 -27 -16 -55q-30 -50 -97 -50q-41 0 -72 30t-31 67l2 23q-35 6 -57 31t-22 64q0 40 43 77q53 44 139 44q44 0 73 -9q54 -16 100 -70v79h46v-523zM275 286q0 20 -20 34
q-18 15 -45 15q-32 0 -53 -25q-6 -8 -12 -25q0 -25 26 -45q22 -17 40 -17q19 0 39 15q25 19 25 48z" />
    <glyph glyph-name="u" unicode="u" horiz-adv-x="577" 
d="M567 396q0 -26 -20 -50t-57 -24q-49 0 -70 44q-12 26 -12 62q-15 24 -55.5 36t-93.5 12q-69 0 -121 -37q-58 -43 -58 -112q0 -32 25 -58q21 -23 41 -23l13 1q18 0 31 -5q14 -3 28 -16l19 13q15 9 35 9q15 0 29.5 -7t20.5 -14q4 5 25 14l32 7q39 0 59 -26q15 -18 15 -45
v-187h-46v182q0 9 -12 20.5t-25 13.5q-12 0 -22 -9t-12 -22v-185h-46v65q-11 -11 -28 -13q-18 0 -32 10q-12 11 -19 23q-11 -16 -19 -21q-15 -12 -31 -12q-34 0 -57.5 30.5t-23.5 77.5q0 42 17 65q-32 18 -50 47q-17 31 -17 67q0 84 70 136.5t162 52.5q60 0 110 -19
q34 -13 62 -36q29 24 57 24q23 0 46 -20q30 -26 30 -71zM519 401q0 17 -11 27q-9 11 -22 11q-6 0 -17 -15q-6 -11 -8 -23q0 -16 8.5 -27t22.5 -11q6 0 17 11q8 11 10 27zM290 143q0 22 -6 37t-25 22q-11 -10 -17 -21t-6 -26q0 -36 20 -53q7 -5 20 -9q5 7 8 17.5t4 17.5t2 15
zM190 151q0 16 -7 29t-27 22l-15 -15q-15 -17 -15 -41q0 -23 11 -38t26 -15q11 0 20 21q5 19 7 37z" />
    <glyph glyph-name="v" unicode="v" horiz-adv-x="583" 
d="M573 426q0 -30 -19 -56q-25 -31 -65 -31l-18 4q-13 3 -20 8v-351h-46v373l-37 -31q-36 -24 -77 -24t-63 28t-22 65q0 27 12 51l-9 7q-41 0 -92 -55q-41 -46 -41 -106q0 -22 12 -43q13 -19 29 -19l19 11q8 3 26 5q13 0 30.5 -9t31.5 -24l24 18q18 12 27 12q46 0 65 -32
q12 -21 12 -68q0 -87 -10 -117q-15 -49 -67 -49q-17 0 -33 10.5t-24 21.5q-8 -11 -26.5 -21.5t-32.5 -10.5q-45 0 -66 40q-17 34 -17 83v23t2.5 27t7.5 27q-24 12 -40 45t-16 69q0 98 72.5 154.5t168.5 56.5h32q-23 -23 -34.5 -51.5t-11.5 -58.5q0 -23 14 -35.5t34 -12.5
q30 0 57.5 40.5t42.5 117.5h46v-36l20 10l28 7q23 0 45 -16q29 -21 29 -57zM520 421q0 13 -9.5 22.5t-23.5 9.5t-24.5 -9t-11.5 -21q0 -11 13 -23q15 -10 30 -10q9 0 16.5 9t9.5 22zM306 123q0 37 -6.5 61.5t-26.5 24.5q-9 0 -19 -13t-12 -23v-105q0 -9 11 -16.5t20 -9.5
q19 0 28 33q5 23 5 48zM196 68v105q0 15 -12.5 25.5t-31.5 17.5q-8 -13 -12.5 -22.5t-10.5 -24.5q-3 -11 -5 -24.5t-2 -33.5t15 -46q15 -23 29 -23q7 0 18.5 10.5t11.5 15.5z" />
    <glyph glyph-name="w" unicode="w" horiz-adv-x="575" 
d="M565 423q0 -34 -17 -58q-20 -28 -55 -28q-15 0 -24 3l-17 10v-350h-46v374q0 9 -4 17.5t-16 22.5q-50 63 -137 63q-69 0 -120.5 -45.5t-51.5 -112.5q0 -23 9.5 -57t23.5 -35l21 17q12 5 30 7q18 0 34 -8t29 -29q10 15 25.5 21t22 7.5t15.5 1.5q23 0 47.5 -26.5
t24.5 -73.5q0 -87 -18.5 -120.5t-63.5 -33.5q-15 3 -21 7q-24 9 -36 26q-9 -13 -27 -23q-18 -7 -32 -7q-44 0 -67 36q-16 29 -16 75v18t2 21t3.5 18.5t4.5 16.5q-22 9 -41 50q-17 42 -17 92q0 81 62.5 139.5t152.5 58.5q60 0 98 -14.5t63 -42.5v57h46v-31l18 9q8 3 24 5
q32 0 51.5 -17.5t19.5 -60.5zM511 414q0 15 -8.5 24t-17.5 9t-18.5 -9t-11.5 -17q0 -12 7 -22t21 -12q15 0 21.5 6.5t6.5 20.5zM313 120v18q0 10 -2 22q-6 40 -34 40q-10 0 -20.5 -8.5t-12.5 -21.5v-88q0 -10 8.5 -25.5t24.5 -16.5q22 0 31 27q5 18 5 53zM198 67v90
q0 14 -11 28.5t-28 14.5q-15 0 -24.5 -23t-9.5 -57q0 -39 9 -59.5t30 -20.5q7 0 19.5 7.5t14.5 19.5z" />
    <glyph glyph-name="x" unicode="x" horiz-adv-x="565" 
d="M555 423q0 -31 -21.5 -58.5t-53.5 -27.5q-10 0 -18 4l-14 10v-351h-46v28l-19 -16q-29 -21 -65 -21t-59 23l-22 34q-14 -14 -43 -23l-24 -3q-51 0 -74 41q-16 32 -16 85l1 23l6 23q-8 3 -20 13q-37 34 -37 97q0 88 63 151t150 63q56 0 94.5 -16.5t64.5 -51.5v68h46v-31
l8 6q11 6 28 6q31 0 49 -15q22 -19 22 -61zM505 411q0 10 -9.5 21.5t-17.5 11.5q-9 0 -19.5 -10.5t-10.5 -22.5q0 -7 11 -16.5t21 -9.5q6 0 15.5 9.5t9.5 16.5zM402 134v202q-23 57 -46 85q-42 53 -103 53q-69 0 -121 -52t-52 -118q0 -37 30 -57q17 31 43 48q18 12 28 12
l24 -42q-29 -15 -53 -53q-22 -38 -22 -79q0 -23 15 -44q15 -18 32 -18q19 0 32.5 12.5t13.5 28.5v75h50v-96q0 -11 12 -28q17 -22 40 -22q31 0 56 34q21 30 21 59z" />
    <glyph glyph-name="y" unicode="y" horiz-adv-x="489" 
d="M479 332q0 -28 -6.5 -53.5t-23.5 -44.5l-44 28q10 10 19 28q6 14 8 32q0 46 -39 94q-52 61 -132 61q-72 0 -127.5 -43t-55.5 -100q0 -33 31 -67l31 -26q5 5 17 9l20 5q10 0 26 -6t30 -25l24 17q23 14 42 14q78 0 78 -139q0 -77 -30 -109q-19 -19 -53 -19q-14 0 -37 12
l-23 15q-4 -9 -22.5 -16.5t-36.5 -7.5q-47 0 -68 49q-12 30 -12 89q0 25 6 49q2 7 3.5 11.5t4.5 10.5q-29 12 -54 52.5t-25 86.5q0 58 53 112q67 67 170 67q85 0 151 -45q75 -51 75 -141zM327 120q0 88 -33 88q-15 0 -24 -33q-8 -35 -8 -60q0 -34 7.5 -55.5t24.5 -21.5
q19 0 28 30q3 12 4 21.5t1 30.5zM212 114q0 45 -9.5 69.5t-26.5 24.5q-12 0 -23 -30q-4 -15 -6 -27t-2 -26q0 -39 10.5 -63t30.5 -24q12 0 19 26q3 13 5 25.5t2 24.5z" />
    <glyph glyph-name="z" unicode="z" horiz-adv-x="450" 
d="M440 343q0 -25 -10 -56q-9 -33 -17 -43l-39 28q7 10 13.5 26.5t6.5 35.5q0 60 -46 102.5t-100 42.5q-68 0 -117 -37q-55 -43 -55 -108q0 -30 18 -57q14 -22 23 -23l13 7q7 3 21 5q28 0 57 -29q13 15 29 22t41 7q30 0 50.5 -25t20.5 -61q0 -46 -22 -66.5t-62 -20.5
q-20 0 -36 9t-24 20q-12 -15 -20 -19q-17 -10 -38 -10q-33 0 -49 22q-8 12 -12 25t-4 31q0 21 4 33l4 15q-26 12 -44 44q-16 34 -16 70q0 70 50 121q61 64 168 64q79 0 135.5 -50t56.5 -125zM382 11q0 -26 -22.5 -51t-61.5 -25q-31 0 -58 20q-16 11 -24 23l-28 -23
q-31 -20 -63 -20q-28 0 -53 18t-25 46q0 12 12.5 31.5t24.5 30.5l-31 18l20 28l46 -29l21 2q24 0 44 -10q12 -6 31 -25q12 12 25 19.5t27.5 11.5t35.5 4q30 0 54.5 -18.5t24.5 -50.5zM301 183q0 13 -9.5 25.5t-26.5 12.5q-13 0 -20.5 -14t-7.5 -29q0 -18 8.5 -28.5
t25.5 -12.5q12 0 21 17t9 29zM188 176q0 23 -9 35q-10 10 -24 10q-10 0 -21 -18q-9 -18 -9 -27q0 -18 17 -31l17 -8q9 0 20 12q9 12 9 27zM334 12q0 14 -14 23.5t-25 11.5q-8 0 -24 -12t-25 -24q12 -16 26 -21q11 -6 26 -7q16 0 25.5 9.5t10.5 19.5zM186 10q-27 27 -53 27
q-12 0 -23 -10q-15 -14 -15 -26q0 -7 11 -14.5t21 -9.5q21 0 39 12q10 6 20 21z" />
    <glyph glyph-name="braceleft" unicode="{" horiz-adv-x="490" 
d="M480 342q0 -25 -5.5 -42.5t-10 -26t-14.5 -21.5l-37 27l12 28q4 9 6 16.5t2 18.5q0 39 -38 80q-50 52 -134 52q-72 0 -125 -31q-59 -35 -59 -93q0 -14 12 -36.5t26 -23.5q1 11 27 37t43 33l25 -33q-10 -3 -33 -27q-30 -30 -30 -59q0 -15 10 -31q10 -13 26 -14q27 0 36 31
q12 51 16 56q15 21 52 33q25 7 39 7h49v-134h41v-189h-46v135h-34q-14 0 -27.5 -10.5t-13.5 -31.5q0 -10 9 -33l5 -16q0 -18 -20 -35q-26 -21 -69 -21q-42 0 -73 28q-29 29 -29 74q0 21 6.5 41t19.5 33q-20 12 -31 30q-9 18 -9 51q-48 26 -61 50q-4 7 -7 19q-6 21 -6 45
q0 57 63.5 108t157.5 51q87 0 155 -45q74 -50 74 -131zM329 185v91h-17q-15 0 -27 -11q-11 -8 -17 -28q-9 -40 -27 -58l-24 -18q-12 -6 -25 -8q-12 -6 -18.5 -21t-6.5 -44q0 -20 22 -40.5t39 -20.5q9 0 18 9t9 17l-4 29l-4 29q0 23 15 40q19 21 67 34z" />
    <glyph glyph-name="bar" unicode="|" horiz-adv-x="492" 
d="M462 361q0 -32 -12 -50l-40 13q6 15 6 37q0 45 -47 80q-24 17 -57 27t-71 10q-49 0 -102 -25q-66 -30 -66 -79q0 -13 14 -23.5t31 -12.5q3 11 13 28.5t23 26.5l36 -23q-11 -11 -18 -26q-14 -30 -14 -67q0 -18 9 -32.5t32 -14.5q11 0 23.5 9t14.5 22q-15 9 -26 22.5
t-11 30.5q0 21 25.5 43.5t63.5 22.5h89v-121h-49v79h-27l-29 -10q-16 -8 -16 -22q0 -5 18 -25q8 -10 10 -18l-4 -13l-9 -14q56 0 76 -27.5t30 -28.5q16 0 22.5 17.5t6.5 41.5v20h46v-52q-11 -28 -19 -40q-18 -29 -52 -29q-31 0 -48 20q-42 45 -86 45q-32 0 -63 -20.5
t-31 -42.5q1 -3 2 -5.5t4 -6.5l12 -9q8 8 34 16.5t48 8.5q31 0 59 -16.5t34 -53.5l74 -38l-18 -36l-68 35q-14 -18 -45 -29q-20 -6 -42 -6q-50 0 -74 36l-13 36q-12 3 -26 14q-23 20 -23 55q0 22 9.5 40.5t23.5 28.5q-15 10 -25 34q-4 12 -6 22t-2 25q-26 0 -50 18
q-32 24 -32 71q0 60 64.5 99t148.5 39q89 0 154 -40.5t65 -116.5zM302 71q0 9 -10 18q-18 13 -39 13q-22 0 -36 -14l-10 -14q0 -15 14.5 -24.5t32.5 -9.5q13 0 30.5 9t17.5 22z" />
    <glyph glyph-name="braceright" unicode="}" horiz-adv-x="503" 
d="M483 308q0 -10 -0.5 -21.5t-7.5 -31.5q-6 -26 -19 -40l-45 19q12 15 18.5 35t6.5 35q0 71 -57 125q-51 48 -114 48q-76 0 -132 -46t-56 -107q0 -28 9 -57t22 -30q6 10 25.5 18t42.5 8q36 0 51.5 -6.5t22.5 -16.5q11 11 29 17t39 6q33 0 54 -24.5t21 -51.5v-188h-46v178
q0 17 -12 30t-25 15q-21 0 -30.5 -20t-9.5 -49v-154h-46v66l-12 -9q-16 -8 -39 -8q-49 0 -71 37q-17 31 -17 82l1 18l3 10q-24 14 -42 46q-17 34 -17 73q0 94 64 149t161 55q108 0 170 -59q58 -56 58 -151zM391 -115l-11 -35l-295 76l51 92l44 -18l-28 -53zM224 160
q0 25 -18 42q-7 7 -15.5 11.5t-15.5 5.5q-16 0 -30 -19.5t-14 -51.5q0 -23 15 -41q15 -15 37 -15q18 0 30 22q5 11 8 22t3 24z" />
    <glyph glyph-name="asciitilde" unicode="~" horiz-adv-x="502" 
d="M472 0h-46v67q-24 -32 -63.5 -53.5t-80.5 -21.5q-69 0 -102 49q-22 35 -22 82l3 24l-56 -36q6 -5 8 -18q0 -11 -11.5 -24.5t-30.5 -13.5q-17 0 -28.5 12.5t-11.5 29.5q0 27 27 45l66 44l-29 21q-43 43 -43 120q0 78 60.5 134.5t139.5 56.5q54 0 97.5 -17.5t76.5 -50.5v68
h46v-518zM426 174v186q0 22 -47 65q-55 49 -110 49q-80 0 -129 -61q-38 -49 -38 -94q0 -37 18 -62t55 -36l101 67l33 -43l-55 -36q-45 -29 -45 -94q0 -26 27 -50q13 -10 27 -16t29 -6q46 0 94 60q40 52 40 71z" />
    <glyph glyph-name="c129" horiz-adv-x="443" 
d="M413 439q0 -81 -65 -114l-72 -21q12 -6 16 -13q11 -14 11 -36q0 -30 -21 -59q-26 -35 -83 -47q-53 -9 -74 -15q-49 -15 -49 -38q0 -21 32.5 -36.5t79.5 -15.5q63 0 125 40q45 29 53 46v174h46v-307h-46v73q-30 -30 -65 -49q-48 -24 -108 -24q-65 0 -108 23q-55 28 -55 78
q0 65 111.5 84t111.5 73q0 21 -19.5 37t-42.5 16q-27 0 -49.5 -17t-22.5 -39l3 -15q3 -4 15 -10l-30 -25q-10 0 -21 14q-17 22 -17 53q0 18 13.5 32.5t33.5 25.5q-29 20 -50 49q-33 50 -33 121h47q0 -78 48 -119q43 -34 113 -34q40 0 79 21q46 25 46 64q0 18 -14.5 33
t-25.5 15q-14 0 -23.5 -12.5t-9.5 -28.5v-46h-46v46q0 16 -10.5 28t-25.5 13q-12 0 -21 -15l-7 -23l3 -13q4 -6 14 -12l-36 -28q-9 8 -19 24q-8 16 -8 36q0 27 20 49.5t54 22.5q25 0 39 -11l16 -17q5 8 24.5 18t42.5 10q32 0 56 -23t24 -56z" />
    <glyph glyph-name="c141" horiz-adv-x="504" 
d="M494 87h-46q-12 23 -31.5 37.5t-54.5 14.5q-24 0 -58 -12t-34 -31q0 -5 9 -13q9 -6 17 -6q2 5 22.5 18t38.5 13q28 0 51 -20.5t23 -42.5q0 -21 -14 -36q-21 -24 -57 -24q-43 0 -63 23l-16 28q-21 0 -38 15.5t-17 42.5q-72 0 -131 52q-65 57 -65 148q0 49 30 90.5t80 41.5
q20 0 38 -7q0 47 18 70q24 29 81 29q33 0 57 -17q14 -8 32 -31v48h46v-348l20 -11l16 -10v102h46v-164zM366 179v202q0 22 -29 55q-32 37 -62 37q-20 0 -29.5 -10t-9.5 -24q0 -26 13.5 -29.5t34.5 -18t32 -28.5l-28 -44q-27 27 -65 44.5t-76 17.5q-37 0 -55 -34
q-14 -31 -11 -57q20 17 43 20l33 2q82 0 126 -36.5t52 -96.5l16 1zM386 51q0 5 -16 11l-8 2q-13 0 -21 -5.5t-9 -14.5q0 -8 7 -14l19 -4q11 0 19.5 7.5t8.5 17.5zM274 183q0 30 -36 54.5t-76 24.5q-26 0 -48 -8.5t-22 -15.5q0 -17 33 -53q41 -43 87 -43q23 0 42.5 12.5
t19.5 28.5z" />
    <glyph glyph-name="c143" horiz-adv-x="498" 
d="M471 286q0 -25 -5 -50t-17 -56q-18 -44 -37 -71l56 -105l-38 -15l-68 122q22 37 40.5 88t18.5 85q0 74 -46.5 132t-119.5 58t-125.5 -43t-52.5 -113q0 -38 24 -67q6 17 27 40q26 29 48 33l18 -31l-26 -24q-43 -49 -43 -109q0 -48 32.5 -81t75.5 -33q18 0 38.5 12t20.5 30
q0 8 -13 19.5t-26 11.5q-9 0 -30 -9l-17 -8l-14 30l50 34q40 31 40 54q0 6 -10 13t-21 9q-13 0 -24 -7.5t-18 -26.5l-30 23q0 8 22 29q27 24 61 24q26 0 48 -18t22 -46q0 -19 -13 -38q-7 -10 -24 -24l26 -20q20 -20 20 -46q0 -31 -26 -57q-33 -35 -88 -35q-63 0 -108 49
q-39 42 -39 89l-1 17v13l1 23q0 7 5 20q-23 11 -39 39t-16 70q0 85 73 145q67 53 148 53q93 0 156.5 -66t63.5 -166z" />
    <glyph glyph-name="c144" 
d="M98 -88q0 -59 -48.5 -99.5t-111.5 -40.5q-72 0 -123 39q-55 43 -55 108q0 30 9 53q3 9 15 24l46 -21q-10 -8 -18 -22t-8 -33q0 -33 32 -64q41 -39 110 -39q41 0 72.5 30.5t31.5 63.5q0 19 -12.5 33.5t-29.5 14.5q-11 0 -18 -8.5t-9 -22.5v-53h-44v63q0 8 -7.5 14.5
t-17.5 6.5q-11 0 -20 -10.5t-9 -21.5q0 -10 4 -18q3 -10 10 -18l-32 -25q-9 10 -17 23q-4 7 -6.5 12.5t-3.5 10.5t-1 18q0 30 20 50t50 20q13 0 27 -6t27 -16q15 11 23 15q16 7 31 7q36 0 59.5 -28t23.5 -60z" />
    <glyph glyph-name="c157" horiz-adv-x="438" 
d="M428 337q0 -18 -2 -29.5t-8 -21.5l-47 19q8 18 10 33q0 58 -48.5 97.5t-113.5 39.5t-115.5 -32t-50.5 -80q0 -17 6 -27t14 -11q3 10 19 24q20 18 47 29l16 -37q-16 -8 -29 -24q-9 -13 -10 -26q0 -18 26 -36.5t72 -18.5q20 0 46 9q35 12 35 35q0 11 -18 22.5t-18 27.5
q0 12 7 19t22 9q18 0 33 -15q20 -20 20 -57q0 -23 -12 -41q-7 -10 -54 -42l10 -23l3 -17q0 -29 -42 -49q-89 -39 -91 -48q0 -9 19.5 -18t53.5 -9q32 0 74 18q52 23 52 58v101h46v-216h-46v35q-15 -9 -54.5 -22t-69.5 -13q-44 0 -80.5 18t-36.5 51q0 38 66 60t66 39
q0 14 -21 22.5t-55 8.5l-13 -14q-15 -20 -21 -40l-39 18q0 16 5 25.5t19 23.5q-17 11 -26.5 25t-17.5 35q-12 0 -35 20q-31 28 -31 70q0 57 56 104q64 52 158 52q79 0 141.5 -51.5t62.5 -129.5z" />
    <glyph glyph-name="nonbreakingspace" unicode="&#xa0;" horiz-adv-x="500" 
 />
    <glyph glyph-name="exclamdown" unicode="&#xa1;" horiz-adv-x="511" 
d="M491 332q0 -26 -6.5 -44.5t-14.5 -27.5l-48 14q8 8 13 18l4 25q0 65 -57.5 112.5t-126.5 47.5q-29 0 -62 -12t-52 -28l244 -169v-273h-46v88l-17 -6l-21 -3q-40 0 -62 31l-24 -20q-19 -11 -45 -11q-50 0 -74 30q-18 24 -18 62l1 30q2 12 7 21q-16 6 -32 26q-24 33 -24 88
q0 81 68 134t158 53q92 0 161 -48q74 -53 74 -138zM339 160v84l-230 157q-10 -10 -19 -40l-8 -35q0 -21 6 -37t19 -22q13 21 31 37t25 18l35 -31q-23 -20 -49 -60q-23 -40 -23 -65q0 -17 15.5 -33.5t34.5 -16.5q14 0 26 11.5t13 27.5v88h46v-97q0 -9 13 -18q12 -6 26 -8
q11 0 24 11.5t15 28.5z" />
    <glyph glyph-name="cent" unicode="&#xa2;" horiz-adv-x="432" 
d="M422 346q0 -35 -13 -62q-6 -15 -25 -34l-29 22q9 15 15 36l7 32q0 41 -36 85q-45 56 -120 56q-50 0 -100.5 -31t-50.5 -73q0 -14 18 -34q19 -17 38 -17q4 14 21 32l29 25l30 -24l-26 -26q-22 -28 -22 -44q0 -21 18 -41.5t37 -20.5q39 0 52 37q7 25 7 67h46v-357h-46v16
q-15 -9 -31 -9q-8 0 -22 9l-16 15l-8 -11q-13 -13 -34 -13q-20 0 -39 10q-29 15 -29 47q0 9 3 18t13 22q-10 5 -19 14q-12 12 -12 28q0 19 25 37q30 21 78 21q32 0 50 -5q20 -3 41 -14v48l-31 -11q-23 -5 -42 -5q-30 0 -57.5 24.5t-27.5 59.5l2 15q-28 0 -54 23
q-32 27 -32 66q0 43 42 85q56 54 153 54q79 0 138 -50.5t59 -121.5zM272 69q0 29 -15 47q-20 23 -67 23q-29 0 -48 -5t-21 -19q0 -19 47 -19v-40q-18 0 -28 -6.5t-10 -15.5t9 -17l16 -5q14 0 25 15q10 17 10 32h34q0 -17 3 -27t13 -10q16 0 26 19q6 12 6 28z" />
    <glyph glyph-name="sterling" unicode="&#xa3;" 
d="M-9 -259h-39v166q-3 10 -5 14l-14 17l-15 13q-17 12 -36 12q-26 0 -45.5 -19.5t-19.5 -43.5q0 -17 8 -29t20 -15l25 17q21 12 37 12l18 -28q-20 -7 -40 -21q-29 -20 -35 -45l13 -10q6 -8 6 -21q0 -12 -8.5 -19t-21.5 -7q-8 0 -19 12q-12 17 -12 30q0 15 2.5 25.5
t8.5 20.5q-14 12 -26 26q-16 24 -16 51q0 42 29.5 71.5t75.5 29.5q23 0 39.5 -6.5t30.5 -19.5v26h39v-259z" />
    <glyph glyph-name="currency" unicode="&#xa4;" horiz-adv-x="471" 
d="M441 0h-46v99q-32 -34 -57 -53q-30 -19 -62 -19q-55 0 -88 33q-26 26 -34 78q-60 6 -86 26q-38 29 -38 83q0 56 40.5 88t120.5 44l-101 109l31 30l181 -195l-28 -34l-53 57q-42 0 -91 -29q-57 -33 -57 -73q0 -14 15 -35q21 -27 60 -27l13 2q6 28 31.5 48t60.5 20l11 -37
q-30 -6 -45 -24q-19 -22 -19 -61q0 -27 22 -45q19 -14 35 -14q49 0 96 46q42 41 42 71v330h46v-518z" />
    <glyph glyph-name="yen" unicode="&#xa5;" horiz-adv-x="264" 
d="M234 0h-46v242q-6 -9 -19 -16q-19 -11 -41 -11q-43 0 -70.5 27.5t-27.5 69.5v206h46v-217q0 -11 11 -25q15 -20 43 -20q23 0 40.5 24.5t17.5 55.5v182h46v-518z" />
    <glyph glyph-name="brokenbar" unicode="&#xa6;" horiz-adv-x="477" 
d="M457 314q0 -38 -8 -61l-13 -29l-46 20q5 11 8.5 23t7 27t3.5 33q0 44 -37 88q-48 57 -127 57q-70 0 -121 -48q-46 -44 -46 -95q0 -28 21 -60q18 -27 27 -27q10 12 34 30q31 23 48 25l27 -36q-15 -6 -31 -28q-24 -32 -24 -72q0 -19 16.5 -51t41.5 -32q24 0 46 22
q30 29 30 80v41h49v-222h-49v72q-6 -7 -27 -20q-26 -14 -50 -14q-51 0 -80 35q-28 37 -28 94l-26 -24q-18 -20 -19 -32l9 -9q6 -9 6 -20q0 -16 -11 -23.5t-26 -7.5q-32 0 -32 48q0 26 18 53q14 20 44 46q-30 25 -46 61q-8 20 -12 37t-4 39q0 80 62 132q32 26 68 39t80 13
q91 0 151 -53q66 -57 66 -151z" />
    <glyph glyph-name="section" unicode="&#xa7;" horiz-adv-x="481" 
d="M461 308q0 -31 -8 -54q-6 -25 -17 -40l-44 23q8 9 12 26t4.5 25.5t0.5 13.5q0 64 -40 114q-49 61 -131 61q-20 0 -33 -3.5t-24 -9.5l182 -210v-255h-46v63q-15 -10 -33 -16t-49 -6q-34 0 -63.5 20t-42.5 52v60l-28 -31q-6 -8 -11 -17.5t-6 -15.5l10 -16q3 -6 5 -18
l-8 -13q-12 -14 -30 -14l-9 5q-22 17 -22 44q0 23 17 50t45 51q-27 15 -44.5 52t-17.5 90q0 70 60.5 124.5t149.5 54.5q81 0 144 -48q77 -57 77 -162zM317 182v50l-179 204q-22 -17 -39.5 -47t-17.5 -52q0 -33 13.5 -60t34.5 -43q10 13 35 30q30 21 47 23l31 -38l-37 -21
q-35 -26 -35 -61q0 -42 30 -63q21 -15 47 -15q36 0 53 24t17 69z" />
    <glyph glyph-name="dieresis" unicode="&#xa8;" 
d="M75 -158h-58l-87 158h35z" />
    <glyph glyph-name="copyright" unicode="&#xa9;" horiz-adv-x="498" 
d="M471 286q0 -25 -5 -50t-17 -56q-18 -44 -37 -71l56 -105l-38 -15l-68 122q22 37 40.5 88t18.5 85q0 74 -46.5 132t-119.5 58t-125.5 -43t-52.5 -113q0 -38 24 -67q6 17 27 40q26 29 48 33l18 -31l-26 -24q-43 -49 -43 -109q0 -48 32.5 -81t75.5 -33q18 0 38.5 12t20.5 30
q0 8 -13 19.5t-26 11.5q-9 0 -30 -9l-17 -8l-14 30l50 34q40 31 40 54q0 6 -10 13t-21 9q-13 0 -24 -7.5t-18 -26.5l-30 23q0 8 22 29q27 24 61 24q26 0 48 -18t22 -46q0 -19 -13 -38q-7 -10 -24 -24l26 -20q20 -20 20 -46q0 -31 -26 -57q-33 -35 -88 -35q-63 0 -108 49
q-39 42 -39 89l-1 17v13l1 23q0 7 5 20q-23 11 -39 39t-16 70q0 85 73 145q67 53 148 53q93 0 156.5 -66t63.5 -166z" />
    <glyph glyph-name="ordfeminine" unicode="&#xaa;" horiz-adv-x="464" 
d="M444 332q0 -23 -5 -42t-14 -29l-46 10q6 7 14 28q5 16 7 31q0 63 -52 109q-48 42 -100 42q-68 0 -119 -44t-51 -98q0 -27 18.5 -51t33.5 -26l63 36q59 30 94 30h46v-139l28 19q17 8 31 12t32 4v-239h-49q-64 0 -120.5 12.5t-103.5 43.5l23 37q35 -21 76 -36
q44 -14 74 -14h54v146q-12 -3 -24 -13q-18 -14 -20 -31l9 -10l3 -12q0 -16 -6.5 -20t-21.5 -6q-13 0 -22 8.5t-9 20.5v167q-36 0 -99 -36q-72 -41 -72 -78q14 -3 20 -13.5t8 -25.5q0 -15 -12 -26q-9 -6 -26 -8q-15 0 -27 11q-17 15 -17 39q0 42 38 89q-26 6 -48 37t-22 71
q0 73 62 126.5t155 53.5q79 0 136 -48q61 -52 61 -138z" />
    <glyph glyph-name="guillemotleft" unicode="&#xab;" horiz-adv-x="498" 
d="M468 140q0 -53 -56.5 -96.5t-145.5 -43.5l-54 3q-49 6 -72 28l26 38l39 -17q24 -9 36 -9q24 0 59 7.5t47 15.5q-14 0 -28 15q-19 22 -19 61v122l-18 6q-21 0 -57 -21q-48 -27 -73 -71l14 -11q8 -10 10 -25q0 -18 -11 -28q-9 -6 -26 -8q-17 0 -34 18q-10 11 -13 28l4 29
q6 20 18 36q-25 6 -50 34q-34 39 -34 95q0 59 56 111q67 61 165 61q87 0 152 -54.5t65 -139.5q0 -18 -2 -30t-9 -26q-2 -7 -17 -27l-39 24l10 20q5 12 7.5 20.5t3.5 19.5q0 66 -62 115q-52 40 -100 40q-70 0 -126.5 -42t-56.5 -99q0 -24 23 -52.5t50 -28.5q32 32 70.5 47
t76.5 15h49v-109q22 14 42 14q29 0 54.5 -23.5t25.5 -61.5zM416 144q0 11 -11 23t-28 12q-9 0 -19.5 -15t-11.5 -27q0 -14 10 -25q10 -9 26 -10q15 0 24.5 14t9.5 28z" />
    <glyph glyph-name="logicalnot" unicode="&#xac;" horiz-adv-x="580" 
d="M550 0l-22 -3l-24 3v293q-6 4 -31 -9q-25 -16 -59 -45l-22 36q61 55 95 69q23 10 55 10l8 -7v-347zM452 409q0 -46 -23 -81q-21 -35 -59 -54q16 -8 27.5 -25.5t11.5 -38.5q0 -19 -10 -33.5t-37 -28.5q24 -7 37 -24t13 -39q0 -47 -44.5 -72.5t-113.5 -25.5
q-83 0 -148.5 52.5t-65.5 132.5q0 56 19 90q7 11 28 32q-27 23 -42 54.5t-15 68.5q0 29 6 52.5t22 40.5l44 -20q-15 -15 -21.5 -32t-6.5 -38q0 -45 43 -87q54 -54 146 -54q58 0 99.5 41t41.5 87q0 28 -18.5 48.5t-42.5 20.5q-19 0 -29.5 -13.5t-10.5 -32.5v-63h-46v75
q0 13 -11.5 23t-26.5 11q-18 0 -30.5 -15.5t-12.5 -31.5q0 -12 7 -29l9 -18l-32 -24l-14 17q-17 25 -17 58q0 34 24.5 59.5t58.5 25.5q18 0 36 -9t34 -22l22 17q22 14 49 14q41 0 71 -36q28 -36 28 -73zM367 84q0 22 -39 36q-27 9 -53 9v34q28 0 60 14t32 38
q0 15 -22.5 23.5t-37.5 10.5q-27 0 -47 -19q-14 -13 -22 -33h-45q-1 6 -1 16q0 9 1.5 14.5t11.5 18.5q-14 0 -43 9q-12 4 -22.5 8t-19.5 9l-21 -37q-11 -27 -11 -60q0 -59 55 -103.5t127 -44.5q49 0 77 22q20 15 20 35z" />
    <glyph glyph-name="minus" unicode="&#xad;" horiz-adv-x="6" 
 />
    <glyph glyph-name="registered" unicode="&#xae;" horiz-adv-x="484" 
d="M452 0h-46v28q-17 -13 -34 -19q-31 -11 -77 -11q-31 0 -59 12t-28 35q0 10 5 19q-14 3 -22 9q-18 12 -18 38q0 18 9 33l5 6q-41 9 -61 33q-14 19 -14 48q-31 3 -54 32q-14 16 -21 34t-7 40q0 84 76 136q65 45 140 45q52 0 99 -23q38 -18 61 -41v64h46v-518zM406 167v49
l-24 -16l-19 -9q21 -6 23 -8zM406 280v97q-6 20 -51 56q-56 41 -110 41q-79 0 -126 -47q-39 -39 -39 -82q0 -29 12.5 -45t33.5 -22q13 28 39 49.5t47 21.5l33 -32q-32 -19 -57 -44t-25 -43q0 -21 31 -33q17 -6 29 -6q61 0 127 44q9 6 25.5 19t30.5 26zM407 101
q0 25 -33 39.5t-64 14.5q-30 0 -51 -6.5t-36 -30.5q0 -8 11 -12l12 -2l27 11q18 5 36 5l11 -46h-13q-16 0 -28 -3.5t-22 -16.5q-3 -7 9 -12q16 -4 45 -4q30 0 63 21t33 42z" />
    <glyph glyph-name="macron" unicode="&#xaf;" horiz-adv-x="534" 
d="M524 32q0 -60 -68.5 -109t-166.5 -49q-35 0 -57.5 6t-41.5 17l22 41l42 -15q12 -3 18 -4t19 -1h22h14q9 2 12 2q44 6 66 24q-21 12 -32 26q-19 24 -19 54q0 35 26 60q20 18 42 23v51q-17 -33 -78 -68q-50 -27 -104 -27q-51 0 -89 31q-43 35 -43 94q0 21 3 33.5t10 24.5
q-23 9 -49 34q-42 39 -42 89q0 57 59.5 103t143.5 46q60 0 111 -21q44 -18 78 -52v73h46v-411q20 -6 35 -19q21 -21 21 -56zM422 240v120l-51 57q-61 53 -131 53q-64 0 -109.5 -29t-45.5 -74q0 -27 25 -49q14 -11 43 -28q17 18 49.5 33t46.5 15l19 -52q-49 -12 -79.5 -37.5
t-30.5 -57.5q0 -31 28 -55q14 -10 31 -16t37 -6q48 0 100.5 41.5t67.5 84.5zM477 26q0 16 -14 24q-13 10 -32 10q-9 0 -21 -21l-9 -21q0 -14 12 -26q13 -10 29 -10q14 0 24 14.5t11 29.5z" />
    <glyph glyph-name="degree" unicode="&#xb0;" horiz-adv-x="449" 
d="M439 21l-12 -39l-253 37l58 52q-12 0 -28 15t-19 28l-2 22l3 24l9 19q-94 0 -94 80q-13 2 -28 14q-43 34 -43 94q0 65 54 108t131 43q58 0 107 -20q9 -4 19.5 -9.5t22.5 -13.5v43h46v-492zM364 210v30l-25 -24l7 -1zM364 310v92q0 18 -41 46q-22 15 -45 23t-46 8
q-69 0 -112.5 -37t-43.5 -80q0 -21 19 -39q14 -12 23 -14q5 10 16 18l24 18l29 -34q-11 -8 -22 -24q-14 -20 -16 -36q0 -12 19 -21t35 -11q54 0 111 41q49 34 50 50zM364 32v113q-40 40 -72 40q-18 0 -41 -15.5t-23 -36.5q0 -10 11 -21.5t26 -11.5l40 36l36 -31l-66 -59z
" />
    <glyph glyph-name="plusminus" unicode="&#xb1;" horiz-adv-x="467" 
d="M457 320q0 -21 -6 -47q-9 -34 -28 -56l-33 21q5 5 11 28q5 25 5 43q0 60 -37 107q-44 57 -121 57q-70 0 -123 -51q-48 -47 -48 -100q0 -31 10 -50.5t25 -25.5q20 12 47 12q81 0 81 -113l-1 -18q5 -36 35 -36q15 0 26.5 7.5t13.5 18.5v131h46v-253h-46v61q-7 -7 -15 -11
t-20 -6q-13 0 -27.5 7t-23.5 17q-9 -18 -27 -27q-18 -7 -40 -7q-34 0 -59 28q-31 37 -31 105q0 16 4 27l6 18q-22 18 -36.5 49.5t-14.5 71.5q0 80 67 135t155 55q84 0 144.5 -62t60.5 -136zM194 143q0 29 -12.5 47.5t-20.5 19.5q-14 0 -28 -24q-5 -11 -8 -22t-3 -24
q0 -26 13.5 -42.5t30.5 -16.5q12 0 22 31z" />
    <glyph glyph-name="twosuperior" unicode="&#xb2;" horiz-adv-x="462" 
d="M432 353q0 -12 -1 -19t-7 -21q-6 -22 -25 -39l-36 27l13 20q5 12 7 30q0 54 -43.5 88.5t-105.5 34.5q-53 0 -100 -25q-58 -31 -58 -80q0 -16 17 -30.5t39 -14.5q13 11 29 18q27 12 63 12q43 0 71 -20t28 -56v-104h-37v30q-10 -7 -33 -14l-34 -4h-14l-10 2l108 -54
l-19 -44l-50 24q-8 0 -26 -18q-15 -17 -16 -26q0 -14 19.5 -23.5t42.5 -9.5q42 0 80.5 32.5t38.5 58.5v96h46v-229h-46v54l-44 -39q-29 -19 -73 -19t-77 23t-33 57q0 24 13 40l31 23l-83 48l26 39q-24 24 -24 57q-17 0 -41 17q-38 27 -38 76q0 47 46 92q60 55 160 55
q79 0 135 -44q61 -49 61 -121zM273 271q0 16 -15.5 28t-30.5 12q-17 0 -42.5 -11.5t-25.5 -32.5q0 -12 20 -26q5 -3 17 -8t24 -5q24 0 38.5 14.5t14.5 28.5z" />
    <glyph glyph-name="acute" unicode="&#xb4;" horiz-adv-x="493" 
d="M463 0h-46v54q-6 -9 -13 -12q-14 -8 -38 -8q-38 0 -66.5 27.5t-28.5 62.5q0 30 19 53t51 37v98q0 81 -40 124q-36 38 -96 38q-53 0 -91 -39q-17 -19 -27 -41.5t-10 -46.5q0 -33 22 -61.5t46 -28.5l18 14q14 10 26 16q32 16 66 16l16 -39q-51 -12 -120 -66
q-54 -42 -54 -82l18 -10q9 -9 9 -26q0 -16 -11.5 -24.5t-28.5 -8.5l-18 12q-18 17 -18 45l7 32q14 39 51 81q-30 18 -46 37q-30 38 -30 97q0 72 50.5 119.5t128.5 47.5q50 0 89 -21q14 -8 43 -36v57h46v-334q-32 -10 -51 -26t-19 -36q0 -17 15.5 -30.5t32.5 -13.5
q24 0 38 13.5t14 34.5v38h46v-164z" />
    <glyph glyph-name="mu" unicode="&#xb5;" horiz-adv-x="468" 
d="M458 394l-13 -40l-34 15v-369h-46v326q-22 -22 -50 -38t-52 -16q-25 0 -48 15q-32 21 -32 67q0 14 6.5 28.5t13.5 22.5l-5 3l-5 1q-16 0 -45 -16q-70 -40 -70 -109q0 -36 38 -67q30 -24 47 -26l91 49l21 -37l-42 -21q-22 -14 -56 -43q-12 -11 -34 -39q-25 -34 -25 -52
q20 -9 20 -27q0 -12 -12 -21q-9 -5 -21 -7q-13 0 -25 15q-10 17 -10 37q0 27 14 57t44 56q-29 9 -35 14q-63 35 -63 114q0 84 80 137l87 40l-57 25l17 31l208 -91v90h46v-109zM342 383q0 12 -13 20.5t-29 8.5q-25 0 -47 -20.5t-22 -39.5q0 -14 15 -23q13 -5 28 -7
q25 0 46.5 21t21.5 40z" />
    <glyph glyph-name="paragraph" unicode="&#xb6;" horiz-adv-x="535" 
d="M525 385q0 -38 -26 -60q-22 -19 -54 -19q-14 0 -24 5l-20 11v-322h-50v312q-12 -9 -33 -18q-13 -5 -19.5 -6.5t-15.5 -1.5q-44 0 -67.5 20.5t-23.5 53.5q0 20 9 43l14 26q-25 6 -80 -37q-61 -49 -61 -98q0 -30 32 -65q34 -34 73 -34l37 22q30 15 41 12l19 -33
q-32 -10 -75 -44q-63 -48 -63 -90q11 -6 14.5 -14.5t5.5 -23.5q0 -15 -11 -26q-9 -11 -29 -11q-21 0 -35 23l-9 24q0 28 8 47q15 34 52 74q-23 9 -37 18q-67 44 -67 122q0 84 69 134q29 20 90 39l-38 13l33 38l167 -55v54h50v-70q7 6 23.5 13t25.5 7q20 0 46 -21
q29 -26 29 -62zM472 386q0 11 -9 22.5t-29 11.5q-18 0 -28 -16q-3 -6 -5 -21q0 -9 9.5 -19t23.5 -11q15 0 26.5 10.5t11.5 22.5zM351 414l-51 16q-21 0 -39 -23.5t-18 -38.5t10 -26q11 -9 27 -9q19 0 45 24t26 57z" />
    <glyph glyph-name="periodcentered" unicode="&#xb7;" horiz-adv-x="594" 
d="M591 27l-14 -39l-208 73l7 27q68 0 101 10q53 15 53 60q0 14 -12 25q-11 8 -28 10q-30 0 -56 -16q-19 -12 -27 -25l-24 27l13 17l18 17v106q-18 76 -83 119q-50 33 -95 33q-59 0 -107.5 -44.5t-48.5 -108.5q0 -41 18 -64q5 -6 17 -14t28 -15q17 17 43 28.5t53 11.5
q50 0 85 -38t35 -90q0 -50 -29 -89q-36 -48 -102 -48q-55 0 -86.5 42.5t-31.5 106.5l3 24l4 12q-42 14 -61 41q-26 37 -26 97q0 83 66 142q61 53 138 53q58 0 98 -20q35 -16 82 -64v84h46v-284l29 3q39 0 67 -25t28 -50q0 -50 -34 -78q-13 -11 -50 -26zM306 136q0 34 -30 58
q-24 18 -44 18q-26 0 -50 -28q-10 -13 -16 -27t-6 -28q0 -32 21 -59q21 -24 58 -24q29 0 50 30q17 26 17 60z" />
    <glyph glyph-name="cedilla" unicode="&#xb8;" horiz-adv-x="490" 
d="M480 27l-14 -39l-208 73l7 27q68 0 101 10q53 15 53 60q0 14 -12 25q-11 8 -28 10q-30 0 -56 -16q-19 -12 -27 -25l-24 27q10 20 40 40.5t61 17.5v123q0 31 -44 69q-51 45 -109 45q-45 0 -86 -28q-57 -39 -57 -117q0 -40 34 -78q26 -29 40 -32l46 35q48 33 66 35l23 -29
q-23 -15 -44 -30.5t-31 -24.5q-73 -64 -73 -109q10 -3 16 -9q13 -13 13 -33q0 -16 -9 -27t-25 -13q-15 0 -32 17q-21 21 -21 49q0 14 2 25t9 27q11 27 30 47q-33 17 -63 64q-14 24 -21 48t-7 52q0 78 58 126.5t147 48.5q30 0 60 -13q40 -17 78 -55v68h46v-290
q14 -3 34 -23.5t20 -42.5q0 -50 -34 -78q-13 -11 -50 -26z" />
    <glyph glyph-name="onesuperior" unicode="&#xb9;" horiz-adv-x="462" 
d="M432 0h-46v142q0 25 -25 57q-30 39 -67 39q-34 0 -60 -20q-26 -18 -26 -46q0 -13 12 -29t21 -16l35 24q29 16 55 23l22 -36q-19 -3 -55 -26q-51 -30 -60 -58l15 -10q7 -6 8 -17q0 -21 -9 -30t-30 -9q-18 0 -30 12q-10 13 -10 31q0 15 6.5 32t19.5 30q-15 8 -25 23
q-14 23 -14 64q0 51 49 82q38 22 66 22q36 0 62 -16q9 -5 17.5 -13.5t22.5 -24.5v130q-10 35 -63 75t-103 40q-58 0 -109 -33.5t-51 -65.5q0 -23 20 -44q11 -10 21 -15t22 -5l36 22q33 17 84 32l22 -39q-64 -23 -91 -40q-58 -35 -84 -89l15 -8q9 -8 11 -24q0 -11 -12 -22
q-11 -8 -28 -8q-15 0 -27 16.5t-12 30.5q0 24 12 48q9 18 28 40q-35 19 -48 38q-19 29 -19 64q0 72 76 112q63 33 144 33q53 0 88.5 -16.5t67.5 -53.5v70h46v-518z" />
    <glyph glyph-name="ordmasculine" unicode="&#xba;" horiz-adv-x="483" 
d="M473 165l-25 -34l-81 69l17 38q3 8 8 31t5 46q0 64 -49.5 113t-105.5 49q-33 0 -60 -8t-55 -27q-50 -35 -50 -88v-12.5t4 -17.5t13 -14q8 10 26 18.5t38 8.5q15 0 31 -10q11 -7 18 -17q6 9 23.5 18t33.5 9q30 0 48 -21.5t18 -55.5v-111q8 -4 16 -16t10 -30v-113h-46v93
q0 13 -8 22t-15 9t-14.5 -9t-9.5 -22v-93h-46v30q-49 0 -72 24q-18 18 -18 51q0 20 15 36t43 28v101q0 13 -9.5 22.5t-23.5 10.5q-26 0 -26 -23v-114h-46v104q-27 15 -36 33q-14 26 -14 64q0 72 59.5 116.5t138.5 44.5q89 0 154 -58t65 -144q0 -33 -12 -72l-14 -35zM284 156
v101q0 10 -9.5 21.5t-18.5 11.5q-7 0 -17 -13q-6 -10 -8 -24v-99q9 -6 16 -17q5 8 14 12.5t23 6.5zM217 93q0 13 -8 21.5t-19 5.5q-6 -3 -12 -13l-5 -15q0 -8 6 -20q6 -9 17 -9q9 0 15 9t6 21z" />
    <glyph glyph-name="guillemotright" unicode="&#xbb;" horiz-adv-x="502" 
d="M492 205l-30 -26l-68 62l9 15q17 32 17 71q0 63 -48.5 105t-113.5 42q-58 0 -110 -26q-66 -33 -66 -87q0 -17 15 -42t28 -25l19 16q18 12 36 12t26.5 -7t23.5 -25q4 10 16 19q18 13 39 13q33 0 49 -25.5t16 -56.5v-82h-46v84q0 11 -6.5 21.5t-20.5 10.5q-9 0 -15 -10
t-8 -22v-84h-46v84q0 11 -10 21q-8 10 -17 11q-12 0 -20 -11q-5 -9 -7 -19v-86h-46v86q-23 7 -44 28q-34 37 -34 97q0 57 65 103t163 46q85 0 147 -50q33 -27 50 -60t17 -74q0 -20 -13 -50l-15 -30zM431 -47h-46v115q0 9 -17 26q-22 22 -50 22q-24 0 -44.5 -15t-20.5 -38
q0 -21 20 -24l33 -4q40 -6 40 -57q0 -20 -19 -37.5t-39 -17.5q-30 0 -45 19q-10 15 -10 37q0 18 4 26q-12 9 -20.5 28t-8.5 40q0 35 34.5 59t76.5 24q15 0 32 -6.5t34 -19.5v28h46v-205zM311 -22q0 9 -7 17l-15 12l-13 -11q-5 -5 -7 -15q0 -12 8 -18.5t15 -6.5q6 0 11.5 6
t7.5 16z" />
    <glyph glyph-name="onequarter" unicode="&#xbc;" horiz-adv-x="570" 
d="M483 188h-46v193q0 21 -43 55q-52 41 -116 41q-42 0 -89 -15.5t-47 -36.5t39 -30q39 -7 53 -26l-16 -28q-23 10 -38 10l-32 2q-25 0 -49 -14q-24 -12 -24 -33q0 -10 11 -24q11 -11 28 -11l17 17q20 15 47 15q29 0 55 -21q35 -29 35 -84q0 -41 -26 -73q-24 -32 -62 -32
q-34 0 -60 26q-30 30 -30 79q0 20 5 34q-28 5 -45 23q-20 22 -20 54q0 27 17.5 47.5t56.5 35.5l-2 13v10q0 54 57 81q47 22 111 22q51 0 91.5 -12t75.5 -47v59h46v-330zM560 90q0 -39 -27.5 -66t-59.5 -27q-25 0 -48 15q-7 3 -21 19l-22 -19q-23 -15 -44 -15q-35 0 -65 31
q-27 32 -27 62q0 14 10 34q28 52 87 52q21 0 36 -9l23 -18l34 23q15 6 37 6q35 0 62 -27q25 -28 25 -61zM509 95q0 13 -12.5 26.5t-29.5 13.5q-15 0 -29 -15q-9 -12 -11 -30q0 -12 16 -31q15 -15 27 -17q11 0 26 16q13 16 13 37zM382 90q0 15 -12 30t-30 15
q-17 0 -30.5 -13.5t-13.5 -31.5q0 -17 16.5 -32.5t27.5 -15.5q15 0 28.5 15t13.5 33zM221 202q0 18 -17 38q-12 15 -27 15q-10 0 -25 -22q-13 -23 -13 -40t12 -34.5t32 -17.5t33 35q3 10 5 26z" />
    <glyph glyph-name="onehalf" unicode="&#xbd;" horiz-adv-x="539" 
d="M529 103l-36 -17q-11 18 -17 26q-9 11 -18 19q-24 19 -49 19q-22 0 -45 -11q-25 -9 -25 -31q0 -33 24 -33q6 8 20 16.5t33 8.5q23 0 40 -17t17 -36q0 -30 -17 -46q-9 -8 -19 -12t-25 -4q-20 0 -36 10t-22 38q-18 0 -38 19q-18 20 -18 46q0 40 33 69q28 23 52 23v153
q0 39 -51 87q-54 51 -103 51q-24 0 -43 -16t-19 -36q0 -18 16 -30l34 -13q23 -6 37 -24l-21 -35l-33 22q-35 20 -62 20q-25 0 -44.5 -18.5t-19.5 -36.5q0 -20 16 -35q14 -11 37 -16l24 8l28 3q46 0 76.5 -28.5t30.5 -78.5q0 -14 -9 -35q-27 -57 -105 -57q-38 0 -68 30
q-28 31 -28 71l3 33q3 13 11 21q-25 12 -42.5 36.5t-17.5 59.5q0 33 25.5 54.5t74.5 28.5q-4 5 -7 13q-6 13 -6 26q0 30 35 50t83 20q50 0 91 -25q34 -21 57 -58v83h46v-329q31 -6 58 -29q27 -21 42 -57zM432 42q0 5 -6.5 11t-15.5 6q-7 0 -14 -6.5t-8 -11.5q0 -7 8 -12
l19 -4l10 6q6 6 7 11zM235 174q0 25 -17 39q-15 15 -35 15q-27 0 -46 -20q-14 -16 -14 -32q0 -26 21 -44q18 -13 36 -13q15 0 35 15.5t20 39.5z" />
    <glyph glyph-name="threequarters" unicode="&#xbe;" horiz-adv-x="483" 
d="M473 84q0 -30 -31 -54q-39 -30 -106 -30q-74 0 -133 32.5t-59 77.5q0 12 6 30q2 9 8 18l-7 8l-9 16q-6 12 -6 25q0 10 2 14q-39 13 -54 23q-54 33 -54 88q0 81 58.5 133.5t152.5 52.5q47 0 91 -17q25 -9 46 -22v39h46v-328q10 -9 16 -21t6 -20t-2 -12l-3 -9q10 -3 18 -13
q14 -14 14 -31zM378 253v147q0 16 -46 44t-91 28q-27 0 -54.5 -6.5t-44.5 -23.5zM353 210v8l-99 80q-18 0 -39 -18q-28 -25 -28 -69q0 -18 20 -32q9 -5 21 -9t23 -4q23 0 34 9q11 15 29 25t39 10zM209 334l-97 78q-32 -46 -32 -81q0 -19 20 -38t43 -24q8 18 19 30
q20 26 47 35zM424 85l-1 12q0 6 -12 6l-17 -9q-9 -5 -12.5 -6.5t-7.5 -2.5l-21 31l33 16q22 12 16 23q-7 4 -11 5l-19 6q-24 0 -45.5 -18t-33.5 -47l-22 19q-6 -2 -13 -3t-24 -1q-27 0 -38 7q0 -31 26 -51q36 -30 111 -30q29 0 56 12q34 16 35 31z" />
    <glyph glyph-name="questiondown" unicode="&#xbf;" horiz-adv-x="481" 
d="M451 -4h-46v30q-30 -18 -51.5 -24t-52.5 -6q-42 0 -61 15t-19 37l1 9l3 10q-15 3 -32 20q-20 22 -20 46l3 18q-39 0 -55 34q-5 11 -8 26.5t-3 35.5q-28 9 -54 39.5t-26 62.5q0 72 62.5 120.5t143.5 48.5q57 0 99.5 -15.5t69.5 -42.5v58h46v-522zM405 277v93q0 23 -45 61
q-54 43 -111 43q-31 0 -47 -3.5t-38 -17.5zM405 180v39l-20 -12l-21 -11q11 -2 21 -7zM348 251l-97 71q-16 0 -48 -23q-42 -29 -42 -62q0 -15 21 -29q21 -12 42 -12q32 0 70 19q27 14 54 36zM204 356l-87 64q-16 -17 -24.5 -36t-8.5 -37t11 -32q12 -12 32 -19q8 19 30 38
q21 16 47 22zM405 103q0 30 -61 49l-62 11q-17 0 -34.5 -10t-17.5 -23q0 -7 13 -16q5 -3 16 -5q14 8 31 13l34 4v-40q-15 0 -30 -6.5t-26 -20.5q7 -11 21.5 -16.5t30.5 -5.5q23 0 54 24t31 42z" />
    <glyph glyph-name="Agrave" unicode="&#xc0;" horiz-adv-x="531" 
d="M510 128q0 -25 -22 -41q-22 -14 -52 -14l-17 1v-84h-46v29q-28 -22 -81 -28l-23 -1q-49 0 -71 22q-14 16 -14 40l1 12q-16 6 -27 22.5t-11 36.5q0 10 3.5 22t10.5 23q-23 20 -31 39q-6 18 -6 48q-45 0 -72 36q-22 31 -22 74q0 52 56 101q61 52 136 52q63 0 107 -21
l44 -31v52h46v-330l28 5q26 0 44.5 -16.5t18.5 -48.5zM373 305v95q-26 29 -44 42q-43 29 -99 29q-26 0 -49 -8q-25 -6 -37 -20zM463 129q0 9 -6 12.5t-17 5.5l-9 -3q-9 -5 -12 -13q5 -20 25 -20q19 0 19 18zM370 178v37l-27 -20q13 -3 18 -7zM346 265l-121 72
q-21 0 -35.5 -34t-14.5 -58q0 -17 18 -35q18 -15 45 -15q33 0 62.5 21.5t45.5 48.5zM178 363l-71 47q-12 -12 -18 -24q-9 -17 -9 -35q0 -20 14.5 -35.5t34.5 -20.5q3 20 20 42q13 19 29 26zM369 106q0 23 -33 40q-24 12 -47 12q-26 0 -48 -6.5t-43 -27.5v-13q0 -9 6 -9
l33 15q15 6 29 8l10 -1l10 -37l-35 -14q-15 -7 -16 -17q0 -10 13 -17q8 -3 27 -5q28 0 61 23t33 49z" />
    <glyph glyph-name="Aacute" unicode="&#xc1;" horiz-adv-x="497" 
d="M487 101h-46q0 27 -25.5 39.5t-54.5 12.5q-17 0 -42 -19t-26 -33q0 -16 17 -16l25 10l24 6q30 0 49 -15t19 -42q0 -20 -16 -36t-46 -16q-34 0 -55 27l-13 27l-18 6q-31 17 -31 55q-18 -6 -47 -6q-43 0 -74.5 36.5t-31.5 72.5v32q-30 15 -45 36q-20 29 -20 68
q0 73 57.5 122.5t134.5 49.5q23 0 35 -1t32 -6q48 -10 71 -38v45h46v-323l18 -6q9 -2 17 -8v36h46v-116zM360 264v132q0 27 -46 53.5t-95 26.5l-27 -3q-10 -3 -18 -10zM219 349l-83 89l-40 -40q-17 -25 -17 -53q0 -36 41 -58q15 23 39.5 38.5t59.5 23.5zM361 197l-107 114
q-17 0 -36 -9.5t-42 -29.5q-33 -29 -33 -63q0 -23 21 -43q22 -17 48 -17t64 15zM396 52q0 8 -8.5 11.5t-26.5 5.5l-9 -3q-10 -5 -11 -14q0 -7 7 -17q6 -6 19 -8q10 0 19 8.5t10 16.5z" />
    <glyph glyph-name="Acircumflex" unicode="&#xc2;" horiz-adv-x="493" 
d="M473 78q0 -32 -35 -55t-87 -23q-35 0 -73 18q-45 23 -45 59q0 10 5 20l15 24l-13 -1h-7q-44 0 -73 27q-32 30 -32 69q-43 7 -70.5 40t-27.5 88q0 56 52 109q65 66 168 66q67 0 106 -20q19 -9 46 -37v56h46v-388l15 -16q10 -17 10 -36zM402 252v114q0 44 -60 79
q-53 28 -97 28q-33 0 -54 -6q-11 -3 -23 -11zM402 165v23l-9 -7l-24 -16h33zM218 345l-91 83q-21 -15 -34 -40q-11 -25 -11 -52q0 -32 27 -56l28 -16q6 23 26 44t55 37zM351 225l-89 80q-22 0 -55 -37q-31 -37 -31 -55q0 -16 20.5 -31.5t45.5 -15.5q37 0 73 18t36 41z
M420 80q0 20 -21.5 30.5t-46.5 10.5q-34 0 -52 -17q-12 -11 -14 -25q0 -12 23.5 -24t44.5 -12q20 0 43 11t23 26z" />
    <glyph glyph-name="Atilde" unicode="&#xc3;" horiz-adv-x="501" 
d="M491 -20h-46v123q0 14 -6 25.5t-19 11.5q-10 0 -17 -10.5t-8 -23.5v-126h-46v21l-20 -7q-15 -6 -24 -6q-64 0 -64 56q0 19 7 33q-55 0 -96.5 32.5t-41.5 78.5v35q-24 8 -45 32q-35 38 -35 90q0 78 71 128q65 45 157 45q81 0 124 -20q10 -4 19 -10.5t20 -18.5v49h46v-347
q7 -4 16 -21q4 -8 6 -15t2 -17v-138zM421 226v153q0 23 -53.5 58.5t-111.5 35.5q-26 0 -41.5 -4t-21.5 -6t-19 -9zM224 335l-96 88q-19 -17 -32 -41q-11 -24 -11 -44q0 -25 11.5 -42t37.5 -27q2 12 36.5 39t53.5 27zM383 188l-122 112q-55 -25 -83 -61q-15 -20 -17 -35
q0 -32 31 -56q30 -21 69 -21q27 0 52 11q37 15 70 50zM349 66q0 17 -4 26q-23 0 -39.5 -10.5t-16.5 -24.5q0 -9 14 -19q9 -6 18 -6q12 0 19 10t9 24z" />
    <glyph glyph-name="Adieresis" unicode="&#xc4;" horiz-adv-x="555" 
d="M545 0h-46v142q0 6 -6.5 12t-13.5 6q-8 0 -17 -9q-5 -7 -7 -18v-133h-46v57l-18 -7l-29 -3q-34 0 -54 18q-11 11 -23 47l-218 65l58 45q-40 12 -67.5 45.5t-27.5 78.5q0 73 57 126q52 46 107 46q64 0 97 -13q45 -17 81 -65v78h46v-310l28 -15l13 10l15 7q36 0 53 -20
q18 -18 18 -48v-142zM372 219v102q0 63 -47 107q-23 21 -50 32t-59 11q-67 0 -107 -50q-29 -37 -29 -72q0 -29 28.5 -61t60.5 -32l112 88l30 -37l-141 -110l123 -34q9 25 32 40.5t47 15.5zM409 133q0 15 -9.5 29.5t-27.5 14.5q-14 0 -26 -15q-10 -17 -10 -33
q0 -19 9.5 -32.5t25.5 -13.5q38 0 38 50z" />
    <glyph glyph-name="Aring" unicode="&#xc5;" horiz-adv-x="500" 
d="M480 -8h-46v146l-14 -3l-18 -2q-25 0 -42 16q-15 17 -21 42q-5 3 -11 3q-13 0 -31 -15.5t-18 -38.5q0 -12 2 -18l12 -19q21 9 38 9q27 0 46.5 -20.5t19.5 -41.5q0 -26 -25.5 -42t-52.5 -16q-40 0 -59 26q-4 5 -7 14q-6 15 -6 32v10l2 8q-4 4 -10 19l-4 28l1 10l-157 48
l53 49q-49 18 -75.5 51.5t-26.5 81.5q0 64 53.5 106.5t125.5 42.5q47 0 84 -18t57 -44v62h46v-277l-10 -15q-6 -11 -6 -20t12 -20q8 -6 15 -6q18 0 24 26q3 12 3 38h46v-252zM350 244v118q0 30 -37 68q-44 44 -99 44q-66 0 -103 -41q-30 -33 -30 -68q0 -33 37 -63
q34 -26 58 -26l92 82l32 -41l-124 -113l63 -21q20 32 44 46.5t67 14.5zM347 49q0 5 -9 12.5t-19 7.5q-8 0 -16 -7l-10 -10q12 -20 30 -20l17 3q7 4 7 14z" />
    <glyph glyph-name="AE" unicode="&#xc6;" horiz-adv-x="448" 
d="M418 -5h-46v24l-20 -17q-18 -7 -33 -7q-24 0 -46 12t-22 32q0 10 8 23l-200 55l75 79q-32 10 -58 33q-46 43 -46 114q0 74 56.5 124.5t128.5 50.5q47 0 87.5 -18t69.5 -59v77h46v-523zM372 197v132q0 39 -38 86q-45 57 -104 57q-69 0 -113 -47q-37 -40 -37 -86
q0 -34 24 -60t68 -43l102 108l38 -30l-166 -175l100 -29l-3 24q0 34 21 58t55 24q25 0 53 -19zM372 101q0 31 -7 45q-12 24 -43 24q-11 0 -25 -12q-9 -9 -11 -21q0 -21 20 -21l21 3l8 4l10 -39l-32 -11q-12 -5 -14 -12q0 -7 10.5 -16.5t17.5 -9.5q18 0 28 10q17 15 17 56z
" />
    <glyph glyph-name="Ccedilla" unicode="&#xc7;" horiz-adv-x="505" 
d="M495 131q0 -27 -22 -48q-22 -19 -38 -19q-12 0 -21 5l-12 8v-80h-46v10l-25 -8l-30 -4q-35 0 -51 19q-12 15 -12 39q0 13 2 20l3 11l-192 82l60 50q-38 22 -58 51q-23 35 -23 79q0 75 65 127q57 45 122 45q46 0 85 -16q33 -13 54 -35v51h46v-321l12 9q6 3 20 5
q29 0 45 -19t16 -61zM451 128q0 30 -24 30q-10 0 -17 -7t-8 -18q0 -11 9 -19q9 -6 19 -6q3 1 5 1.5t8 5.5t8 13zM356 199v151q0 42 -43 81t-98 39q-67 0 -105 -50q-30 -39 -30 -80q0 -31 32 -60q27 -27 44 -27l123 103l37 -34l-172 -144l79 -34q0 73 75 73q16 0 33 -6
q16 -4 25 -12zM356 103q0 29 -9 47q-14 24 -49 24q-13 0 -22 -7.5t-10 -20.5q1 -16 20 -19l37 -3v-39l-24 -7q-11 -3 -13 -15q0 -9 10 -18q10 -6 20 -7q20 0 30 14.5t10 50.5z" />
    <glyph glyph-name="Egrave" unicode="&#xc8;" horiz-adv-x="442" 
d="M412 -13h-73q-50 0 -109 21t-111 59l19 31l43 -27q82 -47 144 -47h41v148l-18 3q-17 0 -29 -16.5t-14 -33.5q8 0 16 -5.5t8 -24.5q0 -9 -9.5 -16t-23.5 -9q-15 0 -29 12q-11 13 -11 31l2 12l-158 65l38 46q-51 15 -78 45q-30 33 -30 85q0 66 60 111q55 41 128 41
q46 0 96 -31q37 -23 52 -45v76h46v-531zM366 224v105q0 18 -9 38.5t-29 43.5q-49 58 -120 58q-55 0 -96 -38q-36 -33 -36 -67q0 -31 29 -57.5t70 -26.5l62 73l35 -30l-100 -119l101 -38q12 24 28 37q26 21 65 21z" />
    <glyph glyph-name="Eacute" unicode="&#xc9;" horiz-adv-x="510" 
d="M500 121q0 -64 -73 -106q-66 -37 -147 -37q-33 0 -95 18q-73 21 -90 50l30 39q50 -34 78 -45q41 -15 89 -15l34 3q6 1 15 3.5t22 9.5q-12 9 -26 26q-12 18 -18 36l-241 52v29l47 38l-33 15q-62 36 -62 108t57.5 122.5t131.5 50.5q51 0 85 -17q35 -15 76 -54v71h46v-310
q12 -2 23.5 -8.5t24.5 -20.5q26 -26 26 -58zM380 206v134q0 38 -41 80q-48 50 -111 50q-68 0 -112 -50q-35 -40 -35 -79q0 -27 37 -54q34 -23 57 -23l104 85l35 -39l-151 -124l157 -33q7 18 23.5 32t36.5 21zM450 120q0 16 -13 27.5t-29 11.5q-15 0 -28 -14q-9 -11 -11 -28
q0 -16 11 -30.5t29 -14.5q16 0 28.5 14t12.5 34z" />
    <glyph glyph-name="Ecircumflex" unicode="&#xca;" horiz-adv-x="470" 
d="M460 44l-28 -45v-167h-46v58l-38 -4q-33 0 -56.5 25t-23.5 54q0 14 8 33q9 17 22 29l35 -27l-9 -16q-6 -12 -6 -18q0 -8 9 -23t19 -15q17 0 28.5 14.5t11.5 32.5v39l-285 92v20l51 46q-52 23 -87 65t-35 98q0 75 57 129t143 54q53 0 88.5 -17t67.5 -58v75h46v-464z
M386 69v284q0 24 -46 69q-54 54 -115 54q-35 0 -82 -36q-58 -46 -58 -108q0 -42 40 -80.5t72 -38.5l112 101l39 -37l-159 -144z" />
    <glyph glyph-name="Edieresis" unicode="&#xcb;" horiz-adv-x="484" 
d="M474 -2h-46v115q0 10 -7.5 18.5t-17.5 9.5q-8 0 -17 -9q-5 -7 -7 -18v-116h-46v41q-11 -8 -28 -8q-20 0 -38 15q-22 22 -22 61q0 18 4 30t15.5 24.5t31.5 23.5v78q0 11 -7 18t-20 9q-29 0 -29 -30v-109h-46v103q0 16 -10.5 28.5t-25.5 12.5q-11 0 -20.5 -12.5t-9.5 -24.5
v-107h-46v103q-31 22 -42 44q-10 27 -10 54q0 74 62 120t148 46q75 0 137 -45q71 -53 71 -143q0 -28 -7 -48q-6 -23 -14 -34l-43 22l10 25l4 28q0 63 -48.5 108.5t-110.5 45.5q-63 0 -110 -33.5t-47 -89.5q0 -26 17 -47l19 16q21 13 45 13q27 0 47 -15l11 -13q9 14 26.5 21
t34.5 7q33 0 48 -19q12 -15 12 -43v-89q3 -1 5.5 -2t6.5 -4l11 -7l10 6q18 9 37 9q24 0 43 -23.5t19 -52.5v-113zM333 106q0 17 -7 24.5t-15 8.5q-9 0 -18 -13q-5 -11 -7 -22q0 -11 6.5 -20.5t16.5 -9.5q12 0 18 9.5t6 22.5z" />
    <glyph glyph-name="Igrave" unicode="&#xcc;" horiz-adv-x="417" 
d="M407 347q0 -14 -1 -21t-6.5 -25.5t-14.5 -30.5l-38 15l8 16q5 11 8 21.5t3 19.5q0 57 -49 99q-42 36 -94 36q-58 0 -101.5 -32t-43.5 -85q0 -12 3.5 -25t13.5 -14q2 4 20 14t35 10q21 0 30 -5q11 -4 17 -11q6 4 22 11l23 5q35 0 55.5 -22t20.5 -53v-273h-46v39
q-22 -20 -47.5 -29.5t-57.5 -9.5q-13 0 -25.5 3t-26.5 11q-32 17 -32 44q0 8 6 17l7 9l-22 14q-15 12 -15 30q0 32 30 52q30 18 73 18q30 0 54 -7q26 -6 56 -29v117q0 10 -8.5 19t-16.5 9q-11 0 -20 -10q-6 -9 -6 -25v-52h-46v53q0 12 -6 22t-19 12q-11 0 -18.5 -11
t-8.5 -24v-52h-46v50q-24 15 -33 33q-14 26 -14 60q0 72 68 119q57 39 122 39q73 0 126 -43q61 -49 61 -128zM272 102q0 10 -30 30q-37 23 -71 23q-27 0 -43 -8.5t-22 -23.5q1 -6 11 -10l8 -3l13 6l37 13l13 -38q-22 -3 -37 -10t-17 -19q0 -10 12 -18q12 -6 29 -6
q38 0 70 28q27 23 27 36z" />
    <glyph glyph-name="Iacute" unicode="&#xcd;" horiz-adv-x="438" 
d="M428 311q0 -35 -7 -57q-6 -24 -22 -45l-41 25q7 8 13 29t6 45q0 66 -45 118t-110 52q-30 0 -54.5 -8t-48.5 -27q-44 -35 -44 -85l3 -26l12 -23q8 8 23 15t26 7q24 0 39 -12l14 -13l26 17q16 8 35 8q38 0 54 -22.5t16 -57.5v-75l18 2l13 2q23 0 37 -11q18 -15 18 -49
q0 -25 -14.5 -44t-36.5 -19q-18 0 -35 14v-84h-46v34q-19 -14 -42.5 -22.5t-51.5 -8.5q-35 0 -56 11q-27 14 -27 42q2 9 4 12l9 14l-29 15q-16 13 -16 30q0 30 33 48t79 18h26q14 -3 26 -4.5t21 -4t24 -9.5v84q0 18 -6.5 29.5t-23.5 11.5q-9 0 -18.5 -9.5t-9.5 -20.5v-55
h-46v48q0 13 -8 24q-6 12 -16 13q-11 0 -18 -11.5t-7 -25.5v-48h-46v69l-16 8q-32 21 -32 84q0 75 72 120q56 35 115 35q79 0 139 -50q72 -59 72 -157zM372 120q0 11 -8 16q-6 6 -14 6q-15 0 -27 -25q14 -22 31 -22q18 0 18 25zM277 78v28q-12 23 -39 33q-11 4 -24.5 7
t-26.5 3q-59 0 -77 -35q4 -6 10.5 -8.5t21.5 -2.5h40v-39h-19q-12 0 -19 -11q20 -25 49 -25q20 0 42 11q33 15 42 39z" />
    <glyph glyph-name="Icircumflex" unicode="&#xce;" horiz-adv-x="438" 
d="M428 337q0 -18 -2 -29.5t-8 -21.5l-47 19q8 18 10 33q0 58 -48.5 97.5t-113.5 39.5t-115.5 -32t-50.5 -80q0 -17 6 -27t14 -11q3 10 19 24q20 18 47 29l16 -37q-16 -8 -29 -24q-9 -13 -10 -26q0 -18 26 -36.5t72 -18.5q20 0 46 9q35 12 35 35q0 11 -18 22.5t-18 27.5
q0 12 7 19t22 9q18 0 33 -15q20 -20 20 -57q0 -23 -12 -41q-7 -10 -54 -42l10 -23l3 -17q0 -29 -42 -49q-89 -39 -91 -48q0 -9 19.5 -18t53.5 -9q32 0 74 18q52 23 52 58v101h46v-216h-46v35q-15 -9 -54.5 -22t-69.5 -13q-44 0 -80.5 18t-36.5 51q0 38 66 60t66 39
q0 14 -21 22.5t-55 8.5l-13 -14q-15 -20 -21 -40l-39 18q0 16 5 25.5t19 23.5q-17 11 -26.5 25t-17.5 35q-12 0 -35 20q-31 28 -31 70q0 57 56 104q64 52 158 52q79 0 141.5 -51.5t62.5 -129.5z" />
    <glyph glyph-name="Idieresis" unicode="&#xcf;" horiz-adv-x="485" 
d="M475 319q0 -17 -3 -34t-11 -36l-17 -37l-45 29l13 22q14 28 14 51q0 62 -55 111.5t-117 49.5q-68 0 -121.5 -39t-53.5 -87l4 -26q7 -27 23 -28q8 11 26 21.5t36 12.5q12 0 25.5 -6.5t29.5 -22.5q11 14 22.5 20.5t23.5 8.5q36 0 60 -21q20 -18 20 -50v-144l8 -21l3 -18
v-94h-53v77q0 9 -7 17.5t-19 10.5q-11 0 -20 -10q-5 -8 -7 -18v-77h-50v74q0 31 -27 31q-9 0 -18.5 -6.5t-9.5 -21.5v-77h-49v98q0 9 5 20l10 18h-25v123q-29 15 -42 37q-18 30 -18 77q0 70 69.5 117t154.5 47q87 0 154 -57t67 -142zM297 135v113q0 13 -6.5 21.5t-20.5 9.5
q-3 -2 -6 -4.5t-8 -8.5q-6 -10 -8 -19v-112l25 4q17 0 24 -4zM192 135v105q0 10 -8.5 24t-17.5 15q-9 0 -17 -11q-6 -11 -6 -21v-112l11 3l12 1q14 0 26 -4z" />
    <glyph glyph-name="Eth" unicode="&#xd0;" horiz-adv-x="487" 
d="M467 -7h-46v114q0 9 -11.5 19t-22.5 10q-6 0 -13 -4l-13 -8l20 -18l-20 -26l-27 15h-10q-13 -3 -26 -10q-20 -12 -16 -32l29 8q29 0 51 -14.5t22 -45.5q0 -26 -21 -40q-18 -10 -39 -10q-31 0 -57.5 24t-26.5 64q0 53 41 76q10 5 42 13q0 7 8 19q6 13 17 22v17
q-9 -7 -46 -26q-33 -15 -46 -15q-70 0 -99 45l-17 54q-23 -14 -37 -30q-10 -13 -13 -27q5 -4 7 -18q0 -13 -7.5 -17.5t-24.5 -6.5q-16 0 -25 7.5t-10 22.5q0 36 37 70l51 35q-20 7 -41 31q-27 32 -27 72q0 61 61 101q56 34 120 34q36 0 75 -18q16 -8 22.5 -12t19.5 -14v44
h46v-344q13 3 27 -7v25h46v-199zM348 290v88q0 31 -38 63q-43 37 -95 37q-29 0 -41 -9zM227 350l-94 97q-9 -9 -14.5 -15.5t-11.5 -14.5q-9 -16 -11 -34q0 -25 20.5 -51t42.5 -26zM338 236l-81 83l-80 -52q-3 -28 19.5 -54t51.5 -26q30 0 55 13q35 18 35 36zM348 8
q0 9 -8.5 15t-21.5 6q-11 0 -20 -13l-4 -7q0 -9 7 -16t16 -9l9 1q22 5 22 23z" />
    <glyph glyph-name="Ntilde" unicode="&#xd1;" 
d="M58 -182h-49v123q0 9 -7 17q-6 5 -13 7q-6 0 -11.5 -8.5t-7.5 -21.5v-117h-49v59l-12 -6l-18 -3q-33 0 -48.5 22t-15.5 58q0 23 19.5 42.5t45.5 19.5q22 0 39 -10l16 -13l23 14q8 3 25 5q29 0 48 -20q15 -15 15 -31v-137zM-77 -60q0 13 -8.5 22t-16.5 9q-9 0 -17.5 -11
t-8.5 -19q0 -12 11 -26q6 -9 13 -9q5 0 17 13q8 11 10 21z" />
    <glyph glyph-name="Ograve" unicode="&#xd2;" 
d="M-30 -250h-46v143l-6 -4q-11 -6 -26 -6q-22 0 -42 18.5t-20 48.5q-25 0 -42.5 -15t-17.5 -38l3 -23q1 -11 10 -14l18 5l23 2q28 0 42 -11q20 -15 20 -49q0 -31 -25 -46q-20 -11 -51 -11q-42 0 -60 22q-13 16 -13 42q0 14 3 22q-20 23 -20 59q0 45 31 75.5t85 30.5
q25 0 50 -7l-10 -12q-6 -9 -6 -20q0 -7 9.5 -16t17.5 -9q17 0 25 27l2 36h46v-250zM-163 -191q0 5 -9 13l-17 5q-28 0 -28 -21q0 -8 9.5 -14t17.5 -6q27 0 27 23z" />
    <glyph glyph-name="Oacute" unicode="&#xd3;" 
d="M-30 -211h-46v105q0 26 -24 40q-24 12 -56 12q-17 0 -41.5 -19t-26.5 -33q0 -16 17 -16l26 11l23 5q30 0 49 -15t19 -42q0 -20 -16 -36t-46 -16q-34 0 -55 27l-13 27q-16 5 -26 12q-23 18 -23 49q0 34 39 63q39 27 74 27q25 0 44 -5q10 -2 18 -4t18 -7v26h46v-211z
M-121 -155q0 7 -10 13l-25 4l-9 -3q-10 -5 -11 -14q0 -8 8 -16q6 -9 18 -9q8 0 18.5 8.5t10.5 16.5z" />
    <glyph glyph-name="Ocircumflex" unicode="&#xd4;" 
d="M-30 -149h-46v68q0 20 -3 27.5t-16 8.5q-12 0 -23 -6.5t-11 -19.5q0 -8 7 -16.5t9 -18.5q0 -11 -21.5 -25.5t-45.5 -14.5q-41 0 -64 27q-10 12 -16 28t-6 34l3 22l4 15h46l-8 -19l-1 -13q0 -19 12 -36.5t30 -17.5q6 0 17 9q-3 2 -10 14.5t-7 19.5q0 8 7.5 25t22.5 26
q6 5 18.5 7.5t27.5 2.5l58 1h12h4v-148z" />
    <glyph glyph-name="Otilde" unicode="&#xd5;" 
d="M74 -26q0 -23 -20.5 -46.5t-53.5 -23.5q-24 0 -41.5 10.5t-19.5 24.5q-12 12 -30.5 20.5t-43.5 8.5q-32 0 -61.5 -18t-29.5 -44q0 -21 16 -21l36 18q21 8 46 8q51 0 77 -30q11 -14 18 -43l73 -36l-16 -38l-70 37q-18 -21 -43 -30q-17 -6 -44 -6q-40 0 -65 22.5t-25 50.5
q-20 3 -33 22q-14 17 -14 45q0 56 50 84q36 21 84 21q36 0 65 -10q19 -6 31 -18q0 -14 15 -26q12 -9 30 -11q15 0 21 18.5t6 42.5v19h42v-51zM-80 -163q0 11 -15 22q-15 9 -35 9q-15 0 -28 -7t-15 -22q0 -15 13 -26.5t30 -11.5q13 0 30.5 10t19.5 26z" />
    <glyph glyph-name="Odieresis" unicode="&#xd6;" 
d="M30 -88h-46q0 28 -24 42q-24 12 -56 12q-17 0 -41.5 -19t-26.5 -33q0 -16 17 -16l26 11l23 5q30 0 49 -15t19 -42q0 -20 -16 -36t-46 -16q-34 0 -55 27l-13 27q-16 5 -26 12q-23 18 -23 49q0 34 39 63q39 27 74 27q25 0 44 -5q10 -2 18 -4t18 -7v56h46v-138zM-61 -135
q0 7 -10 13l-25 4l-9 -3q-10 -5 -11 -14q0 -8 8 -16q6 -9 18 -9q8 0 18.5 8.5t10.5 16.5z" />
    <glyph glyph-name="multiply" unicode="&#xd7;" 
d="M43 -67q0 -32 -35 -55t-87 -23q-35 0 -73 18q-45 23 -45 59q0 30 40.5 59t84.5 29q43 0 79 -26t36 -61zM-10 -65q0 21 -21.5 31t-46.5 10q-34 0 -52 -17q-12 -11 -14 -25q0 -12 23.5 -24t44.5 -12q20 0 42.5 10.5t23.5 26.5z" />
    <glyph glyph-name="Oslash" unicode="&#xd8;" 
d="M118 -104q0 -16 -11 -34.5t-22 -26.5l-32 26l15 18q6 9 6 18q0 27 -36 50q-44 25 -111 25q-36 0 -77 -12q-58 -18 -58 -50q0 -9 9 -21.5t20 -14.5q2 6 16 21.5t28 23.5l25 -31q-13 -11 -22.5 -25t-10.5 -24q0 -8 18 -24.5t40 -16.5q24 0 43 12.5t19 28.5q0 15 -9 18
l-58 -25l-10 36l120 52l13 -34l-32 -15q7 -6 9 -11q6 -9 6 -16q0 -32 -26.5 -56.5t-76.5 -24.5q-31 0 -59 15t-38 46q-18 6 -41 27q-30 29 -30 62q0 50 66 77q51 19 113 19q76 0 126 -21q68 -29 68 -92z" />
    <glyph glyph-name="Ugrave" unicode="&#xd9;" 
d="M-30 -221h-46v143q0 12 -10 21q-9 6 -19 8l-9 -5q-9 -6 -9 -11l1 -5l16 -17l-12 -23l-38 6q-25 0 -34 -22l20 3q24 0 47 -15q20 -15 20 -34q0 -26 -18 -40q-20 -13 -42 -13q-21 0 -39 18q-24 23 -24 63t18 63q15 18 36 18l9 -1q-3 18 16.5 36.5t44.5 18.5q13 0 26 -8v17
h46v-221zM-144 -178q0 5 -6 11q-6 3 -17 3l-14 -7l7 -14q3 -6 11 -6q9 3 13.5 5.5t5.5 7.5z" />
    <glyph glyph-name="Uacute" unicode="&#xda;" 
d="M17 -65q0 -44 -23.5 -64.5t-60.5 -20.5q-20 0 -42 11q-26 11 -48 35l-31 -25q-32 -21 -64 -21q-33 0 -56 23q-24 21 -24 57q0 13 1.5 19t7 18.5t18.5 22.5l-28 24l24 27l51 -38q19 0 27 -1t27 -8.5t43 -27.5q14 14 42 28q18 8 31 12t28 4q30 0 53.5 -21t23.5 -54z
M-34 -68q0 9 -11.5 18.5t-23.5 9.5q-14 0 -32 -12l-21 -18q4 -4 12 -9.5t15 -10.5q15 -9 31 -11q12 0 21 9.5t9 23.5zM-196 -68q-11 11 -29 23q-16 9 -32 11q-12 0 -19 -10t-9 -24q0 -13 12 -22t29 -11q11 0 28 12z" />
    <glyph glyph-name="Ucircumflex" unicode="&#xdb;" 
d="M-30 -210h-46v47l-39 -28q-41 -24 -79 -24t-70 23.5t-32 54.5q0 28 11 42q6 9 29 25l-62 31l22 37l157 -81l-17 -35l-49 26q-12 0 -28 -13.5t-17 -29.5l10 -19q17 -19 52 -19q36 0 78 39q34 31 34 73v61h46v-210z" />
    <glyph glyph-name="Udieresis" unicode="&#xdc;" 
d="M-30 -176h-46v121q-9 6 -46.5 -11.5t-44.5 -33.5q5 0 14 -13q5 -11 7 -27q0 -13 -7.5 -21.5t-25.5 -8.5q-16 0 -30.5 19t-14.5 40q0 51 82 90q68 31 112 31v-186z" />
    <glyph glyph-name="Yacute" unicode="&#xdd;" 
d="M-30 -204h-46v38q-17 -13 -41.5 -22t-47.5 -9q-34 0 -57.5 17t-23.5 41q0 9 6 21l-19 12q-14 12 -14 29q0 33 35 54.5t74 21.5q27 0 56 -10q16 -5 32 -15v26h46v-204zM-76 -90q0 20 -26.5 31.5t-54.5 11.5q-17 0 -38 -6t-27 -14l3 -8q4 -4 17 -4l41 6v-43l-36 -11
q3 -12 17 -19t30 -7q30 0 52 22t22 41z" />
    <glyph glyph-name="Thorn" unicode="&#xde;" 
d="M39 -55q0 -24 -13.5 -37t-34.5 -13q-13 0 -21 4v-103h-46v38q-17 -13 -41.5 -22t-47.5 -9q-34 0 -57.5 17t-23.5 41q0 9 6 21l-19 12q-14 12 -14 29q0 33 35 54.5t74 21.5q27 0 56 -10q16 -5 32 -15v26h46v-8l23 4q18 0 32 -13.5t14 -37.5zM9 -53q-1 2 -2 4.5t-4.5 5.5
t-12.5 5q-6 0 -13 -7l-7 -13l12 -10q6 -6 12 -6q15 0 15 21zM-76 -90q0 20 -26.5 31.5t-54.5 11.5q-17 0 -38 -6t-27 -14l3 -8q4 -4 17 -4l41 6v-43l-36 -11q3 -12 17 -19t30 -7q30 0 52 22t22 41zM9 -53q0 -21 -15 -21q-9 3 -12 5l-12 11q3 9 9 15q3 5 11 5q6 0 12.5 -3.5
t6.5 -11.5z" />
    <glyph glyph-name="germandbls" unicode="&#xdf;" 
d="M-30 -188h-46v63l-15 -5l-23 -4q-33 0 -56.5 25t-23.5 54q0 12 8 30.5t22 31.5l35 -27l-9 -16q-6 -12 -6 -18q0 -15 8 -23.5t20 -8.5q19 0 29.5 12.5t10.5 28.5v45h46v-188z" />
    <glyph glyph-name="agrave" unicode="&#xe0;" 
d="M14 -186h-46v142q-18 0 -39 -5l-45 -12l13 -18q9 -15 9 -33q0 -38 -17 -55.5t-42 -17.5q-34 0 -55.5 17t-21.5 49q0 18 6 33.5t17 27.5l-37 15l21 43l34 -14l26 -11q20 12 59 21q42 8 81 8l37 -25v-165zM-140 -119q0 7 -5 15.5t-17 17.5q-22 -14 -22 -33q0 -9 6 -14.5
t16 -7.5q8 0 14.5 7.5t7.5 14.5z" />
    <glyph glyph-name="aacute" unicode="&#xe1;" 
d="M48 -169q0 -28 -23 -42q-19 -11 -44 -11q-29 0 -49 18.5t-20 48.5q0 25 23 44q16 12 42 20v60q-13 0 -35.5 -5t-27.5 -8l11 -16q3 -7 5 -22q0 -25 -11.5 -36.5t-27.5 -12.5q-21 0 -36.5 12.5t-15.5 32.5q0 12 5 23q3 10 13 20l-14 7l-14 5l13 27q12 -2 29 -11l14 -8
q11 8 43.5 15.5t54.5 7.5l24 -17v-98h-28q-14 -5 -23 -14q-14 -14 -14 -32q0 -15 13 -25.5t28 -10.5q9 0 21.5 6.5t14.5 18.5q0 9 -16 9l-10 -1l-13 20q20 15 35 15t24 -12t9 -28zM-96 -89q0 8 -4 15l-14 13q-12 -11 -14 -25q0 -18 16 -18q7 3 11.5 6.5t4.5 8.5z" />
    <glyph glyph-name="acircumflex" unicode="&#xe2;" 
d="M-30 -116h-323v46h277v70h46v-116z" />
    <glyph glyph-name="atilde" unicode="&#xe3;" 
d="M-30 -316h-323v46h277v70h46v-116z" />
    <glyph glyph-name="adieresis" unicode="&#xe4;" 
d="M166 -185h-123v104q0 16 -9.5 30.5t-26.5 14.5q-14 0 -24.5 -12t-12.5 -29v-108h-46v108q0 13 -9.5 27t-27.5 14q-13 0 -22 -8q-15 -12 -15 -29v-112h-46v118q0 30 24.5 53.5t55.5 23.5q21 0 34 -6.5t29 -28.5q15 18 28 25q20 10 42 10q28 0 50 -24t22 -51v-74h77v-46z
" />
    <glyph glyph-name="aring" unicode="&#xe5;" 
d="M51 -204l-21 -30l-83 65l12 27l3 23q0 45 -43 68.5t-99 23.5q-49 0 -88.5 -27t-39.5 -71q11 -24 22 -37q34 -37 93 -37q28 0 44 4q34 8 34 29q0 8 -9 16l-33 -12q-21 -6 -32 -6q-33 0 -55.5 15.5t-22.5 39.5v37h42q0 -31 8 -43t36 -12q27 0 36 17q6 12 6 38h43v-48
l13 -10q11 -13 11 -31q0 -46 -60 -66q-13 -4 -31 -7t-34 -3q-53 0 -101 33q-52 37 -52 89q0 62 55 98q24 15 52 23t61 8q73 0 123 -28q60 -33 60 -96l-1 -21l-6 -23z" />
    <glyph glyph-name="ae" unicode="&#xe6;" 
d="M89 -185h-46v104q0 16 -9.5 30.5t-26.5 14.5q-14 0 -24.5 -12t-12.5 -29v-108h-46v108q0 13 -9.5 27t-27.5 14q-13 0 -22 -8q-15 -12 -15 -29v-112h-46v118q0 30 24.5 53.5t55.5 23.5q21 0 34 -6.5t29 -28.5q15 18 28 25q20 10 42 10q28 0 50 -24t22 -51v-120z" />
    <glyph glyph-name="ccedilla" unicode="&#xe7;" 
d="M-11 -116h-40q4 20 -12 50q-21 38 -66 38q-29 0 -51 -12t-23 -26q0 -15 11 -16q4 4 7 6.5t8 4.5q16 7 34 7q27 0 46 -18t19 -39v-101h-38v39q-15 -6 -34 -6q-33 0 -48 25q-11 19 -11 42q-14 3 -25.5 19t-11.5 36q0 27 29 52t81 25q70 0 103 -48q22 -35 22 -78zM-116 -126
q0 10 -7.5 15.5t-21.5 5.5q-10 0 -16.5 -4.5t-6.5 -17.5q0 -23 24 -23q11 0 18.5 5.5t9.5 18.5z" />
    <glyph glyph-name="egrave" unicode="&#xe8;" 
d="M-30 -193h-31l-125 61l24 23q-11 5 -20 16q-12 14 -14 31q0 24 23.5 43t46.5 19q18 0 29 -3.5t21 -9.5v13h46v-193zM-76 -141v73q0 12 -13 21q-12 6 -26 8q-17 0 -23.5 -8t-8.5 -16q0 -10 15 -22l23 -12l-18 -20z" />
    <glyph glyph-name="eacute" unicode="&#xe9;" 
d="M-36 -147q0 -29 -30.5 -54.5t-78.5 -25.5t-80 27.5t-32 76.5q0 53 47 82q38 22 77 22v-36q-18 0 -47 -19q-37 -25 -37 -58q0 -18 21.5 -38.5t54.5 -20.5q18 0 39.5 11t21.5 30l-3 12q-6 8 -19 8q-12 0 -27 -5l-14 29l28 15q14 5 29 7q22 0 37 -19q3 -5 8 -16.5t5 -27.5z
" />
    <glyph glyph-name="ecircumflex" unicode="&#xea;" 
d="M134 -125q0 -19 -34 -41q-29 -18 -67 -18q-14 0 -20.5 1.5t-18.5 6.5q-26 10 -61 39q-16 -16 -33 -26q-30 -16 -64 -16t-64 17t-30 51q0 28 27 49q27 19 64 19q29 0 56 -9q12 -3 30 -15q2 3 5 27v25h46v-41q0 -23 -11 -42l29 -23q31 -20 52 -20q15 0 30 8t30 34z
M-104 -109l-28 19q-17 9 -32 9q-25 0 -36.5 -8.5t-11.5 -18.5q0 -15 20 -24t30 -9q17 0 32.5 9.5t25.5 22.5z" />
    <glyph glyph-name="edieresis" unicode="&#xeb;" 
d="M134 -310q0 -19 -34 -41q-29 -18 -67 -18q-14 0 -20.5 1.5t-18.5 6.5q-26 10 -61 39q-16 -16 -33 -26q-30 -16 -64 -16t-64 17t-30 51q0 28 27 49q27 19 64 19q29 0 56 -9q12 -3 30 -15q2 3 5 27v25h46v-41q0 -23 -11 -42l29 -23q31 -20 52 -20q15 0 30 8t30 34z
M-104 -294l-28 19q-17 9 -32 9q-25 0 -36.5 -8.5t-11.5 -18.5q0 -15 20 -24t30 -9q17 0 32.5 9.5t25.5 22.5z" />
    <glyph glyph-name="igrave" unicode="&#xec;" 
d="M202 -207q-13 -17 -26 -26q-29 -19 -70 -19q-31 0 -56.5 14t-48.5 53q-24 -24 -50 -40t-50 -23.5t-51 -7.5q-45 0 -80 23q-38 26 -38 68q0 44 37 77q37 31 75 31v37h46v-79q-16 0 -28.5 -2t-30.5 -9q-47 -17 -47 -53q0 -19 19.5 -35t41.5 -16q37 0 73 24t70 67h24
q14 -29 30 -46q32 -37 69 -37q24 0 42 12q6 4 19 18z" />
    <glyph glyph-name="iacute" unicode="&#xed;" 
d="M202 -387q-13 -17 -26 -26q-29 -19 -70 -19q-31 0 -56.5 14t-48.5 53q-24 -24 -50 -40t-50 -23.5t-51 -7.5q-45 0 -80 23q-38 26 -38 68q0 44 37 77q37 31 75 31v37h46v-79q-16 0 -28.5 -2t-30.5 -9q-47 -17 -47 -53q0 -19 19.5 -35t41.5 -16q37 0 73 24t70 67h24
q14 -29 30 -46q32 -37 69 -37q24 0 42 12q6 4 19 18z" />
    <glyph glyph-name="icircumflex" unicode="&#xee;" 
d="M-30 -101h-140l-1 -32q0 -11 -6 -25l22 -17q18 -12 32 -12q13 0 23.5 7.5t20.5 26.5l29 -29q0 -16 -26 -33q-22 -14 -53 -14q-16 0 -32 7.5t-22 11.5t-18 13q-17 -14 -35.5 -21.5t-39.5 -7.5q-27 0 -51 17.5t-24 37.5q0 24 23 40q23 14 50 14q22 0 34.5 -3.5t23.5 -10.5
l5 11l3 19h-141v41h277v60h46v-101zM-240 -167l-20 10l-16 3q-15 0 -26 -7l-6 -7q0 -7 13 -13t21 -6q9 0 20 7z" />
    <glyph glyph-name="idieresis" unicode="&#xef;" 
d="M112 -267q-13 -17 -26 -26q-29 -19 -70 -19q-31 0 -56.5 14t-48.5 53q-24 -24 -50 -40t-50 -23.5t-51 -7.5q-45 0 -80 23q-38 26 -38 68q0 44 37 77q37 31 75 31v21h-107v46h277v50h46v-96h-170v-63q-16 0 -28.5 -2t-30.5 -9q-47 -17 -47 -53q0 -19 19.5 -35t41.5 -16
q37 0 73 24t70 67h24q14 -29 30 -46q32 -37 69 -37q24 0 42 12q6 4 19 18z" />
    <glyph glyph-name="eth" unicode="&#xf0;" 
d="M20 730l-167 -51l119 -70l-21 -34l-204 118l261 79z" />
    <glyph glyph-name="ntilde" unicode="&#xf1;" 
d="M-7 705q0 -15 -12 -28t-29 -13q-15 0 -28 12t-13 29q0 15 12 28t29 13q15 0 28 -12t13 -29zM96 722q0 -68 -33 -110q-39 -47 -123 -47q-62 0 -96.5 37.5t-34.5 91.5v28h49q0 -51 19 -80q23 -34 75 -34q44 0 69 32.5t25 81.5h50z" />
    <glyph glyph-name="ograve" unicode="&#xf2;" 
d="M-30 611l-31 -44q-27 36 -72.5 60t-95.5 24q-34 0 -75 -17q-56 -21 -81 -59l-39 36q16 29 78 59q51 24 114 24q54 0 107.5 -20.5t94.5 -62.5z" />
    <glyph glyph-name="oacute" unicode="&#xf3;" 
d="M33 830q0 -15 -12 -28t-29 -13q-15 0 -28 12t-13 29q0 15 12 28t29 13q15 0 28 -12t13 -29zM136 847q0 -68 -33 -110q-39 -47 -123 -47q-62 0 -96.5 37.5t-34.5 91.5v28h49q0 -51 19 -80q23 -34 75 -34q44 0 69 32.5t25 81.5h50zM-30 611l-31 -44q-27 36 -72.5 60
t-95.5 24q-34 0 -75 -17q-56 -21 -81 -59l-39 36q16 29 78 59q51 24 114 24q54 0 107.5 -20.5t94.5 -62.5z" />
    <glyph glyph-name="ocircumflex" unicode="&#xf4;" 
d="M21 -113l-16 -35l-267 80l62 92l30 -24l-29 -48z" />
    <glyph glyph-name="otilde" unicode="&#xf5;" horiz-adv-x="240" 
d="M219 422q0 -48 -30.5 -75.5t-74.5 -27.5q-38 0 -67 30q-27 30 -27 70q0 36 24 65q31 34 85 34q37 0 63.5 -28t26.5 -68zM169 416q0 26 -15.5 42.5t-32.5 16.5q-23 0 -38 -24q-10 -20 -10 -35q0 -17 15 -35q16 -16 33 -16q18 0 33 12t15 39z" />
    <glyph glyph-name="odieresis" unicode="&#xf6;" horiz-adv-x="341" 
d="M281 -20h-56v558h56v-558z" />
    <glyph glyph-name="divide" unicode="&#xf7;" 
d="M-30 518h-46v30q0 33 -27 51t-62 18q-19 0 -51 -12q-75 -28 -138 -28q-10 0 -22 2t-42 9q-49 10 -68 22l18 38q13 -7 57.5 -18.5t62.5 -11.5q17 0 117 28q53 14 88 14q51 0 85 -38q28 -31 28 -64v-40z" />
    <glyph glyph-name="oslash" unicode="&#xf8;" horiz-adv-x="136" 
d="M106 0h-46v548q0 33 -27 51t-62 18q-19 0 -51 -12q-75 -28 -138 -28q-10 0 -22 2t-42 9q-49 10 -68 22l18 38q13 -7 57.5 -18.5t62.5 -11.5q17 0 117 28q53 14 88 14q51 0 85 -38q28 -31 28 -64v-558z" />
    <glyph glyph-name="ugrave" unicode="&#xf9;" horiz-adv-x="398" 
d="M368 441q0 -13 -6.5 -21.5t-15.5 -8.5q-13 0 -42 29q-27 30 -61 30q-75 0 -125 -90q-36 -66 -36 -116l32 7l31 3q25 0 52 -7q29 -6 58 -23q48 -26 77 -82q22 -46 22 -84q0 -37 -26 -63q-30 -32 -80 -32q-90 0 -154 78t-64 191q0 106 59 183q63 83 155 83q46 0 85 -23.5
t39 -53.5zM303 88q0 52 -45.5 93.5t-105.5 41.5q-23 0 -47 -12l-18 -12q0 -35 37 -91q26 -38 56 -57t68 -19q16 0 35.5 16.5t19.5 39.5z" />
    <glyph glyph-name="uacute" unicode="&#xfa;" horiz-adv-x="182" 
d="M152 0h-46v441l-70 -59l-27 35l126 101q2 2 8 1l9 -6v-513z" />
    <glyph glyph-name="ucircumflex" unicode="&#xfb;" horiz-adv-x="136" 
d="M106 0h-46v518h46v-518z" />
    <glyph glyph-name="udieresis" unicode="&#xfc;" horiz-adv-x="261" 
d="M235 373q0 -23 -4 -39.5t-16 -39.5q-18 -40 -47 -60q28 -22 45.5 -53.5t17.5 -64.5q0 -38 -20 -69q-29 -47 -87 -47q-30 0 -58 28q-36 36 -36 96q0 33 28 70q4 6 42 44q-23 20 -44 53q-26 43 -26 82q0 42 30.5 76.5t74.5 34.5q42 0 71 -35q15 -17 22 -35t7 -41zM181 371
q0 27 -12 45q-15 23 -35 23q-23 0 -36 -25.5t-13 -50.5q0 -32 16 -58q10 -16 31 -36q26 24 37.5 52t11.5 50zM181 114q0 22 -11 41q-9 20 -36 48q-19 -17 -32 -35q-20 -28 -20 -52q0 -26 15 -45t30 -19q18 0 36 18t18 44z" />
    <glyph glyph-name="yacute" unicode="&#xfd;" horiz-adv-x="264" 
d="M234 0h-46v242q-6 -9 -19 -16q-19 -11 -41 -11q-43 0 -70.5 27.5t-27.5 69.5v206h46v-217q0 -11 11 -25q15 -20 43 -20q23 0 40.5 24.5t17.5 55.5v182h46v-518z" />
    <glyph glyph-name="thorn" unicode="&#xfe;" 
d="M75 -158h-58l-87 158h35z" />
    <glyph glyph-name="ydieresis" unicode="&#xff;" 
d="M-184 -94q0 -19 -14 -33t-34 -14t-34 12.5t-14 34.5q0 20 14 34t34 14t34 -14t14 -34z" />
    <glyph glyph-name="OE" unicode="&#x152;" horiz-adv-x="491" 
d="M481 86q0 -42 -35.5 -71.5t-79.5 -29.5q-53 0 -85 30.5t-32 78.5q-23 -10 -61 -10q-54 0 -102 54q-56 64 -56 156q0 63 43 97t111 34q6 53 36 77q22 16 60 16q41 0 69 -15t54 -50v65h46v-364q13 -9 18 -19q14 -22 14 -49zM403 175v182q0 21 -31 64q-38 52 -81 52
q-23 0 -39.5 -14.5t-16.5 -26.5t12 -18l53 -29l-25 -47l-73 36q-8 3 -30 3q-43 0 -70 -27q-25 -27 -25 -68q21 16 42.5 21.5t47.5 5.5q93 0 134 -53q5 -7 11 -21t12 -33q0 -17 -5 -31q11 3 22 5t27 2q18 0 24 -2zM430 87q0 18 -23 31.5t-42 13.5q-26 0 -45.5 -17.5
t-19.5 -34.5q0 -18 24 -35q24 -15 51 -15q19 0 37 16.5t18 40.5zM266 183q0 28 -33.5 52t-74.5 24q-31 0 -52 -18l-14 -18q0 -24 32 -55q38 -36 80 -36q27 0 44.5 17.5t17.5 33.5z" />
    <glyph glyph-name="oe" unicode="&#x153;" horiz-adv-x="410" 
d="M380 -61h-46v91q-16 -2 -27 -7t-24 -13q-21 -12 -31 -31l11 -12q3 -5 5 -14q0 -17 -9 -25q-8 -5 -21 -7q-12 0 -24.5 14t-12.5 29q0 32 28 59l40 29l-166 43l72 79l-100 23l58 56q-19 0 -37.5 10t-34.5 27q-31 34 -31 74q0 64 51 109t114 45q47 0 89 -21q20 -11 50 -36
v57h46v-392l-159 37l-39 -43l147 -37l33 3h18v-147zM334 180v192q0 37 -48.5 69t-87.5 32q-58 0 -94 -43q-14 -17 -21 -33t-7 -34t17 -41q21 -29 56 -29q14 0 21 2l14 7l58 56l32 -31l-112 -108z" />
    <glyph glyph-name="Scaron" unicode="&#x160;" horiz-adv-x="513" 
d="M503 137q0 -43 -41 -85q-51 -53 -131 -53q-72 0 -132 25q-34 14 -60 34l20 40q37 -25 75 -39t76 -14h17q11 0 19 2l22 7l-33 30q-21 21 -21 53q0 40 40 65q29 17 54 17v149q0 33 -43 70q-46 40 -93 40q-18 0 -37 -9t-19 -26q0 -19 19 -34l54 -32l-24 -38q-15 8 -29 14
t-29 12q-26 7 -50 7q-23 0 -52.5 -27t-29.5 -53l36 14q37 10 66 10q50 0 84 -30t34 -80q0 -29 -25 -55q-34 -34 -88 -34q-63 0 -108 49q-22 24 -33 54t-11 68q0 63 44 96.5t105 33.5q-10 10 -10 28q0 44 51 64q22 8 40 8q49 0 84 -14q36 -12 64 -37v51h46v-305q10 -4 20 -12
q29 -23 29 -64zM454 138q0 12 -15 24.5t-30 14.5q-12 0 -28 -16q-14 -16 -14 -35q0 -12 29 -31l14 -8q14 0 29 18t15 33zM249 212q0 27 -22.5 44t-55.5 17q-23 0 -49 -6q-11 -2 -20 -4t-23 -7q0 -16 28 -51q35 -44 73 -44q22 0 45.5 15t23.5 36z" />
    <glyph glyph-name="scaron" unicode="&#x161;" horiz-adv-x="488" 
d="M458 0h-46v85q-28 -41 -72.5 -66.5t-100.5 -25.5q-55 0 -97 38t-42 94q0 15 0.5 21t5 23t11.5 26q-15 1 -38 21q-17 15 -28 35l-16 41q-5 22 -5 45q0 78 66 132q61 49 133 49q23 0 47 -4t48 -13q62 -22 88 -69v86h46v-518zM534 -109l-11 -35l-233 60l56 102l44 -18
l-33 -63zM412 222v132q0 28 -54 72q-60 48 -120 48q-78 0 -124 -58q-34 -45 -34 -90q0 -43 29 -69l34 -22q17 20 45 31t50 11l12 -45q-48 -18 -72 -42q-28 -28 -28 -66q0 -34 32 -59q32 -23 70 -23q45 0 98 50q62 57 62 130z" />
    <glyph glyph-name="Ydieresis" unicode="&#x178;" horiz-adv-x="511" 
d="M491 332q0 -26 -6.5 -44.5t-14.5 -27.5l-48 14q8 8 13 18l4 25q0 65 -57.5 112.5t-126.5 47.5t-121 -46t-52 -105q0 -21 6 -37t19 -22q13 21 31 37t25 18l35 -31q-23 -20 -49 -60q-23 -40 -23 -65q0 -17 15.5 -33.5t34.5 -16.5q14 0 26 11.5t13 27.5v88h46v-97
q0 -9 13 -18q12 -6 26 -8q11 0 24 11.5t15 28.5v83h46v-248h-46v88l-17 -6l-21 -3q-40 0 -62 31l-24 -20q-19 -11 -45 -11q-50 0 -74 30q-18 24 -18 62l1 30q2 12 7 21q-16 6 -32 26q-24 33 -24 88q0 81 68 134t158 53q92 0 161 -48q74 -53 74 -138z" />
    <glyph glyph-name="florin" unicode="&#x192;" horiz-adv-x="492" 
d="M472 67l-108 118v-189h-46v57q-23 -29 -68 -48t-96 -19q-46 0 -81.5 26t-35.5 64q0 66 88 87.5t88 59.5q0 17 -13 26.5t-26 12.5l-22 3q-18 0 -34 -6.5t-17 -20.5q0 -12 9 -20.5t9 -13.5q0 -13 -9.5 -18.5t-24.5 -3.5q-14 3 -26 15q-15 15 -15 37q0 18 11.5 34.5
t31.5 30.5l-20 19q-37 45 -37 102q0 16 9.5 49t19.5 39l40 -11q-11 -14 -17.5 -34.5t-6.5 -46.5q0 -32 30 -67q38 -42 103 -42q49 0 81.5 35t32.5 77q0 25 -7 39q-10 19 -29 19q-10 0 -17.5 -7.5t-7.5 -27.5v-50h-48v45q0 13 -8 25q-6 12 -19 12q-10 0 -17 -10t-9 -28
q0 -12 9 -24l8 -7l-45 -20q-5 0 -14 18q-7 21 -7 35q0 33 22.5 56.5t54.5 23.5q6 0 18.5 -5t27.5 -23q14 14 32 21t35 7q32 0 50 -30q13 -26 13 -63v-64l91 102v-61l-91 -116v-26l108 -130v-63zM318 161v141q-6 -8 -25 -18.5t-38 -16.5q10 -23 10 -47q0 -29 -14 -54t-41 -35
l-88 -16q-34 -12 -34 -40q0 -19 33 -31q12 -4 23.5 -6t26.5 -2q59 0 107 48q40 42 40 77z" />
    <glyph glyph-name="circumflex" unicode="&#x2c6;" 
d="M46 -97q-2 -17 -6.5 -31t-13.5 -23l-35 14l9 18q6 12 6 20q0 30 -24 51t-55 21q-33 0 -57.5 -15t-30.5 -47q0 -24 3 -30l8 5q11 6 25 6q24 0 35 -8l15 6l16 2q18 0 32 -14q12 -15 12 -31v-97h-40v93q0 10 -8 11q-5 -3 -7 -6.5t-2 -15.5v-82h-40v25l-14 -2q-26 0 -38 19
q-5 8 -8 19.5t-3 26.5l1 9q-9 6 -18 23.5t-9 35.5q0 25 7.5 42.5t26.5 32.5q37 29 89 29q49 0 86.5 -30.5t37.5 -76.5zM-112 -166q0 7 -4 14l-9 5q-11 0 -11 -24q0 -7 4 -11t11 -6q6 4 7 8z" />
    <glyph glyph-name="tilde" unicode="&#x2dc;" 
d="M37 -104q0 -17 -5 -28q-3 -13 -12 -31l-40 21q14 17 17 39q3 30 -22 54q-27 22 -59 22q-33 0 -59 -22q-22 -18 -22 -43q1 -6 1 -9l3 -16l7 -9l16 16q8 6 17 9l20 -29q-12 -7 -20 -17q-11 -16 -11 -36q0 -12 12 -23q12 -9 24 -9q13 0 25 12q8 10 10 25l-9 -1q-8 0 -18 9
t-10 24q0 13 10 22q8 5 22 7l13 -4q31 -17 31 -59q0 -31 -22 -53q-11 -10 -25 -16t-31 -6q-36 0 -54 21.5t-18 54.5l1 13q-9 6 -19 26q-9 15 -14 36l-1 11q0 42 37 72.5t84 30.5q50 0 85.5 -32.5t35.5 -81.5z" />
    <glyph glyph-name="endash" unicode="&#x2013;" horiz-adv-x="500" 
d="M470 225h-440v45h440v-45z" />
    <glyph glyph-name="emdash" unicode="&#x2014;" horiz-adv-x="1000" 
d="M970 224h-940v46h940v-46z" />
    <glyph glyph-name="quoteleft" unicode="&#x2018;" horiz-adv-x="301" 
d="M201 612q-14 -9 -23 -15.5t-21 -17.5q-30 -27 -30 -55q25 -9 37 -24t12 -38t-18 -40q-18 -15 -39 -15q-30 0 -44.5 24.5t-14.5 52.5q0 43 33 84t90 69z" />
    <glyph glyph-name="quoteright" unicode="&#x2019;" horiz-adv-x="301" 
d="M241 566q0 -43 -32 -82.5t-91 -70.5l-18 25q14 9 23 15.5t21 17.5q30 27 30 55q-26 9 -37.5 24t-11.5 38q0 24 18.5 39.5t38.5 15.5q30 0 46 -26q13 -23 13 -51z" />
    <glyph glyph-name="quotesinglbase" unicode="&#x201a;" horiz-adv-x="455" 
d="M425 94h-37q12 -9 19 -22l7 -15q0 -28 -22.5 -48t-56.5 -20q-19 0 -38 4t-38 13l-32 20q-12 -12 -47 -26q-35 -11 -66 -11q-33 0 -58.5 23t-25.5 48q0 19 21 40l28 21l-18 21q-6 12 -6 28q0 66 105 85t105 44q0 9 -13 18q-17 12 -44 12q-23 0 -43 -12t-32 -40h-44l7 35
q7 25 27 40q-21 9 -48 54q-30 50 -30 91h51q0 -57 41 -94t99 -37q38 0 85 18q58 23 58 56q0 13 -9.5 24.5t-22.5 12.5q-17 0 -29 -24l-9 -33h-47q0 23 -6 37q-9 20 -28 20q-21 0 -21 -22q0 -12 8 -25l-33 -20q-8 6 -15 19l-7 22q0 29 20.5 48t50.5 19q18 0 31 -7q7 -4 13 -8
t14 -12q16 16 30.5 21.5t35.5 5.5q29 0 49.5 -18.5t20.5 -46.5v-359zM379 194v169q-9 -12 -34 -24q-20 -9 -39 -11q14 -12 14 -34q0 -59 -107.5 -75t-107.5 -45q0 -27 46 -46q36 -14 61 -14q74 0 120.5 26.5t46.5 53.5zM360 57q0 7 -8 13.5t-26 6.5q-13 0 -31 -3.5
t-33 -17.5l28 -13l32 -4q19 0 28 5.5t10 12.5zM194 56l-30 19q-17 9 -38 9q-15 0 -28 -6t-13 -15q0 -13 16 -22q9 -4 16.5 -6t18.5 -2q27 0 40 7.5t18 15.5z" />
    <glyph glyph-name="quotedblleft" unicode="&#x201c;" horiz-adv-x="461" 
d="M201 612q-14 -9 -23 -15.5t-21 -17.5q-30 -27 -30 -55q25 -9 37 -24t12 -38t-18 -40q-18 -15 -39 -15q-30 0 -44.5 24.5t-14.5 52.5q0 43 33 84t90 69zM361 612q-14 -9 -23 -15.5t-21 -17.5q-30 -27 -30 -55q25 -9 37 -24t12 -38t-18 -40q-18 -15 -39 -15
q-30 0 -44.5 24.5t-14.5 52.5q0 43 33 84t90 69z" />
    <glyph glyph-name="quotedblright" unicode="&#x201d;" horiz-adv-x="461" 
d="M241 566q0 -43 -32 -82.5t-91 -70.5l-18 25q14 9 23 15.5t21 17.5q30 27 30 55q-26 9 -37.5 24t-11.5 38q0 24 18.5 39.5t38.5 15.5q30 0 46 -26q13 -23 13 -51zM401 566q0 -43 -32 -82.5t-91 -70.5l-18 25q14 9 23 15.5t21 17.5q30 27 30 55q-26 9 -37.5 24t-11.5 38
q0 24 18.5 39.5t38.5 15.5q30 0 46 -26q13 -23 13 -51z" />
    <glyph glyph-name="quotedblbase" unicode="&#x201e;" horiz-adv-x="526" 
d="M516 336q0 -17 -20 -35.5t-54 -18.5q-15 0 -33 15q-22 20 -22 52q0 20 5 31.5t11 17.5q0 7 -25 29q-64 53 -146 53q-57 0 -104 -31t-47 -80q0 -28 17 -44l21 26q25 26 50 32l16 -39q-12 -4 -30 -21q-27 -24 -27 -53q0 -27 23 -49q25 -20 68 -20q35 0 58 13q30 17 30 46
q0 13 -11 25l-20 17l-66 -51l-27 39l153 108l23 -36l-46 -34l23 -17q18 -20 18 -51q0 -20 -8 -36t-22 -30q7 -2 15 -10l18 -13v20h46v-195h-46v17l-20 -11q-38 -16 -77 -16q-41 0 -61 14q-20 12 -33 43l-17 -9l-10 -8q9 -11 9 -16q0 -13 -13 -19q-8 -3 -23 -5l-15 4
q-15 6 -16 20q0 25 17.5 43.5t56.5 33.5q-15 10 -21 18t-6 17q0 12 6 27l15 28q-39 18 -52 41q-8 15 -12 53q-14 3 -32 27q-23 31 -23 66q0 47 45 95q57 59 152 59q38 0 89.5 -11t81.5 -34q12 -9 26 -26q16 -16 24 -31l36 -12q32 -20 32 -68zM468 345q0 6 -5 10.5t-8 5.5
t-4 2q-7 0 -11 -6t-6 -15q0 -17 17 -17t17 20zM357 70v25q0 29 -24 47q-24 16 -57 16h-26zM233 117l-37 37q-12 -11 -14 -22q1 -4 1.5 -6.5t7 -10t16.5 -8.5l9 2zM310 46q-16 19 -33 29l-13 5q-17 0 -32 -15l-9 -15l14 -9q7 -3 24 -5l27 3z" />
    <glyph glyph-name="dagger" unicode="&#x2020;" 
d="M49 -91q0 -15 -5.5 -30t-8 -19t-9.5 -15l-34 20l12 21q6 11 6 24q0 25 -23 44q-23 17 -47 17q-21 0 -43 -12t-22 -33q0 -19 8 -28q3 7 11 12l20 14l20 -31l-17 -12q-10 -10 -10 -23q0 -7 6 -11.5t15 -6.5l10 3q2 1 3.5 3t2.5 3v37h39v-102h-39v21l-22 -4l-11 2l-10 -11
l106 -24l-16 -35l-157 34v17l46 41l-9 19l-3 17q-18 10 -26 30q-5 16 -7 34q0 35 33 61q33 24 72 24q44 0 76.5 -29.5t32.5 -71.5z" />
    <glyph glyph-name="daggerdbl" unicode="&#x2021;" horiz-adv-x="484" 
d="M474 322q0 -42 -24 -89l-48 27q8 10 14 25.5t6 34.5q0 66 -56 113q-52 43 -114 43q-58 0 -108 -28q-62 -35 -62 -90q0 -14 6 -25l12 -11l12 16q20 24 53 43l28 -32q-19 -11 -41 -36q-18 -24 -18 -42l7 -17q24 -38 92 -38q22 0 52 11t30 30q0 13 -12.5 25t-28.5 12
l-45 -45l-30 28l124 123l31 -27l-55 -54q30 0 49 -19t19 -45q0 -5 -4.5 -13.5t-9.5 -14.5l-23 -25q39 -15 51 -24q38 -26 38 -67q0 -16 -8 -31.5t-22 -28.5l-29 24q5 3 14 16l7 18q0 18 -45 43t-95 25q-40 0 -74 -10q-54 -15 -54 -46q0 -9 6 -19t20 -12l13 21q11 14 31 23
l24 -31l-18 -13q-13 -13 -13 -29q0 -13 13.5 -27t37.5 -14q19 0 33.5 10.5t14.5 27.5l-3 5q-1 3 -3 4t-3 2l-25 -12l-15 31l96 47l16 -31l-33 -16q9 -4 15 -11t6 -14q0 -23 -22 -48q-29 -33 -78 -33q-25 0 -49 14q-33 18 -40 49q-14 0 -37 19q-31 26 -31 64q0 31 20 51
q10 10 35 23q-14 7 -27 26t-13 39l1 10l-19 11q-36 27 -36 73q0 66 65.5 111.5t149.5 45.5q86 0 152 -47q77 -54 77 -149z" />
    <glyph glyph-name="ellipsis" unicode="&#x2026;" horiz-adv-x="478" 
d="M468 251h-51v59q0 16 -2 25l-4 21q-13 39 -62 77q-55 41 -108 41q-66 0 -113 -49t-47 -108l6 -43q6 -30 16 -36l12 8q11 6 18 6q23 0 41 -9.5t32 -24.5q5 6 24 20q19 12 35 14q52 0 73 -43q15 -32 15 -92q0 -76 -26 -106q-22 -25 -61 -25q-21 0 -39 12q-12 8 -21 21
q-15 -18 -31 -25q-8 -4 -15 -6t-17 -2q-43 0 -63 39q-19 41 -19 109v12.5t4.5 22.5t7.5 21q-16 12 -30 50q-13 41 -13 70q0 86 61 147t145 61q56 0 102 -20t79 -65v85h51v-267zM307 120q0 43 -11 64q-9 21 -28 21q-16 0 -28 -23q-10 -23 -10 -60q0 -38 9.5 -62t28.5 -24
q24 0 35 39zM184 114q0 48 -11.5 69.5t-29.5 21.5q-19 0 -28 -32q-4 -16 -6 -29t-2 -30q0 -32 7.5 -56.5t31.5 -24.5q23 0 33 40z" />
    <glyph glyph-name="perthousand" unicode="&#x2030;" horiz-adv-x="474" 
d="M464 148q0 -11 -10 -22l-24 -21l14 -15q9 -13 11 -26q0 -32 -30.5 -50.5t-80.5 -18.5q-55 0 -96 28q-54 36 -54 102q-66 0 -115 53.5t-49 129.5q0 57 39 91t99 34v20q0 22 23 42q13 11 29 17t35 6q36 0 62.5 -14t52.5 -46v60h46v-310q20 -3 34 -20t14 -40zM414 146
q0 5 -10 11l-22 4q-15 0 -30 -9l-17 -13l-25 30q9 14 24 24q21 15 36 15v161q0 18 -27 57q-33 48 -76 48q-19 0 -35 -9t-16 -26q0 -10 9 -15q33 -13 49 -31l-22 -40q-12 9 -21.5 15t-21.5 11q-27 10 -50 10q-29 0 -55.5 -20t-26.5 -40l3 -19q9 5 34 10l40 5q60 0 98 -25
q43 -29 43 -83q0 -40 -22 -63q-13 -13 -32 -21q-6 -15 -6 -27q0 -33 39 -59q33 -21 74 -21q28 0 46 15l11 15q0 12 -11.5 19.5t-26.5 9.5h-27v37h28q10 0 15 1t16 6q15 8 15 17zM244 209q0 29 -33 50q-35 19 -65 19q-17 0 -38 -8t-22 -21q0 -30 37.5 -57t68.5 -27
q18 0 35 13.5t17 30.5z" />
    <glyph glyph-name="guilsinglleft" unicode="&#x2039;" horiz-adv-x="488" 
d="M478 -2h-81q-59 22 -85.5 54.5t-26.5 85.5q0 42 26.5 74t69.5 32v128l-31 58q-34 49 -66 49q-20 0 -30 -14.5t-10 -33.5q0 -17 24 -38l39 -33l-27 -38q-12 15 -36 30q-34 20 -70 20q-23 0 -59 -18q-45 -22 -40 -57q16 8 41 8q57 0 104 -41q42 -38 42 -74q0 -42 -22 -74
q-26 -37 -71 -37q-81 0 -123 84q-12 23 -26 84q0 78 41 124.5t103 46.5l30 -3l4 41q9 62 81 62q33 0 59 -17q15 -9 43 -40v57h46v-287q14 -3 27 -24q4 -5 8.5 -17t4.5 -30q0 -25 -11.5 -44t-28.5 -28l-35 -10l-34 -8q14 -18 38 -24t58 -6h24v-42zM417 165q0 8 -14.5 18.5
t-28.5 12.5q-15 0 -27.5 -19t-12.5 -43l3 -19l24 -4q25 0 42 20q14 16 14 34zM207 180q0 35 -36.5 55.5t-79.5 20.5l-15 -1q-3 -4 -5 -18q0 -32 28.5 -72t60.5 -40q26 0 39 25q6 13 8 30z" />
    <glyph glyph-name="guilsinglright" unicode="&#x203a;" horiz-adv-x="467" 
d="M457 117l-14 -44l-216 45l-36 -34l241 -55l-13 -45l-320 71l80 74l-90 19v28l46 42q-15 2 -40 16q-65 39 -65 115q0 77 69 128q58 41 117 41q45 0 88 -23q45 -22 72 -56v79h46v-393zM376 135v222q0 20 -46 65q-54 51 -108 51q-63 0 -105 -48q-35 -40 -35 -80
q0 -23 28.5 -54.5t67.5 -31.5l86 80l36 -37l-132 -123z" />
    <glyph glyph-name="trademark" unicode="&#x2122;" horiz-adv-x="497" 
d="M569 -65l-19 -41l-278 109l148 89v253q0 24 -49 72q-59 57 -120 57q-69 0 -121 -52q-47 -49 -47 -102q0 -30 28.5 -68.5t63.5 -38.5q20 18 50 37q44 27 78 27l11 -44q-60 -15 -114 -71q-49 -51 -49 -78q7 -3 9 -5q15 -12 15 -35q0 -27 -40 -27q-15 0 -27 15
q-10 17 -10 39q0 29 14 58q10 22 25 41q-48 18 -75 55q-32 43 -32 98q0 76 60 133q67 62 171 62q49 0 93 -25q35 -20 66 -55v80h47v-441l-104 -60z" />
    <glyph glyph-name="uniE000" unicode="&#xe000;" horiz-adv-x="520" 
d="M0 520h520v-520h-520v520z" />
  </font>
</defs>
</svg>
